<svg version="1.1" viewBox="0.0 0.0 470.0 292.0" fill="none" stroke="none" stroke-linecap="square" stroke-miterlimit="10" width="470" height="292" xmlns:xlink="http://www.w3.org/1999/xlink" xmlns="http://www.w3.org/2000/svg"><path fill="#ffffff" d="M0 0L470.0 0L470.0 292.0L0 292.0L0 0Z" fill-rule="nonzero"/><path fill="#34a853" d="M57.597626 88.17617C75.50531 75.11883 97.095764 68.083336 119.25833 68.083336L119.25833 172.74167Z" fill-rule="nonzero"/><path fill="#ff9900" d="M32.893265 113.62787C39.619965 103.80018 47.974712 95.19269 57.597626 88.17617L119.25833 172.74167Z" fill-rule="nonzero"/><path fill="#ea4335" d="M65.77597 262.7028C40.919926 247.92574 23.285475 223.52318 17.05677 195.28513C10.828067 167.04707 16.560259 137.49033 32.893265 113.62787L119.25833 172.74167Z" fill-rule="nonzero"/><path fill="#4285f4" d="M119.25833 68.083336C163.41985 68.083336 202.82915 95.80321 217.75648 137.36539C232.68382 178.92755 219.91653 225.38701 185.8464 253.48444C151.77628 281.58188 103.73587 285.27014 65.77597 262.7028L119.25833 172.74167Z" fill-rule="nonzero"/><path fill="#ffffff" d="M188.96652 197.07146L188.96652 198.25896L182.34152 198.25896Q182.3259 197.82146 182.48215 197.39958Q182.74777 196.7277 183.29465 196.07146Q183.85715 195.4152 184.90402 194.55583Q186.54465 193.21208 187.10715 192.43083Q187.68527 191.64958 187.68527 190.94646Q187.68527 190.21208 187.15402 189.71208Q186.6384 189.21208 185.81027 189.21208Q184.91965 189.21208 184.37277 189.74333Q183.84152 190.27458 183.84152 191.2277L182.5759 191.08708Q182.7009 189.68083 183.54465 188.94646Q184.40402 188.19646 185.8259 188.19646Q187.27902 188.19646 188.10715 188.99333Q188.9509 189.7902 188.9509 190.9777Q188.9509 191.58708 188.7009 192.1652Q188.46652 192.74333 187.8884 193.38396Q187.3259 194.02458 185.99777 195.14958Q184.8884 196.07146 184.5759 196.4152Q184.2634 196.74333 184.06027 197.07146L188.96652 197.07146ZM195.1384 198.25896L193.90402 198.25896L193.90402 190.4152Q193.46652 190.83708 192.73215 191.27458Q192.0134 191.69646 191.4509 191.89958L191.4509 190.71208Q192.48215 190.2277 193.24777 189.5402Q194.02902 188.8527 194.34152 188.19646L195.1384 188.19646L195.1384 198.25896ZM204.8884 190.69646L203.66965 190.7902Q203.49777 190.05583 203.2009 189.7277Q202.7009 189.21208 201.96652 189.21208Q201.37277 189.21208 200.93527 189.5402Q200.35715 189.96208 200.0134 190.77458Q199.68527 191.58708 199.66965 193.08708Q200.10715 192.4152 200.74777 192.08708Q201.40402 191.75896 202.10715 191.75896Q203.34152 191.75896 204.2009 192.6652Q205.06027 193.57146 205.06027 195.00896Q205.06027 195.94646 204.65402 196.75896Q204.24777 197.57146 203.52902 198.00896Q202.8259 198.43083 201.91965 198.43083Q200.3884 198.43083 199.41965 197.30583Q198.4509 196.1652 198.4509 193.57146Q198.4509 190.6652 199.5134 189.33708Q200.4509 188.19646 202.04465 188.19646Q203.23215 188.19646 203.98215 188.86833Q204.73215 189.52458 204.8884 190.69646ZM199.85715 195.00896Q199.85715 195.64958 200.12277 196.2277Q200.40402 196.80583 200.8884 197.11833Q201.37277 197.4152 201.90402 197.4152Q202.68527 197.4152 203.24777 196.7902Q203.81027 196.1652 203.81027 195.08708Q203.81027 194.0402 203.24777 193.44646Q202.7009 192.83708 201.85715 192.83708Q201.02902 192.83708 200.43527 193.44646Q199.85715 194.0402 199.85715 195.00896Z" fill-rule="nonzero"/><path fill="#ffffff" d="M32.24141 193.02747L33.42891 192.91809Q33.569534 193.74622 33.99141 194.12122Q34.42891 194.49622 35.08516 194.49622Q35.64766 194.49622 36.069534 194.24622Q36.507034 193.98059 36.77266 193.54309Q37.05391 193.10559 37.24141 192.37122Q37.42891 191.63684 37.42891 190.87122Q37.42891 190.79309 37.413284 190.62122Q37.05391 191.21497 36.413284 191.58997Q35.77266 191.94934 35.02266 191.94934Q33.77266 191.94934 32.913284 191.04309Q32.05391 190.13684 32.05391 188.66809Q32.05391 187.13684 32.944534 186.21497Q33.850784 185.27747 35.21016 185.27747Q36.17891 185.27747 36.99141 185.80872Q37.80391 186.32434 38.225784 187.30872Q38.64766 188.27747 38.64766 190.12122Q38.64766 192.04309 38.225784 193.18372Q37.819534 194.32434 36.99141 194.91809Q36.163284 195.51184 35.05391 195.51184Q33.882034 195.51184 33.132034 194.85559Q32.39766 194.19934 32.24141 193.02747ZM37.27266 188.60559Q37.27266 187.54309 36.71016 186.91809Q36.14766 186.29309 35.36641 186.29309Q34.538284 186.29309 33.92891 186.96497Q33.319534 187.63684 33.319534 188.69934Q33.319534 189.65247 33.89766 190.26184Q34.475784 190.85559 35.319534 190.85559Q36.17891 190.85559 36.725784 190.26184Q37.27266 189.65247 37.27266 188.60559ZM46.444534 187.77747L45.225784 187.87122Q45.05391 187.13684 44.757034 186.80872Q44.257034 186.29309 43.52266 186.29309Q42.92891 186.29309 42.49141 186.62122Q41.913284 187.04309 41.569534 187.85559Q41.24141 188.66809 41.225784 190.16809Q41.663284 189.49622 42.30391 189.16809Q42.96016 188.83997 43.663284 188.83997Q44.89766 188.83997 45.757034 189.74622Q46.61641 190.65247 46.61641 192.08997Q46.61641 193.02747 46.21016 193.83997Q45.80391 194.65247 45.08516 195.08997Q44.382034 195.51184 43.475784 195.51184Q41.944534 195.51184 40.975784 194.38684Q40.007034 193.24622 40.007034 190.65247Q40.007034 187.74622 41.069534 186.41809Q42.007034 185.27747 43.600784 185.27747Q44.788284 185.27747 45.538284 185.94934Q46.288284 186.60559 46.444534 187.77747ZM41.413284 192.08997Q41.413284 192.73059 41.67891 193.30872Q41.96016 193.88684 42.444534 194.19934Q42.92891 194.49622 43.46016 194.49622Q44.24141 194.49622 44.80391 193.87122Q45.36641 193.24622 45.36641 192.16809Q45.36641 191.12122 44.80391 190.52747Q44.257034 189.91809 43.413284 189.91809Q42.58516 189.91809 41.99141 190.52747Q41.413284 191.12122 41.413284 192.08997Z" fill-rule="nonzero"/><path fill="#ffffff" d="M61.943577 121.84748L61.943577 123.03498L55.318577 123.03498Q55.30295 122.59748 55.4592 122.175606Q55.724827 121.50373 56.2717 120.84748Q56.8342 120.19123 57.881077 119.331856Q59.5217 117.988106 60.0842 117.206856Q60.662327 116.425606 60.662327 115.72248Q60.662327 114.988106 60.131077 114.488106Q59.61545 113.988106 58.787327 113.988106Q57.8967 113.988106 57.349827 114.519356Q56.818577 115.050606 56.818577 116.00373L55.55295 115.863106Q55.67795 114.456856 56.5217 113.72248Q57.381077 112.97248 58.80295 112.97248Q60.256077 112.97248 61.0842 113.769356Q61.92795 114.56623 61.92795 115.75373Q61.92795 116.363106 61.67795 116.94123Q61.443577 117.519356 60.86545 118.15998Q60.30295 118.800606 58.974827 119.925606Q57.86545 120.84748 57.55295 121.19123Q57.24045 121.519356 57.037327 121.84748L61.943577 121.84748ZM63.474827 118.09748Q63.474827 116.31623 63.8342 115.238106Q64.2092 114.144356 64.92795 113.56623Q65.6467 112.97248 66.74045 112.97248Q67.55295 112.97248 68.16232 113.300606Q68.7717 113.62873 69.16232 114.238106Q69.56857 114.84748 69.78732 115.72248Q70.00607 116.59748 70.00607 118.09748Q70.00607 119.863106 69.6467 120.94123Q69.28732 122.019356 68.56857 122.613106Q67.84982 123.206856 66.74045 123.206856Q65.30295 123.206856 64.47482 122.15998Q63.474827 120.90998 63.474827 118.09748ZM64.74045 118.09748Q64.74045 120.56623 65.31857 121.37873Q65.8967 122.19123 66.74045 122.19123Q67.59982 122.19123 68.17795 121.37873Q68.75607 120.550606 68.75607 118.09748Q68.75607 115.613106 68.17795 114.800606Q67.59982 113.988106 66.72482 113.988106Q65.88107 113.988106 65.38107 114.706856Q64.74045 115.62873 64.74045 118.09748Z" fill-rule="nonzero"/><path fill="#ffffff" d="M86.84644 98.363945L88.06519 98.19207Q88.28394 99.238945 88.78394 99.707695Q89.29957 100.16082 90.03394 100.16082Q90.90894 100.16082 91.50269 99.56707Q92.09644 98.957695 92.09644 98.06707Q92.09644 97.22332 91.53394 96.676445Q90.98707 96.12957 90.14332 96.12957Q89.78394 96.12957 89.26832 96.25457L89.40894 95.176445Q89.53394 95.19207 89.59644 95.19207Q90.39332 95.19207 91.01832 94.78582Q91.64332 94.37957 91.64332 93.520195Q91.64332 92.84832 91.19019 92.41082Q90.73707 91.957695 90.00269 91.957695Q89.28394 91.957695 88.79957 92.41082Q88.33082 92.84832 88.19019 93.75457L86.97144 93.53582Q87.19019 92.301445 87.98707 91.62957Q88.78394 90.94207 89.97144 90.94207Q90.79957 90.94207 91.48707 91.301445Q92.17457 91.645195 92.53394 92.25457Q92.90894 92.863945 92.90894 93.551445Q92.90894 94.19207 92.56519 94.72332Q92.22144 95.25457 91.53394 95.582695Q92.42457 95.78582 92.90894 96.426445Q93.40894 97.06707 93.40894 98.051445Q93.40894 99.363945 92.44019 100.270195Q91.48707 101.176445 90.03394 101.176445Q88.70582 101.176445 87.83082 100.395195Q86.97144 99.613945 86.84644 98.363945ZM94.90894 92.301445L94.90894 91.113945L101.40894 91.113945L101.40894 92.06707Q100.44019 93.082695 99.50269 94.770195Q98.56519 96.457695 98.04957 98.25457Q97.69019 99.50457 97.58082 101.00457L96.31519 101.00457Q96.33082 99.81707 96.76832 98.145195Q97.22144 96.47332 98.04957 94.926445Q98.89332 93.363945 99.83082 92.301445L94.90894 92.301445Z" fill-rule="nonzero"/><path fill="#4285f4" d="M249.87111 75.083336C249.87111 78.39704 247.18481 81.083336 243.87111 81.083336C240.5574 81.083336 237.87111 78.39704 237.87111 75.083336C237.87111 71.76962 240.5574 69.083336 243.87111 69.083336C247.18481 69.083336 249.87111 71.76962 249.87111 75.083336Z" fill-rule="nonzero"/><path fill="#1a1a1a" d="M258.793 79.083336L258.793 70.489586L262.043 70.489586Q262.88675 70.489586 263.33987 70.56771Q263.9805 70.677086 264.40237 70.97396Q264.83987 71.270836 265.08987 71.802086Q265.3555 72.333336 265.3555 72.97396Q265.3555 74.06771 264.65237 74.833336Q263.96487 75.583336 262.13675 75.583336L259.93362 75.583336L259.93362 79.083336L258.793 79.083336ZM259.93362 74.583336L262.15237 74.583336Q263.26175 74.583336 263.71487 74.177086Q264.18362 73.75521 264.18362 73.00521Q264.18362 72.47396 263.90237 72.09896Q263.63675 71.708336 263.19925 71.583336Q262.90237 71.50521 262.13675 71.50521L259.93362 71.50521L259.93362 74.583336ZM266.63675 79.083336L266.63675 70.489586L267.69925 70.489586L267.69925 79.083336L266.63675 79.083336ZM273.7305 78.31771Q273.13675 78.81771 272.58987 79.020836Q272.05862 79.22396 271.43362 79.22396Q270.40237 79.22396 269.8555 78.72396Q269.30862 78.22396 269.30862 77.44271Q269.30862 76.989586 269.51175 76.614586Q269.71487 76.22396 270.05862 76.00521Q270.40237 75.770836 270.82425 75.66146Q271.12112 75.56771 271.76175 75.489586Q273.02737 75.34896 273.63675 75.13021Q273.63675 74.91146 273.63675 74.864586Q273.63675 74.208336 273.33987 73.94271Q272.93362 73.59896 272.13675 73.59896Q271.40237 73.59896 271.043 73.864586Q270.68362 74.114586 270.51175 74.770836L269.4805 74.63021Q269.62112 73.97396 269.94925 73.56771Q270.27737 73.16146 270.88675 72.94271Q271.49612 72.72396 272.293 72.72396Q273.08987 72.72396 273.58987 72.91146Q274.08987 73.09896 274.32425 73.38021Q274.55862 73.66146 274.65237 74.09896Q274.69925 74.364586 274.69925 75.06771L274.69925 76.47396Q274.69925 77.94271 274.76175 78.333336Q274.83987 78.72396 275.043 79.083336L273.93362 79.083336Q273.77737 78.75521 273.7305 78.31771ZM273.63675 75.958336Q273.05862 76.19271 271.918 76.364586Q271.26175 76.458336 270.99612 76.583336Q270.7305 76.69271 270.57425 76.91146Q270.43362 77.13021 270.43362 77.41146Q270.43362 77.833336 270.74612 78.114586Q271.07425 78.395836 271.68362 78.395836Q272.293 78.395836 272.76175 78.13021Q273.24612 77.864586 273.46487 77.395836Q273.63675 77.03646 273.63675 76.34896L273.63675 75.958336ZM276.668 79.083336L276.668 72.864586L277.6055 72.864586L277.6055 73.739586Q278.293 72.72396 279.58987 72.72396Q280.15237 72.72396 280.62112 72.927086Q281.1055 73.13021 281.33987 73.458336Q281.57425 73.78646 281.668 74.22396Q281.71487 74.520836 281.71487 75.25521L281.71487 79.083336L280.668 79.083336L280.668 75.302086Q280.668 74.645836 280.543 74.333336Q280.418 74.020836 280.1055 73.833336Q279.793 73.63021 279.37112 73.63021Q278.69925 73.63021 278.19925 74.06771Q277.71487 74.489586 277.71487 75.677086L277.71487 79.083336L276.668 79.083336Z" fill-rule="nonzero"/><path fill="#ea4335" d="M249.87111 99.083336C249.87111 102.39704 247.18481 105.083336 243.87111 105.083336C240.5574 105.083336 237.87111 102.39704 237.87111 99.083336C237.87111 95.76962 240.5574 93.083336 243.87111 93.083336C247.18481 93.083336 249.87111 95.76962 249.87111 99.083336Z" fill-rule="nonzero"/><path fill="#1a1a1a" d="M258.793 103.083336L258.793 94.489586L262.043 94.489586Q262.88675 94.489586 263.33987 94.56771Q263.9805 94.677086 264.40237 94.97396Q264.83987 95.270836 265.08987 95.802086Q265.3555 96.333336 265.3555 96.97396Q265.3555 98.06771 264.65237 98.833336Q263.96487 99.583336 262.13675 99.583336L259.93362 99.583336L259.93362 103.083336L258.793 103.083336ZM259.93362 98.583336L262.15237 98.583336Q263.26175 98.583336 263.71487 98.177086Q264.18362 97.75521 264.18362 97.00521Q264.18362 96.47396 263.90237 96.09896Q263.63675 95.708336 263.19925 95.583336Q262.90237 95.50521 262.13675 95.50521L259.93362 95.50521L259.93362 98.583336ZM266.63675 103.083336L266.63675 94.489586L267.69925 94.489586L267.69925 103.083336L266.63675 103.083336ZM273.7305 102.31771Q273.13675 102.81771 272.58987 103.020836Q272.05862 103.22396 271.43362 103.22396Q270.40237 103.22396 269.8555 102.72396Q269.30862 102.22396 269.30862 101.44271Q269.30862 100.989586 269.51175 100.614586Q269.71487 100.22396 270.05862 100.00521Q270.40237 99.770836 270.82425 99.66146Q271.12112 99.56771 271.76175 99.489586Q273.02737 99.34896 273.63675 99.13021Q273.63675 98.91146 273.63675 98.864586Q273.63675 98.208336 273.33987 97.94271Q272.93362 97.59896 272.13675 97.59896Q271.40237 97.59896 271.043 97.864586Q270.68362 98.114586 270.51175 98.770836L269.4805 98.63021Q269.62112 97.97396 269.94925 97.56771Q270.27737 97.16146 270.88675 96.94271Q271.49612 96.72396 272.293 96.72396Q273.08987 96.72396 273.58987 96.91146Q274.08987 97.09896 274.32425 97.38021Q274.55862 97.66146 274.65237 98.09896Q274.69925 98.364586 274.69925 99.06771L274.69925 100.47396Q274.69925 101.94271 274.76175 102.333336Q274.83987 102.72396 275.043 103.083336L273.93362 103.083336Q273.77737 102.75521 273.7305 102.31771ZM273.63675 99.958336Q273.05862 100.19271 271.918 100.364586Q271.26175 100.458336 270.99612 100.583336Q270.7305 100.69271 270.57425 100.91146Q270.43362 101.13021 270.43362 101.41146Q270.43362 101.833336 270.74612 102.114586Q271.07425 102.395836 271.68362 102.395836Q272.293 102.395836 272.76175 102.13021Q273.24612 101.864586 273.46487 101.395836Q273.63675 101.03646 273.63675 100.34896L273.63675 99.958336ZM276.668 103.083336L276.668 96.864586L277.6055 96.864586L277.6055 97.739586Q278.293 96.72396 279.58987 96.72396Q280.15237 96.72396 280.62112 96.927086Q281.1055 97.13021 281.33987 97.458336Q281.57425 97.78646 281.668 98.22396Q281.71487 98.520836 281.71487 99.25521L281.71487 103.083336L280.668 103.083336L280.668 99.302086Q280.668 98.645836 280.543 98.333336Q280.418 98.020836 280.1055 97.833336Q279.793 97.63021 279.37112 97.63021Q278.69925 97.63021 278.19925 98.06771Q277.71487 98.489586 277.71487 99.677086L277.71487 103.083336L276.668 103.083336ZM288.87112 101.69271L288.87112 99.333336L286.543 99.333336L286.543 98.34896L288.87112 98.34896L288.87112 96.020836L289.87112 96.020836L289.87112 98.34896L292.21487 98.34896L292.21487 99.333336L289.87112 99.333336L289.87112 101.69271L288.87112 101.69271ZM296.793 103.083336L296.793 94.489586L299.76175 94.489586Q300.76175 94.489586 301.293 94.614586Q302.02737 94.78646 302.543 95.22396Q303.2305 95.802086 303.55862 96.708336Q303.90237 97.59896 303.90237 98.739586Q303.90237 99.72396 303.668 100.47396Q303.44925 101.22396 303.08987 101.72396Q302.7305 102.22396 302.293 102.50521Q301.87112 102.78646 301.27737 102.94271Q300.68362 103.083336 299.90237 103.083336L296.793 103.083336ZM297.93362 102.06771L299.76175 102.06771Q300.62112 102.06771 301.1055 101.91146Q301.58987 101.75521 301.87112 101.458336Q302.27737 101.06771 302.49612 100.38021Q302.7305 99.69271 302.7305 98.72396Q302.7305 97.38021 302.27737 96.66146Q301.83987 95.927086 301.21487 95.677086Q300.74612 95.50521 299.74612 95.50521L297.93362 95.50521L297.93362 102.06771ZM305.27737 99.97396Q305.27737 98.239586 306.2305 97.41146Q307.02737 96.72396 308.18362 96.72396Q309.46487 96.72396 310.27737 97.56771Q311.1055 98.395836 311.1055 99.88021Q311.1055 101.083336 310.74612 101.770836Q310.38675 102.458336 309.68362 102.84896Q308.99612 103.22396 308.18362 103.22396Q306.88675 103.22396 306.07425 102.395836Q305.27737 101.552086 305.27737 99.97396ZM306.3555 99.97396Q306.3555 101.16146 306.87112 101.75521Q307.40237 102.34896 308.18362 102.34896Q308.9805 102.34896 309.49612 101.75521Q310.01175 101.16146 310.01175 99.94271Q310.01175 98.78646 309.4805 98.19271Q308.96487 97.59896 308.18362 97.59896Q307.40237 97.59896 306.87112 98.19271Q306.3555 98.770836 306.3555 99.97396ZM312.668 103.083336L312.668 96.864586L313.6055 96.864586L313.6055 97.739586Q313.90237 97.270836 314.38675 97.00521Q314.87112 96.72396 315.49612 96.72396Q316.18362 96.72396 316.62112 97.00521Q317.07425 97.28646 317.24612 97.802086Q317.99612 96.72396 319.168 96.72396Q320.1055 96.72396 320.58987 97.239586Q321.08987 97.739586 321.08987 98.81771L321.08987 103.083336L320.043 103.083336L320.043 99.16146Q320.043 98.53646 319.93362 98.25521Q319.83987 97.97396 319.57425 97.802086Q319.30862 97.63021 318.93362 97.63021Q318.27737 97.63021 317.83987 98.06771Q317.418 98.50521 317.418 99.47396L317.418 103.083336L316.3555 103.083336L316.3555 99.03646Q316.3555 98.333336 316.08987 97.989586Q315.83987 97.63021 315.26175 97.63021Q314.80862 97.63021 314.43362 97.864586Q314.05862 98.09896 313.88675 98.552086Q313.71487 99.00521 313.71487 99.84896L313.71487 103.083336L312.668 103.083336ZM327.7305 102.31771Q327.13675 102.81771 326.58987 103.020836Q326.05862 103.22396 325.43362 103.22396Q324.40237 103.22396 323.8555 102.72396Q323.30862 102.22396 323.30862 101.44271Q323.30862 100.989586 323.51175 100.614586Q323.71487 100.22396 324.05862 100.00521Q324.40237 99.770836 324.82425 99.66146Q325.12112 99.56771 325.76175 99.489586Q327.02737 99.34896 327.63675 99.13021Q327.63675 98.91146 327.63675 98.864586Q327.63675 98.208336 327.33987 97.94271Q326.93362 97.59896 326.13675 97.59896Q325.40237 97.59896 325.043 97.864586Q324.68362 98.114586 324.51175 98.770836L323.4805 98.63021Q323.62112 97.97396 323.94925 97.56771Q324.27737 97.16146 324.88675 96.94271Q325.49612 96.72396 326.293 96.72396Q327.08987 96.72396 327.58987 96.91146Q328.08987 97.09896 328.32425 97.38021Q328.55862 97.66146 328.65237 98.09896Q328.69925 98.364586 328.69925 99.06771L328.69925 100.47396Q328.69925 101.94271 328.76175 102.333336Q328.83987 102.72396 329.043 103.083336L327.93362 103.083336Q327.77737 102.75521 327.7305 102.31771ZM327.63675 99.958336Q327.05862 100.19271 325.918 100.364586Q325.26175 100.458336 324.99612 100.583336Q324.7305 100.69271 324.57425 100.91146Q324.43362 101.13021 324.43362 101.41146Q324.43362 101.833336 324.74612 102.114586Q325.07425 102.395836 325.68362 102.395836Q326.293 102.395836 326.76175 102.13021Q327.24612 101.864586 327.46487 101.395836Q327.63675 101.03646 327.63675 100.34896L327.63675 99.958336ZM330.668 95.708336L330.668 94.489586L331.7305 94.489586L331.7305 95.708336L330.668 95.708336ZM330.668 103.083336L330.668 96.864586L331.7305 96.864586L331.7305 103.083336L330.668 103.083336ZM333.668 103.083336L333.668 96.864586L334.6055 96.864586L334.6055 97.739586Q335.293 96.72396 336.58987 96.72396Q337.15237 96.72396 337.62112 96.927086Q338.1055 97.13021 338.33987 97.458336Q338.57425 97.78646 338.668 98.22396Q338.71487 98.520836 338.71487 99.25521L338.71487 103.083336L337.668 103.083336L337.668 99.302086Q337.668 98.645836 337.543 98.333336Q337.418 98.020836 337.1055 97.833336Q336.793 97.63021 336.37112 97.63021Q335.69925 97.63021 335.19925 98.06771Q334.71487 98.489586 334.71487 99.677086L334.71487 103.083336L333.668 103.083336Z" fill-rule="nonzero"/><path fill="#ff9900" d="M249.87111 123.083336C249.87111 126.39704 247.18481 129.08333 243.87111 129.08333C240.5574 129.08333 237.87111 126.39704 237.87111 123.083336C237.87111 119.76962 240.5574 117.083336 243.87111 117.083336C247.18481 117.083336 249.87111 119.76962 249.87111 123.083336Z" fill-rule="nonzero"/><path fill="#1a1a1a" d="M258.793 127.083336L258.793 118.489586L262.043 118.489586Q262.88675 118.489586 263.33987 118.56771Q263.9805 118.677086 264.40237 118.97396Q264.83987 119.270836 265.08987 119.802086Q265.3555 120.333336 265.3555 120.97396Q265.3555 122.06771 264.65237 122.833336Q263.96487 123.583336 262.13675 123.583336L259.93362 123.583336L259.93362 127.083336L258.793 127.083336ZM259.93362 122.583336L262.15237 122.583336Q263.26175 122.583336 263.71487 122.177086Q264.18362 121.75521 264.18362 121.00521Q264.18362 120.47396 263.90237 120.09896Q263.63675 119.708336 263.19925 119.583336Q262.90237 119.50521 262.13675 119.50521L259.93362 119.50521L259.93362 122.583336ZM266.63675 127.083336L266.63675 118.489586L267.69925 118.489586L267.69925 127.083336L266.63675 127.083336ZM273.7305 126.31771Q273.13675 126.81771 272.58987 127.020836Q272.05862 127.22396 271.43362 127.22396Q270.40237 127.22396 269.8555 126.72396Q269.30862 126.22396 269.30862 125.44271Q269.30862 124.989586 269.51175 124.614586Q269.71487 124.22396 270.05862 124.00521Q270.40237 123.770836 270.82425 123.66146Q271.12112 123.56771 271.76175 123.489586Q273.02737 123.34896 273.63675 123.13021Q273.63675 122.91146 273.63675 122.864586Q273.63675 122.208336 273.33987 121.94271Q272.93362 121.59896 272.13675 121.59896Q271.40237 121.59896 271.043 121.864586Q270.68362 122.114586 270.51175 122.770836L269.4805 122.63021Q269.62112 121.97396 269.94925 121.56771Q270.27737 121.16146 270.88675 120.94271Q271.49612 120.72396 272.293 120.72396Q273.08987 120.72396 273.58987 120.91146Q274.08987 121.09896 274.32425 121.38021Q274.55862 121.66146 274.65237 122.09896Q274.69925 122.364586 274.69925 123.06771L274.69925 124.47396Q274.69925 125.94271 274.76175 126.333336Q274.83987 126.72396 275.043 127.083336L273.93362 127.083336Q273.77737 126.75521 273.7305 126.31771ZM273.63675 123.958336Q273.05862 124.19271 271.918 124.364586Q271.26175 124.458336 270.99612 124.583336Q270.7305 124.69271 270.57425 124.91146Q270.43362 125.13021 270.43362 125.41146Q270.43362 125.833336 270.74612 126.114586Q271.07425 126.395836 271.68362 126.395836Q272.293 126.395836 272.76175 126.13021Q273.24612 125.864586 273.46487 125.395836Q273.63675 125.03646 273.63675 124.34896L273.63675 123.958336ZM276.668 127.083336L276.668 120.864586L277.6055 120.864586L277.6055 121.739586Q278.293 120.72396 279.58987 120.72396Q280.15237 120.72396 280.62112 120.927086Q281.1055 121.13021 281.33987 121.458336Q281.57425 121.78646 281.668 122.22396Q281.71487 122.520836 281.71487 123.25521L281.71487 127.083336L280.668 127.083336L280.668 123.302086Q280.668 122.645836 280.543 122.333336Q280.418 122.020836 280.1055 121.833336Q279.793 121.63021 279.37112 121.63021Q278.69925 121.63021 278.19925 122.06771Q277.71487 122.489586 277.71487 123.677086L277.71487 127.083336L276.668 127.083336ZM288.87112 125.69271L288.87112 123.333336L286.543 123.333336L286.543 122.34896L288.87112 122.34896L288.87112 120.020836L289.87112 120.020836L289.87112 122.34896L292.21487 122.34896L292.21487 123.333336L289.87112 123.333336L289.87112 125.69271L288.87112 125.69271ZM296.793 127.083336L296.793 118.489586L299.76175 118.489586Q300.76175 118.489586 301.293 118.614586Q302.02737 118.78646 302.543 119.22396Q303.2305 119.802086 303.55862 120.708336Q303.90237 121.59896 303.90237 122.739586Q303.90237 123.72396 303.668 124.47396Q303.44925 125.22396 303.08987 125.72396Q302.7305 126.22396 302.293 126.50521Q301.87112 126.78646 301.27737 126.94271Q300.68362 127.083336 299.90237 127.083336L296.793 127.083336ZM297.93362 126.06771L299.76175 126.06771Q300.62112 126.06771 301.1055 125.91146Q301.58987 125.75521 301.87112 125.458336Q302.27737 125.06771 302.49612 124.38021Q302.7305 123.69271 302.7305 122.72396Q302.7305 121.38021 302.27737 120.66146Q301.83987 119.927086 301.21487 119.677086Q300.74612 119.50521 299.74612 119.50521L297.93362 119.50521L297.93362 126.06771ZM305.27737 123.97396Q305.27737 122.239586 306.2305 121.41146Q307.02737 120.72396 308.18362 120.72396Q309.46487 120.72396 310.27737 121.56771Q311.1055 122.395836 311.1055 123.88021Q311.1055 125.083336 310.74612 125.770836Q310.38675 126.458336 309.68362 126.84896Q308.99612 127.22396 308.18362 127.22396Q306.88675 127.22396 306.07425 126.395836Q305.27737 125.552086 305.27737 123.97396ZM306.3555 123.97396Q306.3555 125.16146 306.87112 125.75521Q307.40237 126.34896 308.18362 126.34896Q308.9805 126.34896 309.49612 125.75521Q310.01175 125.16146 310.01175 123.94271Q310.01175 122.78646 309.4805 122.19271Q308.96487 121.59896 308.18362 121.59896Q307.40237 121.59896 306.87112 122.19271Q306.3555 122.770836 306.3555 123.97396ZM312.668 127.083336L312.668 120.864586L313.6055 120.864586L313.6055 121.739586Q313.90237 121.270836 314.38675 121.00521Q314.87112 120.72396 315.49612 120.72396Q316.18362 120.72396 316.62112 121.00521Q317.07425 121.28646 317.24612 121.802086Q317.99612 120.72396 319.168 120.72396Q320.1055 120.72396 320.58987 121.239586Q321.08987 121.739586 321.08987 122.81771L321.08987 127.083336L320.043 127.083336L320.043 123.16146Q320.043 122.53646 319.93362 122.25521Q319.83987 121.97396 319.57425 121.802086Q319.30862 121.63021 318.93362 121.63021Q318.27737 121.63021 317.83987 122.06771Q317.418 122.50521 317.418 123.47396L317.418 127.083336L316.3555 127.083336L316.3555 123.03646Q316.3555 122.333336 316.08987 121.989586Q315.83987 121.63021 315.26175 121.63021Q314.80862 121.63021 314.43362 121.864586Q314.05862 122.09896 313.88675 122.552086Q313.71487 123.00521 313.71487 123.84896L313.71487 127.083336L312.668 127.083336ZM327.7305 126.31771Q327.13675 126.81771 326.58987 127.020836Q326.05862 127.22396 325.43362 127.22396Q324.40237 127.22396 323.8555 126.72396Q323.30862 126.22396 323.30862 125.44271Q323.30862 124.989586 323.51175 124.614586Q323.71487 124.22396 324.05862 124.00521Q324.40237 123.770836 324.82425 123.66146Q325.12112 123.56771 325.76175 123.489586Q327.02737 123.34896 327.63675 123.13021Q327.63675 122.91146 327.63675 122.864586Q327.63675 122.208336 327.33987 121.94271Q326.93362 121.59896 326.13675 121.59896Q325.40237 121.59896 325.043 121.864586Q324.68362 122.114586 324.51175 122.770836L323.4805 122.63021Q323.62112 121.97396 323.94925 121.56771Q324.27737 121.16146 324.88675 120.94271Q325.49612 120.72396 326.293 120.72396Q327.08987 120.72396 327.58987 120.91146Q328.08987 121.09896 328.32425 121.38021Q328.55862 121.66146 328.65237 122.09896Q328.69925 122.364586 328.69925 123.06771L328.69925 124.47396Q328.69925 125.94271 328.76175 126.333336Q328.83987 126.72396 329.043 127.083336L327.93362 127.083336Q327.77737 126.75521 327.7305 126.31771ZM327.63675 123.958336Q327.05862 124.19271 325.918 124.364586Q325.26175 124.458336 324.99612 124.583336Q324.7305 124.69271 324.57425 124.91146Q324.43362 125.13021 324.43362 125.41146Q324.43362 125.833336 324.74612 126.114586Q325.07425 126.395836 325.68362 126.395836Q326.293 126.395836 326.76175 126.13021Q327.24612 125.864586 327.46487 125.395836Q327.63675 125.03646 327.63675 124.34896L327.63675 123.958336ZM330.668 119.708336L330.668 118.489586L331.7305 118.489586L331.7305 119.708336L330.668 119.708336ZM330.668 127.083336L330.668 120.864586L331.7305 120.864586L331.7305 127.083336L330.668 127.083336ZM333.668 127.083336L333.668 120.864586L334.6055 120.864586L334.6055 121.739586Q335.293 120.72396 336.58987 120.72396Q337.15237 120.72396 337.62112 120.927086Q338.1055 121.13021 338.33987 121.458336Q338.57425 121.78646 338.668 122.22396Q338.71487 122.520836 338.71487 123.25521L338.71487 127.083336L337.668 127.083336L337.668 123.302086Q337.668 122.645836 337.543 122.333336Q337.418 122.020836 337.1055 121.833336Q336.793 121.63021 336.37112 121.63021Q335.69925 121.63021 335.19925 122.06771Q334.71487 122.489586 334.71487 123.677086L334.71487 127.083336L333.668 127.083336ZM345.87112 125.69271L345.87112 123.333336L343.543 123.333336L343.543 122.34896L345.87112 122.34896L345.87112 120.020836L346.87112 120.020836L346.87112 122.34896L349.21487 122.34896L349.21487 123.333336L346.87112 123.333336L346.87112 125.69271L345.87112 125.69271ZM353.793 127.083336L353.793 118.489586L357.043 118.489586Q357.88675 118.489586 358.33987 118.56771Q358.9805 118.677086 359.40237 118.97396Q359.83987 119.270836 360.08987 119.802086Q360.3555 120.333336 360.3555 120.97396Q360.3555 122.06771 359.65237 122.833336Q358.96487 123.583336 357.13675 123.583336L354.93362 123.583336L354.93362 127.083336L353.793 127.083336ZM354.93362 122.583336L357.15237 122.583336Q358.26175 122.583336 358.71487 122.177086Q359.18362 121.75521 359.18362 121.00521Q359.18362 120.47396 358.90237 120.09896Q358.63675 119.708336 358.19925 119.583336Q357.90237 119.50521 357.13675 119.50521L354.93362 119.50521L354.93362 122.583336ZM361.65237 127.083336L361.65237 120.864586L362.6055 120.864586L362.6055 121.802086Q362.96487 121.145836 363.26175 120.94271Q363.57425 120.72396 363.94925 120.72396Q364.4805 120.72396 365.02737 121.052086L364.668 122.03646Q364.27737 121.802086 363.90237 121.802086Q363.543 121.802086 363.26175 122.020836Q362.99612 122.22396 362.88675 122.59896Q362.69925 123.16146 362.69925 123.81771L362.69925 127.083336L361.65237 127.083336ZM365.27737 123.97396Q365.27737 122.239586 366.2305 121.41146Q367.02737 120.72396 368.18362 120.72396Q369.46487 120.72396 370.27737 121.56771Q371.1055 122.395836 371.1055 123.88021Q371.1055 125.083336 370.74612 125.770836Q370.38675 126.458336 369.68362 126.84896Q368.99612 127.22396 368.18362 127.22396Q366.88675 127.22396 366.07425 126.395836Q365.27737 125.552086 365.27737 123.97396ZM366.3555 123.97396Q366.3555 125.16146 366.87112 125.75521Q367.40237 126.34896 368.18362 126.34896Q368.9805 126.34896 369.49612 125.75521Q370.01175 125.16146 370.01175 123.94271Q370.01175 122.78646 369.4805 122.19271Q368.96487 121.59896 368.18362 121.59896Q367.40237 121.59896 366.87112 122.19271Q366.3555 122.770836 366.3555 123.97396ZM372.918 127.083336L372.918 121.677086L371.9805 121.677086L371.9805 120.864586L372.918 120.864586L372.918 120.19271Q372.918 119.56771 373.02737 119.270836Q373.18362 118.84896 373.55862 118.59896Q373.94925 118.34896 374.63675 118.34896Q375.08987 118.34896 375.62112 118.458336L375.46487 119.364586Q375.13675 119.31771 374.83987 119.31771Q374.3555 119.31771 374.15237 119.520836Q373.96487 119.72396 373.96487 120.28646L373.96487 120.864586L375.18362 120.864586L375.18362 121.677086L373.96487 121.677086L373.96487 127.083336L372.918 127.083336ZM379.918 125.083336L381.01175 125.208336Q380.76175 126.16146 380.05862 126.69271Q379.3555 127.22396 378.27737 127.22396Q376.918 127.22396 376.1055 126.38021Q375.30862 125.53646 375.30862 124.020836Q375.30862 122.458336 376.12112 121.59896Q376.93362 120.72396 378.21487 120.72396Q379.46487 120.72396 380.24612 121.56771Q381.043 122.41146 381.043 123.958336Q381.043 124.052086 381.043 124.239586L376.40237 124.239586Q376.46487 125.270836 376.9805 125.81771Q377.49612 126.34896 378.27737 126.34896Q378.8555 126.34896 379.26175 126.052086Q379.68362 125.739586 379.918 125.083336ZM376.46487 123.38021L379.93362 123.38021Q379.87112 122.583336 379.543 122.19271Q379.02737 121.583336 378.2305 121.583336Q377.49612 121.583336 376.99612 122.06771Q376.51175 122.552086 376.46487 123.38021ZM382.24612 125.22396L383.27737 125.06771Q383.37112 125.69271 383.76175 126.020836Q384.168 126.34896 384.90237 126.34896Q385.62112 126.34896 385.96487 126.06771Q386.32425 125.770836 386.32425 125.364586Q386.32425 125.00521 386.01175 124.802086Q385.793 124.66146 384.93362 124.44271Q383.77737 124.145836 383.32425 123.94271Q382.88675 123.72396 382.65237 123.34896Q382.418 122.97396 382.418 122.50521Q382.418 122.09896 382.6055 121.739586Q382.793 121.38021 383.12112 121.145836Q383.37112 120.97396 383.793 120.84896Q384.21487 120.72396 384.71487 120.72396Q385.43362 120.72396 385.9805 120.94271Q386.543 121.145836 386.80862 121.50521Q387.07425 121.864586 387.168 122.458336L386.13675 122.59896Q386.07425 122.13021 385.7305 121.864586Q385.40237 121.583336 384.77737 121.583336Q384.05862 121.583336 383.74612 121.833336Q383.43362 122.06771 383.43362 122.395836Q383.43362 122.59896 383.55862 122.75521Q383.69925 122.927086 383.96487 123.03646Q384.12112 123.09896 384.90237 123.302086Q386.02737 123.614586 386.46487 123.802086Q386.90237 123.989586 387.15237 124.34896Q387.40237 124.708336 387.40237 125.25521Q387.40237 125.78646 387.08987 126.25521Q386.793 126.708336 386.21487 126.97396Q385.63675 127.22396 384.90237 127.22396Q383.68362 127.22396 383.043 126.72396Q382.418 126.208336 382.24612 125.22396ZM389.24612 125.22396L390.27737 125.06771Q390.37112 125.69271 390.76175 126.020836Q391.168 126.34896 391.90237 126.34896Q392.62112 126.34896 392.96487 126.06771Q393.32425 125.770836 393.32425 125.364586Q393.32425 125.00521 393.01175 124.802086Q392.793 124.66146 391.93362 124.44271Q390.77737 124.145836 390.32425 123.94271Q389.88675 123.72396 389.65237 123.34896Q389.418 122.97396 389.418 122.50521Q389.418 122.09896 389.6055 121.739586Q389.793 121.38021 390.12112 121.145836Q390.37112 120.97396 390.793 120.84896Q391.21487 120.72396 391.71487 120.72396Q392.43362 120.72396 392.9805 120.94271Q393.543 121.145836 393.80862 121.50521Q394.07425 121.864586 394.168 122.458336L393.13675 122.59896Q393.07425 122.13021 392.7305 121.864586Q392.40237 121.583336 391.77737 121.583336Q391.05862 121.583336 390.74612 121.833336Q390.43362 122.06771 390.43362 122.395836Q390.43362 122.59896 390.55862 122.75521Q390.69925 122.927086 390.96487 123.03646Q391.12112 123.09896 391.90237 123.302086Q393.02737 123.614586 393.46487 123.802086Q393.90237 123.989586 394.15237 124.34896Q394.40237 124.708336 394.40237 125.25521Q394.40237 125.78646 394.08987 126.25521Q393.793 126.708336 393.21487 126.97396Q392.63675 127.22396 391.90237 127.22396Q390.68362 127.22396 390.043 126.72396Q389.418 126.208336 389.24612 125.22396ZM396.668 119.708336L396.668 118.489586L397.7305 118.489586L397.7305 119.708336L396.668 119.708336ZM396.668 127.083336L396.668 120.864586L397.7305 120.864586L397.7305 127.083336L396.668 127.083336ZM399.27737 123.97396Q399.27737 122.239586 400.2305 121.41146Q401.02737 120.72396 402.18362 120.72396Q403.46487 120.72396 404.27737 121.56771Q405.1055 122.395836 405.1055 123.88021Q405.1055 125.083336 404.74612 125.770836Q404.38675 126.458336 403.68362 126.84896Q402.99612 127.22396 402.18362 127.22396Q400.88675 127.22396 400.07425 126.395836Q399.27737 125.552086 399.27737 123.97396ZM400.3555 123.97396Q400.3555 125.16146 400.87112 125.75521Q401.40237 126.34896 402.18362 126.34896Q402.9805 126.34896 403.49612 125.75521Q404.01175 125.16146 404.01175 123.94271Q404.01175 122.78646 403.4805 122.19271Q402.96487 121.59896 402.18362 121.59896Q401.40237 121.59896 400.87112 122.19271Q400.3555 122.770836 400.3555 123.97396ZM406.668 127.083336L406.668 120.864586L407.6055 120.864586L407.6055 121.739586Q408.293 120.72396 409.58987 120.72396Q410.15237 120.72396 410.62112 120.927086Q411.1055 121.13021 411.33987 121.458336Q411.57425 121.78646 411.668 122.22396Q411.71487 122.520836 411.71487 123.25521L411.71487 127.083336L410.668 127.083336L410.668 123.302086Q410.668 122.645836 410.543 122.333336Q410.418 122.020836 410.1055 121.833336Q409.793 121.63021 409.37112 121.63021Q408.69925 121.63021 408.19925 122.06771Q407.71487 122.489586 407.71487 123.677086L407.71487 127.083336L406.668 127.083336ZM417.7305 126.31771Q417.13675 126.81771 416.58987 127.020836Q416.05862 127.22396 415.43362 127.22396Q414.40237 127.22396 413.8555 126.72396Q413.30862 126.22396 413.30862 125.44271Q413.30862 124.989586 413.51175 124.614586Q413.71487 124.22396 414.05862 124.00521Q414.40237 123.770836 414.82425 123.66146Q415.12112 123.56771 415.76175 123.489586Q417.02737 123.34896 417.63675 123.13021Q417.63675 122.91146 417.63675 122.864586Q417.63675 122.208336 417.33987 121.94271Q416.93362 121.59896 416.13675 121.59896Q415.40237 121.59896 415.043 121.864586Q414.68362 122.114586 414.51175 122.770836L413.4805 122.63021Q413.62112 121.97396 413.94925 121.56771Q414.27737 121.16146 414.88675 120.94271Q415.49612 120.72396 416.293 120.72396Q417.08987 120.72396 417.58987 120.91146Q418.08987 121.09896 418.32425 121.38021Q418.55862 121.66146 418.65237 122.09896Q418.69925 122.364586 418.69925 123.06771L418.69925 124.47396Q418.69925 125.94271 418.76175 126.333336Q418.83987 126.72396 419.043 127.083336L417.93362 127.083336Q417.77737 126.75521 417.7305 126.31771ZM417.63675 123.958336Q417.05862 124.19271 415.918 124.364586Q415.26175 124.458336 414.99612 124.583336Q414.7305 124.69271 414.57425 124.91146Q414.43362 125.13021 414.43362 125.41146Q414.43362 125.833336 414.74612 126.114586Q415.07425 126.395836 415.68362 126.395836Q416.293 126.395836 416.76175 126.13021Q417.24612 125.864586 417.46487 125.395836Q417.63675 125.03646 417.63675 124.34896L417.63675 123.958336ZM420.63675 127.083336L420.63675 118.489586L421.69925 118.489586L421.69925 127.083336L420.63675 127.083336Z" fill-rule="nonzero"/><path fill="#1a1a1a" d="M258.82425 141.08333L258.82425 132.48958L265.02737 132.48958L265.02737 133.5052L259.96487 133.5052L259.96487 136.1302L264.71487 136.1302L264.71487 137.14583L259.96487 137.14583L259.96487 140.0677L265.2305 140.0677L265.2305 141.08333L258.82425 141.08333ZM266.668 141.08333L266.668 134.86458L267.6055 134.86458L267.6055 135.73958Q267.90237 135.27083 268.38675 135.0052Q268.87112 134.72395 269.49612 134.72395Q270.18362 134.72395 270.62112 135.0052Q271.07425 135.28645 271.24612 135.80208Q271.99612 134.72395 273.168 134.72395Q274.1055 134.72395 274.58987 135.23958Q275.08987 135.73958 275.08987 136.8177L275.08987 141.08333L274.043 141.08333L274.043 137.16145Q274.043 136.53645 273.93362 136.2552Q273.83987 135.97395 273.57425 135.80208Q273.30862 135.6302 272.93362 135.6302Q272.27737 135.6302 271.83987 136.0677Q271.418 136.5052 271.418 137.47395L271.418 141.08333L270.3555 141.08333L270.3555 137.03645Q270.3555 136.33333 270.08987 135.98958Q269.83987 135.6302 269.26175 135.6302Q268.80862 135.6302 268.43362 135.86458Q268.05862 136.09895 267.88675 136.55208Q267.71487 137.0052 267.71487 137.84895L267.71487 141.08333L266.668 141.08333ZM281.7305 140.3177Q281.13675 140.8177 280.58987 141.02083Q280.05862 141.22395 279.43362 141.22395Q278.40237 141.22395 277.8555 140.72395Q277.30862 140.22395 277.30862 139.4427Q277.30862 138.98958 277.51175 138.61458Q277.71487 138.22395 278.05862 138.0052Q278.40237 137.77083 278.82425 137.66145Q279.12112 137.5677 279.76175 137.48958Q281.02737 137.34895 281.63675 137.1302Q281.63675 136.91145 281.63675 136.86458Q281.63675 136.20833 281.33987 135.9427Q280.93362 135.59895 280.13675 135.59895Q279.40237 135.59895 279.043 135.86458Q278.68362 136.11458 278.51175 136.77083L277.4805 136.6302Q277.62112 135.97395 277.94925 135.5677Q278.27737 135.16145 278.88675 134.9427Q279.49612 134.72395 280.293 134.72395Q281.08987 134.72395 281.58987 134.91145Q282.08987 135.09895 282.32425 135.3802Q282.55862 135.66145 282.65237 136.09895Q282.69925 136.36458 282.69925 137.0677L282.69925 138.47395Q282.69925 139.9427 282.76175 140.33333Q282.83987 140.72395 283.043 141.08333L281.93362 141.08333Q281.77737 140.7552 281.7305 140.3177ZM281.63675 137.95833Q281.05862 138.1927 279.918 138.36458Q279.26175 138.45833 278.99612 138.58333Q278.7305 138.6927 278.57425 138.91145Q278.43362 139.1302 278.43362 139.41145Q278.43362 139.83333 278.74612 140.11458Q279.07425 140.39583 279.68362 140.39583Q280.293 140.39583 280.76175 140.1302Q281.24612 139.86458 281.46487 139.39583Q281.63675 139.03645 281.63675 138.34895L281.63675 137.95833ZM284.668 133.70833L284.668 132.48958L285.7305 132.48958L285.7305 133.70833L284.668 133.70833ZM284.668 141.08333L284.668 134.86458L285.7305 134.86458L285.7305 141.08333L284.668 141.08333ZM287.63675 141.08333L287.63675 132.48958L288.69925 132.48958L288.69925 141.08333L287.63675 141.08333Z" fill-rule="nonzero"/><path fill="#34a853" d="M249.87111 161.08333C249.87111 164.39705 247.18481 167.08333 243.87111 167.08333C240.5574 167.08333 237.87111 164.39705 237.87111 161.08333C237.87111 157.76962 240.5574 155.08333 243.87111 155.08333C247.18481 155.08333 249.87111 157.76962 249.87111 161.08333Z" fill-rule="nonzero"/><path fill="#1a1a1a" d="M258.44925 160.89583Q258.44925 158.7552 259.58987 157.55208Q260.74612 156.33333 262.55862 156.33333Q263.76175 156.33333 264.71487 156.91145Q265.668 157.47395 266.168 158.48958Q266.668 159.5052 266.668 160.80208Q266.668 162.09895 266.13675 163.1302Q265.6055 164.16145 264.63675 164.6927Q263.68362 165.22395 262.55862 165.22395Q261.33987 165.22395 260.38675 164.64583Q259.43362 164.05208 258.93362 163.05208Q258.44925 162.03645 258.44925 160.89583ZM259.62112 160.91145Q259.62112 162.47395 260.44925 163.36458Q261.293 164.2552 262.55862 164.2552Q263.83987 164.2552 264.668 163.36458Q265.49612 162.45833 265.49612 160.78645Q265.49612 159.73958 265.13675 158.95833Q264.793 158.17708 264.1055 157.7552Q263.418 157.3177 262.57425 157.3177Q261.37112 157.3177 260.49612 158.14583Q259.62112 158.97395 259.62112 160.91145ZM269.96487 164.14583L270.12112 165.0677Q269.668 165.16145 269.32425 165.16145Q268.74612 165.16145 268.43362 164.98958Q268.12112 164.80208 267.9805 164.5052Q267.8555 164.20833 267.8555 163.2552L267.8555 159.67708L267.08987 159.67708L267.08987 158.86458L267.8555 158.86458L267.8555 157.3177L268.90237 156.6927L268.90237 158.86458L269.96487 158.86458L269.96487 159.67708L268.90237 159.67708L268.90237 163.3177Q268.90237 163.77083 268.94925 163.89583Q269.01175 164.02083 269.13675 164.09895Q269.26175 164.17708 269.49612 164.17708Q269.68362 164.17708 269.96487 164.14583ZM270.668 165.08333L270.668 156.48958L271.71487 156.48958L271.71487 159.5677Q272.44925 158.72395 273.57425 158.72395Q274.27737 158.72395 274.77737 159.0052Q275.293 159.27083 275.51175 159.7552Q275.7305 160.22395 275.7305 161.14583L275.7305 165.08333L274.68362 165.08333L274.68362 161.14583Q274.68362 160.34895 274.33987 159.98958Q273.99612 159.6302 273.37112 159.6302Q272.90237 159.6302 272.4805 159.8802Q272.07425 160.11458 271.88675 160.53645Q271.71487 160.9427 271.71487 161.67708L271.71487 165.08333L270.668 165.08333ZM281.918 163.08333L283.01175 163.20833Q282.76175 164.16145 282.05862 164.6927Q281.3555 165.22395 280.27737 165.22395Q278.918 165.22395 278.1055 164.3802Q277.30862 163.53645 277.30862 162.02083Q277.30862 160.45833 278.12112 159.59895Q278.93362 158.72395 280.21487 158.72395Q281.46487 158.72395 282.24612 159.5677Q283.043 160.41145 283.043 161.95833Q283.043 162.05208 283.043 162.23958L278.40237 162.23958Q278.46487 163.27083 278.9805 163.8177Q279.49612 164.34895 280.27737 164.34895Q280.8555 164.34895 281.26175 164.05208Q281.68362 163.73958 281.918 163.08333ZM278.46487 161.3802L281.93362 161.3802Q281.87112 160.58333 281.543 160.1927Q281.02737 159.58333 280.2305 159.58333Q279.49612 159.58333 278.99612 160.0677Q278.51175 160.55208 278.46487 161.3802ZM284.65237 165.08333L284.65237 158.86458L285.6055 158.86458L285.6055 159.80208Q285.96487 159.14583 286.26175 158.9427Q286.57425 158.72395 286.94925 158.72395Q287.4805 158.72395 288.02737 159.05208L287.668 160.03645Q287.27737 159.80208 286.90237 159.80208Q286.543 159.80208 286.26175 160.02083Q285.99612 160.22395 285.88675 160.59895Q285.69925 161.16145 285.69925 161.8177L285.69925 165.08333L284.65237 165.08333ZM288.24612 163.22395L289.27737 163.0677Q289.37112 163.6927 289.76175 164.02083Q290.168 164.34895 290.90237 164.34895Q291.62112 164.34895 291.96487 164.0677Q292.32425 163.77083 292.32425 163.36458Q292.32425 163.0052 292.01175 162.80208Q291.793 162.66145 290.93362 162.4427Q289.77737 162.14583 289.32425 161.9427Q288.88675 161.72395 288.65237 161.34895Q288.418 160.97395 288.418 160.5052Q288.418 160.09895 288.6055 159.73958Q288.793 159.3802 289.12112 159.14583Q289.37112 158.97395 289.793 158.84895Q290.21487 158.72395 290.71487 158.72395Q291.43362 158.72395 291.9805 158.9427Q292.543 159.14583 292.80862 159.5052Q293.07425 159.86458 293.168 160.45833L292.13675 160.59895Q292.07425 160.1302 291.7305 159.86458Q291.40237 159.58333 290.77737 159.58333Q290.05862 159.58333 289.74612 159.83333Q289.43362 160.0677 289.43362 160.39583Q289.43362 160.59895 289.55862 160.7552Q289.69925 160.92708 289.96487 161.03645Q290.12112 161.09895 290.90237 161.30208Q292.02737 161.61458 292.46487 161.80208Q292.90237 161.98958 293.15237 162.34895Q293.40237 162.70833 293.40237 163.2552Q293.40237 163.78645 293.08987 164.2552Q292.793 164.70833 292.21487 164.97395Q291.63675 165.22395 290.90237 165.22395Q289.68362 165.22395 289.043 164.72395Q288.418 164.20833 288.24612 163.22395Z" fill-rule="nonzero"/><path fill="#999999" d="M16.78818 53.410713L16.78818 43.39509L23.53818 43.39509L23.53818 44.566963L18.10068 44.566963L18.10068 47.67634L22.803804 47.67634L22.803804 48.86384L18.10068 48.86384L18.10068 53.410713L16.78818 53.410713ZM25.53818 53.410713L25.53818 46.14509L26.647554 46.14509L26.647554 47.254463Q27.06943 46.473213 27.428804 46.23884Q27.78818 45.98884 28.22568 45.98884Q28.85068 45.98884 29.491304 46.379463L29.06943 47.52009Q28.616304 47.254463 28.16318 47.254463Q27.75693 47.254463 27.428804 47.504463Q27.116304 47.73884 26.97568 48.17634Q26.772554 48.83259 26.772554 49.61384L26.772554 53.410713L25.53818 53.410713ZM30.10068 49.785713Q30.10068 47.77009 31.22568 46.785713Q32.147552 45.98884 33.506927 45.98884Q34.991302 45.98884 35.944427 46.973213Q36.897552 47.941963 36.897552 49.67634Q36.897552 51.08259 36.475677 51.89509Q36.053802 52.691963 35.241302 53.14509Q34.444427 53.58259 33.506927 53.58259Q31.97568 53.58259 31.03818 52.598213Q30.10068 51.61384 30.10068 49.785713ZM31.366304 49.785713Q31.366304 51.17634 31.97568 51.879463Q32.585052 52.566963 33.506927 52.566963Q34.413177 52.566963 35.022552 51.86384Q35.631927 51.160713 35.631927 49.73884Q35.631927 48.39509 35.022552 47.70759Q34.413177 47.004463 33.506927 47.004463Q32.585052 47.004463 31.97568 47.691963Q31.366304 48.379463 31.366304 49.785713ZM38.553802 53.410713L38.553802 46.14509L39.663177 46.14509L39.663177 47.17634Q39.991302 46.629463 40.553802 46.316963Q41.131927 45.98884 41.850677 45.98884Q42.663177 45.98884 43.178802 46.33259Q43.694427 46.660713 43.913177 47.254463Q44.772552 45.98884 46.147552 45.98884Q47.225677 45.98884 47.803802 46.58259Q48.397552 47.17634 48.397552 48.42634L48.397552 53.410713L47.163177 53.410713L47.163177 48.83259Q47.163177 48.098213 47.038177 47.77009Q46.928802 47.441963 46.616302 47.254463Q46.303802 47.05134 45.881927 47.05134Q45.116302 47.05134 44.600677 47.566963Q44.100677 48.066963 44.100677 49.191963L44.100677 53.410713L42.866302 53.410713L42.866302 48.691963Q42.866302 47.879463 42.569427 47.473213Q42.272552 47.05134 41.585052 47.05134Q41.069427 47.05134 40.616302 47.33259Q40.178802 47.598213 39.975677 48.129463Q39.788177 48.64509 39.788177 49.64509L39.788177 53.410713L38.553802 53.410713ZM53.225677 50.77009L54.444427 50.598213Q54.663177 51.64509 55.163177 52.11384Q55.678802 52.566963 56.413177 52.566963Q57.288177 52.566963 57.881927 51.973213Q58.475677 51.36384 58.475677 50.473213Q58.475677 49.629463 57.913177 49.08259Q57.366302 48.535713 56.522552 48.535713Q56.163177 48.535713 55.647552 48.660713L55.788177 47.58259Q55.913177 47.598213 55.975677 47.598213Q56.772552 47.598213 57.397552 47.191963Q58.022552 46.785713 58.022552 45.92634Q58.022552 45.254463 57.569427 44.816963Q57.116302 44.36384 56.381927 44.36384Q55.663177 44.36384 55.178802 44.816963Q54.710052 45.254463 54.569427 46.160713L53.350677 45.941963Q53.569427 44.70759 54.366302 44.035713Q55.163177 43.348213 56.350677 43.348213Q57.178802 43.348213 57.866302 43.70759Q58.553802 44.05134 58.913177 44.660713Q59.288177 45.27009 59.288177 45.95759Q59.288177 46.598213 58.944427 47.129463Q58.600677 47.660713 57.913177 47.98884Q58.803802 48.191963 59.288177 48.83259Q59.788177 49.473213 59.788177 50.45759Q59.788177 51.77009 58.819427 52.67634Q57.866302 53.58259 56.413177 53.58259Q55.085052 53.58259 54.210052 52.80134Q53.350677 52.02009 53.225677 50.77009ZM67.60068 45.848213L66.38193 45.941963Q66.21005 45.20759 65.91318 44.879463Q65.41318 44.36384 64.6788 44.36384Q64.08505 44.36384 63.647552 44.691963Q63.069427 45.11384 62.725677 45.92634Q62.397552 46.73884 62.381927 48.23884Q62.819427 47.566963 63.460052 47.23884Q64.1163 46.910713 64.81943 46.910713Q66.0538 46.910713 66.91318 47.816963Q67.77255 48.723213 67.77255 50.160713Q67.77255 51.098213 67.3663 51.910713Q66.96005 52.723213 66.2413 53.160713Q65.53818 53.58259 64.63193 53.58259Q63.100677 53.58259 62.131927 52.45759Q61.163177 51.316963 61.163177 48.723213Q61.163177 45.816963 62.225677 44.48884Q63.163177 43.348213 64.75693 43.348213Q65.94443 43.348213 66.69443 44.02009Q67.44443 44.67634 67.60068 45.848213ZM62.569427 50.160713Q62.569427 50.80134 62.835052 51.379463Q63.116302 51.95759 63.600677 52.27009Q64.08505 52.566963 64.6163 52.566963Q65.39755 52.566963 65.96005 51.941963Q66.52255 51.316963 66.52255 50.23884Q66.52255 49.191963 65.96005 48.598213Q65.41318 47.98884 64.56943 47.98884Q63.741302 47.98884 63.147552 48.598213Q62.569427 49.191963 62.569427 50.160713ZM69.39755 51.098213L70.58505 50.98884Q70.72568 51.816963 71.14755 52.191963Q71.58505 52.566963 72.2413 52.566963Q72.8038 52.566963 73.22568 52.316963Q73.66318 52.05134 73.9288 51.61384Q74.21005 51.17634 74.39755 50.441963Q74.58505 49.70759 74.58505 48.941963Q74.58505 48.86384 74.56943 48.691963Q74.21005 49.285713 73.56943 49.660713Q72.9288 50.02009 72.1788 50.02009Q70.9288 50.02009 70.06943 49.11384Q69.21005 48.20759 69.21005 46.73884Q69.21005 45.20759 70.10068 44.285713Q71.00693 43.348213 72.3663 43.348213Q73.33505 43.348213 74.14755 43.879463Q74.96005 44.39509 75.38193 45.379463Q75.8038 46.348213 75.8038 48.191963Q75.8038 50.11384 75.38193 51.254463Q74.97568 52.39509 74.14755 52.98884Q73.31943 53.58259 72.21005 53.58259Q71.03818 53.58259 70.28818 52.92634Q69.5538 52.27009 69.39755 51.098213ZM74.4288 46.67634Q74.4288 45.61384 73.8663 44.98884Q73.3038 44.36384 72.52255 44.36384Q71.69443 44.36384 71.08505 45.035713Q70.47568 45.70759 70.47568 46.77009Q70.47568 47.723213 71.0538 48.33259Q71.63193 48.92634 72.47568 48.92634Q73.33505 48.92634 73.88193 48.33259Q74.4288 47.723213 74.4288 46.67634ZM88.8663 49.89509L90.19443 50.23884Q89.77255 51.86384 88.6788 52.723213Q87.60068 53.58259 86.03818 53.58259Q84.41318 53.58259 83.39755 52.92634Q82.38193 52.254463 81.85068 51.004463Q81.33505 49.754463 81.33505 48.316963Q81.33505 46.754463 81.9288 45.598213Q82.52255 44.42634 83.63193 43.83259Q84.7413 43.223213 86.0538 43.223213Q87.56943 43.223213 88.58505 43.98884Q89.6163 44.754463 90.02255 46.129463L88.71005 46.441963Q88.3663 45.348213 87.69443 44.848213Q87.03818 44.348213 86.03818 44.348213Q84.88193 44.348213 84.10068 44.910713Q83.31943 45.45759 83.00693 46.39509Q82.69443 47.33259 82.69443 48.316963Q82.69443 49.598213 83.06943 50.55134Q83.44443 51.504463 84.22568 51.973213Q85.00693 52.441963 85.9288 52.441963Q87.03818 52.441963 87.8038 51.80134Q88.58505 51.160713 88.8663 49.89509ZM91.5538 53.410713L91.5538 43.39509L92.78818 43.39509L92.78818 46.98884Q93.64755 45.98884 94.96005 45.98884Q95.77255 45.98884 96.3663 46.316963Q96.96005 46.629463 97.21005 47.191963Q97.47568 47.73884 97.47568 48.816963L97.47568 53.410713L96.2413 53.410713L96.2413 48.816963Q96.2413 47.879463 95.83505 47.473213Q95.44443 47.05134 94.71005 47.05134Q94.16318 47.05134 93.6788 47.33259Q93.19443 47.61384 92.9913 48.098213Q92.78818 48.58259 92.78818 49.441963L92.78818 53.410713L91.5538 53.410713ZM104.28818 52.52009Q103.6163 53.098213 102.97568 53.348213Q102.35068 53.58259 101.6163 53.58259Q100.4288 53.58259 99.77255 53.004463Q99.13193 52.410713 99.13193 51.48884Q99.13193 50.95759 99.3663 50.52009Q99.6163 50.08259 100.00693 49.816963Q100.41318 49.55134 100.89755 49.410713Q101.25693 49.316963 101.9913 49.223213Q103.4913 49.05134 104.19443 48.80134Q104.19443 48.55134 104.19443 48.48884Q104.19443 47.723213 103.85068 47.42634Q103.38193 47.004463 102.44443 47.004463Q101.58505 47.004463 101.16318 47.316963Q100.75693 47.61384 100.5538 48.379463L99.35068 48.223213Q99.50693 47.441963 99.88193 46.973213Q100.27255 46.504463 100.97568 46.254463Q101.69443 45.98884 102.63193 45.98884Q103.5538 45.98884 104.13193 46.20759Q104.71005 46.42634 104.97568 46.754463Q105.25693 47.08259 105.3663 47.598213Q105.4288 47.910713 105.4288 48.723213L105.4288 50.36384Q105.4288 52.08259 105.50693 52.535713Q105.58505 52.98884 105.81943 53.410713L104.53818 53.410713Q104.35068 53.02009 104.28818 52.52009ZM104.19443 49.77009Q103.52255 50.035713 102.1788 50.23884Q101.4288 50.348213 101.10068 50.48884Q100.78818 50.61384 100.6163 50.879463Q100.44443 51.14509 100.44443 51.45759Q100.44443 51.95759 100.81943 52.285713Q101.19443 52.61384 101.91318 52.61384Q102.63193 52.61384 103.1788 52.30134Q103.72568 51.98884 103.9913 51.441963Q104.19443 51.035713 104.19443 50.223213L104.19443 49.77009ZM110.2413 52.316963L110.41318 53.39509Q109.89755 53.504463 109.4913 53.504463Q108.81943 53.504463 108.44443 53.30134Q108.08505 53.08259 107.9288 52.73884Q107.78818 52.39509 107.78818 51.285713L107.78818 47.11384L106.88193 47.11384L106.88193 46.14509L107.78818 46.14509L107.78818 44.348213L109.00693 43.61384L109.00693 46.14509L110.2413 46.14509L110.2413 47.11384L109.00693 47.11384L109.00693 51.348213Q109.00693 51.879463 109.06943 52.035713Q109.13193 52.17634 109.27255 52.27009Q109.4288 52.36384 109.69443 52.36384Q109.91318 52.36384 110.2413 52.316963ZM111.06943 51.23884L112.27255 51.05134Q112.38193 51.785713 112.85068 52.17634Q113.31943 52.566963 114.16318 52.566963Q115.00693 52.566963 115.41318 52.223213Q115.83505 51.879463 115.83505 51.410713Q115.83505 50.98884 115.46005 50.754463Q115.21005 50.58259 114.21005 50.33259Q112.85068 49.98884 112.31943 49.73884Q111.8038 49.48884 111.53818 49.05134Q111.27255 48.61384 111.27255 48.08259Q111.27255 47.598213 111.4913 47.191963Q111.71005 46.77009 112.10068 46.48884Q112.38193 46.285713 112.8663 46.14509Q113.3663 45.98884 113.94443 45.98884Q114.78818 45.98884 115.4288 46.23884Q116.08505 46.473213 116.39755 46.89509Q116.71005 47.316963 116.81943 48.02009L115.6163 48.191963Q115.53818 47.629463 115.13193 47.316963Q114.7413 47.004463 114.02255 47.004463Q113.1788 47.004463 112.81943 47.285713Q112.46005 47.55134 112.46005 47.941963Q112.46005 48.17634 112.60068 48.36384Q112.75693 48.566963 113.08505 48.691963Q113.25693 48.754463 114.16318 49.004463Q115.47568 49.36384 115.9913 49.58259Q116.50693 49.80134 116.78818 50.223213Q117.08505 50.64509 117.08505 51.27009Q117.08505 51.89509 116.72568 52.441963Q116.38193 52.973213 115.69443 53.285713Q115.02255 53.58259 114.16318 53.58259Q112.75693 53.58259 112.00693 52.98884Q111.27255 52.39509 111.06943 51.23884Z" fill-rule="nonzero"/><path fill="#757575" d="M24.146875 26.865625L26.678125 27.6625Q26.1 29.771875 24.740625 30.803125Q23.396875 31.81875 21.31875 31.81875Q18.75625 31.81875 17.1 30.06875Q15.459375 28.31875 15.459375 25.271875Q15.459375 22.053125 17.115625 20.271875Q18.771875 18.490625 21.475 18.490625Q23.85 18.490625 25.31875 19.896875Q26.209375 20.725 26.646875 22.271875L24.06875 22.88125Q23.834375 21.88125 23.1 21.303125Q22.38125 20.725 21.35 20.725Q19.9125 20.725 19.021875 21.75625Q18.13125 22.771875 18.13125 25.084375Q18.13125 27.521875 19.00625 28.56875Q19.896875 29.6 21.303125 29.6Q22.334375 29.6 23.084375 28.94375Q23.834375 28.271875 24.146875 26.865625ZM30.740625 25.115625L28.490625 24.709375Q28.88125 23.35 29.803125 22.709375Q30.725 22.053125 32.5375 22.053125Q34.19375 22.053125 34.990623 22.44375Q35.803123 22.834375 36.13125 23.44375Q36.475 24.0375 36.475 25.646875L36.44375 28.5375Q36.44375 29.75625 36.553123 30.35Q36.678123 30.928125 37.00625 31.6L34.56875 31.6Q34.459373 31.35 34.31875 30.865625Q34.25625 30.646875 34.240623 30.584375Q33.6 31.19375 32.88125 31.50625Q32.1625 31.81875 31.35 31.81875Q29.896875 31.81875 29.06875 31.0375Q28.240625 30.240625 28.240625 29.053125Q28.240625 28.25625 28.615625 27.646875Q28.990625 27.021875 29.678125 26.69375Q30.365625 26.365625 31.646875 26.115625Q33.38125 25.7875 34.0375 25.50625L34.0375 25.25625Q34.0375 24.553125 33.678123 24.25625Q33.334373 23.94375 32.365623 23.94375Q31.709375 23.94375 31.334375 24.209375Q30.959375 24.459375 30.740625 25.115625ZM34.0375 27.115625Q33.56875 27.271875 32.5375 27.490625Q31.50625 27.709375 31.19375 27.928125Q30.709375 28.271875 30.709375 28.803125Q30.709375 29.31875 31.1 29.69375Q31.490625 30.06875 32.084373 30.06875Q32.75625 30.06875 33.35 29.63125Q33.803123 29.303125 33.94375 28.81875Q34.0375 28.490625 34.0375 27.615625L34.0375 27.115625ZM47.38125 31.6L44.9125 31.6L44.9125 26.834375Q44.9125 25.31875 44.75625 24.88125Q44.6 24.44375 44.240623 24.19375Q43.88125 23.94375 43.38125 23.94375Q42.740623 23.94375 42.225 24.303125Q41.725 24.646875 41.5375 25.225Q41.35 25.803125 41.35 27.365625L41.35 31.6L38.88125 31.6L38.88125 22.271875L41.1625 22.271875L41.1625 23.63125Q42.396873 22.053125 44.240623 22.053125Q45.06875 22.053125 45.740623 22.35Q46.4125 22.646875 46.75625 23.1Q47.115623 23.553125 47.240623 24.146875Q47.38125 24.725 47.38125 25.803125L47.38125 31.6ZM58.0375 25.021875L55.6 25.459375Q55.475 24.740625 55.0375 24.365625Q54.6 23.990625 53.9125 23.990625Q52.990623 23.990625 52.428123 24.63125Q51.88125 25.271875 51.88125 26.771875Q51.88125 28.428125 52.44375 29.115625Q53.00625 29.803125 53.94375 29.803125Q54.646873 29.803125 55.084373 29.396875Q55.5375 28.990625 55.725 28.021875L58.146873 28.428125Q57.771873 30.1 56.69375 30.959375Q55.63125 31.81875 53.834373 31.81875Q51.7875 31.81875 50.56875 30.521875Q49.35 29.225 49.35 26.94375Q49.35 24.63125 50.56875 23.35Q51.7875 22.053125 53.88125 22.053125Q55.584373 22.053125 56.584373 22.7875Q57.584373 23.521875 58.0375 25.021875ZM65.30312 28.63125L67.75625 29.0375Q67.2875 30.396875 66.25625 31.115625Q65.24062 31.81875 63.69375 31.81875Q61.25625 31.81875 60.1 30.225Q59.178123 28.94375 59.178123 27.00625Q59.178123 24.678125 60.38125 23.365625Q61.6 22.053125 63.459373 22.053125Q65.5375 22.053125 66.74062 23.428125Q67.94375 24.803125 67.89687 27.646875L61.709373 27.646875Q61.725 28.740625 62.2875 29.35Q62.865623 29.959375 63.725 29.959375Q64.30312 29.959375 64.69375 29.646875Q65.1 29.334375 65.30312 28.63125ZM65.44375 26.13125Q65.4125 25.053125 64.88125 24.50625Q64.35 23.94375 63.6 23.94375Q62.7875 23.94375 62.271873 24.5375Q61.740623 25.115625 61.740623 26.13125L65.44375 26.13125ZM70.89687 31.6L70.89687 18.709375L73.36562 18.709375L73.36562 31.6L70.89687 31.6ZM75.89687 31.6L75.89687 18.709375L78.36562 18.709375L78.36562 31.6L75.89687 31.6ZM86.30312 28.63125L88.75625 29.0375Q88.2875 30.396875 87.25625 31.115625Q86.24062 31.81875 84.69375 31.81875Q82.25625 31.81875 81.1 30.225Q80.17812 28.94375 80.17812 27.00625Q80.17812 24.678125 81.38125 23.365625Q82.6 22.053125 84.45937 22.053125Q86.5375 22.053125 87.74062 23.428125Q88.94375 24.803125 88.89687 27.646875L82.70937 27.646875Q82.725 28.740625 83.2875 29.35Q83.86562 29.959375 84.725 29.959375Q85.30312 29.959375 85.69375 29.646875Q86.1 29.334375 86.30312 28.63125ZM86.44375 26.13125Q86.4125 25.053125 85.88125 24.50625Q85.35 23.94375 84.6 23.94375Q83.7875 23.94375 83.27187 24.5375Q82.74062 25.115625 82.74062 26.13125L86.44375 26.13125ZM100.45937 31.6L98.1625 31.6L98.1625 30.225Q97.58437 31.021875 96.80312 31.428125Q96.0375 31.81875 95.24062 31.81875Q93.63125 31.81875 92.475 30.521875Q91.33437 29.225 91.33437 26.896875Q91.33437 24.521875 92.44375 23.2875Q93.56875 22.053125 95.27187 22.053125Q96.83437 22.053125 97.99062 23.35L97.99062 18.709375L100.45937 18.709375L100.45937 31.6ZM93.86562 26.725Q93.86562 28.225 94.27187 28.896875Q94.86562 29.865625 95.94375 29.865625Q96.80312 29.865625 97.39687 29.146875Q97.99062 28.4125 97.99062 26.975Q97.99062 25.365625 97.4125 24.6625Q96.83437 23.94375 95.92812 23.94375Q95.05312 23.94375 94.45937 24.646875Q93.86562 25.334375 93.86562 26.725ZM107.25625 27.4125L109.7875 27.1625Q110.00625 28.428125 110.70937 29.0375Q111.4125 29.63125 112.6 29.63125Q113.85 29.63125 114.49062 29.1Q115.13125 28.56875 115.13125 27.85Q115.13125 27.396875 114.85 27.084375Q114.58437 26.75625 113.92812 26.521875Q113.45937 26.365625 111.83437 25.959375Q109.74062 25.44375 108.89687 24.678125Q107.70937 23.615625 107.70937 22.084375Q107.70937 21.1 108.27187 20.25625Q108.83437 19.396875 109.88125 18.94375Q110.92812 18.490625 112.4125 18.490625Q114.85 18.490625 116.06875 19.553125Q117.30312 20.615625 117.36562 22.396875L114.75625 22.50625Q114.58437 21.521875 114.0375 21.084375Q113.49062 20.646875 112.39687 20.646875Q111.25625 20.646875 110.61562 21.115625Q110.20937 21.4125 110.20937 21.9125Q110.20937 22.365625 110.58437 22.69375Q111.08437 23.115625 112.975 23.56875Q114.88125 24.00625 115.7875 24.490625Q116.69375 24.959375 117.20937 25.803125Q117.725 26.63125 117.725 27.85Q117.725 28.959375 117.1 29.928125Q116.49062 30.88125 115.36562 31.365625Q114.24062 31.834375 112.56875 31.834375Q110.13125 31.834375 108.81875 30.709375Q107.50625 29.56875 107.25625 27.4125ZM126.0375 31.6L126.0375 30.209375Q125.52187 30.94375 124.69375 31.38125Q123.86562 31.81875 122.94375 31.81875Q122.00625 31.81875 121.25625 31.4125Q120.50625 30.990625 120.1625 30.240625Q119.83437 29.490625 119.83437 28.178125L119.83437 22.271875L122.30312 22.271875L122.30312 26.553125Q122.30312 28.521875 122.44375 28.975Q122.58437 29.4125 122.94375 29.678125Q123.30312 29.928125 123.85 29.928125Q124.49062 29.928125 124.99062 29.584375Q125.49062 29.240625 125.67812 28.725Q125.86562 28.209375 125.86562 26.209375L125.86562 22.271875L128.33438 22.271875L128.33438 31.6L126.0375 31.6ZM130.7875 31.6L130.7875 18.709375L133.25626 18.709375L133.25626 23.35Q134.39688 22.053125 135.95938 22.053125Q137.6625 22.053125 138.77188 23.2875Q139.89688 24.521875 139.89688 26.834375Q139.89688 29.225 138.75626 30.521875Q137.63126 31.81875 136.00626 31.81875Q135.19376 31.81875 134.4125 31.4125Q133.64688 31.00625 133.08438 30.225L133.08438 31.6L130.7875 31.6ZM133.24063 26.725Q133.24063 28.178125 133.69376 28.88125Q134.33438 29.865625 135.39688 29.865625Q136.225 29.865625 136.7875 29.1625Q137.36563 28.459375 137.36563 26.959375Q137.36563 25.365625 136.7875 24.6625Q136.20938 23.94375 135.30313 23.94375Q134.4125 23.94375 133.81876 24.63125Q133.24063 25.31875 133.24063 26.725ZM141.02188 28.94375L143.50626 28.553125Q143.6625 29.271875 144.14688 29.646875Q144.63126 30.021875 145.49063 30.021875Q146.45938 30.021875 146.94376 29.678125Q147.25626 29.428125 147.25626 29.021875Q147.25626 28.740625 147.08438 28.553125Q146.89688 28.38125 146.25626 28.225Q143.27188 27.56875 142.475 27.021875Q141.36563 26.271875 141.36563 24.9125Q141.36563 23.709375 142.31876 22.88125Q143.2875 22.053125 145.2875 22.053125Q147.20938 22.053125 148.13126 22.678125Q149.06876 23.303125 149.42813 24.521875L147.1 24.959375Q146.94376 24.4125 146.52188 24.13125Q146.11563 23.834375 145.33438 23.834375Q144.36563 23.834375 143.94376 24.1Q143.6625 24.303125 143.6625 24.6Q143.6625 24.865625 143.9125 25.053125Q144.24063 25.303125 146.20938 25.75625Q148.17813 26.19375 148.975 26.85Q149.74063 27.50625 149.74063 28.678125Q149.74063 29.959375 148.6625 30.896875Q147.6 31.81875 145.49063 31.81875Q143.58438 31.81875 142.475 31.0375Q141.36563 30.25625 141.02188 28.94375ZM160.0375 25.021875L157.6 25.459375Q157.475 24.740625 157.0375 24.365625Q156.6 23.990625 155.9125 23.990625Q154.99063 23.990625 154.42813 24.63125Q153.88126 25.271875 153.88126 26.771875Q153.88126 28.428125 154.44376 29.115625Q155.00626 29.803125 155.94376 29.803125Q156.64688 29.803125 157.08438 29.396875Q157.5375 28.990625 157.725 28.021875L160.14688 28.428125Q159.77188 30.1 158.69376 30.959375Q157.63126 31.81875 155.83438 31.81875Q153.7875 31.81875 152.56876 30.521875Q151.35 29.225 151.35 26.94375Q151.35 24.63125 152.56876 23.35Q153.7875 22.053125 155.88126 22.053125Q157.58438 22.053125 158.58438 22.7875Q159.58438 23.521875 160.0375 25.021875ZM164.25626 31.6L161.7875 31.6L161.7875 22.271875L164.08438 22.271875L164.08438 23.6Q164.6625 22.646875 165.13126 22.35Q165.61563 22.053125 166.20938 22.053125Q167.05313 22.053125 167.83438 22.521875L167.06876 24.678125Q166.44376 24.271875 165.9125 24.271875Q165.39688 24.271875 165.02188 24.553125Q164.6625 24.834375 164.45938 25.584375Q164.25626 26.334375 164.25626 28.709375L164.25626 31.6ZM168.89688 21.00625L168.89688 18.709375L171.36563 18.709375L171.36563 21.00625L168.89688 21.00625ZM168.89688 31.6L168.89688 22.271875L171.36563 22.271875L171.36563 31.6L168.89688 31.6ZM173.81876 22.271875L176.13126 22.271875L176.13126 23.63125Q176.56876 22.928125 177.33438 22.490625Q178.1 22.053125 179.0375 22.053125Q180.6625 22.053125 181.7875 23.334375Q182.92813 24.6 182.92813 26.88125Q182.92813 29.225 181.7875 30.521875Q180.64688 31.81875 179.02188 31.81875Q178.24063 31.81875 177.61563 31.50625Q176.99063 31.19375 176.2875 30.44375L176.2875 35.146873L173.81876 35.146873L173.81876 22.271875ZM176.27188 26.771875Q176.27188 28.35 176.88126 29.1Q177.50626 29.85 178.4125 29.85Q179.27188 29.85 179.83438 29.1625Q180.4125 28.475 180.4125 26.896875Q180.4125 25.428125 179.81876 24.725Q179.24063 24.00625 178.36563 24.00625Q177.45938 24.00625 176.86563 24.709375Q176.27188 25.396875 176.27188 26.771875ZM189.17813 22.271875L189.17813 24.240625L187.49063 24.240625L187.49063 27.990625Q187.49063 29.13125 187.5375 29.334375Q187.58438 29.521875 187.75626 29.646875Q187.92813 29.75625 188.17813 29.75625Q188.50626 29.75625 189.1625 29.521875L189.38126 31.44375Q188.50626 31.81875 187.42813 31.81875Q186.75626 31.81875 186.20938 31.6Q185.67813 31.365625 185.42813 31.00625Q185.17813 30.646875 185.08438 30.0375Q185.00626 29.615625 185.00626 28.303125L185.00626 24.240625L183.86563 24.240625L183.86563 22.271875L185.00626 22.271875L185.00626 20.4125L187.49063 18.975L187.49063 22.271875L189.17813 22.271875ZM190.89688 21.00625L190.89688 18.709375L193.36563 18.709375L193.36563 21.00625L190.89688 21.00625ZM190.89688 31.6L190.89688 22.271875L193.36563 22.271875L193.36563 31.6L190.89688 31.6ZM195.31876 26.803125Q195.31876 25.56875 195.92813 24.428125Q196.5375 23.271875 197.64688 22.6625Q198.75626 22.053125 200.13126 22.053125Q202.24063 22.053125 203.6 23.428125Q204.95938 24.803125 204.95938 26.9125Q204.95938 29.021875 203.58438 30.428125Q202.225 31.81875 200.14688 31.81875Q198.86563 31.81875 197.69376 31.240625Q196.5375 30.646875 195.92813 29.5375Q195.31876 28.4125 195.31876 26.803125ZM197.85 26.928125Q197.85 28.31875 198.50626 29.06875Q199.17813 29.803125 200.13126 29.803125Q201.1 29.803125 201.75626 29.06875Q202.4125 28.31875 202.4125 26.9125Q202.4125 25.5375 201.75626 24.803125Q201.1 24.06875 200.13126 24.06875Q199.17813 24.06875 198.50626 24.803125Q197.85 25.5375 197.85 26.928125ZM215.38126 31.6L212.9125 31.6L212.9125 26.834375Q212.9125 25.31875 212.75626 24.88125Q212.6 24.44375 212.24063 24.19375Q211.88126 23.94375 211.38126 23.94375Q210.74063 23.94375 210.225 24.303125Q209.725 24.646875 209.5375 25.225Q209.35 25.803125 209.35 27.365625L209.35 31.6L206.88126 31.6L206.88126 22.271875L209.1625 22.271875L209.1625 23.63125Q210.39688 22.053125 212.24063 22.053125Q213.06876 22.053125 213.74063 22.35Q214.4125 22.646875 214.75626 23.1Q215.11563 23.553125 215.24063 24.146875Q215.38126 24.725 215.38126 25.803125L215.38126 31.6ZM217.02188 28.94375L219.50626 28.553125Q219.6625 29.271875 220.14688 29.646875Q220.63126 30.021875 221.49063 30.021875Q222.45938 30.021875 222.94376 29.678125Q223.25626 29.428125 223.25626 29.021875Q223.25626 28.740625 223.08438 28.553125Q222.89688 28.38125 222.25626 28.225Q219.27188 27.56875 218.475 27.021875Q217.36563 26.271875 217.36563 24.9125Q217.36563 23.709375 218.31876 22.88125Q219.2875 22.053125 221.2875 22.053125Q223.20938 22.053125 224.13126 22.678125Q225.06876 23.303125 225.42813 24.521875L223.1 24.959375Q222.94376 24.4125 222.52188 24.13125Q222.11563 23.834375 221.33438 23.834375Q220.36563 23.834375 219.94376 24.1Q219.6625 24.303125 219.6625 24.6Q219.6625 24.865625 219.9125 25.053125Q220.24063 25.303125 222.20938 25.75625Q224.17813 26.19375 224.975 26.85Q225.74063 27.50625 225.74063 28.678125Q225.74063 29.959375 224.6625 30.896875Q223.6 31.81875 221.49063 31.81875Q219.58438 31.81875 218.475 31.0375Q217.36563 30.25625 217.02188 28.94375Z" fill-rule="nonzero"/></svg>