<svg version="1.1" viewBox="0.0 0.0 464.0 291.0" fill="none" stroke="none" stroke-linecap="square" stroke-miterlimit="10" width="464" height="291" xmlns:xlink="http://www.w3.org/1999/xlink" xmlns="http://www.w3.org/2000/svg"><path fill="#ffffff" d="M0 0L464.0 0L464.0 291.0L0 291.0L0 0Z" fill-rule="nonzero"/><path fill="#4285f4" d="M174.55167 68.0C224.52856 68.0 267.47098 103.475136 276.9035 152.55382C286.336 201.6325 259.6033 250.49863 213.18694 269.02463L174.55167 172.225Z" fill-rule="nonzero"/><path fill="#34a853" d="M169.15685 68.13972C170.95361 68.046585 172.75249 68.0 174.55167 68.0L174.55167 172.225Z" fill-rule="nonzero"/><path fill="#ff9900" d="M82.265015 220.66077C65.7547 189.203 66.40554 151.50186 83.99182 120.632706C101.578094 89.76355 133.67726 69.97865 169.15685 68.13972L174.55167 172.225Z" fill-rule="nonzero"/><path fill="#ea4335" d="M213.18694 269.02463C163.60048 288.8159 107.07667 267.93542 82.265015 220.66077L174.55167 172.225Z" fill-rule="nonzero"/><path fill="#ffffff" d="M244.17499 162.54068L242.94061 162.54068L242.94061 154.69693Q242.50311 155.1188 241.76874 155.5563Q241.04999 155.97818 240.48749 156.1813L240.48749 154.9938Q241.51874 154.50943 242.28436 153.82193Q243.06561 153.13443 243.37811 152.47818L244.17499 152.47818L244.17499 162.54068ZM253.92499 154.97818L252.70624 155.07193Q252.53436 154.33755 252.23749 154.00943Q251.73749 153.4938 251.00311 153.4938Q250.40936 153.4938 249.97186 153.82193Q249.39374 154.2438 249.04999 155.0563Q248.72186 155.8688 248.70624 157.3688Q249.14374 156.69693 249.78436 156.3688Q250.44061 156.04068 251.14374 156.04068Q252.37811 156.04068 253.23749 156.94693Q254.09686 157.85318 254.09686 159.29068Q254.09686 160.22818 253.69061 161.04068Q253.28436 161.85318 252.56561 162.29068Q251.86249 162.71255 250.95624 162.71255Q249.42499 162.71255 248.45624 161.58755Q247.48749 160.44693 247.48749 157.85318Q247.48749 154.94693 248.54999 153.6188Q249.48749 152.47818 251.08124 152.47818Q252.26874 152.47818 253.01874 153.15005Q253.76874 153.8063 253.92499 154.97818ZM248.89374 159.29068Q248.89374 159.9313 249.15936 160.50943Q249.44061 161.08755 249.92499 161.40005Q250.40936 161.69693 250.94061 161.69693Q251.72186 161.69693 252.28436 161.07193Q252.84686 160.44693 252.84686 159.3688Q252.84686 158.32193 252.28436 157.72818Q251.73749 157.1188 250.89374 157.1188Q250.06561 157.1188 249.47186 157.72818Q248.89374 158.32193 248.89374 159.29068ZM255.53436 157.60318Q255.53436 155.82193 255.89374 154.7438Q256.26874 153.65005 256.9875 153.07193Q257.70624 152.47818 258.8 152.47818Q259.6125 152.47818 260.22186 152.8063Q260.83124 153.13443 261.22186 153.7438Q261.6281 154.35318 261.84686 155.22818Q262.0656 156.10318 262.0656 157.60318Q262.0656 159.3688 261.70624 160.44693Q261.34686 161.52505 260.6281 162.1188Q259.90936 162.71255 258.8 162.71255Q257.3625 162.71255 256.53436 161.66568Q255.53436 160.41568 255.53436 157.60318ZM256.8 157.60318Q256.8 160.07193 257.3781 160.88443Q257.95624 161.69693 258.8 161.69693Q259.65936 161.69693 260.2375 160.88443Q260.8156 160.0563 260.8156 157.60318Q260.8156 155.1188 260.2375 154.3063Q259.65936 153.4938 258.78436 153.4938Q257.9406 153.4938 257.4406 154.21255Q256.8 155.13443 256.8 157.60318Z" fill-rule="nonzero"/><path fill="#ffffff" d="M141.30252 246.82042Q140.5369 246.53917 140.1619 246.02354Q139.80252 245.50792 139.80252 244.77354Q139.80252 243.6798 140.58377 242.94542Q141.38065 242.19542 142.67752 242.19542Q143.99002 242.19542 144.7869 242.96104Q145.5994 243.72667 145.5994 244.82042Q145.5994 245.50792 145.2244 246.02354Q144.86502 246.53917 144.11502 246.82042Q145.0369 247.1173 145.52127 247.78917Q146.00565 248.46104 146.00565 249.39854Q146.00565 250.6798 145.0994 251.5548Q144.19315 252.4298 142.70877 252.4298Q141.2244 252.4298 140.30252 251.5548Q139.39627 250.66417 139.39627 249.35167Q139.39627 248.38292 139.89627 247.72667Q140.39627 247.0548 141.30252 246.82042ZM141.06815 244.7423Q141.06815 245.44542 141.52127 245.89854Q141.9744 246.35167 142.70877 246.35167Q143.42752 246.35167 143.88065 245.91417Q144.33377 245.46104 144.33377 244.8048Q144.33377 244.13292 143.86502 243.6798Q143.39627 243.21104 142.69315 243.21104Q141.99002 243.21104 141.52127 243.66417Q141.06815 244.10167 141.06815 244.7423ZM140.6619 249.3673Q140.6619 249.89854 140.9119 250.39854Q141.1619 250.88292 141.64627 251.14854Q142.14627 251.41417 142.7244 251.41417Q143.5994 251.41417 144.1619 250.85167Q144.74002 250.28917 144.74002 249.41417Q144.74002 248.52354 144.14627 247.94542Q143.56815 247.35167 142.67752 247.35167Q141.80252 247.35167 141.2244 247.9298Q140.6619 248.50792 140.6619 249.3673ZM147.4119 249.63292L148.70877 249.52354Q148.8494 250.46104 149.36502 250.94542Q149.89627 251.41417 150.63065 251.41417Q151.52127 251.41417 152.13065 250.7423Q152.75565 250.07042 152.75565 248.97667Q152.75565 247.91417 152.1619 247.3048Q151.56815 246.69542 150.61502 246.69542Q150.02127 246.69542 149.5369 246.97667Q149.06815 247.2423 148.7869 247.66417L147.63065 247.52354L148.5994 242.3673L153.58377 242.3673L153.58377 243.5548L149.58377 243.5548L149.05252 246.2423Q149.95877 245.6173 150.94315 245.6173Q152.25565 245.6173 153.14627 246.52354Q154.05252 247.4298 154.05252 248.8673Q154.05252 250.22667 153.27127 251.21104Q152.30252 252.4298 150.63065 252.4298Q149.27127 252.4298 148.39627 251.66417Q147.5369 250.89854 147.4119 249.63292Z" fill-rule="nonzero"/><path fill="#ffffff" d="M102.1629 139.84814L100.92853 139.84814L100.92853 132.0044Q100.49103 132.42627 99.75665 132.86377Q99.0379 133.28564 98.4754 133.48877L98.4754 132.30127Q99.50665 131.8169 100.27228 131.1294Q101.05353 130.4419 101.36603 129.78564L102.1629 129.78564L102.1629 139.84814ZM110.1629 139.84814L108.92853 139.84814L108.92853 132.0044Q108.49103 132.42627 107.75665 132.86377Q107.0379 133.28564 106.4754 133.48877L106.4754 132.30127Q107.50665 131.8169 108.27228 131.1294Q109.05353 130.4419 109.36603 129.78564L110.1629 129.78564L110.1629 139.84814ZM119.9129 132.28564L118.69415 132.3794Q118.52228 131.64502 118.2254 131.3169Q117.7254 130.80127 116.99103 130.80127Q116.39728 130.80127 115.95978 131.1294Q115.38165 131.55127 115.0379 132.36377Q114.70978 133.17627 114.69415 134.67627Q115.13165 134.0044 115.77228 133.67627Q116.42853 133.34814 117.13165 133.34814Q118.36603 133.34814 119.2254 134.2544Q120.08478 135.16064 120.08478 136.59814Q120.08478 137.53564 119.67853 138.34814Q119.27228 139.16064 118.55353 139.59814Q117.8504 140.02002 116.94415 140.02002Q115.4129 140.02002 114.44415 138.89502Q113.4754 137.7544 113.4754 135.16064Q113.4754 132.2544 114.5379 130.92627Q115.4754 129.78564 117.06915 129.78564Q118.25665 129.78564 119.00665 130.45752Q119.75665 131.11377 119.9129 132.28564ZM114.88165 136.59814Q114.88165 137.23877 115.14728 137.8169Q115.42853 138.39502 115.9129 138.70752Q116.39728 139.0044 116.92853 139.0044Q117.70978 139.0044 118.27228 138.3794Q118.83478 137.7544 118.83478 136.67627Q118.83478 135.6294 118.27228 135.03564Q117.7254 134.42627 116.88165 134.42627Q116.05353 134.42627 115.45978 135.03564Q114.88165 135.6294 114.88165 136.59814Z" fill-rule="nonzero"/><path fill="#4285f4" d="M360.45 75.0C360.45 78.313705 357.7637 81.0 354.45 81.0C351.1363 81.0 348.45 78.313705 348.45 75.0C348.45 71.686295 351.1363 69.0 354.45 69.0C357.7637 69.0 360.45 71.686295 360.45 75.0Z" fill-rule="nonzero"/><path fill="#1a1a1a" d="M369.3719 79.0L369.3719 70.40625L372.6219 70.40625Q373.46564 70.40625 373.91876 70.484375Q374.5594 70.59375 374.98126 70.890625Q375.41876 71.1875 375.66876 71.71875Q375.9344 72.25 375.9344 72.890625Q375.9344 73.984375 375.23126 74.75Q374.54376 75.5 372.71564 75.5L370.5125 75.5L370.5125 79.0L369.3719 79.0ZM370.5125 74.5L372.73126 74.5Q373.84064 74.5 374.29376 74.09375Q374.7625 73.671875 374.7625 72.921875Q374.7625 72.390625 374.48126 72.015625Q374.21564 71.625 373.77814 71.5Q373.48126 71.421875 372.71564 71.421875L370.5125 71.421875L370.5125 74.5ZM376.85626 75.890625Q376.85626 74.15625 377.8094 73.328125Q378.60626 72.640625 379.7625 72.640625Q381.04376 72.640625 381.85626 73.484375Q382.6844 74.3125 382.6844 75.796875Q382.6844 77.0 382.325 77.6875Q381.96564 78.375 381.2625 78.765625Q380.575 79.140625 379.7625 79.140625Q378.46564 79.140625 377.65314 78.3125Q376.85626 77.46875 376.85626 75.890625ZM377.9344 75.890625Q377.9344 77.078125 378.45 77.671875Q378.98126 78.265625 379.7625 78.265625Q380.5594 78.265625 381.075 77.671875Q381.59064 77.078125 381.59064 75.859375Q381.59064 74.703125 381.0594 74.109375Q380.54376 73.515625 379.7625 73.515625Q378.98126 73.515625 378.45 74.109375Q377.9344 74.6875 377.9344 75.890625ZM383.825 77.140625L384.85626 76.984375Q384.95 77.609375 385.34064 77.9375Q385.7469 78.265625 386.48126 78.265625Q387.2 78.265625 387.54376 77.984375Q387.90314 77.6875 387.90314 77.28125Q387.90314 76.921875 387.59064 76.71875Q387.3719 76.578125 386.5125 76.359375Q385.35626 76.0625 384.90314 75.859375Q384.46564 75.640625 384.23126 75.265625Q383.9969 74.890625 383.9969 74.421875Q383.9969 74.015625 384.1844 73.65625Q384.3719 73.296875 384.7 73.0625Q384.95 72.890625 385.3719 72.765625Q385.79376 72.640625 386.29376 72.640625Q387.0125 72.640625 387.5594 72.859375Q388.1219 73.0625 388.3875 73.421875Q388.65314 73.78125 388.7469 74.375L387.71564 74.515625Q387.65314 74.046875 387.3094 73.78125Q386.98126 73.5 386.35626 73.5Q385.6375 73.5 385.325 73.75Q385.0125 73.984375 385.0125 74.3125Q385.0125 74.515625 385.1375 74.671875Q385.27814 74.84375 385.54376 74.953125Q385.7 75.015625 386.48126 75.21875Q387.60626 75.53125 388.04376 75.71875Q388.48126 75.90625 388.73126 76.265625Q388.98126 76.625 388.98126 77.171875Q388.98126 77.703125 388.66876 78.171875Q388.3719 78.625 387.79376 78.890625Q387.21564 79.140625 386.48126 79.140625Q385.2625 79.140625 384.6219 78.640625Q383.9969 78.125 383.825 77.140625ZM393.54376 78.0625L393.7 78.984375Q393.2469 79.078125 392.90314 79.078125Q392.325 79.078125 392.0125 78.90625Q391.7 78.71875 391.5594 78.421875Q391.4344 78.125 391.4344 77.171875L391.4344 73.59375L390.66876 73.59375L390.66876 72.78125L391.4344 72.78125L391.4344 71.234375L392.48126 70.609375L392.48126 72.78125L393.54376 72.78125L393.54376 73.59375L392.48126 73.59375L392.48126 77.234375Q392.48126 77.6875 392.52814 77.8125Q392.59064 77.9375 392.71564 78.015625Q392.84064 78.09375 393.075 78.09375Q393.2625 78.09375 393.54376 78.0625ZM397.3719 79.0L397.3719 70.40625L400.6219 70.40625Q401.46564 70.40625 401.91876 70.484375Q402.5594 70.59375 402.98126 70.890625Q403.41876 71.1875 403.66876 71.71875Q403.9344 72.25 403.9344 72.890625Q403.9344 73.984375 403.23126 74.75Q402.54376 75.5 400.71564 75.5L398.5125 75.5L398.5125 79.0L397.3719 79.0ZM398.5125 74.5L400.73126 74.5Q401.84064 74.5 402.29376 74.09375Q402.7625 73.671875 402.7625 72.921875Q402.7625 72.390625 402.48126 72.015625Q402.21564 71.625 401.77814 71.5Q401.48126 71.421875 400.71564 71.421875L398.5125 71.421875L398.5125 74.5ZM409.325 79.0L409.325 78.078125Q408.59064 79.140625 407.34064 79.140625Q406.79376 79.140625 406.3094 78.9375Q405.84064 78.71875 405.60626 78.40625Q405.3719 78.078125 405.27814 77.609375Q405.21564 77.3125 405.21564 76.625L405.21564 72.78125L406.27814 72.78125L406.27814 76.234375Q406.27814 77.046875 406.34064 77.34375Q406.4344 77.75 406.7469 78.0Q407.075 78.234375 407.5594 78.234375Q408.02814 78.234375 408.4344 78.0Q408.85626 77.75 409.02814 77.328125Q409.21564 76.90625 409.21564 76.109375L409.21564 72.78125L410.2625 72.78125L410.2625 79.0L409.325 79.0ZM412.23126 79.0L412.23126 72.78125L413.1844 72.78125L413.1844 73.71875Q413.54376 73.0625 413.84064 72.859375Q414.15314 72.640625 414.52814 72.640625Q415.0594 72.640625 415.60626 72.96875L415.2469 73.953125Q414.85626 73.71875 414.48126 73.71875Q414.1219 73.71875 413.84064 73.9375Q413.575 74.140625 413.46564 74.515625Q413.27814 75.078125 413.27814 75.734375L413.27814 79.0L412.23126 79.0ZM420.3094 76.71875L421.34064 76.859375Q421.16876 77.921875 420.46564 78.53125Q419.7625 79.140625 418.7469 79.140625Q417.46564 79.140625 416.6844 78.3125Q415.91876 77.46875 415.91876 75.90625Q415.91876 74.90625 416.2469 74.15625Q416.59064 73.390625 417.2625 73.015625Q417.95 72.640625 418.7625 72.640625Q419.7625 72.640625 420.40314 73.15625Q421.0594 73.65625 421.2469 74.609375L420.21564 74.765625Q420.075 74.140625 419.7 73.828125Q419.325 73.5 418.79376 73.5Q417.9969 73.5 417.4969 74.078125Q416.9969 74.640625 416.9969 75.875Q416.9969 77.140625 417.48126 77.703125Q417.96564 78.265625 418.73126 78.265625Q419.35626 78.265625 419.7625 77.890625Q420.1844 77.515625 420.3094 76.71875ZM422.2469 79.0L422.2469 70.40625L423.29376 70.40625L423.29376 73.484375Q424.02814 72.640625 425.15314 72.640625Q425.85626 72.640625 426.35626 72.921875Q426.8719 73.1875 427.09064 73.671875Q427.3094 74.140625 427.3094 75.0625L427.3094 79.0L426.2625 79.0L426.2625 75.0625Q426.2625 74.265625 425.91876 73.90625Q425.575 73.546875 424.95 73.546875Q424.48126 73.546875 424.0594 73.796875Q423.65314 74.03125 423.46564 74.453125Q423.29376 74.859375 423.29376 75.59375L423.29376 79.0L422.2469 79.0ZM433.3094 78.234375Q432.71564 78.734375 432.16876 78.9375Q431.6375 79.140625 431.0125 79.140625Q429.98126 79.140625 429.4344 78.640625Q428.8875 78.140625 428.8875 77.359375Q428.8875 76.90625 429.09064 76.53125Q429.29376 76.140625 429.6375 75.921875Q429.98126 75.6875 430.40314 75.578125Q430.7 75.484375 431.34064 75.40625Q432.60626 75.265625 433.21564 75.046875Q433.21564 74.828125 433.21564 74.78125Q433.21564 74.125 432.91876 73.859375Q432.5125 73.515625 431.71564 73.515625Q430.98126 73.515625 430.6219 73.78125Q430.2625 74.03125 430.09064 74.6875L429.0594 74.546875Q429.2 73.890625 429.52814 73.484375Q429.85626 73.078125 430.46564 72.859375Q431.075 72.640625 431.8719 72.640625Q432.66876 72.640625 433.16876 72.828125Q433.66876 73.015625 433.90314 73.296875Q434.1375 73.578125 434.23126 74.015625Q434.27814 74.28125 434.27814 74.984375L434.27814 76.390625Q434.27814 77.859375 434.34064 78.25Q434.41876 78.640625 434.6219 79.0L433.5125 79.0Q433.35626 78.671875 433.3094 78.234375ZM433.21564 75.875Q432.6375 76.109375 431.4969 76.28125Q430.84064 76.375 430.575 76.5Q430.3094 76.609375 430.15314 76.828125Q430.0125 77.046875 430.0125 77.328125Q430.0125 77.75 430.325 78.03125Q430.65314 78.3125 431.2625 78.3125Q431.8719 78.3125 432.34064 78.046875Q432.825 77.78125 433.04376 77.3125Q433.21564 76.953125 433.21564 76.265625L433.21564 75.875ZM435.825 77.140625L436.85626 76.984375Q436.95 77.609375 437.34064 77.9375Q437.7469 78.265625 438.48126 78.265625Q439.2 78.265625 439.54376 77.984375Q439.90314 77.6875 439.90314 77.28125Q439.90314 76.921875 439.59064 76.71875Q439.3719 76.578125 438.5125 76.359375Q437.35626 76.0625 436.90314 75.859375Q436.46564 75.640625 436.23126 75.265625Q435.9969 74.890625 435.9969 74.421875Q435.9969 74.015625 436.1844 73.65625Q436.3719 73.296875 436.7 73.0625Q436.95 72.890625 437.3719 72.765625Q437.79376 72.640625 438.29376 72.640625Q439.0125 72.640625 439.5594 72.859375Q440.1219 73.0625 440.3875 73.421875Q440.65314 73.78125 440.7469 74.375L439.71564 74.515625Q439.65314 74.046875 439.3094 73.78125Q438.98126 73.5 438.35626 73.5Q437.6375 73.5 437.325 73.75Q437.0125 73.984375 437.0125 74.3125Q437.0125 74.515625 437.1375 74.671875Q437.27814 74.84375 437.54376 74.953125Q437.7 75.015625 438.48126 75.21875Q439.60626 75.53125 440.04376 75.71875Q440.48126 75.90625 440.73126 76.265625Q440.98126 76.625 440.98126 77.171875Q440.98126 77.703125 440.66876 78.171875Q440.3719 78.625 439.79376 78.890625Q439.21564 79.140625 438.48126 79.140625Q437.2625 79.140625 436.6219 78.640625Q435.9969 78.125 435.825 77.140625ZM447.4969 77.0L448.59064 77.125Q448.34064 78.078125 447.6375 78.609375Q446.9344 79.140625 445.85626 79.140625Q444.4969 79.140625 443.6844 78.296875Q442.8875 77.453125 442.8875 75.9375Q442.8875 74.375 443.7 73.515625Q444.5125 72.640625 445.79376 72.640625Q447.04376 72.640625 447.825 73.484375Q448.6219 74.328125 448.6219 75.875Q448.6219 75.96875 448.6219 76.15625L443.98126 76.15625Q444.04376 77.1875 444.5594 77.734375Q445.075 78.265625 445.85626 78.265625Q446.4344 78.265625 446.84064 77.96875Q447.2625 77.65625 447.4969 77.0ZM444.04376 75.296875L447.5125 75.296875Q447.45 74.5 447.1219 74.109375Q446.60626 73.5 445.8094 73.5Q445.075 73.5 444.575 73.984375Q444.09064 74.46875 444.04376 75.296875Z" fill-rule="nonzero"/><path fill="#ea4335" d="M360.45 99.0C360.45 102.313705 357.7637 105.0 354.45 105.0C351.1363 105.0 348.45 102.313705 348.45 99.0C348.45 95.686295 351.1363 93.0 354.45 93.0C357.7637 93.0 360.45 95.686295 360.45 99.0Z" fill-rule="nonzero"/><path fill="#1a1a1a" d="M369.3719 103.0L369.3719 94.40625L372.6219 94.40625Q373.46564 94.40625 373.91876 94.484375Q374.5594 94.59375 374.98126 94.890625Q375.41876 95.1875 375.66876 95.71875Q375.9344 96.25 375.9344 96.890625Q375.9344 97.984375 375.23126 98.75Q374.54376 99.5 372.71564 99.5L370.5125 99.5L370.5125 103.0L369.3719 103.0ZM370.5125 98.5L372.73126 98.5Q373.84064 98.5 374.29376 98.09375Q374.7625 97.671875 374.7625 96.921875Q374.7625 96.390625 374.48126 96.015625Q374.21564 95.625 373.77814 95.5Q373.48126 95.421875 372.71564 95.421875L370.5125 95.421875L370.5125 98.5ZM376.85626 99.890625Q376.85626 98.15625 377.8094 97.328125Q378.60626 96.640625 379.7625 96.640625Q381.04376 96.640625 381.85626 97.484375Q382.6844 98.3125 382.6844 99.796875Q382.6844 101.0 382.325 101.6875Q381.96564 102.375 381.2625 102.765625Q380.575 103.140625 379.7625 103.140625Q378.46564 103.140625 377.65314 102.3125Q376.85626 101.46875 376.85626 99.890625ZM377.9344 99.890625Q377.9344 101.078125 378.45 101.671875Q378.98126 102.265625 379.7625 102.265625Q380.5594 102.265625 381.075 101.671875Q381.59064 101.078125 381.59064 99.859375Q381.59064 98.703125 381.0594 98.109375Q380.54376 97.515625 379.7625 97.515625Q378.98126 97.515625 378.45 98.109375Q377.9344 98.6875 377.9344 99.890625ZM383.825 101.140625L384.85626 100.984375Q384.95 101.609375 385.34064 101.9375Q385.7469 102.265625 386.48126 102.265625Q387.2 102.265625 387.54376 101.984375Q387.90314 101.6875 387.90314 101.28125Q387.90314 100.921875 387.59064 100.71875Q387.3719 100.578125 386.5125 100.359375Q385.35626 100.0625 384.90314 99.859375Q384.46564 99.640625 384.23126 99.265625Q383.9969 98.890625 383.9969 98.421875Q383.9969 98.015625 384.1844 97.65625Q384.3719 97.296875 384.7 97.0625Q384.95 96.890625 385.3719 96.765625Q385.79376 96.640625 386.29376 96.640625Q387.0125 96.640625 387.5594 96.859375Q388.1219 97.0625 388.3875 97.421875Q388.65314 97.78125 388.7469 98.375L387.71564 98.515625Q387.65314 98.046875 387.3094 97.78125Q386.98126 97.5 386.35626 97.5Q385.6375 97.5 385.325 97.75Q385.0125 97.984375 385.0125 98.3125Q385.0125 98.515625 385.1375 98.671875Q385.27814 98.84375 385.54376 98.953125Q385.7 99.015625 386.48126 99.21875Q387.60626 99.53125 388.04376 99.71875Q388.48126 99.90625 388.73126 100.265625Q388.98126 100.625 388.98126 101.171875Q388.98126 101.703125 388.66876 102.171875Q388.3719 102.625 387.79376 102.890625Q387.21564 103.140625 386.48126 103.140625Q385.2625 103.140625 384.6219 102.640625Q383.9969 102.125 383.825 101.140625ZM393.54376 102.0625L393.7 102.984375Q393.2469 103.078125 392.90314 103.078125Q392.325 103.078125 392.0125 102.90625Q391.7 102.71875 391.5594 102.421875Q391.4344 102.125 391.4344 101.171875L391.4344 97.59375L390.66876 97.59375L390.66876 96.78125L391.4344 96.78125L391.4344 95.234375L392.48126 94.609375L392.48126 96.78125L393.54376 96.78125L393.54376 97.59375L392.48126 97.59375L392.48126 101.234375Q392.48126 101.6875 392.52814 101.8125Q392.59064 101.9375 392.71564 102.015625Q392.84064 102.09375 393.075 102.09375Q393.2625 102.09375 393.54376 102.0625ZM397.3875 103.0L397.3875 94.40625L401.2 94.40625Q402.35626 94.40625 402.95 94.640625Q403.54376 94.875 403.90314 95.46875Q404.2625 96.046875 404.2625 96.75Q404.2625 97.671875 403.66876 98.296875Q403.075 98.921875 401.84064 99.09375Q402.29376 99.3125 402.52814 99.515625Q403.02814 99.96875 403.46564 100.65625L404.96564 103.0L403.52814 103.0L402.40314 101.21875Q401.90314 100.4375 401.575 100.03125Q401.2625 99.625 400.9969 99.46875Q400.7469 99.296875 400.48126 99.21875Q400.29376 99.1875 399.85626 99.1875L398.52814 99.1875L398.52814 103.0L397.3875 103.0ZM398.52814 98.203125L400.98126 98.203125Q401.7469 98.203125 402.1844 98.046875Q402.6375 97.875 402.85626 97.53125Q403.09064 97.171875 403.09064 96.75Q403.09064 96.140625 402.6375 95.75Q402.2 95.359375 401.2469 95.359375L398.52814 95.359375L398.52814 98.203125ZM410.4969 101.0L411.59064 101.125Q411.34064 102.078125 410.6375 102.609375Q409.9344 103.140625 408.85626 103.140625Q407.4969 103.140625 406.6844 102.296875Q405.8875 101.453125 405.8875 99.9375Q405.8875 98.375 406.7 97.515625Q407.5125 96.640625 408.79376 96.640625Q410.04376 96.640625 410.825 97.484375Q411.6219 98.328125 411.6219 99.875Q411.6219 99.96875 411.6219 100.15625L406.98126 100.15625Q407.04376 101.1875 407.5594 101.734375Q408.075 102.265625 408.85626 102.265625Q409.4344 102.265625 409.84064 101.96875Q410.2625 101.65625 410.4969 101.0ZM407.04376 99.296875L410.5125 99.296875Q410.45 98.5 410.1219 98.109375Q409.60626 97.5 408.8094 97.5Q408.075 97.5 407.575 97.984375Q407.09064 98.46875 407.04376 99.296875ZM413.2469 103.0L413.2469 96.78125L414.1844 96.78125L414.1844 97.65625Q414.8719 96.640625 416.16876 96.640625Q416.73126 96.640625 417.2 96.84375Q417.6844 97.046875 417.91876 97.375Q418.15314 97.703125 418.2469 98.140625Q418.29376 98.4375 418.29376 99.171875L418.29376 103.0L417.2469 103.0L417.2469 99.21875Q417.2469 98.5625 417.1219 98.25Q416.9969 97.9375 416.6844 97.75Q416.3719 97.546875 415.95 97.546875Q415.27814 97.546875 414.77814 97.984375Q414.29376 98.40625 414.29376 99.59375L414.29376 103.0L413.2469 103.0ZM424.4969 101.0L425.59064 101.125Q425.34064 102.078125 424.6375 102.609375Q423.9344 103.140625 422.85626 103.140625Q421.4969 103.140625 420.6844 102.296875Q419.8875 101.453125 419.8875 99.9375Q419.8875 98.375 420.7 97.515625Q421.5125 96.640625 422.79376 96.640625Q424.04376 96.640625 424.825 97.484375Q425.6219 98.328125 425.6219 99.875Q425.6219 99.96875 425.6219 100.15625L420.98126 100.15625Q421.04376 101.1875 421.5594 101.734375Q422.075 102.265625 422.85626 102.265625Q423.4344 102.265625 423.84064 101.96875Q424.2625 101.65625 424.4969 101.0ZM421.04376 99.296875L424.5125 99.296875Q424.45 98.5 424.1219 98.109375Q423.60626 97.5 422.8094 97.5Q422.075 97.5 421.575 97.984375Q421.09064 98.46875 421.04376 99.296875ZM428.3875 103.0L426.48126 96.78125L427.575 96.78125L428.5594 100.375L428.9344 101.703125Q428.96564 101.609375 429.2625 100.421875L430.2469 96.78125L431.325 96.78125L432.2625 100.390625L432.575 101.578125L432.9344 100.375L433.9969 96.78125L435.02814 96.78125L433.075 103.0L431.98126 103.0L430.9969 99.265625L430.7469 98.21875L429.4969 103.0L428.3875 103.0ZM440.3094 102.234375Q439.71564 102.734375 439.16876 102.9375Q438.6375 103.140625 438.0125 103.140625Q436.98126 103.140625 436.4344 102.640625Q435.8875 102.140625 435.8875 101.359375Q435.8875 100.90625 436.09064 100.53125Q436.29376 100.140625 436.6375 99.921875Q436.98126 99.6875 437.40314 99.578125Q437.7 99.484375 438.34064 99.40625Q439.60626 99.265625 440.21564 99.046875Q440.21564 98.828125 440.21564 98.78125Q440.21564 98.125 439.91876 97.859375Q439.5125 97.515625 438.71564 97.515625Q437.98126 97.515625 437.6219 97.78125Q437.2625 98.03125 437.09064 98.6875L436.0594 98.546875Q436.2 97.890625 436.52814 97.484375Q436.85626 97.078125 437.46564 96.859375Q438.075 96.640625 438.8719 96.640625Q439.66876 96.640625 440.16876 96.828125Q440.66876 97.015625 440.90314 97.296875Q441.1375 97.578125 441.23126 98.015625Q441.27814 98.28125 441.27814 98.984375L441.27814 100.390625Q441.27814 101.859375 441.34064 102.25Q441.41876 102.640625 441.6219 103.0L440.5125 103.0Q440.35626 102.671875 440.3094 102.234375ZM440.21564 99.875Q439.6375 100.109375 438.4969 100.28125Q437.84064 100.375 437.575 100.5Q437.3094 100.609375 437.15314 100.828125Q437.0125 101.046875 437.0125 101.328125Q437.0125 101.75 437.325 102.03125Q437.65314 102.3125 438.2625 102.3125Q438.8719 102.3125 439.34064 102.046875Q439.825 101.78125 440.04376 101.3125Q440.21564 100.953125 440.21564 100.265625L440.21564 99.875ZM443.21564 103.0L443.21564 94.40625L444.27814 94.40625L444.27814 103.0L443.21564 103.0Z" fill-rule="nonzero"/><path fill="#ff9900" d="M360.45 123.0C360.45 126.313705 357.7637 129.0 354.45 129.0C351.1363 129.0 348.45 126.313705 348.45 123.0C348.45 119.686295 351.1363 117.0 354.45 117.0C357.7637 117.0 360.45 119.686295 360.45 123.0Z" fill-rule="nonzero"/><path fill="#1a1a1a" d="M369.3719 127.0L369.3719 118.40625L372.6219 118.40625Q373.46564 118.40625 373.91876 118.484375Q374.5594 118.59375 374.98126 118.890625Q375.41876 119.1875 375.66876 119.71875Q375.9344 120.25 375.9344 120.890625Q375.9344 121.984375 375.23126 122.75Q374.54376 123.5 372.71564 123.5L370.5125 123.5L370.5125 127.0L369.3719 127.0ZM370.5125 122.5L372.73126 122.5Q373.84064 122.5 374.29376 122.09375Q374.7625 121.671875 374.7625 120.921875Q374.7625 120.390625 374.48126 120.015625Q374.21564 119.625 373.77814 119.5Q373.48126 119.421875 372.71564 119.421875L370.5125 119.421875L370.5125 122.5ZM377.23126 127.0L377.23126 120.78125L378.1844 120.78125L378.1844 121.71875Q378.54376 121.0625 378.84064 120.859375Q379.15314 120.640625 379.52814 120.640625Q380.0594 120.640625 380.60626 120.96875L380.2469 121.953125Q379.85626 121.71875 379.48126 121.71875Q379.1219 121.71875 378.84064 121.9375Q378.575 122.140625 378.46564 122.515625Q378.27814 123.078125 378.27814 123.734375L378.27814 127.0L377.23126 127.0ZM385.4969 125.0L386.59064 125.125Q386.34064 126.078125 385.6375 126.609375Q384.9344 127.140625 383.85626 127.140625Q382.4969 127.140625 381.6844 126.296875Q380.8875 125.453125 380.8875 123.9375Q380.8875 122.375 381.7 121.515625Q382.5125 120.640625 383.79376 120.640625Q385.04376 120.640625 385.825 121.484375Q386.6219 122.328125 386.6219 123.875Q386.6219 123.96875 386.6219 124.15625L381.98126 124.15625Q382.04376 125.1875 382.5594 125.734375Q383.075 126.265625 383.85626 126.265625Q384.4344 126.265625 384.84064 125.96875Q385.2625 125.65625 385.4969 125.0ZM382.04376 123.296875L385.5125 123.296875Q385.45 122.5 385.1219 122.109375Q384.60626 121.5 383.8094 121.5Q383.075 121.5 382.575 121.984375Q382.09064 122.46875 382.04376 123.296875ZM391.3875 127.0L391.3875 118.40625L395.2 118.40625Q396.35626 118.40625 396.95 118.640625Q397.54376 118.875 397.90314 119.46875Q398.2625 120.046875 398.2625 120.75Q398.2625 121.671875 397.66876 122.296875Q397.075 122.921875 395.84064 123.09375Q396.29376 123.3125 396.52814 123.515625Q397.02814 123.96875 397.46564 124.65625L398.96564 127.0L397.52814 127.0L396.40314 125.21875Q395.90314 124.4375 395.575 124.03125Q395.2625 123.625 394.9969 123.46875Q394.7469 123.296875 394.48126 123.21875Q394.29376 123.1875 393.85626 123.1875L392.52814 123.1875L392.52814 127.0L391.3875 127.0ZM392.52814 122.203125L394.98126 122.203125Q395.7469 122.203125 396.1844 122.046875Q396.6375 121.875 396.85626 121.53125Q397.09064 121.171875 397.09064 120.75Q397.09064 120.140625 396.6375 119.75Q396.2 119.359375 395.2469 119.359375L392.52814 119.359375L392.52814 122.203125ZM404.4969 125.0L405.59064 125.125Q405.34064 126.078125 404.6375 126.609375Q403.9344 127.140625 402.85626 127.140625Q401.4969 127.140625 400.6844 126.296875Q399.8875 125.453125 399.8875 123.9375Q399.8875 122.375 400.7 121.515625Q401.5125 120.640625 402.79376 120.640625Q404.04376 120.640625 404.825 121.484375Q405.6219 122.328125 405.6219 123.875Q405.6219 123.96875 405.6219 124.15625L400.98126 124.15625Q401.04376 125.1875 401.5594 125.734375Q402.075 126.265625 402.85626 126.265625Q403.4344 126.265625 403.84064 125.96875Q404.2625 125.65625 404.4969 125.0ZM401.04376 123.296875L404.5125 123.296875Q404.45 122.5 404.1219 122.109375Q403.60626 121.5 402.8094 121.5Q402.075 121.5 401.575 121.984375Q401.09064 122.46875 401.04376 123.296875ZM407.2469 127.0L407.2469 120.78125L408.1844 120.78125L408.1844 121.65625Q408.8719 120.640625 410.16876 120.640625Q410.73126 120.640625 411.2 120.84375Q411.6844 121.046875 411.91876 121.375Q412.15314 121.703125 412.2469 122.140625Q412.29376 122.4375 412.29376 123.171875L412.29376 127.0L411.2469 127.0L411.2469 123.21875Q411.2469 122.5625 411.1219 122.25Q410.9969 121.9375 410.6844 121.75Q410.3719 121.546875 409.95 121.546875Q409.27814 121.546875 408.77814 121.984375Q408.29376 122.40625 408.29376 123.59375L408.29376 127.0L407.2469 127.0ZM418.4969 125.0L419.59064 125.125Q419.34064 126.078125 418.6375 126.609375Q417.9344 127.140625 416.85626 127.140625Q415.4969 127.140625 414.6844 126.296875Q413.8875 125.453125 413.8875 123.9375Q413.8875 122.375 414.7 121.515625Q415.5125 120.640625 416.79376 120.640625Q418.04376 120.640625 418.825 121.484375Q419.6219 122.328125 419.6219 123.875Q419.6219 123.96875 419.6219 124.15625L414.98126 124.15625Q415.04376 125.1875 415.5594 125.734375Q416.075 126.265625 416.85626 126.265625Q417.4344 126.265625 417.84064 125.96875Q418.2625 125.65625 418.4969 125.0ZM415.04376 123.296875L418.5125 123.296875Q418.45 122.5 418.1219 122.109375Q417.60626 121.5 416.8094 121.5Q416.075 121.5 415.575 121.984375Q415.09064 122.46875 415.04376 123.296875ZM422.3875 127.0L420.48126 120.78125L421.575 120.78125L422.5594 124.375L422.9344 125.703125Q422.96564 125.609375 423.2625 124.421875L424.2469 120.78125L425.325 120.78125L426.2625 124.390625L426.575 125.578125L426.9344 124.375L427.9969 120.78125L429.02814 120.78125L427.075 127.0L425.98126 127.0L424.9969 123.265625L424.7469 122.21875L423.4969 127.0L422.3875 127.0ZM434.3094 126.234375Q433.71564 126.734375 433.16876 126.9375Q432.6375 127.140625 432.0125 127.140625Q430.98126 127.140625 430.4344 126.640625Q429.8875 126.140625 429.8875 125.359375Q429.8875 124.90625 430.09064 124.53125Q430.29376 124.140625 430.6375 123.921875Q430.98126 123.6875 431.40314 123.578125Q431.7 123.484375 432.34064 123.40625Q433.60626 123.265625 434.21564 123.046875Q434.21564 122.828125 434.21564 122.78125Q434.21564 122.125 433.91876 121.859375Q433.5125 121.515625 432.71564 121.515625Q431.98126 121.515625 431.6219 121.78125Q431.2625 122.03125 431.09064 122.6875L430.0594 122.546875Q430.2 121.890625 430.52814 121.484375Q430.85626 121.078125 431.46564 120.859375Q432.075 120.640625 432.8719 120.640625Q433.66876 120.640625 434.16876 120.828125Q434.66876 121.015625 434.90314 121.296875Q435.1375 121.578125 435.23126 122.015625Q435.27814 122.28125 435.27814 122.984375L435.27814 124.390625Q435.27814 125.859375 435.34064 126.25Q435.41876 126.640625 435.6219 127.0L434.5125 127.0Q434.35626 126.671875 434.3094 126.234375ZM434.21564 123.875Q433.6375 124.109375 432.4969 124.28125Q431.84064 124.375 431.575 124.5Q431.3094 124.609375 431.15314 124.828125Q431.0125 125.046875 431.0125 125.328125Q431.0125 125.75 431.325 126.03125Q431.65314 126.3125 432.2625 126.3125Q432.8719 126.3125 433.34064 126.046875Q433.825 125.78125 434.04376 125.3125Q434.21564 124.953125 434.21564 124.265625L434.21564 123.875ZM437.21564 127.0L437.21564 118.40625L438.27814 118.40625L438.27814 127.0L437.21564 127.0Z" fill-rule="nonzero"/><path fill="#34a853" d="M360.45 147.0C360.45 150.3137 357.7637 153.0 354.45 153.0C351.1363 153.0 348.45 150.3137 348.45 147.0C348.45 143.6863 351.1363 141.0 354.45 141.0C357.7637 141.0 360.45 143.6863 360.45 147.0Z" fill-rule="nonzero"/><path fill="#1a1a1a" d="M369.40314 151.0L369.40314 142.40625L375.60626 142.40625L375.60626 143.42188L370.54376 143.42188L370.54376 146.04688L375.29376 146.04688L375.29376 147.0625L370.54376 147.0625L370.54376 149.98438L375.8094 149.98438L375.8094 151.0L369.40314 151.0ZM376.54376 151.0L378.8094 147.76562L376.71564 144.78125L378.02814 144.78125L378.98126 146.23438Q379.2469 146.65625 379.41876 146.9375Q379.66876 146.54688 379.8875 146.25L380.9344 144.78125L382.2 144.78125L380.04376 147.70312L382.35626 151.0L381.075 151.0L379.79376 149.0625L379.45 148.54688L377.8094 151.0L376.54376 151.0ZM382.2469 153.39062L382.2469 144.78125L383.2 144.78125L383.2 145.57812Q383.54376 145.10938 383.96564 144.875Q384.40314 144.64062 385.0125 144.64062Q385.8094 144.64062 386.41876 145.04688Q387.02814 145.45312 387.325 146.20312Q387.6375 146.95312 387.6375 147.84375Q387.6375 148.79688 387.29376 149.5625Q386.96564 150.32812 386.3094 150.73438Q385.65314 151.14062 384.9344 151.14062Q384.40314 151.14062 383.98126 150.92188Q383.5594 150.6875 383.29376 150.35938L383.29376 153.39062L382.2469 153.39062ZM383.2 147.92188Q383.2 149.125 383.6844 149.70312Q384.16876 150.26562 384.85626 150.26562Q385.5594 150.26562 386.0594 149.67188Q386.5594 149.07812 386.5594 147.82812Q386.5594 146.64062 386.075 146.0625Q385.59064 145.46875 384.90314 145.46875Q384.23126 145.46875 383.71564 146.09375Q383.2 146.71875 383.2 147.92188ZM389.2469 143.625L389.2469 142.40625L390.3094 142.40625L390.3094 143.625L389.2469 143.625ZM389.2469 151.0L389.2469 144.78125L390.3094 144.78125L390.3094 151.0L389.2469 151.0ZM392.23126 151.0L392.23126 144.78125L393.1844 144.78125L393.1844 145.71875Q393.54376 145.0625 393.84064 144.85938Q394.15314 144.64062 394.52814 144.64062Q395.0594 144.64062 395.60626 144.96875L395.2469 145.95312Q394.85626 145.71875 394.48126 145.71875Q394.1219 145.71875 393.84064 145.9375Q393.575 146.14062 393.46564 146.51562Q393.27814 147.07812 393.27814 147.73438L393.27814 151.0L392.23126 151.0ZM400.4969 149.0L401.59064 149.125Q401.34064 150.07812 400.6375 150.60938Q399.9344 151.14062 398.85626 151.14062Q397.4969 151.14062 396.6844 150.29688Q395.8875 149.45312 395.8875 147.9375Q395.8875 146.375 396.7 145.51562Q397.5125 144.64062 398.79376 144.64062Q400.04376 144.64062 400.825 145.48438Q401.6219 146.32812 401.6219 147.875Q401.6219 147.96875 401.6219 148.15625L396.98126 148.15625Q397.04376 149.1875 397.5594 149.73438Q398.075 150.26562 398.85626 150.26562Q399.4344 150.26562 399.84064 149.96875Q400.2625 149.65625 400.4969 149.0ZM397.04376 147.29688L400.5125 147.29688Q400.45 146.5 400.1219 146.10938Q399.60626 145.5 398.8094 145.5Q398.075 145.5 397.575 145.98438Q397.09064 146.46875 397.04376 147.29688ZM407.27814 151.0L407.27814 150.21875Q406.6844 151.14062 405.54376 151.14062Q404.79376 151.14062 404.16876 150.73438Q403.54376 150.3125 403.2 149.57812Q402.85626 148.84375 402.85626 147.89062Q402.85626 146.96875 403.16876 146.20312Q403.48126 145.4375 404.10626 145.04688Q404.73126 144.64062 405.4969 144.64062Q406.0594 144.64062 406.4969 144.875Q406.9344 145.10938 407.21564 145.48438L407.21564 142.40625L408.2625 142.40625L408.2625 151.0L407.27814 151.0ZM403.95 147.89062Q403.95 149.09375 404.45 149.6875Q404.95 150.26562 405.6375 150.26562Q406.325 150.26562 406.8094 149.70312Q407.29376 149.14062 407.29376 147.98438Q407.29376 146.70312 406.79376 146.10938Q406.3094 145.51562 405.59064 145.51562Q404.8875 145.51562 404.41876 146.09375Q403.95 146.65625 403.95 147.89062Z" fill-rule="nonzero"/><path fill="#999999" d="M15.70625 55.3L15.70625 45.284374L22.45625 45.284374L22.45625 46.45625L17.01875 46.45625L17.01875 49.565624L21.721874 49.565624L21.721874 50.753124L17.01875 50.753124L17.01875 55.3L15.70625 55.3ZM24.45625 55.3L24.45625 48.034374L25.565624 48.034374L25.565624 49.14375Q25.9875 48.3625 26.346874 48.128124Q26.70625 47.878124 27.14375 47.878124Q27.76875 47.878124 28.409374 48.26875L27.9875 49.409374Q27.534374 49.14375 27.08125 49.14375Q26.675 49.14375 26.346874 49.39375Q26.034374 49.628124 25.89375 50.065624Q25.690624 50.721874 25.690624 51.503124L25.690624 55.3L24.45625 55.3ZM29.01875 51.675Q29.01875 49.659374 30.14375 48.675Q31.065624 47.878124 32.425 47.878124Q33.909374 47.878124 34.8625 48.8625Q35.815624 49.83125 35.815624 51.565624Q35.815624 52.971874 35.39375 53.784374Q34.971874 54.58125 34.159374 55.034374Q33.3625 55.471874 32.425 55.471874Q30.89375 55.471874 29.95625 54.4875Q29.01875 53.503124 29.01875 51.675ZM30.284374 51.675Q30.284374 53.065624 30.89375 53.76875Q31.503124 54.45625 32.425 54.45625Q33.33125 54.45625 33.940624 53.753124Q34.55 53.05 34.55 51.628124Q34.55 50.284374 33.940624 49.596874Q33.33125 48.89375 32.425 48.89375Q31.503124 48.89375 30.89375 49.58125Q30.284374 50.26875 30.284374 51.675ZM37.471874 55.3L37.471874 48.034374L38.58125 48.034374L38.58125 49.065624Q38.909374 48.51875 39.471874 48.20625Q40.05 47.878124 40.76875 47.878124Q41.58125 47.878124 42.096874 48.221874Q42.6125 48.55 42.83125 49.14375Q43.690624 47.878124 45.065624 47.878124Q46.14375 47.878124 46.721874 48.471874Q47.315624 49.065624 47.315624 50.315624L47.315624 55.3L46.08125 55.3L46.08125 50.721874Q46.08125 49.9875 45.95625 49.659374Q45.846874 49.33125 45.534374 49.14375Q45.221874 48.940624 44.8 48.940624Q44.034374 48.940624 43.51875 49.45625Q43.01875 49.95625 43.01875 51.08125L43.01875 55.3L41.784374 55.3L41.784374 50.58125Q41.784374 49.76875 41.4875 49.3625Q41.190624 48.940624 40.503124 48.940624Q39.9875 48.940624 39.534374 49.221874Q39.096874 49.4875 38.89375 50.01875Q38.70625 50.534374 38.70625 51.534374L38.70625 55.3L37.471874 55.3ZM52.14375 52.659374L53.3625 52.4875Q53.58125 53.534374 54.08125 54.003124Q54.596874 54.45625 55.33125 54.45625Q56.20625 54.45625 56.8 53.8625Q57.39375 53.253124 57.39375 52.3625Q57.39375 51.51875 56.83125 50.971874Q56.284374 50.425 55.440624 50.425Q55.08125 50.425 54.565624 50.55L54.70625 49.471874Q54.83125 49.4875 54.89375 49.4875Q55.690624 49.4875 56.315624 49.08125Q56.940624 48.675 56.940624 47.815624Q56.940624 47.14375 56.4875 46.70625Q56.034374 46.253124 55.3 46.253124Q54.58125 46.253124 54.096874 46.70625Q53.628124 47.14375 53.4875 48.05L52.26875 47.83125Q52.4875 46.596874 53.284374 45.925Q54.08125 45.2375 55.26875 45.2375Q56.096874 45.2375 56.784374 45.596874Q57.471874 45.940624 57.83125 46.55Q58.20625 47.159374 58.20625 47.846874Q58.20625 48.4875 57.8625 49.01875Q57.51875 49.55 56.83125 49.878124Q57.721874 50.08125 58.20625 50.721874Q58.70625 51.3625 58.70625 52.346874Q58.70625 53.659374 57.7375 54.565624Q56.784374 55.471874 55.33125 55.471874Q54.003124 55.471874 53.128124 54.690624Q52.26875 53.909374 52.14375 52.659374ZM66.51875 47.7375L65.3 47.83125Q65.12813 47.096874 64.83125 46.76875Q64.33125 46.253124 63.596874 46.253124Q63.003124 46.253124 62.565624 46.58125Q61.9875 47.003124 61.64375 47.815624Q61.315624 48.628124 61.3 50.128124Q61.7375 49.45625 62.378124 49.128124Q63.034374 48.8 63.7375 48.8Q64.97188 48.8 65.83125 49.70625Q66.69063 50.6125 66.69063 52.05Q66.69063 52.9875 66.28438 53.8Q65.87813 54.6125 65.15938 55.05Q64.45625 55.471874 63.55 55.471874Q62.01875 55.471874 61.05 54.346874Q60.08125 53.20625 60.08125 50.6125Q60.08125 47.70625 61.14375 46.378124Q62.08125 45.2375 63.675 45.2375Q64.8625 45.2375 65.6125 45.909374Q66.3625 46.565624 66.51875 47.7375ZM61.4875 52.05Q61.4875 52.690624 61.753124 53.26875Q62.034374 53.846874 62.51875 54.159374Q63.003124 54.45625 63.534374 54.45625Q64.31563 54.45625 64.87813 53.83125Q65.44063 53.20625 65.44063 52.128124Q65.44063 51.08125 64.87813 50.4875Q64.33125 49.878124 63.4875 49.878124Q62.659374 49.878124 62.065624 50.4875Q61.4875 51.08125 61.4875 52.05ZM72.08125 55.3L72.08125 52.89375L67.72188 52.89375L67.72188 51.76875L72.3 45.284374L73.3 45.284374L73.3 51.76875L74.65938 51.76875L74.65938 52.89375L73.3 52.89375L73.3 55.3L72.08125 55.3ZM72.08125 51.76875L72.08125 47.253124L68.94063 51.76875L72.08125 51.76875ZM87.78438 51.784374L89.1125 52.128124Q88.69063 53.753124 87.59688 54.6125Q86.51875 55.471874 84.95625 55.471874Q83.33125 55.471874 82.31563 54.815624Q81.3 54.14375 80.76875 52.89375Q80.25313 51.64375 80.25313 50.20625Q80.25313 48.64375 80.84688 47.4875Q81.44063 46.315624 82.55 45.721874Q83.65938 45.1125 84.97188 45.1125Q86.4875 45.1125 87.50313 45.878124Q88.53438 46.64375 88.94063 48.01875L87.62813 48.33125Q87.28438 47.2375 86.6125 46.7375Q85.95625 46.2375 84.95625 46.2375Q83.8 46.2375 83.01875 46.8Q82.2375 47.346874 81.925 48.284374Q81.6125 49.221874 81.6125 50.20625Q81.6125 51.4875 81.9875 52.440624Q82.3625 53.39375 83.14375 53.8625Q83.925 54.33125 84.84688 54.33125Q85.95625 54.33125 86.72188 53.690624Q87.50313 53.05 87.78438 51.784374ZM90.47188 55.3L90.47188 45.284374L91.70625 45.284374L91.70625 48.878124Q92.56563 47.878124 93.87813 47.878124Q94.69063 47.878124 95.28438 48.20625Q95.87813 48.51875 96.12813 49.08125Q96.39375 49.628124 96.39375 50.70625L96.39375 55.3L95.15938 55.3L95.15938 50.70625Q95.15938 49.76875 94.75313 49.3625Q94.3625 48.940624 93.62813 48.940624Q93.08125 48.940624 92.59688 49.221874Q92.1125 49.503124 91.90938 49.9875Q91.70625 50.471874 91.70625 51.33125L91.70625 55.3L90.47188 55.3ZM103.20625 54.409374Q102.53438 54.9875 101.89375 55.2375Q101.26875 55.471874 100.53438 55.471874Q99.34688 55.471874 98.69063 54.89375Q98.05 54.3 98.05 53.378124Q98.05 52.846874 98.28438 52.409374Q98.53438 51.971874 98.925 51.70625Q99.33125 51.440624 99.81563 51.3Q100.175 51.20625 100.90938 51.1125Q102.40938 50.940624 103.1125 50.690624Q103.1125 50.440624 103.1125 50.378124Q103.1125 49.6125 102.76875 49.315624Q102.3 48.89375 101.3625 48.89375Q100.50313 48.89375 100.08125 49.20625Q99.675 49.503124 99.47188 50.26875L98.26875 50.1125Q98.425 49.33125 98.8 48.8625Q99.19063 48.39375 99.89375 48.14375Q100.6125 47.878124 101.55 47.878124Q102.47188 47.878124 103.05 48.096874Q103.62813 48.315624 103.89375 48.64375Q104.175 48.971874 104.28438 49.4875Q104.34688 49.8 104.34688 50.6125L104.34688 52.253124Q104.34688 53.971874 104.425 54.425Q104.50313 54.878124 104.7375 55.3L103.45625 55.3Q103.26875 54.909374 103.20625 54.409374ZM103.1125 51.659374Q102.44063 51.925 101.09688 52.128124Q100.34688 52.2375 100.01875 52.378124Q99.70625 52.503124 99.53438 52.76875Q99.3625 53.034374 99.3625 53.346874Q99.3625 53.846874 99.7375 54.175Q100.1125 54.503124 100.83125 54.503124Q101.55 54.503124 102.09688 54.190624Q102.64375 53.878124 102.90938 53.33125Q103.1125 52.925 103.1125 52.1125L103.1125 51.659374ZM109.15938 54.20625L109.33125 55.284374Q108.81563 55.39375 108.40938 55.39375Q107.7375 55.39375 107.3625 55.190624Q107.00313 54.971874 106.84688 54.628124Q106.70625 54.284374 106.70625 53.175L106.70625 49.003124L105.8 49.003124L105.8 48.034374L106.70625 48.034374L106.70625 46.2375L107.925 45.503124L107.925 48.034374L109.15938 48.034374L109.15938 49.003124L107.925 49.003124L107.925 53.2375Q107.925 53.76875 107.9875 53.925Q108.05 54.065624 108.19063 54.159374Q108.34688 54.253124 108.6125 54.253124Q108.83125 54.253124 109.15938 54.20625ZM109.9875 53.128124L111.19063 52.940624Q111.3 53.675 111.76875 54.065624Q112.2375 54.45625 113.08125 54.45625Q113.925 54.45625 114.33125 54.1125Q114.75313 53.76875 114.75313 53.3Q114.75313 52.878124 114.37813 52.64375Q114.12813 52.471874 113.12813 52.221874Q111.76875 51.878124 111.2375 51.628124Q110.72188 51.378124 110.45625 50.940624Q110.19063 50.503124 110.19063 49.971874Q110.19063 49.4875 110.40938 49.08125Q110.62813 48.659374 111.01875 48.378124Q111.3 48.175 111.78438 48.034374Q112.28438 47.878124 112.8625 47.878124Q113.70625 47.878124 114.34688 48.128124Q115.00313 48.3625 115.31563 48.784374Q115.62813 49.20625 115.7375 49.909374L114.53438 50.08125Q114.45625 49.51875 114.05 49.20625Q113.65938 48.89375 112.94063 48.89375Q112.09688 48.89375 111.7375 49.175Q111.37813 49.440624 111.37813 49.83125Q111.37813 50.065624 111.51875 50.253124Q111.675 50.45625 112.00313 50.58125Q112.175 50.64375 113.08125 50.89375Q114.39375 51.253124 114.90938 51.471874Q115.425 51.690624 115.70625 52.1125Q116.00313 52.534374 116.00313 53.159374Q116.00313 53.784374 115.64375 54.33125Q115.3 54.8625 114.6125 55.175Q113.94063 55.471874 113.08125 55.471874Q111.675 55.471874 110.925 54.878124Q110.19063 54.284374 109.9875 53.128124Z" fill-rule="nonzero"/><path fill="#757575" d="M15.20625 27.3625L17.7375 27.1125Q17.95625 28.378124 18.659374 28.9875Q19.3625 29.58125 20.55 29.58125Q21.8 29.58125 22.440624 29.05Q23.08125 28.51875 23.08125 27.8Q23.08125 27.346874 22.8 27.034374Q22.534374 26.70625 21.878124 26.471874Q21.409374 26.315624 19.784374 25.909374Q17.690624 25.39375 16.846874 24.628124Q15.659375 23.565624 15.659375 22.034374Q15.659375 21.05 16.221874 20.20625Q16.784374 19.346874 17.83125 18.89375Q18.878124 18.440624 20.3625 18.440624Q22.8 18.440624 24.01875 19.503124Q25.253124 20.565624 25.315624 22.346874L22.70625 22.45625Q22.534374 21.471874 21.9875 21.034374Q21.440624 20.596874 20.346874 20.596874Q19.20625 20.596874 18.565624 21.065624Q18.159374 21.3625 18.159374 21.8625Q18.159374 22.315624 18.534374 22.64375Q19.034374 23.065624 20.925 23.51875Q22.83125 23.95625 23.7375 24.440624Q24.64375 24.909374 25.159374 25.753124Q25.675 26.58125 25.675 27.8Q25.675 28.909374 25.05 29.878124Q24.440624 30.83125 23.315624 31.315624Q22.190624 31.784374 20.51875 31.784374Q18.08125 31.784374 16.76875 30.659374Q15.45625 29.51875 15.20625 27.3625ZM33.9875 31.55L33.9875 30.159374Q33.471874 30.89375 32.64375 31.33125Q31.815624 31.76875 30.89375 31.76875Q29.95625 31.76875 29.20625 31.3625Q28.45625 30.940624 28.1125 30.190624Q27.784374 29.440624 27.784374 28.128124L27.784374 22.221874L30.253124 22.221874L30.253124 26.503124Q30.253124 28.471874 30.39375 28.925Q30.534374 29.3625 30.89375 29.628124Q31.253124 29.878124 31.8 29.878124Q32.440624 29.878124 32.940624 29.534374Q33.440624 29.190624 33.628124 28.675Q33.815624 28.159374 33.815624 26.159374L33.815624 22.221874L36.284374 22.221874L36.284374 31.55L33.9875 31.55ZM38.7375 31.55L38.7375 18.659374L41.20625 18.659374L41.20625 23.3Q42.346874 22.003124 43.909374 22.003124Q45.6125 22.003124 46.721874 23.2375Q47.846874 24.471874 47.846874 26.784374Q47.846874 29.175 46.70625 30.471874Q45.58125 31.76875 43.95625 31.76875Q43.14375 31.76875 42.3625 31.3625Q41.596874 30.95625 41.034374 30.175L41.034374 31.55L38.7375 31.55ZM41.190624 26.675Q41.190624 28.128124 41.64375 28.83125Q42.284374 29.815624 43.346874 29.815624Q44.175 29.815624 44.7375 29.1125Q45.315624 28.409374 45.315624 26.909374Q45.315624 25.315624 44.7375 24.6125Q44.159374 23.89375 43.253124 23.89375Q42.3625 23.89375 41.76875 24.58125Q41.190624 25.26875 41.190624 26.675ZM48.971874 28.89375L51.45625 28.503124Q51.6125 29.221874 52.096874 29.596874Q52.58125 29.971874 53.440624 29.971874Q54.409374 29.971874 54.89375 29.628124Q55.20625 29.378124 55.20625 28.971874Q55.20625 28.690624 55.034374 28.503124Q54.846874 28.33125 54.20625 28.175Q51.221874 27.51875 50.425 26.971874Q49.315624 26.221874 49.315624 24.8625Q49.315624 23.659374 50.26875 22.83125Q51.2375 22.003124 53.2375 22.003124Q55.159374 22.003124 56.08125 22.628124Q57.01875 23.253124 57.378124 24.471874L55.05 24.909374Q54.89375 24.3625 54.471874 24.08125Q54.065624 23.784374 53.284374 23.784374Q52.315624 23.784374 51.89375 24.05Q51.6125 24.253124 51.6125 24.55Q51.6125 24.815624 51.8625 25.003124Q52.190624 25.253124 54.159374 25.70625Q56.128124 26.14375 56.925 26.8Q57.690624 27.45625 57.690624 28.628124Q57.690624 29.909374 56.6125 30.846874Q55.55 31.76875 53.440624 31.76875Q51.534374 31.76875 50.425 30.9875Q49.315624 30.20625 48.971874 28.89375ZM67.9875 24.971874L65.55 25.409374Q65.425 24.690624 64.9875 24.315624Q64.55 23.940624 63.8625 23.940624Q62.940624 23.940624 62.378124 24.58125Q61.83125 25.221874 61.83125 26.721874Q61.83125 28.378124 62.39375 29.065624Q62.95625 29.753124 63.89375 29.753124Q64.59688 29.753124 65.03438 29.346874Q65.4875 28.940624 65.675 27.971874L68.09688 28.378124Q67.72188 30.05 66.64375 30.909374Q65.58125 31.76875 63.784374 31.76875Q61.7375 31.76875 60.51875 30.471874Q59.3 29.175 59.3 26.89375Q59.3 24.58125 60.51875 23.3Q61.7375 22.003124 63.83125 22.003124Q65.53438 22.003124 66.53438 22.7375Q67.53438 23.471874 67.9875 24.971874ZM72.20625 31.55L69.7375 31.55L69.7375 22.221874L72.03438 22.221874L72.03438 23.55Q72.6125 22.596874 73.08125 22.3Q73.56563 22.003124 74.15938 22.003124Q75.00313 22.003124 75.78438 22.471874L75.01875 24.628124Q74.39375 24.221874 73.8625 24.221874Q73.34688 24.221874 72.97188 24.503124Q72.6125 24.784374 72.40938 25.534374Q72.20625 26.284374 72.20625 28.659374L72.20625 31.55ZM76.84688 20.95625L76.84688 18.659374L79.31563 18.659374L79.31563 20.95625L76.84688 20.95625ZM76.84688 31.55L76.84688 22.221874L79.31563 22.221874L79.31563 31.55L76.84688 31.55ZM81.76875 22.221874L84.08125 22.221874L84.08125 23.58125Q84.51875 22.878124 85.28438 22.440624Q86.05 22.003124 86.9875 22.003124Q88.6125 22.003124 89.7375 23.284374Q90.87813 24.55 90.87813 26.83125Q90.87813 29.175 89.7375 30.471874Q88.59688 31.76875 86.97188 31.76875Q86.19063 31.76875 85.56563 31.45625Q84.94063 31.14375 84.2375 30.39375L84.2375 35.096874L81.76875 35.096874L81.76875 22.221874ZM84.22188 26.721874Q84.22188 28.3 84.83125 29.05Q85.45625 29.8 86.3625 29.8Q87.22188 29.8 87.78438 29.1125Q88.3625 28.425 88.3625 26.846874Q88.3625 25.378124 87.76875 24.675Q87.19063 23.95625 86.31563 23.95625Q85.40938 23.95625 84.81563 24.659374Q84.22188 25.346874 84.22188 26.721874ZM97.12813 22.221874L97.12813 24.190624L95.44063 24.190624L95.44063 27.940624Q95.44063 29.08125 95.4875 29.284374Q95.53438 29.471874 95.70625 29.596874Q95.87813 29.70625 96.12813 29.70625Q96.45625 29.70625 97.1125 29.471874L97.33125 31.39375Q96.45625 31.76875 95.37813 31.76875Q94.70625 31.76875 94.15938 31.55Q93.62813 31.315624 93.37813 30.95625Q93.12813 30.596874 93.03438 29.9875Q92.95625 29.565624 92.95625 28.253124L92.95625 24.190624L91.81563 24.190624L91.81563 22.221874L92.95625 22.221874L92.95625 20.3625L95.44063 18.925L95.44063 22.221874L97.12813 22.221874ZM98.84688 20.95625L98.84688 18.659374L101.31563 18.659374L101.31563 20.95625L98.84688 20.95625ZM98.84688 31.55L98.84688 22.221874L101.31563 22.221874L101.31563 31.55L98.84688 31.55ZM103.26875 26.753124Q103.26875 25.51875 103.87813 24.378124Q104.4875 23.221874 105.59688 22.6125Q106.70625 22.003124 108.08125 22.003124Q110.19063 22.003124 111.55 23.378124Q112.90938 24.753124 112.90938 26.8625Q112.90938 28.971874 111.53438 30.378124Q110.175 31.76875 108.09688 31.76875Q106.81563 31.76875 105.64375 31.190624Q104.4875 30.596874 103.87813 29.4875Q103.26875 28.3625 103.26875 26.753124ZM105.8 26.878124Q105.8 28.26875 106.45625 29.01875Q107.12813 29.753124 108.08125 29.753124Q109.05 29.753124 109.70625 29.01875Q110.3625 28.26875 110.3625 26.8625Q110.3625 25.4875 109.70625 24.753124Q109.05 24.01875 108.08125 24.01875Q107.12813 24.01875 106.45625 24.753124Q105.8 25.4875 105.8 26.878124ZM123.33125 31.55L120.8625 31.55L120.8625 26.784374Q120.8625 25.26875 120.70625 24.83125Q120.55 24.39375 120.19063 24.14375Q119.83125 23.89375 119.33125 23.89375Q118.69063 23.89375 118.175 24.253124Q117.675 24.596874 117.4875 25.175Q117.3 25.753124 117.3 27.315624L117.3 31.55L114.83125 31.55L114.83125 22.221874L117.1125 22.221874L117.1125 23.58125Q118.34688 22.003124 120.19063 22.003124Q121.01875 22.003124 121.69063 22.3Q122.3625 22.596874 122.70625 23.05Q123.06563 23.503124 123.19063 24.096874Q123.33125 24.675 123.33125 25.753124L123.33125 31.55ZM130.20625 27.3625L132.7375 27.1125Q132.95625 28.378124 133.65938 28.9875Q134.3625 29.58125 135.55 29.58125Q136.8 29.58125 137.44063 29.05Q138.08125 28.51875 138.08125 27.8Q138.08125 27.346874 137.8 27.034374Q137.53438 26.70625 136.87813 26.471874Q136.40938 26.315624 134.78438 25.909374Q132.69063 25.39375 131.84688 24.628124Q130.65938 23.565624 130.65938 22.034374Q130.65938 21.05 131.22188 20.20625Q131.78438 19.346874 132.83125 18.89375Q133.87813 18.440624 135.3625 18.440624Q137.8 18.440624 139.01875 19.503124Q140.25313 20.565624 140.31563 22.346874L137.70625 22.45625Q137.53438 21.471874 136.9875 21.034374Q136.44063 20.596874 135.34688 20.596874Q134.20625 20.596874 133.56563 21.065624Q133.15938 21.3625 133.15938 21.8625Q133.15938 22.315624 133.53438 22.64375Q134.03438 23.065624 135.925 23.51875Q137.83125 23.95625 138.7375 24.440624Q139.64375 24.909374 140.15938 25.753124Q140.675 26.58125 140.675 27.8Q140.675 28.909374 140.05 29.878124Q139.44063 30.83125 138.31563 31.315624Q137.19063 31.784374 135.51875 31.784374Q133.08125 31.784374 131.76875 30.659374Q130.45625 29.51875 130.20625 27.3625ZM147.12813 22.221874L147.12813 24.190624L145.44063 24.190624L145.44063 27.940624Q145.44063 29.08125 145.4875 29.284374Q145.53438 29.471874 145.70625 29.596874Q145.87813 29.70625 146.12813 29.70625Q146.45625 29.70625 147.1125 29.471874L147.33125 31.39375Q146.45625 31.76875 145.37813 31.76875Q144.70625 31.76875 144.15938 31.55Q143.62813 31.315624 143.37813 30.95625Q143.12813 30.596874 143.03438 29.9875Q142.95625 29.565624 142.95625 28.253124L142.95625 24.190624L141.81563 24.190624L141.81563 22.221874L142.95625 22.221874L142.95625 20.3625L145.44063 18.925L145.44063 22.221874L147.12813 22.221874ZM150.69063 25.065624L148.44063 24.659374Q148.83125 23.3 149.75313 22.659374Q150.675 22.003124 152.4875 22.003124Q154.14375 22.003124 154.94063 22.39375Q155.75313 22.784374 156.08125 23.39375Q156.425 23.9875 156.425 25.596874L156.39375 28.4875Q156.39375 29.70625 156.50313 30.3Q156.62813 30.878124 156.95625 31.55L154.51875 31.55Q154.40938 31.3 154.26875 30.815624Q154.20625 30.596874 154.19063 30.534374Q153.55 31.14375 152.83125 31.45625Q152.1125 31.76875 151.3 31.76875Q149.84688 31.76875 149.01875 30.9875Q148.19063 30.190624 148.19063 29.003124Q148.19063 28.20625 148.56563 27.596874Q148.94063 26.971874 149.62813 26.64375Q150.31563 26.315624 151.59688 26.065624Q153.33125 25.7375 153.9875 25.45625L153.9875 25.20625Q153.9875 24.503124 153.62813 24.20625Q153.28438 23.89375 152.31563 23.89375Q151.65938 23.89375 151.28438 24.159374Q150.90938 24.409374 150.69063 25.065624ZM153.9875 27.065624Q153.51875 27.221874 152.4875 27.440624Q151.45625 27.659374 151.14375 27.878124Q150.65938 28.221874 150.65938 28.753124Q150.65938 29.26875 151.05 29.64375Q151.44063 30.01875 152.03438 30.01875Q152.70625 30.01875 153.3 29.58125Q153.75313 29.253124 153.89375 28.76875Q153.9875 28.440624 153.9875 27.565624L153.9875 27.065624ZM163.12813 22.221874L163.12813 24.190624L161.44063 24.190624L161.44063 27.940624Q161.44063 29.08125 161.4875 29.284374Q161.53438 29.471874 161.70625 29.596874Q161.87813 29.70625 162.12813 29.70625Q162.45625 29.70625 163.1125 29.471874L163.33125 31.39375Q162.45625 31.76875 161.37813 31.76875Q160.70625 31.76875 160.15938 31.55Q159.62813 31.315624 159.37813 30.95625Q159.12813 30.596874 159.03438 29.9875Q158.95625 29.565624 158.95625 28.253124L158.95625 24.190624L157.81563 24.190624L157.81563 22.221874L158.95625 22.221874L158.95625 20.3625L161.44063 18.925L161.44063 22.221874L163.12813 22.221874ZM170.9875 31.55L170.9875 30.159374Q170.47188 30.89375 169.64375 31.33125Q168.81563 31.76875 167.89375 31.76875Q166.95625 31.76875 166.20625 31.3625Q165.45625 30.940624 165.1125 30.190624Q164.78438 29.440624 164.78438 28.128124L164.78438 22.221874L167.25313 22.221874L167.25313 26.503124Q167.25313 28.471874 167.39375 28.925Q167.53438 29.3625 167.89375 29.628124Q168.25313 29.878124 168.8 29.878124Q169.44063 29.878124 169.94063 29.534374Q170.44063 29.190624 170.62813 28.675Q170.81563 28.159374 170.81563 26.159374L170.81563 22.221874L173.28438 22.221874L173.28438 31.55L170.9875 31.55ZM174.97188 28.89375L177.45625 28.503124Q177.6125 29.221874 178.09688 29.596874Q178.58125 29.971874 179.44063 29.971874Q180.40938 29.971874 180.89375 29.628124Q181.20625 29.378124 181.20625 28.971874Q181.20625 28.690624 181.03438 28.503124Q180.84688 28.33125 180.20625 28.175Q177.22188 27.51875 176.425 26.971874Q175.31563 26.221874 175.31563 24.8625Q175.31563 23.659374 176.26875 22.83125Q177.2375 22.003124 179.2375 22.003124Q181.15938 22.003124 182.08125 22.628124Q183.01875 23.253124 183.37813 24.471874L181.05 24.909374Q180.89375 24.3625 180.47188 24.08125Q180.06563 23.784374 179.28438 23.784374Q178.31563 23.784374 177.89375 24.05Q177.6125 24.253124 177.6125 24.55Q177.6125 24.815624 177.8625 25.003124Q178.19063 25.253124 180.15938 25.70625Q182.12813 26.14375 182.925 26.8Q183.69063 27.45625 183.69063 28.628124Q183.69063 29.909374 182.6125 30.846874Q181.55 31.76875 179.44063 31.76875Q177.53438 31.76875 176.425 30.9875Q175.31563 30.20625 174.97188 28.89375Z" fill-rule="nonzero"/></svg>