<svg version="1.1" viewBox="0.0 0.0 470.0 292.0" fill="none" stroke="none" stroke-linecap="square" stroke-miterlimit="10" width="470" height="292" xmlns:xlink="http://www.w3.org/1999/xlink" xmlns="http://www.w3.org/2000/svg"><path fill="#ffffff" d="M0 0L470.0 0L470.0 292.0L0 292.0L0 0Z" fill-rule="nonzero"/><path fill="#4285f4" d="M168.02278 68.083336C203.05685 68.083336 235.76727 85.612816 255.16826 114.78451C274.56924 143.9562 278.08725 180.90047 264.54074 213.20956L168.02278 172.74167Z" fill-rule="nonzero"/><path fill="#ff6d01" d="M65.24541 192.49463C59.353558 161.8385 67.45414 130.1526 87.336105 106.08563C107.21806 82.018654 136.8056 68.083336 168.02278 68.083336L168.02278 172.74167Z" fill-rule="nonzero"/><path fill="#34a853" d="M81.890656 232.19438C73.65124 220.2575 67.98293 206.73833 65.24541 192.49463L168.02278 172.74167Z" fill-rule="nonzero"/><path fill="#ff9900" d="M114.65408 262.77026C101.653366 255.06348 90.47601 244.63242 81.890656 232.19438L168.02278 172.74167Z" fill-rule="nonzero"/><path fill="#ea4335" d="M264.54074 213.20956C252.83632 241.12518 229.61868 262.60593 200.87898 272.10886C172.13928 281.61176 140.69281 278.20596 114.65408 262.77026L168.02278 172.74167Z" fill-rule="nonzero"/><path fill="#ffffff" d="M224.26164 135.82938L223.02727 135.82938L223.02727 127.98563Q222.58977 128.4075 221.8554 128.845Q221.13664 129.26688 220.57414 129.47L220.57414 128.2825Q221.6054 127.79813 222.37102 127.11063Q223.15227 126.42313 223.46477 125.76688L224.26164 125.76688L224.26164 135.82938ZM232.26164 135.82938L231.02727 135.82938L231.02727 127.98563Q230.58977 128.4075 229.8554 128.845Q229.13664 129.26688 228.57414 129.47L228.57414 128.2825Q229.6054 127.79813 230.37102 127.11063Q231.15227 126.42313 231.46477 125.76688L232.26164 125.76688L232.26164 135.82938ZM239.57414 135.82938L239.57414 133.42313L235.21477 133.42313L235.21477 132.29813L239.7929 125.81375L240.7929 125.81375L240.7929 132.29813L242.15227 132.29813L242.15227 133.42313L240.7929 133.42313L240.7929 135.82938L239.57414 135.82938ZM239.57414 132.29813L239.57414 127.7825L236.43352 132.29813L239.57414 132.29813Z" fill-rule="nonzero"/><path fill="#ffffff" d="M186.11343 252.01978L187.30093 251.9104Q187.44156 252.73853 187.86343 253.11353Q188.30093 253.48853 188.95718 253.48853Q189.51968 253.48853 189.94156 253.23853Q190.37906 252.9729 190.64468 252.5354Q190.92593 252.0979 191.11343 251.36353Q191.30093 250.62915 191.30093 249.86353Q191.30093 249.7854 191.28531 249.61353Q190.92593 250.20728 190.28531 250.58228Q189.64468 250.94165 188.89468 250.94165Q187.64468 250.94165 186.78531 250.0354Q185.92593 249.12915 185.92593 247.6604Q185.92593 246.12915 186.81656 245.20728Q187.72281 244.26978 189.08218 244.26978Q190.05093 244.26978 190.86343 244.80103Q191.67593 245.31665 192.09781 246.30103Q192.51968 247.26978 192.51968 249.11353Q192.51968 251.0354 192.09781 252.17603Q191.69156 253.31665 190.86343 253.9104Q190.03531 254.50415 188.92593 254.50415Q187.75406 254.50415 187.00406 253.8479Q186.26968 253.19165 186.11343 252.01978ZM191.14468 247.5979Q191.14468 246.5354 190.58218 245.9104Q190.01968 245.2854 189.23843 245.2854Q188.41031 245.2854 187.80093 245.95728Q187.19156 246.62915 187.19156 247.69165Q187.19156 248.64478 187.76968 249.25415Q188.34781 249.8479 189.19156 249.8479Q190.05093 249.8479 190.59781 249.25415Q191.14468 248.64478 191.14468 247.5979ZM194.11343 252.01978L195.30093 251.9104Q195.44156 252.73853 195.86343 253.11353Q196.30093 253.48853 196.95718 253.48853Q197.51968 253.48853 197.94156 253.23853Q198.37906 252.9729 198.64468 252.5354Q198.92593 252.0979 199.11343 251.36353Q199.30093 250.62915 199.30093 249.86353Q199.30093 249.7854 199.28531 249.61353Q198.92593 250.20728 198.28531 250.58228Q197.64468 250.94165 196.89468 250.94165Q195.64468 250.94165 194.78531 250.0354Q193.92593 249.12915 193.92593 247.6604Q193.92593 246.12915 194.81656 245.20728Q195.72281 244.26978 197.08218 244.26978Q198.05093 244.26978 198.86343 244.80103Q199.67593 245.31665 200.09781 246.30103Q200.51968 247.26978 200.51968 249.11353Q200.51968 251.0354 200.09781 252.17603Q199.69156 253.31665 198.86343 253.9104Q198.03531 254.50415 196.92593 254.50415Q195.75406 254.50415 195.00406 253.8479Q194.26968 253.19165 194.11343 252.01978ZM199.14468 247.5979Q199.14468 246.5354 198.58218 245.9104Q198.01968 245.2854 197.23843 245.2854Q196.41031 245.2854 195.80093 245.95728Q195.19156 246.62915 195.19156 247.69165Q195.19156 248.64478 195.76968 249.25415Q196.34781 249.8479 197.19156 249.8479Q198.05093 249.8479 198.59781 249.25415Q199.14468 248.64478 199.14468 247.5979Z" fill-rule="nonzero"/><path fill="#ffffff" d="M113.47298 233.98538L113.47298 235.17288L106.84798 235.17288Q106.83235 234.73538 106.9886 234.3135Q107.25423 233.64163 107.8011 232.98538Q108.3636 232.32913 109.41048 231.46976Q111.0511 230.126 111.6136 229.34476Q112.19173 228.5635 112.19173 227.86038Q112.19173 227.126 111.66048 226.626Q111.14485 226.126 110.31673 226.126Q109.4261 226.126 108.87923 226.65726Q108.34798 227.1885 108.34798 228.14163L107.08235 228.001Q107.20735 226.59476 108.0511 225.86038Q108.91048 225.11038 110.33235 225.11038Q111.78548 225.11038 112.6136 225.90726Q113.45735 226.70413 113.45735 227.89163Q113.45735 228.501 113.20735 229.07913Q112.97298 229.65726 112.39485 230.29788Q111.83235 230.9385 110.50423 232.0635Q109.39485 232.98538 109.08235 233.32913Q108.76985 233.65726 108.56673 233.98538L113.47298 233.98538ZM115.00423 232.54788L116.3011 232.4385Q116.44173 233.376 116.95735 233.86038Q117.4886 234.32913 118.22298 234.32913Q119.1136 234.32913 119.72298 233.65726Q120.34798 232.98538 120.34798 231.89163Q120.34798 230.82913 119.75423 230.21976Q119.16048 229.61038 118.20735 229.61038Q117.6136 229.61038 117.12923 229.89163Q116.66048 230.15726 116.37923 230.57913L115.22298 230.4385L116.19173 225.28226L121.1761 225.28226L121.1761 226.46976L117.1761 226.46976L116.64485 229.15726Q117.5511 228.53226 118.53548 228.53226Q119.84798 228.53226 120.7386 229.4385Q121.64485 230.34476 121.64485 231.78226Q121.64485 233.14163 120.8636 234.126Q119.89485 235.34476 118.22298 235.34476Q116.8636 235.34476 115.9886 234.57913Q115.12923 233.8135 115.00423 232.54788Z" fill-rule="nonzero"/><path fill="#ffffff" d="M93.27331 207.49538L93.27331 208.68288L86.64831 208.68288Q86.63268 208.24538 86.78893 207.8235Q87.05456 207.15163 87.60143 206.49538Q88.16393 205.83913 89.21081 204.97975Q90.85143 203.636 91.41393 202.85475Q91.99206 202.0735 91.99206 201.37038Q91.99206 200.636 91.46081 200.136Q90.94518 199.636 90.11706 199.636Q89.22643 199.636 88.67956 200.16725Q88.14831 200.6985 88.14831 201.65163L86.88268 201.511Q87.00768 200.10475 87.85143 199.37038Q88.71081 198.62038 90.13268 198.62038Q91.58581 198.62038 92.41393 199.41725Q93.25768 200.21413 93.25768 201.40163Q93.25768 202.011 93.00768 202.58913Q92.77331 203.16725 92.19518 203.80788Q91.63268 204.4485 90.30456 205.5735Q89.19518 206.49538 88.88268 206.83913Q88.57018 207.16725 88.36706 207.49538L93.27331 207.49538ZM98.75768 208.68288L98.75768 206.27663L94.39831 206.27663L94.39831 205.15163L98.97643 198.66725L99.97643 198.66725L99.97643 205.15163L101.33581 205.15163L101.33581 206.27663L99.97643 206.27663L99.97643 208.68288L98.75768 208.68288ZM98.75768 205.15163L98.75768 200.636L95.61706 205.15163L98.75768 205.15163Z" fill-rule="nonzero"/><path fill="#ffffff" d="M102.97484 129.607L101.74046 129.607L101.74046 121.763245Q101.30296 122.18512 100.56859 122.62262Q99.84984 123.044495 99.28734 123.24762L99.28734 122.06012Q100.31859 121.575745 101.08421 120.888245Q101.86546 120.200745 102.17796 119.544495L102.97484 119.544495L102.97484 129.607ZM106.33421 124.669495Q106.33421 122.888245 106.69359 121.81012Q107.06859 120.71637 107.78734 120.138245Q108.50609 119.544495 109.59984 119.544495Q110.41234 119.544495 111.02171 119.87262Q111.63109 120.200745 112.02171 120.81012Q112.42796 121.419495 112.64671 122.294495Q112.86546 123.169495 112.86546 124.669495Q112.86546 126.43512 112.50609 127.513245Q112.14671 128.59137 111.42796 129.18512Q110.70921 129.77887 109.59984 129.77887Q108.16234 129.77887 107.33421 128.732Q106.33421 127.481995 106.33421 124.669495ZM107.59984 124.669495Q107.59984 127.138245 108.17796 127.950745Q108.75609 128.76324 109.59984 128.76324Q110.45921 128.76324 111.03734 127.950745Q111.61546 127.12262 111.61546 124.669495Q111.61546 122.18512 111.03734 121.37262Q110.45921 120.56012 109.58421 120.56012Q108.74046 120.56012 108.24046 121.27887Q107.59984 122.200745 107.59984 124.669495ZM120.80296 128.4195L120.80296 129.607L114.17796 129.607Q114.16234 129.1695 114.31859 128.74762Q114.58421 128.07574 115.13109 127.419495Q115.69359 126.763245 116.74046 125.90387Q118.38109 124.56012 118.94359 123.77887Q119.52171 122.99762 119.52171 122.294495Q119.52171 121.56012 118.99046 121.06012Q118.47484 120.56012 117.64671 120.56012Q116.75609 120.56012 116.20921 121.09137Q115.67796 121.62262 115.67796 122.575745L114.41234 122.43512Q114.53734 121.02887 115.38109 120.294495Q116.24046 119.544495 117.66234 119.544495Q119.11546 119.544495 119.94359 120.34137Q120.78734 121.138245 120.78734 122.325745Q120.78734 122.93512 120.53734 123.513245Q120.30296 124.09137 119.72484 124.731995Q119.16234 125.37262 117.83421 126.49762Q116.72484 127.419495 116.41234 127.763245Q116.09984 128.09137 115.89671 128.4195L120.80296 128.4195Z" fill-rule="nonzero"/><path fill="#4285f4" d="M347.4 75.083336C347.4 78.39704 344.7137 81.083336 341.4 81.083336C338.0863 81.083336 335.4 78.39704 335.4 75.083336C335.4 71.76962 338.0863 69.083336 341.4 69.083336C344.7137 69.083336 347.4 71.76962 347.4 75.083336Z" fill-rule="nonzero"/><path fill="#1a1a1a" d="M356.32187 79.083336L356.32187 70.489586L357.47812 70.489586L361.99374 77.239586L361.99374 70.489586L363.0875 70.489586L363.0875 79.083336L361.91562 79.083336L357.4 72.333336L357.4 79.083336L356.32187 79.083336ZM364.80624 75.97396Q364.80624 74.239586 365.75937 73.41146Q366.55624 72.72396 367.7125 72.72396Q368.99374 72.72396 369.80624 73.56771Q370.63437 74.395836 370.63437 75.88021Q370.63437 77.083336 370.275 77.770836Q369.91562 78.458336 369.2125 78.84896Q368.525 79.22396 367.7125 79.22396Q366.41562 79.22396 365.60312 78.395836Q364.80624 77.552086 364.80624 75.97396ZM365.88437 75.97396Q365.88437 77.16146 366.4 77.75521Q366.93124 78.34896 367.7125 78.34896Q368.50937 78.34896 369.025 77.75521Q369.54062 77.16146 369.54062 75.94271Q369.54062 74.78646 369.00937 74.19271Q368.49374 73.59896 367.7125 73.59896Q366.93124 73.59896 366.4 74.19271Q365.88437 74.770836 365.88437 75.97396ZM374.49374 78.145836L374.65 79.06771Q374.19687 79.16146 373.85312 79.16146Q373.275 79.16146 372.9625 78.989586Q372.65 78.802086 372.50937 78.50521Q372.38437 78.208336 372.38437 77.25521L372.38437 73.677086L371.61874 73.677086L371.61874 72.864586L372.38437 72.864586L372.38437 71.31771L373.43124 70.69271L373.43124 72.864586L374.49374 72.864586L374.49374 73.677086L373.43124 73.677086L373.43124 77.31771Q373.43124 77.770836 373.47812 77.895836Q373.54062 78.020836 373.66562 78.09896Q373.79062 78.177086 374.025 78.177086Q374.2125 78.177086 374.49374 78.145836ZM382.35312 75.708336L382.35312 74.708336L385.97812 74.69271L385.97812 77.88021Q385.15 78.552086 384.25937 78.895836Q383.36874 79.22396 382.43124 79.22396Q381.16562 79.22396 380.11874 78.69271Q379.0875 78.145836 378.55624 77.13021Q378.04062 76.09896 378.04062 74.833336Q378.04062 73.56771 378.55624 72.489586Q379.0875 71.395836 380.07187 70.88021Q381.05624 70.34896 382.3375 70.34896Q383.275 70.34896 384.025 70.645836Q384.775 70.94271 385.19687 71.489586Q385.63437 72.020836 385.85312 72.895836L384.8375 73.177086Q384.63437 72.520836 384.3375 72.145836Q384.05624 71.770836 383.525 71.552086Q382.99374 71.31771 382.35312 71.31771Q381.57187 71.31771 380.99374 71.552086Q380.43124 71.78646 380.07187 72.177086Q379.72812 72.56771 379.54062 73.03646Q379.2125 73.833336 379.2125 74.75521Q379.2125 75.91146 379.60312 76.69271Q380.00937 77.458336 380.75937 77.833336Q381.50937 78.208336 382.36874 78.208336Q383.10312 78.208336 383.80624 77.927086Q384.50937 77.63021 384.86874 77.31771L384.86874 75.708336L382.35312 75.708336ZM387.19687 71.708336L387.19687 70.489586L388.25937 70.489586L388.25937 71.708336L387.19687 71.708336ZM387.19687 79.083336L387.19687 72.864586L388.25937 72.864586L388.25937 79.083336L387.19687 79.083336ZM391.91562 79.083336L389.55624 72.864586L390.66562 72.864586L392.00937 76.583336Q392.2125 77.19271 392.4 77.833336Q392.54062 77.34896 392.79062 76.66146L394.18124 72.864586L395.25937 72.864586L392.9 79.083336L391.91562 79.083336ZM399.44687 77.083336L400.54062 77.208336Q400.29062 78.16146 399.5875 78.69271Q398.88437 79.22396 397.80624 79.22396Q396.44687 79.22396 395.63437 78.38021Q394.8375 77.53646 394.8375 76.020836Q394.8375 74.458336 395.65 73.59896Q396.4625 72.72396 397.74374 72.72396Q398.99374 72.72396 399.775 73.56771Q400.57187 74.41146 400.57187 75.958336Q400.57187 76.052086 400.57187 76.239586L395.93124 76.239586Q395.99374 77.270836 396.50937 77.81771Q397.025 78.34896 397.80624 78.34896Q398.38437 78.34896 398.79062 78.052086Q399.2125 77.739586 399.44687 77.083336ZM395.99374 75.38021L399.4625 75.38021Q399.4 74.583336 399.07187 74.19271Q398.55624 73.583336 397.75937 73.583336Q397.025 73.583336 396.525 74.06771Q396.04062 74.552086 395.99374 75.38021ZM402.19687 79.083336L402.19687 72.864586L403.13437 72.864586L403.13437 73.739586Q403.82187 72.72396 405.11874 72.72396Q405.68124 72.72396 406.15 72.927086Q406.63437 73.13021 406.86874 73.458336Q407.10312 73.78646 407.19687 74.22396Q407.24374 74.520836 407.24374 75.25521L407.24374 79.083336L406.19687 79.083336L406.19687 75.302086Q406.19687 74.645836 406.07187 74.333336Q405.94687 74.020836 405.63437 73.833336Q405.32187 73.63021 404.9 73.63021Q404.22812 73.63021 403.72812 74.06771Q403.24374 74.489586 403.24374 75.677086L403.24374 79.083336L402.19687 79.083336Z" fill-rule="nonzero"/><path fill="#ea4335" d="M347.4 99.083336C347.4 102.39704 344.7137 105.083336 341.4 105.083336C338.0863 105.083336 335.4 102.39704 335.4 99.083336C335.4 95.76962 338.0863 93.083336 341.4 93.083336C344.7137 93.083336 347.4 95.76962 347.4 99.083336Z" fill-rule="nonzero"/><path fill="#1a1a1a" d="M356.32187 103.083336L356.32187 94.489586L359.29062 94.489586Q360.29062 94.489586 360.82187 94.614586Q361.55624 94.78646 362.07187 95.22396Q362.75937 95.802086 363.0875 96.708336Q363.43124 97.59896 363.43124 98.739586Q363.43124 99.72396 363.19687 100.47396Q362.97812 101.22396 362.61874 101.72396Q362.25937 102.22396 361.82187 102.50521Q361.4 102.78646 360.80624 102.94271Q360.2125 103.083336 359.43124 103.083336L356.32187 103.083336ZM357.4625 102.06771L359.29062 102.06771Q360.15 102.06771 360.63437 101.91146Q361.11874 101.75521 361.4 101.458336Q361.80624 101.06771 362.025 100.38021Q362.25937 99.69271 362.25937 98.72396Q362.25937 97.38021 361.80624 96.66146Q361.36874 95.927086 360.74374 95.677086Q360.275 95.50521 359.275 95.50521L357.4625 95.50521L357.4625 102.06771ZM365.19687 95.708336L365.19687 94.489586L366.25937 94.489586L366.25937 95.708336L365.19687 95.708336ZM365.19687 103.083336L365.19687 96.864586L366.25937 96.864586L366.25937 103.083336L365.19687 103.083336ZM372.22812 103.083336L372.22812 102.302086Q371.63437 103.22396 370.49374 103.22396Q369.74374 103.22396 369.11874 102.81771Q368.49374 102.395836 368.15 101.66146Q367.80624 100.927086 367.80624 99.97396Q367.80624 99.052086 368.11874 98.28646Q368.43124 97.520836 369.05624 97.13021Q369.68124 96.72396 370.44687 96.72396Q371.00937 96.72396 371.44687 96.958336Q371.88437 97.19271 372.16562 97.56771L372.16562 94.489586L373.2125 94.489586L373.2125 103.083336L372.22812 103.083336ZM368.9 99.97396Q368.9 101.177086 369.4 101.770836Q369.9 102.34896 370.5875 102.34896Q371.275 102.34896 371.75937 101.78646Q372.24374 101.22396 372.24374 100.06771Q372.24374 98.78646 371.74374 98.19271Q371.25937 97.59896 370.54062 97.59896Q369.8375 97.59896 369.36874 98.177086Q368.9 98.739586 368.9 99.97396ZM375.19687 103.083336L375.19687 96.864586L376.13437 96.864586L376.13437 97.739586Q376.82187 96.72396 378.11874 96.72396Q378.68124 96.72396 379.15 96.927086Q379.63437 97.13021 379.86874 97.458336Q380.10312 97.78646 380.19687 98.22396Q380.24374 98.520836 380.24374 99.25521L380.24374 103.083336L379.19687 103.083336L379.19687 99.302086Q379.19687 98.645836 379.07187 98.333336Q378.94687 98.020836 378.63437 97.833336Q378.32187 97.63021 377.9 97.63021Q377.22812 97.63021 376.72812 98.06771Q376.24374 98.489586 376.24374 99.677086L376.24374 103.083336L375.19687 103.083336ZM382.19687 97.53646L381.93124 95.927086L381.93124 94.489586L383.13437 94.489586L383.13437 95.927086L382.85312 97.53646L382.19687 97.53646ZM386.49374 102.145836L386.65 103.06771Q386.19687 103.16146 385.85312 103.16146Q385.275 103.16146 384.9625 102.989586Q384.65 102.802086 384.50937 102.50521Q384.38437 102.208336 384.38437 101.25521L384.38437 97.677086L383.61874 97.677086L383.61874 96.864586L384.38437 96.864586L384.38437 95.31771L385.43124 94.69271L385.43124 96.864586L386.49374 96.864586L386.49374 97.677086L385.43124 97.677086L385.43124 101.31771Q385.43124 101.770836 385.47812 101.895836Q385.54062 102.020836 385.66562 102.09896Q385.79062 102.177086 386.025 102.177086Q386.2125 102.177086 386.49374 102.145836ZM390.32187 103.083336L390.32187 94.489586L391.47812 94.489586L395.99374 101.239586L395.99374 94.489586L397.0875 94.489586L397.0875 103.083336L395.91562 103.083336L391.4 96.333336L391.4 103.083336L390.32187 103.083336ZM403.44687 101.083336L404.54062 101.208336Q404.29062 102.16146 403.5875 102.69271Q402.88437 103.22396 401.80624 103.22396Q400.44687 103.22396 399.63437 102.38021Q398.8375 101.53646 398.8375 100.020836Q398.8375 98.458336 399.65 97.59896Q400.4625 96.72396 401.74374 96.72396Q402.99374 96.72396 403.775 97.56771Q404.57187 98.41146 404.57187 99.958336Q404.57187 100.052086 404.57187 100.239586L399.93124 100.239586Q399.99374 101.270836 400.50937 101.81771Q401.025 102.34896 401.80624 102.34896Q402.38437 102.34896 402.79062 102.052086Q403.2125 101.739586 403.44687 101.083336ZM399.99374 99.38021L403.4625 99.38021Q403.4 98.583336 403.07187 98.19271Q402.55624 97.583336 401.75937 97.583336Q401.025 97.583336 400.525 98.06771Q400.04062 98.552086 399.99374 99.38021ZM410.44687 101.083336L411.54062 101.208336Q411.29062 102.16146 410.5875 102.69271Q409.88437 103.22396 408.80624 103.22396Q407.44687 103.22396 406.63437 102.38021Q405.8375 101.53646 405.8375 100.020836Q405.8375 98.458336 406.65 97.59896Q407.4625 96.72396 408.74374 96.72396Q409.99374 96.72396 410.775 97.56771Q411.57187 98.41146 411.57187 99.958336Q411.57187 100.052086 411.57187 100.239586L406.93124 100.239586Q406.99374 101.270836 407.50937 101.81771Q408.025 102.34896 408.80624 102.34896Q409.38437 102.34896 409.79062 102.052086Q410.2125 101.739586 410.44687 101.083336ZM406.99374 99.38021L410.4625 99.38021Q410.4 98.583336 410.07187 98.19271Q409.55624 97.583336 408.75937 97.583336Q408.025 97.583336 407.525 98.06771Q407.04062 98.552086 406.99374 99.38021ZM417.22812 103.083336L417.22812 102.302086Q416.63437 103.22396 415.49374 103.22396Q414.74374 103.22396 414.11874 102.81771Q413.49374 102.395836 413.15 101.66146Q412.80624 100.927086 412.80624 99.97396Q412.80624 99.052086 413.11874 98.28646Q413.43124 97.520836 414.05624 97.13021Q414.68124 96.72396 415.44687 96.72396Q416.00937 96.72396 416.44687 96.958336Q416.88437 97.19271 417.16562 97.56771L417.16562 94.489586L418.2125 94.489586L418.2125 103.083336L417.22812 103.083336ZM413.9 99.97396Q413.9 101.177086 414.4 101.770836Q414.9 102.34896 415.5875 102.34896Q416.275 102.34896 416.75937 101.78646Q417.24374 101.22396 417.24374 100.06771Q417.24374 98.78646 416.74374 98.19271Q416.25937 97.59896 415.54062 97.59896Q414.8375 97.59896 414.36874 98.177086Q413.9 98.739586 413.9 99.97396ZM422.94687 100.31771L424.00937 100.22396Q424.0875 100.88021 424.36874 101.28646Q424.65 101.69271 425.22812 101.958336Q425.82187 102.208336 426.55624 102.208336Q427.19687 102.208336 427.69687 102.020836Q428.19687 101.81771 428.43124 101.489586Q428.68124 101.145836 428.68124 100.75521Q428.68124 100.34896 428.44687 100.052086Q428.2125 99.739586 427.68124 99.53646Q427.32187 99.395836 426.13437 99.114586Q424.9625 98.833336 424.49374 98.583336Q423.86874 98.25521 423.57187 97.78646Q423.275 97.302086 423.275 96.708336Q423.275 96.06771 423.63437 95.50521Q424.00937 94.927086 424.7125 94.645836Q425.43124 94.34896 426.29062 94.34896Q427.24374 94.34896 427.97812 94.66146Q428.7125 94.958336 429.10312 95.56771Q429.49374 96.16146 429.525 96.91146L428.43124 96.989586Q428.3375 96.177086 427.82187 95.770836Q427.32187 95.34896 426.3375 95.34896Q425.30624 95.34896 424.8375 95.72396Q424.36874 96.09896 424.36874 96.63021Q424.36874 97.09896 424.69687 97.395836Q425.025 97.69271 426.4 98.00521Q427.79062 98.31771 428.30624 98.552086Q429.05624 98.91146 429.41562 99.44271Q429.775 99.958336 429.775 100.66146Q429.775 101.34896 429.38437 101.958336Q428.99374 102.552086 428.25937 102.895836Q427.525 103.22396 426.60312 103.22396Q425.43124 103.22396 424.63437 102.895836Q423.85312 102.552086 423.4 101.864586Q422.9625 101.177086 422.94687 100.31771ZM431.19687 95.708336L431.19687 94.489586L432.25937 94.489586L432.25937 95.708336L431.19687 95.708336ZM431.19687 103.083336L431.19687 96.864586L432.25937 96.864586L432.25937 103.083336L431.19687 103.083336ZM436.49374 102.145836L436.65 103.06771Q436.19687 103.16146 435.85312 103.16146Q435.275 103.16146 434.9625 102.989586Q434.65 102.802086 434.50937 102.50521Q434.38437 102.208336 434.38437 101.25521L434.38437 97.677086L433.61874 97.677086L433.61874 96.864586L434.38437 96.864586L434.38437 95.31771L435.43124 94.69271L435.43124 96.864586L436.49374 96.864586L436.49374 97.677086L435.43124 97.677086L435.43124 101.31771Q435.43124 101.770836 435.47812 101.895836Q435.54062 102.020836 435.66562 102.09896Q435.79062 102.177086 436.025 102.177086Q436.2125 102.177086 436.49374 102.145836ZM441.44687 101.083336L442.54062 101.208336Q442.29062 102.16146 441.5875 102.69271Q440.88437 103.22396 439.80624 103.22396Q438.44687 103.22396 437.63437 102.38021Q436.8375 101.53646 436.8375 100.020836Q436.8375 98.458336 437.65 97.59896Q438.4625 96.72396 439.74374 96.72396Q440.99374 96.72396 441.775 97.56771Q442.57187 98.41146 442.57187 99.958336Q442.57187 100.052086 442.57187 100.239586L437.93124 100.239586Q437.99374 101.270836 438.50937 101.81771Q439.025 102.34896 439.80624 102.34896Q440.38437 102.34896 440.79062 102.052086Q441.2125 101.739586 441.44687 101.083336ZM437.99374 99.38021L441.4625 99.38021Q441.4 98.583336 441.07187 98.19271Q440.55624 97.583336 439.75937 97.583336Q439.025 97.583336 438.525 98.06771Q438.04062 98.552086 437.99374 99.38021Z" fill-rule="nonzero"/><path fill="#ff9900" d="M347.4 123.083336C347.4 126.39704 344.7137 129.08333 341.4 129.08333C338.0863 129.08333 335.4 126.39704 335.4 123.083336C335.4 119.76962 338.0863 117.083336 341.4 117.083336C344.7137 117.083336 347.4 119.76962 347.4 123.083336Z" fill-rule="nonzero"/><path fill="#1a1a1a" d="M356.32187 127.083336L356.32187 118.489586L359.29062 118.489586Q360.29062 118.489586 360.82187 118.614586Q361.55624 118.78646 362.07187 119.22396Q362.75937 119.802086 363.0875 120.708336Q363.43124 121.59896 363.43124 122.739586Q363.43124 123.72396 363.19687 124.47396Q362.97812 125.22396 362.61874 125.72396Q362.25937 126.22396 361.82187 126.50521Q361.4 126.78646 360.80624 126.94271Q360.2125 127.083336 359.43124 127.083336L356.32187 127.083336ZM357.4625 126.06771L359.29062 126.06771Q360.15 126.06771 360.63437 125.91146Q361.11874 125.75521 361.4 125.458336Q361.80624 125.06771 362.025 124.38021Q362.25937 123.69271 362.25937 122.72396Q362.25937 121.38021 361.80624 120.66146Q361.36874 119.927086 360.74374 119.677086Q360.275 119.50521 359.275 119.50521L357.4625 119.50521L357.4625 126.06771ZM365.19687 119.708336L365.19687 118.489586L366.25937 118.489586L366.25937 119.708336L365.19687 119.708336ZM365.19687 127.083336L365.19687 120.864586L366.25937 120.864586L366.25937 127.083336L365.19687 127.083336ZM372.22812 127.083336L372.22812 126.302086Q371.63437 127.22396 370.49374 127.22396Q369.74374 127.22396 369.11874 126.81771Q368.49374 126.395836 368.15 125.66146Q367.80624 124.927086 367.80624 123.97396Q367.80624 123.052086 368.11874 122.28646Q368.43124 121.520836 369.05624 121.13021Q369.68124 120.72396 370.44687 120.72396Q371.00937 120.72396 371.44687 120.958336Q371.88437 121.19271 372.16562 121.56771L372.16562 118.489586L373.2125 118.489586L373.2125 127.083336L372.22812 127.083336ZM368.9 123.97396Q368.9 125.177086 369.4 125.770836Q369.9 126.34896 370.5875 126.34896Q371.275 126.34896 371.75937 125.78646Q372.24374 125.22396 372.24374 124.06771Q372.24374 122.78646 371.74374 122.19271Q371.25937 121.59896 370.54062 121.59896Q369.8375 121.59896 369.36874 122.177086Q368.9 122.739586 368.9 123.97396ZM375.19687 127.083336L375.19687 120.864586L376.13437 120.864586L376.13437 121.739586Q376.82187 120.72396 378.11874 120.72396Q378.68124 120.72396 379.15 120.927086Q379.63437 121.13021 379.86874 121.458336Q380.10312 121.78646 380.19687 122.22396Q380.24374 122.520836 380.24374 123.25521L380.24374 127.083336L379.19687 127.083336L379.19687 123.302086Q379.19687 122.645836 379.07187 122.333336Q378.94687 122.020836 378.63437 121.833336Q378.32187 121.63021 377.9 121.63021Q377.22812 121.63021 376.72812 122.06771Q376.24374 122.489586 376.24374 123.677086L376.24374 127.083336L375.19687 127.083336ZM382.19687 121.53646L381.93124 119.927086L381.93124 118.489586L383.13437 118.489586L383.13437 119.927086L382.85312 121.53646L382.19687 121.53646ZM386.49374 126.145836L386.65 127.06771Q386.19687 127.16146 385.85312 127.16146Q385.275 127.16146 384.9625 126.989586Q384.65 126.802086 384.50937 126.50521Q384.38437 126.208336 384.38437 125.25521L384.38437 121.677086L383.61874 121.677086L383.61874 120.864586L384.38437 120.864586L384.38437 119.31771L385.43124 118.69271L385.43124 120.864586L386.49374 120.864586L386.49374 121.677086L385.43124 121.677086L385.43124 125.31771Q385.43124 125.770836 385.47812 125.895836Q385.54062 126.020836 385.66562 126.09896Q385.79062 126.177086 386.025 126.177086Q386.2125 126.177086 386.49374 126.145836ZM390.29062 127.083336L390.29062 118.489586L392.00937 118.489586L394.04062 124.56771Q394.32187 125.427086 394.44687 125.84896Q394.5875 125.38021 394.9 124.47396L396.9625 118.489586L398.49374 118.489586L398.49374 127.083336L397.4 127.083336L397.4 119.895836L394.9 127.083336L393.86874 127.083336L391.38437 119.770836L391.38437 127.083336L390.29062 127.083336ZM403.44687 125.083336L404.54062 125.208336Q404.29062 126.16146 403.5875 126.69271Q402.88437 127.22396 401.80624 127.22396Q400.44687 127.22396 399.63437 126.38021Q398.8375 125.53646 398.8375 124.020836Q398.8375 122.458336 399.65 121.59896Q400.4625 120.72396 401.74374 120.72396Q402.99374 120.72396 403.775 121.56771Q404.57187 122.41146 404.57187 123.958336Q404.57187 124.052086 404.57187 124.239586L399.93124 124.239586Q399.99374 125.270836 400.50937 125.81771Q401.025 126.34896 401.80624 126.34896Q402.38437 126.34896 402.79062 126.052086Q403.2125 125.739586 403.44687 125.083336ZM399.99374 123.38021L403.4625 123.38021Q403.4 122.583336 403.07187 122.19271Q402.55624 121.583336 401.75937 121.583336Q401.025 121.583336 400.525 122.06771Q400.04062 122.552086 399.99374 123.38021ZM410.44687 125.083336L411.54062 125.208336Q411.29062 126.16146 410.5875 126.69271Q409.88437 127.22396 408.80624 127.22396Q407.44687 127.22396 406.63437 126.38021Q405.8375 125.53646 405.8375 124.020836Q405.8375 122.458336 406.65 121.59896Q407.4625 120.72396 408.74374 120.72396Q409.99374 120.72396 410.775 121.56771Q411.57187 122.41146 411.57187 123.958336Q411.57187 124.052086 411.57187 124.239586L406.93124 124.239586Q406.99374 125.270836 407.50937 125.81771Q408.025 126.34896 408.80624 126.34896Q409.38437 126.34896 409.79062 126.052086Q410.2125 125.739586 410.44687 125.083336ZM406.99374 123.38021L410.4625 123.38021Q410.4 122.583336 410.07187 122.19271Q409.55624 121.583336 408.75937 121.583336Q408.025 121.583336 407.525 122.06771Q407.04062 122.552086 406.99374 123.38021ZM415.49374 126.145836L415.65 127.06771Q415.19687 127.16146 414.85312 127.16146Q414.275 127.16146 413.9625 126.989586Q413.65 126.802086 413.50937 126.50521Q413.38437 126.208336 413.38437 125.25521L413.38437 121.677086L412.61874 121.677086L412.61874 120.864586L413.38437 120.864586L413.38437 119.31771L414.43124 118.69271L414.43124 120.864586L415.49374 120.864586L415.49374 121.677086L414.43124 121.677086L414.43124 125.31771Q414.43124 125.770836 414.47812 125.895836Q414.54062 126.020836 414.66562 126.09896Q414.79062 126.177086 415.025 126.177086Q415.2125 126.177086 415.49374 126.145836ZM419.32187 127.083336L419.32187 118.489586L420.47812 118.489586L424.99374 125.239586L424.99374 118.489586L426.0875 118.489586L426.0875 127.083336L424.91562 127.083336L420.4 120.333336L420.4 127.083336L419.32187 127.083336ZM432.44687 125.083336L433.54062 125.208336Q433.29062 126.16146 432.5875 126.69271Q431.88437 127.22396 430.80624 127.22396Q429.44687 127.22396 428.63437 126.38021Q427.8375 125.53646 427.8375 124.020836Q427.8375 122.458336 428.65 121.59896Q429.4625 120.72396 430.74374 120.72396Q431.99374 120.72396 432.775 121.56771Q433.57187 122.41146 433.57187 123.958336Q433.57187 124.052086 433.57187 124.239586L428.93124 124.239586Q428.99374 125.270836 429.50937 125.81771Q430.025 126.34896 430.80624 126.34896Q431.38437 126.34896 431.79062 126.052086Q432.2125 125.739586 432.44687 125.083336ZM428.99374 123.38021L432.4625 123.38021Q432.4 122.583336 432.07187 122.19271Q431.55624 121.583336 430.75937 121.583336Q430.025 121.583336 429.525 122.06771Q429.04062 122.552086 428.99374 123.38021ZM439.44687 125.083336L440.54062 125.208336Q440.29062 126.16146 439.5875 126.69271Q438.88437 127.22396 437.80624 127.22396Q436.44687 127.22396 435.63437 126.38021Q434.8375 125.53646 434.8375 124.020836Q434.8375 122.458336 435.65 121.59896Q436.4625 120.72396 437.74374 120.72396Q438.99374 120.72396 439.775 121.56771Q440.57187 122.41146 440.57187 123.958336Q440.57187 124.052086 440.57187 124.239586L435.93124 124.239586Q435.99374 125.270836 436.50937 125.81771Q437.025 126.34896 437.80624 126.34896Q438.38437 126.34896 438.79062 126.052086Q439.2125 125.739586 439.44687 125.083336ZM435.99374 123.38021L439.4625 123.38021Q439.4 122.583336 439.07187 122.19271Q438.55624 121.583336 437.75937 121.583336Q437.025 121.583336 436.525 122.06771Q436.04062 122.552086 435.99374 123.38021ZM446.22812 127.083336L446.22812 126.302086Q445.63437 127.22396 444.49374 127.22396Q443.74374 127.22396 443.11874 126.81771Q442.49374 126.395836 442.15 125.66146Q441.80624 124.927086 441.80624 123.97396Q441.80624 123.052086 442.11874 122.28646Q442.43124 121.520836 443.05624 121.13021Q443.68124 120.72396 444.44687 120.72396Q445.00937 120.72396 445.44687 120.958336Q445.88437 121.19271 446.16562 121.56771L446.16562 118.489586L447.2125 118.489586L447.2125 127.083336L446.22812 127.083336ZM442.9 123.97396Q442.9 125.177086 443.4 125.770836Q443.9 126.34896 444.5875 126.34896Q445.275 126.34896 445.75937 125.78646Q446.24374 125.22396 446.24374 124.06771Q446.24374 122.78646 445.74374 122.19271Q445.25937 121.59896 444.54062 121.59896Q443.8375 121.59896 443.36874 122.177086Q442.9 122.739586 442.9 123.97396ZM448.775 125.22396L449.80624 125.06771Q449.9 125.69271 450.29062 126.020836Q450.69687 126.34896 451.43124 126.34896Q452.15 126.34896 452.49374 126.06771Q452.85312 125.770836 452.85312 125.364586Q452.85312 125.00521 452.54062 124.802086Q452.32187 124.66146 451.4625 124.44271Q450.30624 124.145836 449.85312 123.94271Q449.41562 123.72396 449.18124 123.34896Q448.94687 122.97396 448.94687 122.50521Q448.94687 122.09896 449.13437 121.739586Q449.32187 121.38021 449.65 121.145836Q449.9 120.97396 450.32187 120.84896Q450.74374 120.72396 451.24374 120.72396Q451.9625 120.72396 452.50937 120.94271Q453.07187 121.145836 453.3375 121.50521Q453.60312 121.864586 453.69687 122.458336L452.66562 122.59896Q452.60312 122.13021 452.25937 121.864586Q451.93124 121.583336 451.30624 121.583336Q450.5875 121.583336 450.275 121.833336Q449.9625 122.06771 449.9625 122.395836Q449.9625 122.59896 450.0875 122.75521Q450.22812 122.927086 450.49374 123.03646Q450.65 123.09896 451.43124 123.302086Q452.55624 123.614586 452.99374 123.802086Q453.43124 123.989586 453.68124 124.34896Q453.93124 124.708336 453.93124 125.25521Q453.93124 125.78646 453.61874 126.25521Q453.32187 126.708336 452.74374 126.97396Q452.16562 127.22396 451.43124 127.22396Q450.2125 127.22396 449.57187 126.72396Q448.94687 126.208336 448.775 125.22396Z" fill-rule="nonzero"/><path fill="#34a853" d="M347.4 147.08333C347.4 150.39705 344.7137 153.08333 341.4 153.08333C338.0863 153.08333 335.4 150.39705 335.4 147.08333C335.4 143.76962 338.0863 141.08333 341.4 141.08333C344.7137 141.08333 347.4 143.76962 347.4 147.08333Z" fill-rule="nonzero"/><path fill="#1a1a1a" d="M358.50937 151.08333L358.50937 143.5052L355.68124 143.5052L355.68124 142.48958L362.49374 142.48958L362.49374 143.5052L359.65 143.5052L359.65 151.08333L358.50937 151.08333ZM362.80624 147.97395Q362.80624 146.23958 363.75937 145.41145Q364.55624 144.72395 365.7125 144.72395Q366.99374 144.72395 367.80624 145.5677Q368.63437 146.39583 368.63437 147.8802Q368.63437 149.08333 368.275 149.77083Q367.91562 150.45833 367.2125 150.84895Q366.525 151.22395 365.7125 151.22395Q364.41562 151.22395 363.60312 150.39583Q362.80624 149.55208 362.80624 147.97395ZM363.88437 147.97395Q363.88437 149.16145 364.4 149.7552Q364.93124 150.34895 365.7125 150.34895Q366.50937 150.34895 367.025 149.7552Q367.54062 149.16145 367.54062 147.9427Q367.54062 146.78645 367.00937 146.1927Q366.49374 145.59895 365.7125 145.59895Q364.93124 145.59895 364.4 146.1927Q363.88437 146.77083 363.88437 147.97395ZM369.80624 147.97395Q369.80624 146.23958 370.75937 145.41145Q371.55624 144.72395 372.7125 144.72395Q373.99374 144.72395 374.80624 145.5677Q375.63437 146.39583 375.63437 147.8802Q375.63437 149.08333 375.275 149.77083Q374.91562 150.45833 374.2125 150.84895Q373.525 151.22395 372.7125 151.22395Q371.41562 151.22395 370.60312 150.39583Q369.80624 149.55208 369.80624 147.97395ZM370.88437 147.97395Q370.88437 149.16145 371.4 149.7552Q371.93124 150.34895 372.7125 150.34895Q373.50937 150.34895 374.025 149.7552Q374.54062 149.16145 374.54062 147.9427Q374.54062 146.78645 374.00937 146.1927Q373.49374 145.59895 372.7125 145.59895Q371.93124 145.59895 371.4 146.1927Q370.88437 146.77083 370.88437 147.97395ZM380.36874 151.08333L380.36874 142.48958L381.49374 142.48958L381.49374 146.02083L385.9625 146.02083L385.9625 142.48958L387.10312 142.48958L387.10312 151.08333L385.9625 151.08333L385.9625 147.03645L381.49374 147.03645L381.49374 151.08333L380.36874 151.08333ZM393.25937 150.3177Q392.66562 150.8177 392.11874 151.02083Q391.5875 151.22395 390.9625 151.22395Q389.93124 151.22395 389.38437 150.72395Q388.8375 150.22395 388.8375 149.4427Q388.8375 148.98958 389.04062 148.61458Q389.24374 148.22395 389.5875 148.0052Q389.93124 147.77083 390.35312 147.66145Q390.65 147.5677 391.29062 147.48958Q392.55624 147.34895 393.16562 147.1302Q393.16562 146.91145 393.16562 146.86458Q393.16562 146.20833 392.86874 145.9427Q392.4625 145.59895 391.66562 145.59895Q390.93124 145.59895 390.57187 145.86458Q390.2125 146.11458 390.04062 146.77083L389.00937 146.6302Q389.15 145.97395 389.47812 145.5677Q389.80624 145.16145 390.41562 144.9427Q391.025 144.72395 391.82187 144.72395Q392.61874 144.72395 393.11874 144.91145Q393.61874 145.09895 393.85312 145.3802Q394.0875 145.66145 394.18124 146.09895Q394.22812 146.36458 394.22812 147.0677L394.22812 148.47395Q394.22812 149.9427 394.29062 150.33333Q394.36874 150.72395 394.57187 151.08333L393.4625 151.08333Q393.30624 150.7552 393.25937 150.3177ZM393.16562 147.95833Q392.5875 148.1927 391.44687 148.36458Q390.79062 148.45833 390.525 148.58333Q390.25937 148.6927 390.10312 148.91145Q389.9625 149.1302 389.9625 149.41145Q389.9625 149.83333 390.275 150.11458Q390.60312 150.39583 391.2125 150.39583Q391.82187 150.39583 392.29062 150.1302Q392.775 149.86458 392.99374 149.39583Q393.16562 149.03645 393.16562 148.34895L393.16562 147.95833ZM396.18124 151.08333L396.18124 144.86458L397.13437 144.86458L397.13437 145.80208Q397.49374 145.14583 397.79062 144.9427Q398.10312 144.72395 398.47812 144.72395Q399.00937 144.72395 399.55624 145.05208L399.19687 146.03645Q398.80624 145.80208 398.43124 145.80208Q398.07187 145.80208 397.79062 146.02083Q397.525 146.22395 397.41562 146.59895Q397.22812 147.16145 397.22812 147.8177L397.22812 151.08333L396.18124 151.08333ZM404.22812 151.08333L404.22812 150.30208Q403.63437 151.22395 402.49374 151.22395Q401.74374 151.22395 401.11874 150.8177Q400.49374 150.39583 400.15 149.66145Q399.80624 148.92708 399.80624 147.97395Q399.80624 147.05208 400.11874 146.28645Q400.43124 145.52083 401.05624 145.1302Q401.68124 144.72395 402.44687 144.72395Q403.00937 144.72395 403.44687 144.95833Q403.88437 145.1927 404.16562 145.5677L404.16562 142.48958L405.2125 142.48958L405.2125 151.08333L404.22812 151.08333ZM400.9 147.97395Q400.9 149.17708 401.4 149.77083Q401.9 150.34895 402.5875 150.34895Q403.275 150.34895 403.75937 149.78645Q404.24374 149.22395 404.24374 148.0677Q404.24374 146.78645 403.74374 146.1927Q403.25937 145.59895 402.54062 145.59895Q401.8375 145.59895 401.36874 146.17708Q400.9 146.73958 400.9 147.97395Z" fill-rule="nonzero"/><path fill="#ff6d01" d="M347.4 171.08333C347.4 174.39705 344.7137 177.08333 341.4 177.08333C338.0863 177.08333 335.4 174.39705 335.4 171.08333C335.4 167.76962 338.0863 165.08333 341.4 165.08333C344.7137 165.08333 347.4 167.76962 347.4 171.08333Z" fill-rule="nonzero"/><path fill="#1a1a1a" d="M355.97812 170.89583Q355.97812 168.7552 357.11874 167.55208Q358.275 166.33333 360.0875 166.33333Q361.29062 166.33333 362.24374 166.91145Q363.19687 167.47395 363.69687 168.48958Q364.19687 169.5052 364.19687 170.80208Q364.19687 172.09895 363.66562 173.1302Q363.13437 174.16145 362.16562 174.6927Q361.2125 175.22395 360.0875 175.22395Q358.86874 175.22395 357.91562 174.64583Q356.9625 174.05208 356.4625 173.05208Q355.97812 172.03645 355.97812 170.89583ZM357.15 170.91145Q357.15 172.47395 357.97812 173.36458Q358.82187 174.2552 360.0875 174.2552Q361.36874 174.2552 362.19687 173.36458Q363.025 172.45833 363.025 170.78645Q363.025 169.73958 362.66562 168.95833Q362.32187 168.17708 361.63437 167.7552Q360.94687 167.3177 360.10312 167.3177Q358.9 167.3177 358.025 168.14583Q357.15 168.97395 357.15 170.91145ZM367.49374 174.14583L367.65 175.0677Q367.19687 175.16145 366.85312 175.16145Q366.275 175.16145 365.9625 174.98958Q365.65 174.80208 365.50937 174.5052Q365.38437 174.20833 365.38437 173.2552L365.38437 169.67708L364.61874 169.67708L364.61874 168.86458L365.38437 168.86458L365.38437 167.3177L366.43124 166.6927L366.43124 168.86458L367.49374 168.86458L367.49374 169.67708L366.43124 169.67708L366.43124 173.3177Q366.43124 173.77083 366.47812 173.89583Q366.54062 174.02083 366.66562 174.09895Q366.79062 174.17708 367.025 174.17708Q367.2125 174.17708 367.49374 174.14583ZM368.19687 175.08333L368.19687 166.48958L369.24374 166.48958L369.24374 169.5677Q369.97812 168.72395 371.10312 168.72395Q371.80624 168.72395 372.30624 169.0052Q372.82187 169.27083 373.04062 169.7552Q373.25937 170.22395 373.25937 171.14583L373.25937 175.08333L372.2125 175.08333L372.2125 171.14583Q372.2125 170.34895 371.86874 169.98958Q371.525 169.6302 370.9 169.6302Q370.43124 169.6302 370.00937 169.8802Q369.60312 170.11458 369.41562 170.53645Q369.24374 170.9427 369.24374 171.67708L369.24374 175.08333L368.19687 175.08333ZM379.44687 173.08333L380.54062 173.20833Q380.29062 174.16145 379.5875 174.6927Q378.88437 175.22395 377.80624 175.22395Q376.44687 175.22395 375.63437 174.3802Q374.8375 173.53645 374.8375 172.02083Q374.8375 170.45833 375.65 169.59895Q376.4625 168.72395 377.74374 168.72395Q378.99374 168.72395 379.775 169.5677Q380.57187 170.41145 380.57187 171.95833Q380.57187 172.05208 380.57187 172.23958L375.93124 172.23958Q375.99374 173.27083 376.50937 173.8177Q377.025 174.34895 377.80624 174.34895Q378.38437 174.34895 378.79062 174.05208Q379.2125 173.73958 379.44687 173.08333ZM375.99374 171.3802L379.4625 171.3802Q379.4 170.58333 379.07187 170.1927Q378.55624 169.58333 377.75937 169.58333Q377.025 169.58333 376.525 170.0677Q376.04062 170.55208 375.99374 171.3802ZM382.18124 175.08333L382.18124 168.86458L383.13437 168.86458L383.13437 169.80208Q383.49374 169.14583 383.79062 168.9427Q384.10312 168.72395 384.47812 168.72395Q385.00937 168.72395 385.55624 169.05208L385.19687 170.03645Q384.80624 169.80208 384.43124 169.80208Q384.07187 169.80208 383.79062 170.02083Q383.525 170.22395 383.41562 170.59895Q383.22812 171.16145 383.22812 171.8177L383.22812 175.08333L382.18124 175.08333ZM385.775 173.22395L386.80624 173.0677Q386.9 173.6927 387.29062 174.02083Q387.69687 174.34895 388.43124 174.34895Q389.15 174.34895 389.49374 174.0677Q389.85312 173.77083 389.85312 173.36458Q389.85312 173.0052 389.54062 172.80208Q389.32187 172.66145 388.4625 172.4427Q387.30624 172.14583 386.85312 171.9427Q386.41562 171.72395 386.18124 171.34895Q385.94687 170.97395 385.94687 170.5052Q385.94687 170.09895 386.13437 169.73958Q386.32187 169.3802 386.65 169.14583Q386.9 168.97395 387.32187 168.84895Q387.74374 168.72395 388.24374 168.72395Q388.9625 168.72395 389.50937 168.9427Q390.07187 169.14583 390.3375 169.5052Q390.60312 169.86458 390.69687 170.45833L389.66562 170.59895Q389.60312 170.1302 389.25937 169.86458Q388.93124 169.58333 388.30624 169.58333Q387.5875 169.58333 387.275 169.83333Q386.9625 170.0677 386.9625 170.39583Q386.9625 170.59895 387.0875 170.7552Q387.22812 170.92708 387.49374 171.03645Q387.65 171.09895 388.43124 171.30208Q389.55624 171.61458 389.99374 171.80208Q390.43124 171.98958 390.68124 172.34895Q390.93124 172.70833 390.93124 173.2552Q390.93124 173.78645 390.61874 174.2552Q390.32187 174.70833 389.74374 174.97395Q389.16562 175.22395 388.43124 175.22395Q387.2125 175.22395 386.57187 174.72395Q385.94687 174.20833 385.775 173.22395Z" fill-rule="nonzero"/><path fill="#999999" d="M16.78818 53.410713L16.78818 43.39509L23.53818 43.39509L23.53818 44.566963L18.10068 44.566963L18.10068 47.67634L22.803804 47.67634L22.803804 48.86384L18.10068 48.86384L18.10068 53.410713L16.78818 53.410713ZM25.53818 53.410713L25.53818 46.14509L26.647554 46.14509L26.647554 47.254463Q27.06943 46.473213 27.428804 46.23884Q27.78818 45.98884 28.22568 45.98884Q28.85068 45.98884 29.491304 46.379463L29.06943 47.52009Q28.616304 47.254463 28.16318 47.254463Q27.75693 47.254463 27.428804 47.504463Q27.116304 47.73884 26.97568 48.17634Q26.772554 48.83259 26.772554 49.61384L26.772554 53.410713L25.53818 53.410713ZM30.10068 49.785713Q30.10068 47.77009 31.22568 46.785713Q32.147552 45.98884 33.506927 45.98884Q34.991302 45.98884 35.944427 46.973213Q36.897552 47.941963 36.897552 49.67634Q36.897552 51.08259 36.475677 51.89509Q36.053802 52.691963 35.241302 53.14509Q34.444427 53.58259 33.506927 53.58259Q31.97568 53.58259 31.03818 52.598213Q30.10068 51.61384 30.10068 49.785713ZM31.366304 49.785713Q31.366304 51.17634 31.97568 51.879463Q32.585052 52.566963 33.506927 52.566963Q34.413177 52.566963 35.022552 51.86384Q35.631927 51.160713 35.631927 49.73884Q35.631927 48.39509 35.022552 47.70759Q34.413177 47.004463 33.506927 47.004463Q32.585052 47.004463 31.97568 47.691963Q31.366304 48.379463 31.366304 49.785713ZM38.553802 53.410713L38.553802 46.14509L39.663177 46.14509L39.663177 47.17634Q39.991302 46.629463 40.553802 46.316963Q41.131927 45.98884 41.850677 45.98884Q42.663177 45.98884 43.178802 46.33259Q43.694427 46.660713 43.913177 47.254463Q44.772552 45.98884 46.147552 45.98884Q47.225677 45.98884 47.803802 46.58259Q48.397552 47.17634 48.397552 48.42634L48.397552 53.410713L47.163177 53.410713L47.163177 48.83259Q47.163177 48.098213 47.038177 47.77009Q46.928802 47.441963 46.616302 47.254463Q46.303802 47.05134 45.881927 47.05134Q45.116302 47.05134 44.600677 47.566963Q44.100677 48.066963 44.100677 49.191963L44.100677 53.410713L42.866302 53.410713L42.866302 48.691963Q42.866302 47.879463 42.569427 47.473213Q42.272552 47.05134 41.585052 47.05134Q41.069427 47.05134 40.616302 47.33259Q40.178802 47.598213 39.975677 48.129463Q39.788177 48.64509 39.788177 49.64509L39.788177 53.410713L38.553802 53.410713ZM53.225677 50.77009L54.444427 50.598213Q54.663177 51.64509 55.163177 52.11384Q55.678802 52.566963 56.413177 52.566963Q57.288177 52.566963 57.881927 51.973213Q58.475677 51.36384 58.475677 50.473213Q58.475677 49.629463 57.913177 49.08259Q57.366302 48.535713 56.522552 48.535713Q56.163177 48.535713 55.647552 48.660713L55.788177 47.58259Q55.913177 47.598213 55.975677 47.598213Q56.772552 47.598213 57.397552 47.191963Q58.022552 46.785713 58.022552 45.92634Q58.022552 45.254463 57.569427 44.816963Q57.116302 44.36384 56.381927 44.36384Q55.663177 44.36384 55.178802 44.816963Q54.710052 45.254463 54.569427 46.160713L53.350677 45.941963Q53.569427 44.70759 54.366302 44.035713Q55.163177 43.348213 56.350677 43.348213Q57.178802 43.348213 57.866302 43.70759Q58.553802 44.05134 58.913177 44.660713Q59.288177 45.27009 59.288177 45.95759Q59.288177 46.598213 58.944427 47.129463Q58.600677 47.660713 57.913177 47.98884Q58.803802 48.191963 59.288177 48.83259Q59.788177 49.473213 59.788177 50.45759Q59.788177 51.77009 58.819427 52.67634Q57.866302 53.58259 56.413177 53.58259Q55.085052 53.58259 54.210052 52.80134Q53.350677 52.02009 53.225677 50.77009ZM67.60068 45.848213L66.38193 45.941963Q66.21005 45.20759 65.91318 44.879463Q65.41318 44.36384 64.6788 44.36384Q64.08505 44.36384 63.647552 44.691963Q63.069427 45.11384 62.725677 45.92634Q62.397552 46.73884 62.381927 48.23884Q62.819427 47.566963 63.460052 47.23884Q64.1163 46.910713 64.81943 46.910713Q66.0538 46.910713 66.91318 47.816963Q67.77255 48.723213 67.77255 50.160713Q67.77255 51.098213 67.3663 51.910713Q66.96005 52.723213 66.2413 53.160713Q65.53818 53.58259 64.63193 53.58259Q63.100677 53.58259 62.131927 52.45759Q61.163177 51.316963 61.163177 48.723213Q61.163177 45.816963 62.225677 44.48884Q63.163177 43.348213 64.75693 43.348213Q65.94443 43.348213 66.69443 44.02009Q67.44443 44.67634 67.60068 45.848213ZM62.569427 50.160713Q62.569427 50.80134 62.835052 51.379463Q63.116302 51.95759 63.600677 52.27009Q64.08505 52.566963 64.6163 52.566963Q65.39755 52.566963 65.96005 51.941963Q66.52255 51.316963 66.52255 50.23884Q66.52255 49.191963 65.96005 48.598213Q65.41318 47.98884 64.56943 47.98884Q63.741302 47.98884 63.147552 48.598213Q62.569427 49.191963 62.569427 50.160713ZM73.16318 53.410713L73.16318 51.004463L68.8038 51.004463L68.8038 49.879463L73.38193 43.39509L74.38193 43.39509L74.38193 49.879463L75.7413 49.879463L75.7413 51.004463L74.38193 51.004463L74.38193 53.410713L73.16318 53.410713ZM73.16318 49.879463L73.16318 45.36384L70.02255 49.879463L73.16318 49.879463ZM88.8663 49.89509L90.19443 50.23884Q89.77255 51.86384 88.6788 52.723213Q87.60068 53.58259 86.03818 53.58259Q84.41318 53.58259 83.39755 52.92634Q82.38193 52.254463 81.85068 51.004463Q81.33505 49.754463 81.33505 48.316963Q81.33505 46.754463 81.9288 45.598213Q82.52255 44.42634 83.63193 43.83259Q84.7413 43.223213 86.0538 43.223213Q87.56943 43.223213 88.58505 43.98884Q89.6163 44.754463 90.02255 46.129463L88.71005 46.441963Q88.3663 45.348213 87.69443 44.848213Q87.03818 44.348213 86.03818 44.348213Q84.88193 44.348213 84.10068 44.910713Q83.31943 45.45759 83.00693 46.39509Q82.69443 47.33259 82.69443 48.316963Q82.69443 49.598213 83.06943 50.55134Q83.44443 51.504463 84.22568 51.973213Q85.00693 52.441963 85.9288 52.441963Q87.03818 52.441963 87.8038 51.80134Q88.58505 51.160713 88.8663 49.89509ZM91.5538 53.410713L91.5538 43.39509L92.78818 43.39509L92.78818 46.98884Q93.64755 45.98884 94.96005 45.98884Q95.77255 45.98884 96.3663 46.316963Q96.96005 46.629463 97.21005 47.191963Q97.47568 47.73884 97.47568 48.816963L97.47568 53.410713L96.2413 53.410713L96.2413 48.816963Q96.2413 47.879463 95.83505 47.473213Q95.44443 47.05134 94.71005 47.05134Q94.16318 47.05134 93.6788 47.33259Q93.19443 47.61384 92.9913 48.098213Q92.78818 48.58259 92.78818 49.441963L92.78818 53.410713L91.5538 53.410713ZM104.28818 52.52009Q103.6163 53.098213 102.97568 53.348213Q102.35068 53.58259 101.6163 53.58259Q100.4288 53.58259 99.77255 53.004463Q99.13193 52.410713 99.13193 51.48884Q99.13193 50.95759 99.3663 50.52009Q99.6163 50.08259 100.00693 49.816963Q100.41318 49.55134 100.89755 49.410713Q101.25693 49.316963 101.9913 49.223213Q103.4913 49.05134 104.19443 48.80134Q104.19443 48.55134 104.19443 48.48884Q104.19443 47.723213 103.85068 47.42634Q103.38193 47.004463 102.44443 47.004463Q101.58505 47.004463 101.16318 47.316963Q100.75693 47.61384 100.5538 48.379463L99.35068 48.223213Q99.50693 47.441963 99.88193 46.973213Q100.27255 46.504463 100.97568 46.254463Q101.69443 45.98884 102.63193 45.98884Q103.5538 45.98884 104.13193 46.20759Q104.71005 46.42634 104.97568 46.754463Q105.25693 47.08259 105.3663 47.598213Q105.4288 47.910713 105.4288 48.723213L105.4288 50.36384Q105.4288 52.08259 105.50693 52.535713Q105.58505 52.98884 105.81943 53.410713L104.53818 53.410713Q104.35068 53.02009 104.28818 52.52009ZM104.19443 49.77009Q103.52255 50.035713 102.1788 50.23884Q101.4288 50.348213 101.10068 50.48884Q100.78818 50.61384 100.6163 50.879463Q100.44443 51.14509 100.44443 51.45759Q100.44443 51.95759 100.81943 52.285713Q101.19443 52.61384 101.91318 52.61384Q102.63193 52.61384 103.1788 52.30134Q103.72568 51.98884 103.9913 51.441963Q104.19443 51.035713 104.19443 50.223213L104.19443 49.77009ZM110.2413 52.316963L110.41318 53.39509Q109.89755 53.504463 109.4913 53.504463Q108.81943 53.504463 108.44443 53.30134Q108.08505 53.08259 107.9288 52.73884Q107.78818 52.39509 107.78818 51.285713L107.78818 47.11384L106.88193 47.11384L106.88193 46.14509L107.78818 46.14509L107.78818 44.348213L109.00693 43.61384L109.00693 46.14509L110.2413 46.14509L110.2413 47.11384L109.00693 47.11384L109.00693 51.348213Q109.00693 51.879463 109.06943 52.035713Q109.13193 52.17634 109.27255 52.27009Q109.4288 52.36384 109.69443 52.36384Q109.91318 52.36384 110.2413 52.316963ZM111.06943 51.23884L112.27255 51.05134Q112.38193 51.785713 112.85068 52.17634Q113.31943 52.566963 114.16318 52.566963Q115.00693 52.566963 115.41318 52.223213Q115.83505 51.879463 115.83505 51.410713Q115.83505 50.98884 115.46005 50.754463Q115.21005 50.58259 114.21005 50.33259Q112.85068 49.98884 112.31943 49.73884Q111.8038 49.48884 111.53818 49.05134Q111.27255 48.61384 111.27255 48.08259Q111.27255 47.598213 111.4913 47.191963Q111.71005 46.77009 112.10068 46.48884Q112.38193 46.285713 112.8663 46.14509Q113.3663 45.98884 113.94443 45.98884Q114.78818 45.98884 115.4288 46.23884Q116.08505 46.473213 116.39755 46.89509Q116.71005 47.316963 116.81943 48.02009L115.6163 48.191963Q115.53818 47.629463 115.13193 47.316963Q114.7413 47.004463 114.02255 47.004463Q113.1788 47.004463 112.81943 47.285713Q112.46005 47.55134 112.46005 47.941963Q112.46005 48.17634 112.60068 48.36384Q112.75693 48.566963 113.08505 48.691963Q113.25693 48.754463 114.16318 49.004463Q115.47568 49.36384 115.9913 49.58259Q116.50693 49.80134 116.78818 50.223213Q117.08505 50.64509 117.08505 51.27009Q117.08505 51.89509 116.72568 52.441963Q116.38193 52.973213 115.69443 53.285713Q115.02255 53.58259 114.16318 53.58259Q112.75693 53.58259 112.00693 52.98884Q111.27255 52.39509 111.06943 51.23884Z" fill-rule="nonzero"/><path fill="#757575" d="M24.146875 26.865625L26.678125 27.6625Q26.1 29.771875 24.740625 30.803125Q23.396875 31.81875 21.31875 31.81875Q18.75625 31.81875 17.1 30.06875Q15.459375 28.31875 15.459375 25.271875Q15.459375 22.053125 17.115625 20.271875Q18.771875 18.490625 21.475 18.490625Q23.85 18.490625 25.31875 19.896875Q26.209375 20.725 26.646875 22.271875L24.06875 22.88125Q23.834375 21.88125 23.1 21.303125Q22.38125 20.725 21.35 20.725Q19.9125 20.725 19.021875 21.75625Q18.13125 22.771875 18.13125 25.084375Q18.13125 27.521875 19.00625 28.56875Q19.896875 29.6 21.303125 29.6Q22.334375 29.6 23.084375 28.94375Q23.834375 28.271875 24.146875 26.865625ZM30.740625 25.115625L28.490625 24.709375Q28.88125 23.35 29.803125 22.709375Q30.725 22.053125 32.5375 22.053125Q34.19375 22.053125 34.990623 22.44375Q35.803123 22.834375 36.13125 23.44375Q36.475 24.0375 36.475 25.646875L36.44375 28.5375Q36.44375 29.75625 36.553123 30.35Q36.678123 30.928125 37.00625 31.6L34.56875 31.6Q34.459373 31.35 34.31875 30.865625Q34.25625 30.646875 34.240623 30.584375Q33.6 31.19375 32.88125 31.50625Q32.1625 31.81875 31.35 31.81875Q29.896875 31.81875 29.06875 31.0375Q28.240625 30.240625 28.240625 29.053125Q28.240625 28.25625 28.615625 27.646875Q28.990625 27.021875 29.678125 26.69375Q30.365625 26.365625 31.646875 26.115625Q33.38125 25.7875 34.0375 25.50625L34.0375 25.25625Q34.0375 24.553125 33.678123 24.25625Q33.334373 23.94375 32.365623 23.94375Q31.709375 23.94375 31.334375 24.209375Q30.959375 24.459375 30.740625 25.115625ZM34.0375 27.115625Q33.56875 27.271875 32.5375 27.490625Q31.50625 27.709375 31.19375 27.928125Q30.709375 28.271875 30.709375 28.803125Q30.709375 29.31875 31.1 29.69375Q31.490625 30.06875 32.084373 30.06875Q32.75625 30.06875 33.35 29.63125Q33.803123 29.303125 33.94375 28.81875Q34.0375 28.490625 34.0375 27.615625L34.0375 27.115625ZM47.38125 31.6L44.9125 31.6L44.9125 26.834375Q44.9125 25.31875 44.75625 24.88125Q44.6 24.44375 44.240623 24.19375Q43.88125 23.94375 43.38125 23.94375Q42.740623 23.94375 42.225 24.303125Q41.725 24.646875 41.5375 25.225Q41.35 25.803125 41.35 27.365625L41.35 31.6L38.88125 31.6L38.88125 22.271875L41.1625 22.271875L41.1625 23.63125Q42.396873 22.053125 44.240623 22.053125Q45.06875 22.053125 45.740623 22.35Q46.4125 22.646875 46.75625 23.1Q47.115623 23.553125 47.240623 24.146875Q47.38125 24.725 47.38125 25.803125L47.38125 31.6ZM58.0375 25.021875L55.6 25.459375Q55.475 24.740625 55.0375 24.365625Q54.6 23.990625 53.9125 23.990625Q52.990623 23.990625 52.428123 24.63125Q51.88125 25.271875 51.88125 26.771875Q51.88125 28.428125 52.44375 29.115625Q53.00625 29.803125 53.94375 29.803125Q54.646873 29.803125 55.084373 29.396875Q55.5375 28.990625 55.725 28.021875L58.146873 28.428125Q57.771873 30.1 56.69375 30.959375Q55.63125 31.81875 53.834373 31.81875Q51.7875 31.81875 50.56875 30.521875Q49.35 29.225 49.35 26.94375Q49.35 24.63125 50.56875 23.35Q51.7875 22.053125 53.88125 22.053125Q55.584373 22.053125 56.584373 22.7875Q57.584373 23.521875 58.0375 25.021875ZM65.30312 28.63125L67.75625 29.0375Q67.2875 30.396875 66.25625 31.115625Q65.24062 31.81875 63.69375 31.81875Q61.25625 31.81875 60.1 30.225Q59.178123 28.94375 59.178123 27.00625Q59.178123 24.678125 60.38125 23.365625Q61.6 22.053125 63.459373 22.053125Q65.5375 22.053125 66.74062 23.428125Q67.94375 24.803125 67.89687 27.646875L61.709373 27.646875Q61.725 28.740625 62.2875 29.35Q62.865623 29.959375 63.725 29.959375Q64.30312 29.959375 64.69375 29.646875Q65.1 29.334375 65.30312 28.63125ZM65.44375 26.13125Q65.4125 25.053125 64.88125 24.50625Q64.35 23.94375 63.6 23.94375Q62.7875 23.94375 62.271873 24.5375Q61.740623 25.115625 61.740623 26.13125L65.44375 26.13125ZM70.89687 31.6L70.89687 18.709375L73.36562 18.709375L73.36562 31.6L70.89687 31.6ZM75.89687 31.6L75.89687 18.709375L78.36562 18.709375L78.36562 31.6L75.89687 31.6ZM82.74062 25.115625L80.49062 24.709375Q80.88125 23.35 81.80312 22.709375Q82.725 22.053125 84.5375 22.053125Q86.19375 22.053125 86.99062 22.44375Q87.80312 22.834375 88.13125 23.44375Q88.475 24.0375 88.475 25.646875L88.44375 28.5375Q88.44375 29.75625 88.55312 30.35Q88.67812 30.928125 89.00625 31.6L86.56875 31.6Q86.45937 31.35 86.31875 30.865625Q86.25625 30.646875 86.24062 30.584375Q85.6 31.19375 84.88125 31.50625Q84.1625 31.81875 83.35 31.81875Q81.89687 31.81875 81.06875 31.0375Q80.24062 30.240625 80.24062 29.053125Q80.24062 28.25625 80.61562 27.646875Q80.99062 27.021875 81.67812 26.69375Q82.36562 26.365625 83.64687 26.115625Q85.38125 25.7875 86.0375 25.50625L86.0375 25.25625Q86.0375 24.553125 85.67812 24.25625Q85.33437 23.94375 84.36562 23.94375Q83.70937 23.94375 83.33437 24.209375Q82.95937 24.459375 82.74062 25.115625ZM86.0375 27.115625Q85.56875 27.271875 84.5375 27.490625Q83.50625 27.709375 83.19375 27.928125Q82.70937 28.271875 82.70937 28.803125Q82.70937 29.31875 83.1 29.69375Q83.49062 30.06875 84.08437 30.06875Q84.75625 30.06875 85.35 29.63125Q85.80312 29.303125 85.94375 28.81875Q86.0375 28.490625 86.0375 27.615625L86.0375 27.115625ZM95.17812 22.271875L95.17812 24.240625L93.49062 24.240625L93.49062 27.990625Q93.49062 29.13125 93.5375 29.334375Q93.58437 29.521875 93.75625 29.646875Q93.92812 29.75625 94.17812 29.75625Q94.50625 29.75625 95.1625 29.521875L95.38125 31.44375Q94.50625 31.81875 93.42812 31.81875Q92.75625 31.81875 92.20937 31.6Q91.67812 31.365625 91.42812 31.00625Q91.17812 30.646875 91.08437 30.0375Q91.00625 29.615625 91.00625 28.303125L91.00625 24.240625L89.86562 24.240625L89.86562 22.271875L91.00625 22.271875L91.00625 20.4125L93.49062 18.975L93.49062 22.271875L95.17812 22.271875ZM96.89687 21.00625L96.89687 18.709375L99.36562 18.709375L99.36562 21.00625L96.89687 21.00625ZM96.89687 31.6L96.89687 22.271875L99.36562 22.271875L99.36562 31.6L96.89687 31.6ZM101.31875 26.803125Q101.31875 25.56875 101.92812 24.428125Q102.5375 23.271875 103.64687 22.6625Q104.75625 22.053125 106.13125 22.053125Q108.24062 22.053125 109.6 23.428125Q110.95937 24.803125 110.95937 26.9125Q110.95937 29.021875 109.58437 30.428125Q108.225 31.81875 106.14687 31.81875Q104.86562 31.81875 103.69375 31.240625Q102.5375 30.646875 101.92812 29.5375Q101.31875 28.4125 101.31875 26.803125ZM103.85 26.928125Q103.85 28.31875 104.50625 29.06875Q105.17812 29.803125 106.13125 29.803125Q107.1 29.803125 107.75625 29.06875Q108.4125 28.31875 108.4125 26.9125Q108.4125 25.5375 107.75625 24.803125Q107.1 24.06875 106.13125 24.06875Q105.17812 24.06875 104.50625 24.803125Q103.85 25.5375 103.85 26.928125ZM121.38125 31.6L118.9125 31.6L118.9125 26.834375Q118.9125 25.31875 118.75625 24.88125Q118.6 24.44375 118.24062 24.19375Q117.88125 23.94375 117.38125 23.94375Q116.74062 23.94375 116.225 24.303125Q115.725 24.646875 115.5375 25.225Q115.35 25.803125 115.35 27.365625L115.35 31.6L112.88125 31.6L112.88125 22.271875L115.1625 22.271875L115.1625 23.63125Q116.39687 22.053125 118.24062 22.053125Q119.06875 22.053125 119.74062 22.35Q120.4125 22.646875 120.75625 23.1Q121.11562 23.553125 121.24062 24.146875Q121.38125 24.725 121.38125 25.803125L121.38125 31.6ZM128.9125 31.6L128.9125 18.709375L134.39688 18.709375Q136.45938 18.709375 137.39688 19.06875Q138.33438 19.4125 138.89688 20.303125Q139.45938 21.178125 139.45938 22.334375Q139.45938 23.771875 138.6 24.725Q137.75626 25.6625 136.05313 25.9125Q136.89688 26.4125 137.44376 27.00625Q137.99063 27.584375 138.92813 29.084375L140.50626 31.6L137.39688 31.6L135.50626 28.803125Q134.50626 27.2875 134.13126 26.896875Q133.77188 26.50625 133.35 26.365625Q132.94376 26.225 132.05313 26.225L131.52188 26.225L131.52188 31.6L128.9125 31.6ZM131.52188 24.1625L133.44376 24.1625Q135.31876 24.1625 135.7875 24.00625Q136.25626 23.85 136.50626 23.459375Q136.77188 23.06875 136.77188 22.490625Q136.77188 21.85 136.42813 21.44375Q136.08438 21.0375 135.44376 20.94375Q135.13126 20.896875 133.55313 20.896875L131.52188 20.896875L131.52188 24.1625ZM147.30313 28.63125L149.75626 29.0375Q149.2875 30.396875 148.25626 31.115625Q147.24063 31.81875 145.69376 31.81875Q143.25626 31.81875 142.1 30.225Q141.17813 28.94375 141.17813 27.00625Q141.17813 24.678125 142.38126 23.365625Q143.6 22.053125 145.45938 22.053125Q147.5375 22.053125 148.74063 23.428125Q149.94376 24.803125 149.89688 27.646875L143.70938 27.646875Q143.725 28.740625 144.2875 29.35Q144.86563 29.959375 145.725 29.959375Q146.30313 29.959375 146.69376 29.646875Q147.1 29.334375 147.30313 28.63125ZM147.44376 26.13125Q147.4125 25.053125 146.88126 24.50625Q146.35 23.94375 145.6 23.94375Q144.7875 23.94375 144.27188 24.5375Q143.74063 25.115625 143.74063 26.13125L147.44376 26.13125ZM154.74063 25.115625L152.49063 24.709375Q152.88126 23.35 153.80313 22.709375Q154.725 22.053125 156.5375 22.053125Q158.19376 22.053125 158.99063 22.44375Q159.80313 22.834375 160.13126 23.44375Q160.475 24.0375 160.475 25.646875L160.44376 28.5375Q160.44376 29.75625 160.55313 30.35Q160.67813 30.928125 161.00626 31.6L158.56876 31.6Q158.45938 31.35 158.31876 30.865625Q158.25626 30.646875 158.24063 30.584375Q157.6 31.19375 156.88126 31.50625Q156.1625 31.81875 155.35 31.81875Q153.89688 31.81875 153.06876 31.0375Q152.24063 30.240625 152.24063 29.053125Q152.24063 28.25625 152.61563 27.646875Q152.99063 27.021875 153.67813 26.69375Q154.36563 26.365625 155.64688 26.115625Q157.38126 25.7875 158.0375 25.50625L158.0375 25.25625Q158.0375 24.553125 157.67813 24.25625Q157.33438 23.94375 156.36563 23.94375Q155.70938 23.94375 155.33438 24.209375Q154.95938 24.459375 154.74063 25.115625ZM158.0375 27.115625Q157.56876 27.271875 156.5375 27.490625Q155.50626 27.709375 155.19376 27.928125Q154.70938 28.271875 154.70938 28.803125Q154.70938 29.31875 155.1 29.69375Q155.49063 30.06875 156.08438 30.06875Q156.75626 30.06875 157.35 29.63125Q157.80313 29.303125 157.94376 28.81875Q158.0375 28.490625 158.0375 27.615625L158.0375 27.115625ZM162.02188 28.94375L164.50626 28.553125Q164.6625 29.271875 165.14688 29.646875Q165.63126 30.021875 166.49063 30.021875Q167.45938 30.021875 167.94376 29.678125Q168.25626 29.428125 168.25626 29.021875Q168.25626 28.740625 168.08438 28.553125Q167.89688 28.38125 167.25626 28.225Q164.27188 27.56875 163.475 27.021875Q162.36563 26.271875 162.36563 24.9125Q162.36563 23.709375 163.31876 22.88125Q164.2875 22.053125 166.2875 22.053125Q168.20938 22.053125 169.13126 22.678125Q170.06876 23.303125 170.42813 24.521875L168.1 24.959375Q167.94376 24.4125 167.52188 24.13125Q167.11563 23.834375 166.33438 23.834375Q165.36563 23.834375 164.94376 24.1Q164.6625 24.303125 164.6625 24.6Q164.6625 24.865625 164.9125 25.053125Q165.24063 25.303125 167.20938 25.75625Q169.17813 26.19375 169.975 26.85Q170.74063 27.50625 170.74063 28.678125Q170.74063 29.959375 169.6625 30.896875Q168.6 31.81875 166.49063 31.81875Q164.58438 31.81875 163.475 31.0375Q162.36563 30.25625 162.02188 28.94375ZM172.31876 26.803125Q172.31876 25.56875 172.92813 24.428125Q173.5375 23.271875 174.64688 22.6625Q175.75626 22.053125 177.13126 22.053125Q179.24063 22.053125 180.6 23.428125Q181.95938 24.803125 181.95938 26.9125Q181.95938 29.021875 180.58438 30.428125Q179.225 31.81875 177.14688 31.81875Q175.86563 31.81875 174.69376 31.240625Q173.5375 30.646875 172.92813 29.5375Q172.31876 28.4125 172.31876 26.803125ZM174.85 26.928125Q174.85 28.31875 175.50626 29.06875Q176.17813 29.803125 177.13126 29.803125Q178.1 29.803125 178.75626 29.06875Q179.4125 28.31875 179.4125 26.9125Q179.4125 25.5375 178.75626 24.803125Q178.1 24.06875 177.13126 24.06875Q176.17813 24.06875 175.50626 24.803125Q174.85 25.5375 174.85 26.928125ZM192.38126 31.6L189.9125 31.6L189.9125 26.834375Q189.9125 25.31875 189.75626 24.88125Q189.6 24.44375 189.24063 24.19375Q188.88126 23.94375 188.38126 23.94375Q187.74063 23.94375 187.225 24.303125Q186.725 24.646875 186.5375 25.225Q186.35 25.803125 186.35 27.365625L186.35 31.6L183.88126 31.6L183.88126 22.271875L186.1625 22.271875L186.1625 23.63125Q187.39688 22.053125 189.24063 22.053125Q190.06876 22.053125 190.74063 22.35Q191.4125 22.646875 191.75626 23.1Q192.11563 23.553125 192.24063 24.146875Q192.38126 24.725 192.38126 25.803125L192.38126 31.6ZM194.02188 28.94375L196.50626 28.553125Q196.6625 29.271875 197.14688 29.646875Q197.63126 30.021875 198.49063 30.021875Q199.45938 30.021875 199.94376 29.678125Q200.25626 29.428125 200.25626 29.021875Q200.25626 28.740625 200.08438 28.553125Q199.89688 28.38125 199.25626 28.225Q196.27188 27.56875 195.475 27.021875Q194.36563 26.271875 194.36563 24.9125Q194.36563 23.709375 195.31876 22.88125Q196.2875 22.053125 198.2875 22.053125Q200.20938 22.053125 201.13126 22.678125Q202.06876 23.303125 202.42813 24.521875L200.1 24.959375Q199.94376 24.4125 199.52188 24.13125Q199.11563 23.834375 198.33438 23.834375Q197.36563 23.834375 196.94376 24.1Q196.6625 24.303125 196.6625 24.6Q196.6625 24.865625 196.9125 25.053125Q197.24063 25.303125 199.20938 25.75625Q201.17813 26.19375 201.975 26.85Q202.74063 27.50625 202.74063 28.678125Q202.74063 29.959375 201.6625 30.896875Q200.6 31.81875 198.49063 31.81875Q196.58438 31.81875 195.475 31.0375Q194.36563 30.25625 194.02188 28.94375Z" fill-rule="nonzero"/></svg>