<svg version="1.1" viewBox="0.0 0.0 606.0 315.0" fill="none" stroke="none" stroke-linecap="square" stroke-miterlimit="10" width="606" height="315" xmlns:xlink="http://www.w3.org/1999/xlink" xmlns="http://www.w3.org/2000/svg"><path fill="#ffffff" d="M0 0L606.0 0L606.0 315.0L0 315.0L0 0Z" fill-rule="nonzero"/><path stroke="#333333" stroke-width="1.0" stroke-linecap="butt" d="M90.5 70.5L90.5 279.5" fill-rule="nonzero"/><path stroke="#cccccc" stroke-width="1.0" stroke-linecap="butt" d="M215.5 70.5L215.5 279.5" fill-rule="nonzero"/><path stroke="#cccccc" stroke-width="1.0" stroke-linecap="butt" d="M340.5 70.5L340.5 279.5" fill-rule="nonzero"/><path stroke="#cccccc" stroke-width="1.0" stroke-linecap="butt" d="M465.5 70.5L465.5 279.5" fill-rule="nonzero"/><path stroke="#cccccc" stroke-width="1.0" stroke-linecap="butt" d="M590.5 70.5L590.5 279.5" fill-rule="nonzero"/><clipPath id="id_0"><path d="M90.75 70.0L590.25 70.0L590.25 279.25L90.75 279.25L90.75 70.0Z" clip-rule="nonzero"/></clipPath><path stroke="#000000" stroke-width="2.0" stroke-linecap="butt" stroke-opacity="0.0" clip-path="url(#id_0)" d="M91.0 118.0L91.0 87.0L550.0 87.0C551.10455 87.0 552.0 87.89543 552.0 89.0L552.0 116.0C552.0 117.10457 551.10455 118.0 550.0 118.0Z" fill-rule="nonzero"/><path fill="#4285f4" clip-path="url(#id_0)" d="M91.0 118.0L91.0 87.0L550.0 87.0C551.10455 87.0 552.0 87.89543 552.0 89.0L552.0 116.0C552.0 117.10457 551.10455 118.0 550.0 118.0Z" fill-rule="nonzero"/><path stroke="#000000" stroke-width="2.0" stroke-linecap="butt" stroke-opacity="0.0" clip-path="url(#id_0)" d="M91.0 167.0L91.0 136.0L146.0 136.0C147.10457 136.0 148.0 136.89543 148.0 138.0L148.0 165.0C148.0 166.10457 147.10457 167.0 146.0 167.0Z" fill-rule="nonzero"/><path fill="#4285f4" clip-path="url(#id_0)" d="M91.0 167.0L91.0 136.0L146.0 136.0C147.10457 136.0 148.0 136.89543 148.0 138.0L148.0 165.0C148.0 166.10457 147.10457 167.0 146.0 167.0Z" fill-rule="nonzero"/><path stroke="#000000" stroke-width="2.0" stroke-linecap="butt" stroke-opacity="0.0" clip-path="url(#id_0)" d="M91.0 215.0L91.0 184.0L140.0 184.0C141.10457 184.0 142.0 184.89543 142.0 186.0L142.0 213.0C142.0 214.10457 141.10457 215.0 140.0 215.0Z" fill-rule="nonzero"/><path fill="#4285f4" clip-path="url(#id_0)" d="M91.0 215.0L91.0 184.0L140.0 184.0C141.10457 184.0 142.0 184.89543 142.0 186.0L142.0 213.0C142.0 214.10457 141.10457 215.0 140.0 215.0Z" fill-rule="nonzero"/><path stroke="#000000" stroke-width="2.0" stroke-linecap="butt" stroke-opacity="0.0" clip-path="url(#id_0)" d="M91.0 263.0L91.0 232.0L144.0 232.0C145.10457 232.0 146.0 232.89543 146.0 234.0L146.0 261.0C146.0 262.10458 145.10457 263.0 144.0 263.0Z" fill-rule="nonzero"/><path fill="#4285f4" clip-path="url(#id_0)" d="M91.0 263.0L91.0 232.0L144.0 232.0C145.10457 232.0 146.0 232.89543 146.0 234.0L146.0 261.0C146.0 262.10458 145.10457 263.0 144.0 263.0Z" fill-rule="nonzero"/><path stroke="#ffffff" stroke-width="3.0" stroke-linejoin="round" stroke-linecap="round" d="M565.83563 101.484375L566.7419 101.484375Q567.3825 101.484375 567.695 101.171875Q568.0075 100.84375 568.0075 100.3125Q568.0075 99.796875 567.695 99.515625Q567.39813 99.21875 566.85126 99.21875Q566.3669 99.21875 566.03876 99.484375Q565.71063 99.75 565.71063 100.171875L564.02313 100.171875Q564.02313 99.515625 564.3825 98.984375Q564.7419 98.453125 565.3825 98.15625Q566.03876 97.84375 566.82 97.84375Q568.16376 97.84375 568.9294 98.5Q569.71063 99.140625 569.71063 100.28125Q569.71063 100.875 569.35126 101.375Q568.9919 101.859375 568.41376 102.109375Q569.1325 102.375 569.47626 102.890625Q569.83563 103.40625 569.83563 104.109375Q569.83563 105.25 569.0075 105.9375Q568.1794 106.625 566.82 106.625Q565.53876 106.625 564.72626 105.953125Q563.91376 105.265625 563.91376 104.15625L565.60126 104.15625Q565.60126 104.640625 565.96063 104.953125Q566.33563 105.25 566.85126 105.25Q567.46063 105.25 567.8044 104.9375Q568.14813 104.609375 568.14813 104.078125Q568.14813 102.8125 566.7419 102.8125L565.83563 102.8125L565.83563 101.484375ZM575.71063 97.875L575.71063 99.28125L575.5544 99.28125Q574.39813 99.296875 573.695 99.875Q573.0075 100.453125 572.8669 101.484375Q573.53876 100.796875 574.57 100.796875Q575.695 100.796875 576.35126 101.59375Q577.0075 102.390625 577.0075 103.6875Q577.0075 104.515625 576.64813 105.1875Q576.28876 105.859375 575.6169 106.25Q574.96063 106.625 574.1325 106.625Q572.78876 106.625 571.96063 105.6875Q571.1325 104.734375 571.1325 103.171875L571.1325 102.5625Q571.1325 101.171875 571.64813 100.109375Q572.1794 99.046875 573.14813 98.46875Q574.1325 97.890625 575.4294 97.875L575.71063 97.875ZM574.0544 102.15625Q573.64813 102.15625 573.3044 102.375Q572.97626 102.578125 572.82 102.9375L572.82 103.453125Q572.82 104.296875 573.14813 104.78125Q573.4919 105.25 574.10126 105.25Q574.64813 105.25 574.97626 104.828125Q575.32 104.390625 575.32 103.703125Q575.32 103.0 574.97626 102.578125Q574.6325 102.15625 574.0544 102.15625ZM582.08563 103.09375Q581.41376 103.734375 580.53876 103.734375Q579.39813 103.734375 578.71063 102.96875Q578.03876 102.1875 578.03876 100.875Q578.03876 100.03125 578.39813 99.328125Q578.77313 98.625 579.4294 98.234375Q580.08563 97.84375 580.91376 97.84375Q581.7575 97.84375 582.41376 98.265625Q583.07 98.6875 583.4294 99.484375Q583.78876 100.28125 583.8044 101.296875L583.8044 101.921875Q583.8044 104.0625 582.7419 105.28125Q581.6794 106.5 579.72626 106.578125L579.32 106.578125L579.32 105.171875L579.695 105.15625Q581.89813 105.0625 582.08563 103.09375ZM580.945 102.4375Q581.3669 102.4375 581.64813 102.234375Q581.945 102.015625 582.10126 101.71875L582.10126 101.03125Q582.10126 100.171875 581.77313 99.703125Q581.445 99.21875 580.89813 99.21875Q580.3825 99.21875 580.0544 99.6875Q579.72626 100.140625 579.72626 100.84375Q579.72626 101.546875 580.03876 102.0Q580.3669 102.4375 580.945 102.4375Z" fill-rule="nonzero"/><path fill="#4285f4" d="M565.83563 101.484375L566.7419 101.484375Q567.3825 101.484375 567.695 101.171875Q568.0075 100.84375 568.0075 100.3125Q568.0075 99.796875 567.695 99.515625Q567.39813 99.21875 566.85126 99.21875Q566.3669 99.21875 566.03876 99.484375Q565.71063 99.75 565.71063 100.171875L564.02313 100.171875Q564.02313 99.515625 564.3825 98.984375Q564.7419 98.453125 565.3825 98.15625Q566.03876 97.84375 566.82 97.84375Q568.16376 97.84375 568.9294 98.5Q569.71063 99.140625 569.71063 100.28125Q569.71063 100.875 569.35126 101.375Q568.9919 101.859375 568.41376 102.109375Q569.1325 102.375 569.47626 102.890625Q569.83563 103.40625 569.83563 104.109375Q569.83563 105.25 569.0075 105.9375Q568.1794 106.625 566.82 106.625Q565.53876 106.625 564.72626 105.953125Q563.91376 105.265625 563.91376 104.15625L565.60126 104.15625Q565.60126 104.640625 565.96063 104.953125Q566.33563 105.25 566.85126 105.25Q567.46063 105.25 567.8044 104.9375Q568.14813 104.609375 568.14813 104.078125Q568.14813 102.8125 566.7419 102.8125L565.83563 102.8125L565.83563 101.484375ZM575.71063 97.875L575.71063 99.28125L575.5544 99.28125Q574.39813 99.296875 573.695 99.875Q573.0075 100.453125 572.8669 101.484375Q573.53876 100.796875 574.57 100.796875Q575.695 100.796875 576.35126 101.59375Q577.0075 102.390625 577.0075 103.6875Q577.0075 104.515625 576.64813 105.1875Q576.28876 105.859375 575.6169 106.25Q574.96063 106.625 574.1325 106.625Q572.78876 106.625 571.96063 105.6875Q571.1325 104.734375 571.1325 103.171875L571.1325 102.5625Q571.1325 101.171875 571.64813 100.109375Q572.1794 99.046875 573.14813 98.46875Q574.1325 97.890625 575.4294 97.875L575.71063 97.875ZM574.0544 102.15625Q573.64813 102.15625 573.3044 102.375Q572.97626 102.578125 572.82 102.9375L572.82 103.453125Q572.82 104.296875 573.14813 104.78125Q573.4919 105.25 574.10126 105.25Q574.64813 105.25 574.97626 104.828125Q575.32 104.390625 575.32 103.703125Q575.32 103.0 574.97626 102.578125Q574.6325 102.15625 574.0544 102.15625ZM582.08563 103.09375Q581.41376 103.734375 580.53876 103.734375Q579.39813 103.734375 578.71063 102.96875Q578.03876 102.1875 578.03876 100.875Q578.03876 100.03125 578.39813 99.328125Q578.77313 98.625 579.4294 98.234375Q580.08563 97.84375 580.91376 97.84375Q581.7575 97.84375 582.41376 98.265625Q583.07 98.6875 583.4294 99.484375Q583.78876 100.28125 583.8044 101.296875L583.8044 101.921875Q583.8044 104.0625 582.7419 105.28125Q581.6794 106.5 579.72626 106.578125L579.32 106.578125L579.32 105.171875L579.695 105.15625Q581.89813 105.0625 582.08563 103.09375ZM580.945 102.4375Q581.3669 102.4375 581.64813 102.234375Q581.945 102.015625 582.10126 101.71875L582.10126 101.03125Q582.10126 100.171875 581.77313 99.703125Q581.445 99.21875 580.89813 99.21875Q580.3825 99.21875 580.0544 99.6875Q579.72626 100.140625 579.72626 100.84375Q579.72626 101.546875 580.03876 102.0Q580.3669 102.4375 580.945 102.4375Z" fill-rule="nonzero"/><path stroke="#ffffff" stroke-width="3.0" stroke-linejoin="round" stroke-linecap="round" d="M165.78625 152.28125L166.755 152.28125L166.755 153.65625L165.78625 153.65625L165.78625 155.5L164.08313 155.5L164.08313 153.65625L160.59875 153.65625L160.52063 152.59375L164.0675 146.96875L165.78625 146.96875L165.78625 152.28125ZM162.20813 152.28125L164.08313 152.28125L164.08313 149.28125L163.97375 149.46875L162.20813 152.28125ZM172.36438 146.875L172.36438 148.28125L172.20813 148.28125Q171.05188 148.29688 170.34875 148.875Q169.66125 149.45312 169.52063 150.48438Q170.1925 149.79688 171.22375 149.79688Q172.34875 149.79688 173.005 150.59375Q173.66125 151.39062 173.66125 152.6875Q173.66125 153.51562 173.30188 154.1875Q172.9425 154.85938 172.27063 155.25Q171.61438 155.625 170.78625 155.625Q169.4425 155.625 168.61438 154.6875Q167.78625 153.73438 167.78625 152.17188L167.78625 151.5625Q167.78625 150.17188 168.30188 149.10938Q168.83313 148.04688 169.80188 147.46875Q170.78625 146.89062 172.08313 146.875L172.36438 146.875ZM170.70813 151.15625Q170.30188 151.15625 169.95813 151.375Q169.63 151.57812 169.47375 151.9375L169.47375 152.45312Q169.47375 153.29688 169.80188 153.78125Q170.14563 154.25 170.755 154.25Q171.30188 154.25 171.63 153.82812Q171.97375 153.39062 171.97375 152.70312Q171.97375 152.0 171.63 151.57812Q171.28625 151.15625 170.70813 151.15625Z" fill-rule="nonzero"/><path fill="#4285f4" d="M165.78625 152.28125L166.755 152.28125L166.755 153.65625L165.78625 153.65625L165.78625 155.5L164.08313 155.5L164.08313 153.65625L160.59875 153.65625L160.52063 152.59375L164.0675 146.96875L165.78625 146.96875L165.78625 152.28125ZM162.20813 152.28125L164.08313 152.28125L164.08313 149.28125L163.97375 149.46875L162.20813 152.28125ZM172.36438 146.875L172.36438 148.28125L172.20813 148.28125Q171.05188 148.29688 170.34875 148.875Q169.66125 149.45312 169.52063 150.48438Q170.1925 149.79688 171.22375 149.79688Q172.34875 149.79688 173.005 150.59375Q173.66125 151.39062 173.66125 152.6875Q173.66125 153.51562 173.30188 154.1875Q172.9425 154.85938 172.27063 155.25Q171.61438 155.625 170.78625 155.625Q169.4425 155.625 168.61438 154.6875Q167.78625 153.73438 167.78625 152.17188L167.78625 151.5625Q167.78625 150.17188 168.30188 149.10938Q168.83313 148.04688 169.80188 147.46875Q170.78625 146.89062 172.08313 146.875L172.36438 146.875ZM170.70813 151.15625Q170.30188 151.15625 169.95813 151.375Q169.63 151.57812 169.47375 151.9375L169.47375 152.45312Q169.47375 153.29688 169.80188 153.78125Q170.14563 154.25 170.755 154.25Q171.30188 154.25 171.63 153.82812Q171.97375 153.39062 171.97375 152.70312Q171.97375 152.0 171.63 151.57812Q171.28625 151.15625 170.70813 151.15625Z" fill-rule="nonzero"/><path stroke="#ffffff" stroke-width="3.0" stroke-linejoin="round" stroke-linecap="round" d="M159.5425 200.28125L160.51125 200.28125L160.51125 201.65625L159.5425 201.65625L159.5425 203.5L157.83937 203.5L157.83937 201.65625L154.355 201.65625L154.27687 200.59375L157.82375 194.96875L159.5425 194.96875L159.5425 200.28125ZM155.96437 200.28125L157.83937 200.28125L157.83937 197.28125L157.73 197.46875L155.96437 200.28125ZM165.63625 203.5L163.94875 203.5L163.94875 196.96875L161.93312 197.59375L161.93312 196.21875L165.46437 194.95312L165.63625 194.95312L165.63625 203.5Z" fill-rule="nonzero"/><path fill="#4285f4" d="M159.5425 200.28125L160.51125 200.28125L160.51125 201.65625L159.5425 201.65625L159.5425 203.5L157.83937 203.5L157.83937 201.65625L154.355 201.65625L154.27687 200.59375L157.82375 194.96875L159.5425 194.96875L159.5425 200.28125ZM155.96437 200.28125L157.83937 200.28125L157.83937 197.28125L157.73 197.46875L155.96437 200.28125ZM165.63625 203.5L163.94875 203.5L163.94875 196.96875L161.93312 197.59375L161.93312 196.21875L165.46437 194.95312L165.63625 194.95312L165.63625 203.5Z" fill-rule="nonzero"/><path stroke="#ffffff" stroke-width="3.0" stroke-linejoin="round" stroke-linecap="round" d="M163.28876 248.28125L164.2575 248.28125L164.2575 249.65625L163.28876 249.65625L163.28876 251.5L161.58563 251.5L161.58563 249.65625L158.10126 249.65625L158.02313 248.59375L161.57 242.96875L163.28876 242.96875L163.28876 248.28125ZM159.71063 248.28125L161.58563 248.28125L161.58563 245.28125L161.47626 245.46875L159.71063 248.28125ZM170.28876 248.28125L171.2575 248.28125L171.2575 249.65625L170.28876 249.65625L170.28876 251.5L168.58563 251.5L168.58563 249.65625L165.10126 249.65625L165.02313 248.59375L168.57 242.96875L170.28876 242.96875L170.28876 248.28125ZM166.71063 248.28125L168.58563 248.28125L168.58563 245.28125L168.47626 245.46875L166.71063 248.28125Z" fill-rule="nonzero"/><path fill="#4285f4" d="M163.28876 248.28125L164.2575 248.28125L164.2575 249.65625L163.28876 249.65625L163.28876 251.5L161.58563 251.5L161.58563 249.65625L158.10126 249.65625L158.02313 248.59375L161.57 242.96875L163.28876 242.96875L163.28876 248.28125ZM159.71063 248.28125L161.58563 248.28125L161.58563 245.28125L161.47626 245.46875L159.71063 248.28125ZM170.28876 248.28125L171.2575 248.28125L171.2575 249.65625L170.28876 249.65625L170.28876 251.5L168.58563 251.5L168.58563 249.65625L165.10126 249.65625L165.02313 248.59375L168.57 242.96875L170.28876 242.96875L170.28876 248.28125ZM166.71063 248.28125L168.58563 248.28125L168.58563 245.28125L168.47626 245.46875L166.71063 248.28125Z" fill-rule="nonzero"/><path fill="#000000" d="M22.8125 103.4542L23.9375 103.751076Q23.578125 105.1417 22.65625 105.876076Q21.734375 106.61045 20.390625 106.61045Q19.0 106.61045 18.125 106.04795Q17.25 105.48545 16.796875 104.42295Q16.34375 103.344826 16.34375 102.11045Q16.34375 100.7667 16.859375 99.7667Q17.375 98.7667 18.3125 98.251076Q19.265625 97.73545 20.40625 97.73545Q21.6875 97.73545 22.5625 98.3917Q23.453125 99.04795 23.796875 100.23545L22.671875 100.501076Q22.375 99.563576 21.796875 99.1417Q21.234375 98.7042 20.375 98.7042Q19.390625 98.7042 18.71875 99.188576Q18.0625 99.657326 17.78125 100.4542Q17.515625 101.251076 17.515625 102.11045Q17.515625 103.2042 17.828125 104.0167Q18.15625 104.8292 18.828125 105.23545Q19.5 105.6417 20.296875 105.6417Q21.25 105.6417 21.90625 105.094826Q22.578125 104.54795 22.8125 103.4542ZM29.609375 105.7042Q29.015625 106.2042 28.46875 106.407326Q27.9375 106.61045 27.3125 106.61045Q26.28125 106.61045 25.734375 106.11045Q25.1875 105.61045 25.1875 104.8292Q25.1875 104.376076 25.390625 104.001076Q25.59375 103.61045 25.9375 103.3917Q26.28125 103.157326 26.703125 103.04795Q27.0 102.9542 27.640625 102.876076Q28.90625 102.73545 29.515625 102.5167Q29.515625 102.29795 29.515625 102.251076Q29.515625 101.594826 29.21875 101.3292Q28.8125 100.98545 28.015625 100.98545Q27.28125 100.98545 26.921875 101.251076Q26.5625 101.501076 26.390625 102.157326L25.359375 102.0167Q25.5 101.36045 25.828125 100.9542Q26.15625 100.54795 26.765625 100.3292Q27.375 100.11045 28.171875 100.11045Q28.96875 100.11045 29.46875 100.29795Q29.96875 100.48545 30.203125 100.7667Q30.4375 101.04795 30.53125 101.48545Q30.578125 101.751076 30.578125 102.4542L30.578125 103.86045Q30.578125 105.3292 30.640625 105.719826Q30.71875 106.11045 30.921875 106.469826L29.8125 106.469826Q29.65625 106.1417 29.609375 105.7042ZM29.515625 103.344826Q28.9375 103.5792 27.796875 103.751076Q27.140625 103.844826 26.875 103.969826Q26.609375 104.0792 26.453125 104.29795Q26.3125 104.5167 26.3125 104.79795Q26.3125 105.219826 26.625 105.501076Q26.953125 105.782326 27.5625 105.782326Q28.171875 105.782326 28.640625 105.5167Q29.125 105.251076 29.34375 104.782326Q29.515625 104.42295 29.515625 103.73545L29.515625 103.344826ZM32.546875 106.469826L32.546875 100.251076L33.484375 100.251076L33.484375 101.126076Q34.171875 100.11045 35.46875 100.11045Q36.03125 100.11045 36.5 100.313576Q36.984375 100.5167 37.21875 100.844826Q37.453125 101.17295 37.546875 101.61045Q37.59375 101.907326 37.59375 102.6417L37.59375 106.469826L36.546875 106.469826L36.546875 102.688576Q36.546875 102.032326 36.421875 101.719826Q36.296875 101.407326 35.984375 101.219826Q35.671875 101.0167 35.25 101.0167Q34.578125 101.0167 34.078125 101.4542Q33.59375 101.876076 33.59375 103.063576L33.59375 106.469826L32.546875 106.469826ZM43.609375 104.188576L44.640625 104.3292Q44.46875 105.3917 43.765625 106.001076Q43.0625 106.61045 42.046875 106.61045Q40.765625 106.61045 39.984375 105.782326Q39.21875 104.938576 39.21875 103.376076Q39.21875 102.376076 39.546875 101.626076Q39.890625 100.86045 40.5625 100.48545Q41.25 100.11045 42.0625 100.11045Q43.0625 100.11045 43.703125 100.626076Q44.359375 101.126076 44.546875 102.0792L43.515625 102.23545Q43.375 101.61045 43.0 101.29795Q42.625 100.969826 42.09375 100.969826Q41.296875 100.969826 40.796875 101.54795Q40.296875 102.11045 40.296875 103.344826Q40.296875 104.61045 40.78125 105.17295Q41.265625 105.73545 42.03125 105.73545Q42.65625 105.73545 43.0625 105.36045Q43.484375 104.98545 43.609375 104.188576ZM49.796875 104.469826L50.890625 104.594826Q50.640625 105.54795 49.9375 106.0792Q49.234375 106.61045 48.15625 106.61045Q46.796875 106.61045 45.984375 105.7667Q45.1875 104.92295 45.1875 103.407326Q45.1875 101.844826 46.0 100.98545Q46.8125 100.11045 48.09375 100.11045Q49.34375 100.11045 50.125 100.9542Q50.921875 101.79795 50.921875 103.344826Q50.921875 103.438576 50.921875 103.626076L46.28125 103.626076Q46.34375 104.657326 46.859375 105.2042Q47.375 105.73545 48.15625 105.73545Q48.734375 105.73545 49.140625 105.438576Q49.5625 105.126076 49.796875 104.469826ZM46.34375 102.7667L49.8125 102.7667Q49.75 101.969826 49.421875 101.5792Q48.90625 100.969826 48.109375 100.969826Q47.375 100.969826 46.875 101.4542Q46.390625 101.938576 46.34375 102.7667ZM52.515625 106.469826L52.515625 97.876076L53.578125 97.876076L53.578125 106.469826L52.515625 106.469826ZM55.515625 106.469826L55.515625 97.876076L56.578125 97.876076L56.578125 106.469826L55.515625 106.469826ZM62.609375 105.7042Q62.015625 106.2042 61.46875 106.407326Q60.9375 106.61045 60.3125 106.61045Q59.28125 106.61045 58.734375 106.11045Q58.1875 105.61045 58.1875 104.8292Q58.1875 104.376076 58.390625 104.001076Q58.59375 103.61045 58.9375 103.3917Q59.28125 103.157326 59.703125 103.04795Q60.0 102.9542 60.640625 102.876076Q61.90625 102.73545 62.515625 102.5167Q62.515625 102.29795 62.515625 102.251076Q62.515625 101.594826 62.21875 101.3292Q61.8125 100.98545 61.015625 100.98545Q60.28125 100.98545 59.921875 101.251076Q59.5625 101.501076 59.390625 102.157326L58.359375 102.0167Q58.5 101.36045 58.828125 100.9542Q59.15625 100.54795 59.765625 100.3292Q60.375 100.11045 61.171875 100.11045Q61.96875 100.11045 62.46875 100.29795Q62.96875 100.48545 63.203125 100.7667Q63.4375 101.04795 63.53125 101.48545Q63.578125 101.751076 63.578125 102.4542L63.578125 103.86045Q63.578125 105.3292 63.640625 105.719826Q63.71875 106.11045 63.921875 106.469826L62.8125 106.469826Q62.65625 106.1417 62.609375 105.7042ZM62.515625 103.344826Q61.9375 103.5792 60.796875 103.751076Q60.140625 103.844826 59.875 103.969826Q59.609375 104.0792 59.453125 104.29795Q59.3125 104.5167 59.3125 104.79795Q59.3125 105.219826 59.625 105.501076Q59.953125 105.782326 60.5625 105.782326Q61.171875 105.782326 61.640625 105.5167Q62.125 105.251076 62.34375 104.782326Q62.515625 104.42295 62.515625 103.73545L62.515625 103.344826ZM67.84375 105.532326L68.0 106.4542Q67.546875 106.54795 67.203125 106.54795Q66.625 106.54795 66.3125 106.376076Q66.0 106.188576 65.859375 105.8917Q65.734375 105.594826 65.734375 104.6417L65.734375 101.063576L64.96875 101.063576L64.96875 100.251076L65.734375 100.251076L65.734375 98.7042L66.78125 98.0792L66.78125 100.251076L67.84375 100.251076L67.84375 101.063576L66.78125 101.063576L66.78125 104.7042Q66.78125 105.157326 66.828125 105.282326Q66.890625 105.407326 67.015625 105.48545Q67.140625 105.563576 67.375 105.563576Q67.5625 105.563576 67.84375 105.532326ZM68.546875 99.094826L68.546875 97.876076L69.609375 97.876076L69.609375 99.094826L68.546875 99.094826ZM68.546875 106.469826L68.546875 100.251076L69.609375 100.251076L69.609375 106.469826L68.546875 106.469826ZM71.15625 103.36045Q71.15625 101.626076 72.109375 100.79795Q72.90625 100.11045 74.0625 100.11045Q75.34375 100.11045 76.15625 100.9542Q76.984375 101.782326 76.984375 103.2667Q76.984375 104.469826 76.625 105.157326Q76.265625 105.844826 75.5625 106.23545Q74.875 106.61045 74.0625 106.61045Q72.765625 106.61045 71.953125 105.782326Q71.15625 104.938576 71.15625 103.36045ZM72.234375 103.36045Q72.234375 104.54795 72.75 105.1417Q73.28125 105.73545 74.0625 105.73545Q74.859375 105.73545 75.375 105.1417Q75.890625 104.54795 75.890625 103.3292Q75.890625 102.17295 75.359375 101.5792Q74.84375 100.98545 74.0625 100.98545Q73.28125 100.98545 72.75 101.5792Q72.234375 102.157326 72.234375 103.36045ZM78.546875 106.469826L78.546875 100.251076L79.484375 100.251076L79.484375 101.126076Q80.171875 100.11045 81.46875 100.11045Q82.03125 100.11045 82.5 100.313576Q82.984375 100.5167 83.21875 100.844826Q83.453125 101.17295 83.546875 101.61045Q83.59375 101.907326 83.59375 102.6417L83.59375 106.469826L82.546875 106.469826L82.546875 102.688576Q82.546875 102.032326 82.421875 101.719826Q82.296875 101.407326 81.984375 101.219826Q81.671875 101.0167 81.25 101.0167Q80.578125 101.0167 80.078125 101.4542Q79.59375 101.876076 79.59375 103.063576L79.59375 106.469826L78.546875 106.469826Z" fill-rule="nonzero"/><path fill="#000000" d="M21.671875 154.57327L21.671875 145.97952L24.640625 145.97952Q25.640625 145.97952 26.171875 146.10452Q26.90625 146.2764 27.421875 146.7139Q28.109375 147.29202 28.4375 148.19827Q28.78125 149.0889 28.78125 150.22952Q28.78125 151.2139 28.546875 151.9639Q28.328125 152.7139 27.96875 153.2139Q27.609375 153.7139 27.171875 153.99515Q26.75 154.2764 26.15625 154.43265Q25.5625 154.57327 24.78125 154.57327L21.671875 154.57327ZM22.8125 153.55765L24.640625 153.55765Q25.5 153.55765 25.984375 153.4014Q26.46875 153.24515 26.75 152.94827Q27.15625 152.55765 27.375 151.87015Q27.609375 151.18265 27.609375 150.2139Q27.609375 148.87015 27.15625 148.1514Q26.71875 147.41702 26.09375 147.16702Q25.625 146.99515 24.625 146.99515L22.8125 146.99515L22.8125 153.55765ZM30.15625 151.4639Q30.15625 149.72952 31.109375 148.9014Q31.90625 148.2139 33.0625 148.2139Q34.34375 148.2139 35.15625 149.05765Q35.984375 149.88577 35.984375 151.37015Q35.984375 152.57327 35.625 153.26077Q35.265625 153.94827 34.5625 154.3389Q33.875 154.7139 33.0625 154.7139Q31.765625 154.7139 30.953125 153.88577Q30.15625 153.04202 30.15625 151.4639ZM31.234375 151.4639Q31.234375 152.6514 31.75 153.24515Q32.28125 153.8389 33.0625 153.8389Q33.859375 153.8389 34.375 153.24515Q34.890625 152.6514 34.890625 151.43265Q34.890625 150.2764 34.359375 149.68265Q33.84375 149.0889 33.0625 149.0889Q32.28125 149.0889 31.75 149.68265Q31.234375 150.26077 31.234375 151.4639ZM38.6875 154.57327L36.78125 148.35452L37.875 148.35452L38.859375 151.94827L39.234375 153.2764Q39.265625 153.18265 39.5625 151.99515L40.546875 148.35452L41.625 148.35452L42.5625 151.9639L42.875 153.1514L43.234375 151.94827L44.296875 148.35452L45.328125 148.35452L43.375 154.57327L42.28125 154.57327L41.296875 150.8389L41.046875 149.79202L39.796875 154.57327L38.6875 154.57327ZM46.546875 154.57327L46.546875 148.35452L47.484375 148.35452L47.484375 149.22952Q48.171875 148.2139 49.46875 148.2139Q50.03125 148.2139 50.5 148.41702Q50.984375 148.62015 51.21875 148.94827Q51.453125 149.2764 51.546875 149.7139Q51.59375 150.01077 51.59375 150.74515L51.59375 154.57327L50.546875 154.57327L50.546875 150.79202Q50.546875 150.13577 50.421875 149.82327Q50.296875 149.51077 49.984375 149.32327Q49.671875 149.12015 49.25 149.12015Q48.578125 149.12015 48.078125 149.55765Q47.59375 149.97952 47.59375 151.16702L47.59375 154.57327L46.546875 154.57327ZM53.34375 155.0889L54.375 155.24515Q54.4375 155.7139 54.734375 155.93265Q55.125 156.22952 55.796875 156.22952Q56.53125 156.22952 56.921875 155.93265Q57.328125 155.63577 57.46875 155.12015Q57.5625 154.79202 57.546875 153.76077Q56.859375 154.57327 55.828125 154.57327Q54.546875 154.57327 53.84375 153.6514Q53.140625 152.7139 53.140625 151.43265Q53.140625 150.54202 53.453125 149.79202Q53.78125 149.0264 54.390625 148.62015Q55.0 148.2139 55.828125 148.2139Q56.9375 148.2139 57.65625 149.10452L57.65625 148.35452L58.625 148.35452L58.625 153.72952Q58.625 155.18265 58.328125 155.79202Q58.03125 156.4014 57.390625 156.74515Q56.75 157.10452 55.8125 157.10452Q54.703125 157.10452 54.015625 156.60452Q53.328125 156.10452 53.34375 155.0889ZM54.21875 151.35452Q54.21875 152.57327 54.703125 153.13577Q55.1875 153.69827 55.921875 153.69827Q56.65625 153.69827 57.140625 153.13577Q57.640625 152.57327 57.640625 151.38577Q57.640625 150.24515 57.125 149.66702Q56.625 149.0889 55.90625 149.0889Q55.203125 149.0889 54.703125 149.66702Q54.21875 150.22952 54.21875 151.35452ZM60.53125 154.57327L60.53125 148.35452L61.484375 148.35452L61.484375 149.29202Q61.84375 148.63577 62.140625 148.43265Q62.453125 148.2139 62.828125 148.2139Q63.359375 148.2139 63.90625 148.54202L63.546875 149.5264Q63.15625 149.29202 62.78125 149.29202Q62.421875 149.29202 62.140625 149.51077Q61.875 149.7139 61.765625 150.0889Q61.578125 150.6514 61.578125 151.30765L61.578125 154.57327L60.53125 154.57327ZM68.609375 153.80765Q68.015625 154.30765 67.46875 154.51077Q66.9375 154.7139 66.3125 154.7139Q65.28125 154.7139 64.734375 154.2139Q64.1875 153.7139 64.1875 152.93265Q64.1875 152.47952 64.390625 152.10452Q64.59375 151.7139 64.9375 151.49515Q65.28125 151.26077 65.703125 151.1514Q66.0 151.05765 66.640625 150.97952Q67.90625 150.8389 68.515625 150.62015Q68.515625 150.4014 68.515625 150.35452Q68.515625 149.69827 68.21875 149.43265Q67.8125 149.0889 67.015625 149.0889Q66.28125 149.0889 65.921875 149.35452Q65.5625 149.60452 65.390625 150.26077L64.359375 150.12015Q64.5 149.4639 64.828125 149.05765Q65.15625 148.6514 65.765625 148.43265Q66.375 148.2139 67.171875 148.2139Q67.96875 148.2139 68.46875 148.4014Q68.96875 148.5889 69.203125 148.87015Q69.4375 149.1514 69.53125 149.5889Q69.578125 149.85452 69.578125 150.55765L69.578125 151.9639Q69.578125 153.43265 69.640625 153.82327Q69.71875 154.2139 69.921875 154.57327L68.8125 154.57327Q68.65625 154.24515 68.609375 153.80765ZM68.515625 151.44827Q67.9375 151.68265 66.796875 151.85452Q66.140625 151.94827 65.875 152.07327Q65.609375 152.18265 65.453125 152.4014Q65.3125 152.62015 65.3125 152.9014Q65.3125 153.32327 65.625 153.60452Q65.953125 153.88577 66.5625 153.88577Q67.171875 153.88577 67.640625 153.62015Q68.125 153.35452 68.34375 152.88577Q68.515625 152.5264 68.515625 151.8389L68.515625 151.44827ZM75.578125 154.57327L75.578125 153.79202Q74.984375 154.7139 73.84375 154.7139Q73.09375 154.7139 72.46875 154.30765Q71.84375 153.88577 71.5 153.1514Q71.15625 152.41702 71.15625 151.4639Q71.15625 150.54202 71.46875 149.7764Q71.78125 149.01077 72.40625 148.62015Q73.03125 148.2139 73.796875 148.2139Q74.359375 148.2139 74.796875 148.44827Q75.234375 148.68265 75.515625 149.05765L75.515625 145.97952L76.5625 145.97952L76.5625 154.57327L75.578125 154.57327ZM72.25 151.4639Q72.25 152.66702 72.75 153.26077Q73.25 153.8389 73.9375 153.8389Q74.625 153.8389 75.109375 153.2764Q75.59375 152.7139 75.59375 151.55765Q75.59375 150.2764 75.09375 149.68265Q74.609375 149.0889 73.890625 149.0889Q73.1875 149.0889 72.71875 149.66702Q72.25 150.22952 72.25 151.4639ZM82.796875 152.57327L83.890625 152.69827Q83.640625 153.6514 82.9375 154.18265Q82.234375 154.7139 81.15625 154.7139Q79.796875 154.7139 78.984375 153.87015Q78.1875 153.0264 78.1875 151.51077Q78.1875 149.94827 79.0 149.0889Q79.8125 148.2139 81.09375 148.2139Q82.34375 148.2139 83.125 149.05765Q83.921875 149.9014 83.921875 151.44827Q83.921875 151.54202 83.921875 151.72952L79.28125 151.72952Q79.34375 152.76077 79.859375 153.30765Q80.375 153.8389 81.15625 153.8389Q81.734375 153.8389 82.140625 153.54202Q82.5625 153.22952 82.796875 152.57327ZM79.34375 150.87015L82.8125 150.87015Q82.75 150.07327 82.421875 149.68265Q81.90625 149.07327 81.109375 149.07327Q80.375 149.07327 79.875 149.55765Q79.390625 150.04202 79.34375 150.87015Z" fill-rule="nonzero"/><path fill="#000000" d="M55.328125 198.48923Q55.328125 196.3486 56.46875 195.14548Q57.625 193.92673 59.4375 193.92673Q60.640625 193.92673 61.59375 194.50485Q62.546875 195.06735 63.046875 196.08298Q63.546875 197.0986 63.546875 198.39548Q63.546875 199.69235 63.015625 200.7236Q62.484375 201.75485 61.515625 202.2861Q60.5625 202.81735 59.4375 202.81735Q58.21875 202.81735 57.265625 202.23923Q56.3125 201.64548 55.8125 200.64548Q55.328125 199.62985 55.328125 198.48923ZM56.5 198.50485Q56.5 200.06735 57.328125 200.95798Q58.171875 201.8486 59.4375 201.8486Q60.71875 201.8486 61.546875 200.95798Q62.375 200.05173 62.375 198.37985Q62.375 197.33298 62.015625 196.55173Q61.671875 195.77048 60.984375 195.3486Q60.296875 194.9111 59.453125 194.9111Q58.25 194.9111 57.375 195.73923Q56.5 196.56735 56.5 198.50485ZM66.84375 201.73923L67.0 202.6611Q66.546875 202.75485 66.203125 202.75485Q65.625 202.75485 65.3125 202.58298Q65.0 202.39548 64.859375 202.0986Q64.734375 201.80173 64.734375 200.8486L64.734375 197.27048L63.96875 197.27048L63.96875 196.45798L64.734375 196.45798L64.734375 194.9111L65.78125 194.2861L65.78125 196.45798L66.84375 196.45798L66.84375 197.27048L65.78125 197.27048L65.78125 200.9111Q65.78125 201.36423 65.828125 201.48923Q65.890625 201.61423 66.015625 201.69235Q66.140625 201.77048 66.375 201.77048Q66.5625 201.77048 66.84375 201.73923ZM67.546875 202.67673L67.546875 194.08298L68.59375 194.08298L68.59375 197.1611Q69.328125 196.31735 70.453125 196.31735Q71.15625 196.31735 71.65625 196.5986Q72.171875 196.86423 72.390625 197.3486Q72.609375 197.81735 72.609375 198.73923L72.609375 202.67673L71.5625 202.67673L71.5625 198.73923Q71.5625 197.94235 71.21875 197.58298Q70.875 197.2236 70.25 197.2236Q69.78125 197.2236 69.359375 197.4736Q68.953125 197.70798 68.765625 198.12985Q68.59375 198.5361 68.59375 199.27048L68.59375 202.67673L67.546875 202.67673ZM78.796875 200.67673L79.890625 200.80173Q79.640625 201.75485 78.9375 202.2861Q78.234375 202.81735 77.15625 202.81735Q75.796875 202.81735 74.984375 201.9736Q74.1875 201.12985 74.1875 199.61423Q74.1875 198.05173 75.0 197.19235Q75.8125 196.31735 77.09375 196.31735Q78.34375 196.31735 79.125 197.1611Q79.921875 198.00485 79.921875 199.55173Q79.921875 199.64548 79.921875 199.83298L75.28125 199.83298Q75.34375 200.86423 75.859375 201.4111Q76.375 201.94235 77.15625 201.94235Q77.734375 201.94235 78.140625 201.64548Q78.5625 201.33298 78.796875 200.67673ZM75.34375 198.9736L78.8125 198.9736Q78.75 198.17673 78.421875 197.7861Q77.90625 197.17673 77.109375 197.17673Q76.375 197.17673 75.875 197.6611Q75.390625 198.14548 75.34375 198.9736ZM81.53125 202.67673L81.53125 196.45798L82.484375 196.45798L82.484375 197.39548Q82.84375 196.73923 83.140625 196.5361Q83.453125 196.31735 83.828125 196.31735Q84.359375 196.31735 84.90625 196.64548L84.546875 197.62985Q84.15625 197.39548 83.78125 197.39548Q83.421875 197.39548 83.140625 197.61423Q82.875 197.81735 82.765625 198.19235Q82.578125 198.75485 82.578125 199.4111L82.578125 202.67673L81.53125 202.67673Z" fill-rule="nonzero"/><path fill="#000000" d="M33.671875 250.78017L33.671875 242.18642L36.640625 242.18642Q37.640625 242.18642 38.171875 242.31142Q38.90625 242.48329 39.421875 242.92079Q40.109375 243.49892 40.4375 244.40517Q40.78125 245.29579 40.78125 246.43642Q40.78125 247.42079 40.546875 248.17079Q40.328125 248.92079 39.96875 249.42079Q39.609375 249.92079 39.171875 250.20204Q38.75 250.48329 38.15625 250.63954Q37.5625 250.78017 36.78125 250.78017L33.671875 250.78017ZM34.8125 249.76454L36.640625 249.76454Q37.5 249.76454 37.984375 249.60829Q38.46875 249.45204 38.75 249.15517Q39.15625 248.76454 39.375 248.07704Q39.609375 247.38954 39.609375 246.42079Q39.609375 245.07704 39.15625 244.35829Q38.71875 243.62392 38.09375 243.37392Q37.625 243.20204 36.625 243.20204L34.8125 243.20204L34.8125 249.76454ZM46.625 250.78017L46.625 249.85829Q45.890625 250.92079 44.640625 250.92079Q44.09375 250.92079 43.609375 250.71767Q43.140625 250.49892 42.90625 250.18642Q42.671875 249.85829 42.578125 249.38954Q42.515625 249.09267 42.515625 248.40517L42.515625 244.56142L43.578125 244.56142L43.578125 248.01454Q43.578125 248.82704 43.640625 249.12392Q43.734375 249.53017 44.046875 249.78017Q44.375 250.01454 44.859375 250.01454Q45.328125 250.01454 45.734375 249.78017Q46.15625 249.53017 46.328125 249.10829Q46.515625 248.68642 46.515625 247.88954L46.515625 244.56142L47.5625 244.56142L47.5625 250.78017L46.625 250.78017ZM49.546875 253.17079L49.546875 244.56142L50.5 244.56142L50.5 245.35829Q50.84375 244.88954 51.265625 244.65517Q51.703125 244.42079 52.3125 244.42079Q53.109375 244.42079 53.71875 244.82704Q54.328125 245.23329 54.625 245.98329Q54.9375 246.73329 54.9375 247.62392Q54.9375 248.57704 54.59375 249.34267Q54.265625 250.10829 53.609375 250.51454Q52.953125 250.92079 52.234375 250.92079Q51.703125 250.92079 51.28125 250.70204Q50.859375 250.46767 50.59375 250.13954L50.59375 253.17079L49.546875 253.17079ZM50.5 247.70204Q50.5 248.90517 50.984375 249.48329Q51.46875 250.04579 52.15625 250.04579Q52.859375 250.04579 53.359375 249.45204Q53.859375 248.85829 53.859375 247.60829Q53.859375 246.42079 53.375 245.84267Q52.890625 245.24892 52.203125 245.24892Q51.53125 245.24892 51.015625 245.87392Q50.5 246.49892 50.5 247.70204ZM56.515625 250.78017L56.515625 242.18642L57.578125 242.18642L57.578125 250.78017L56.515625 250.78017ZM59.546875 243.40517L59.546875 242.18642L60.609375 242.18642L60.609375 243.40517L59.546875 243.40517ZM59.546875 250.78017L59.546875 244.56142L60.609375 244.56142L60.609375 250.78017L59.546875 250.78017ZM66.609375 248.49892L67.640625 248.63954Q67.46875 249.70204 66.765625 250.31142Q66.0625 250.92079 65.046875 250.92079Q63.765625 250.92079 62.984375 250.09267Q62.21875 249.24892 62.21875 247.68642Q62.21875 246.68642 62.546875 245.93642Q62.890625 245.17079 63.5625 244.79579Q64.25 244.42079 65.0625 244.42079Q66.0625 244.42079 66.703125 244.93642Q67.359375 245.43642 67.546875 246.38954L66.515625 246.54579Q66.375 245.92079 66.0 245.60829Q65.625 245.28017 65.09375 245.28017Q64.296875 245.28017 63.796875 245.85829Q63.296875 246.42079 63.296875 247.65517Q63.296875 248.92079 63.78125 249.48329Q64.265625 250.04579 65.03125 250.04579Q65.65625 250.04579 66.0625 249.67079Q66.484375 249.29579 66.609375 248.49892ZM72.609375 250.01454Q72.015625 250.51454 71.46875 250.71767Q70.9375 250.92079 70.3125 250.92079Q69.28125 250.92079 68.734375 250.42079Q68.1875 249.92079 68.1875 249.13954Q68.1875 248.68642 68.390625 248.31142Q68.59375 247.92079 68.9375 247.70204Q69.28125 247.46767 69.703125 247.35829Q70.0 247.26454 70.640625 247.18642Q71.90625 247.04579 72.515625 246.82704Q72.515625 246.60829 72.515625 246.56142Q72.515625 245.90517 72.21875 245.63954Q71.8125 245.29579 71.015625 245.29579Q70.28125 245.29579 69.921875 245.56142Q69.5625 245.81142 69.390625 246.46767L68.359375 246.32704Q68.5 245.67079 68.828125 245.26454Q69.15625 244.85829 69.765625 244.63954Q70.375 244.42079 71.171875 244.42079Q71.96875 244.42079 72.46875 244.60829Q72.96875 244.79579 73.203125 245.07704Q73.4375 245.35829 73.53125 245.79579Q73.578125 246.06142 73.578125 246.76454L73.578125 248.17079Q73.578125 249.63954 73.640625 250.03017Q73.71875 250.42079 73.921875 250.78017L72.8125 250.78017Q72.65625 250.45204 72.609375 250.01454ZM72.515625 247.65517Q71.9375 247.88954 70.796875 248.06142Q70.140625 248.15517 69.875 248.28017Q69.609375 248.38954 69.453125 248.60829Q69.3125 248.82704 69.3125 249.10829Q69.3125 249.53017 69.625 249.81142Q69.953125 250.09267 70.5625 250.09267Q71.171875 250.09267 71.640625 249.82704Q72.125 249.56142 72.34375 249.09267Q72.515625 248.73329 72.515625 248.04579L72.515625 247.65517ZM77.84375 249.84267L78.0 250.76454Q77.546875 250.85829 77.203125 250.85829Q76.625 250.85829 76.3125 250.68642Q76.0 250.49892 75.859375 250.20204Q75.734375 249.90517 75.734375 248.95204L75.734375 245.37392L74.96875 245.37392L74.96875 244.56142L75.734375 244.56142L75.734375 243.01454L76.78125 242.38954L76.78125 244.56142L77.84375 244.56142L77.84375 245.37392L76.78125 245.37392L76.78125 249.01454Q76.78125 249.46767 76.828125 249.59267Q76.890625 249.71767 77.015625 249.79579Q77.140625 249.87392 77.375 249.87392Q77.5625 249.87392 77.84375 249.84267ZM82.796875 248.78017L83.890625 248.90517Q83.640625 249.85829 82.9375 250.38954Q82.234375 250.92079 81.15625 250.92079Q79.796875 250.92079 78.984375 250.07704Q78.1875 249.23329 78.1875 247.71767Q78.1875 246.15517 79.0 245.29579Q79.8125 244.42079 81.09375 244.42079Q82.34375 244.42079 83.125 245.26454Q83.921875 246.10829 83.921875 247.65517Q83.921875 247.74892 83.921875 247.93642L79.28125 247.93642Q79.34375 248.96767 79.859375 249.51454Q80.375 250.04579 81.15625 250.04579Q81.734375 250.04579 82.140625 249.74892Q82.5625 249.43642 82.796875 248.78017ZM79.34375 247.07704L82.8125 247.07704Q82.75 246.28017 82.421875 245.88954Q81.90625 245.28017 81.109375 245.28017Q80.375 245.28017 79.875 245.76454Q79.390625 246.24892 79.34375 247.07704Z" fill-rule="nonzero"/><path fill="#000000" d="M87.75 292.01562Q87.75 290.48438 88.0625 289.5625Q88.375 288.625 88.984375 288.125Q89.609375 287.625 90.546875 287.625Q91.234375 287.625 91.75 287.90625Q92.28125 288.1875 92.625 288.71875Q92.96875 289.23438 93.15625 289.98438Q93.34375 290.73438 93.34375 292.01562Q93.34375 293.53125 93.03125 294.45312Q92.734375 295.375 92.109375 295.89062Q91.5 296.39062 90.546875 296.39062Q89.3125 296.39062 88.59375 295.5Q87.75 294.4375 87.75 292.01562ZM88.828125 292.01562Q88.828125 294.125 89.328125 294.82812Q89.828125 295.53125 90.546875 295.53125Q91.28125 295.53125 91.765625 294.82812Q92.265625 294.125 92.265625 292.01562Q92.265625 289.89062 91.765625 289.20312Q91.28125 288.5 90.53125 288.5Q89.8125 288.5 89.375 289.10938Q88.828125 289.89062 88.828125 292.01562Z" fill-rule="nonzero"/><path fill="#000000" d="M209.59375 296.25L208.54688 296.25L208.54688 289.53125Q208.15625 289.89062 207.53125 290.26562Q206.92188 290.625 206.4375 290.79688L206.4375 289.78125Q207.3125 289.35938 207.96875 288.78125Q208.64062 288.1875 208.92188 287.625L209.59375 287.625L209.59375 296.25ZM212.625 292.01562Q212.625 290.48438 212.9375 289.5625Q213.25 288.625 213.85938 288.125Q214.48438 287.625 215.42188 287.625Q216.10938 287.625 216.625 287.90625Q217.15625 288.1875 217.5 288.71875Q217.84375 289.23438 218.03125 289.98438Q218.21875 290.73438 218.21875 292.01562Q218.21875 293.53125 217.90625 294.45312Q217.60938 295.375 216.98438 295.89062Q216.375 296.39062 215.42188 296.39062Q214.1875 296.39062 213.46875 295.5Q212.625 294.4375 212.625 292.01562ZM213.70312 292.01562Q213.70312 294.125 214.20312 294.82812Q214.70312 295.53125 215.42188 295.53125Q216.15625 295.53125 216.64062 294.82812Q217.14062 294.125 217.14062 292.01562Q217.14062 289.89062 216.64062 289.20312Q216.15625 288.5 215.40625 288.5Q214.6875 288.5 214.25 289.10938Q213.70312 289.89062 213.70312 292.01562ZM219.625 292.01562Q219.625 290.48438 219.9375 289.5625Q220.25 288.625 220.85938 288.125Q221.48438 287.625 222.42188 287.625Q223.10938 287.625 223.625 287.90625Q224.15625 288.1875 224.5 288.71875Q224.84375 289.23438 225.03125 289.98438Q225.21875 290.73438 225.21875 292.01562Q225.21875 293.53125 224.90625 294.45312Q224.60938 295.375 223.98438 295.89062Q223.375 296.39062 222.42188 296.39062Q221.1875 296.39062 220.46875 295.5Q219.625 294.4375 219.625 292.01562ZM220.70312 292.01562Q220.70312 294.125 221.20312 294.82812Q221.70312 295.53125 222.42188 295.53125Q223.15625 295.53125 223.64062 294.82812Q224.14062 294.125 224.14062 292.01562Q224.14062 289.89062 223.64062 289.20312Q223.15625 288.5 222.40625 288.5Q221.6875 288.5 221.25 289.10938Q220.70312 289.89062 220.70312 292.01562Z" fill-rule="nonzero"/><path fill="#000000" d="M336.04688 295.23438L336.04688 296.25L330.35938 296.25Q330.35938 295.875 330.48438 295.51562Q330.70312 294.9375 331.17188 294.375Q331.65625 293.8125 332.5625 293.07812Q333.96875 291.92188 334.45312 291.25Q334.95312 290.57812 334.95312 289.98438Q334.95312 289.35938 334.5 288.9375Q334.04688 288.5 333.32812 288.5Q332.5625 288.5 332.10938 288.95312Q331.65625 289.40625 331.64062 290.21875L330.5625 290.10938Q330.67188 288.89062 331.39062 288.26562Q332.125 287.625 333.35938 287.625Q334.59375 287.625 335.3125 288.3125Q336.03125 289.0 336.03125 290.01562Q336.03125 290.53125 335.8125 291.03125Q335.60938 291.51562 335.10938 292.07812Q334.625 292.625 333.5 293.57812Q332.54688 294.375 332.26562 294.67188Q332.0 294.95312 331.82812 295.23438L336.04688 295.23438ZM337.5 292.01562Q337.5 290.48438 337.8125 289.5625Q338.125 288.625 338.73438 288.125Q339.35938 287.625 340.29688 287.625Q340.98438 287.625 341.5 287.90625Q342.03125 288.1875 342.375 288.71875Q342.71875 289.23438 342.90625 289.98438Q343.09375 290.73438 343.09375 292.01562Q343.09375 293.53125 342.78125 294.45312Q342.48438 295.375 341.85938 295.89062Q341.25 296.39062 340.29688 296.39062Q339.0625 296.39062 338.34375 295.5Q337.5 294.4375 337.5 292.01562ZM338.57812 292.01562Q338.57812 294.125 339.07812 294.82812Q339.57812 295.53125 340.29688 295.53125Q341.03125 295.53125 341.51562 294.82812Q342.01562 294.125 342.01562 292.01562Q342.01562 289.89062 341.51562 289.20312Q341.03125 288.5 340.28125 288.5Q339.5625 288.5 339.125 289.10938Q338.57812 289.89062 338.57812 292.01562ZM344.5 292.01562Q344.5 290.48438 344.8125 289.5625Q345.125 288.625 345.73438 288.125Q346.35938 287.625 347.29688 287.625Q347.98438 287.625 348.5 287.90625Q349.03125 288.1875 349.375 288.71875Q349.71875 289.23438 349.90625 289.98438Q350.09375 290.73438 350.09375 292.01562Q350.09375 293.53125 349.78125 294.45312Q349.48438 295.375 348.85938 295.89062Q348.25 296.39062 347.29688 296.39062Q346.0625 296.39062 345.34375 295.5Q344.5 294.4375 344.5 292.01562ZM345.57812 292.01562Q345.57812 294.125 346.07812 294.82812Q346.57812 295.53125 347.29688 295.53125Q348.03125 295.53125 348.51562 294.82812Q349.01562 294.125 349.01562 292.01562Q349.01562 289.89062 348.51562 289.20312Q348.03125 288.5 347.28125 288.5Q346.5625 288.5 346.125 289.10938Q345.57812 289.89062 345.57812 292.01562Z" fill-rule="nonzero"/><path fill="#000000" d="M455.375 293.98438L456.4375 293.84375Q456.60938 294.73438 457.04688 295.14062Q457.48438 295.53125 458.10938 295.53125Q458.85938 295.53125 459.375 295.01562Q459.89062 294.5 459.89062 293.73438Q459.89062 293.01562 459.40625 292.54688Q458.9375 292.0625 458.20312 292.0625Q457.90625 292.0625 457.45312 292.1875L457.57812 291.25Q457.6875 291.26562 457.75 291.26562Q458.42188 291.26562 458.95312 290.92188Q459.5 290.5625 459.5 289.82812Q459.5 289.25 459.10938 288.875Q458.71875 288.48438 458.09375 288.48438Q457.48438 288.48438 457.0625 288.875Q456.65625 289.26562 456.54688 290.03125L455.48438 289.84375Q455.67188 288.79688 456.35938 288.21875Q457.04688 287.625 458.0625 287.625Q458.76562 287.625 459.35938 287.9375Q459.95312 288.23438 460.26562 288.75Q460.57812 289.26562 460.57812 289.85938Q460.57812 290.40625 460.28125 290.875Q459.98438 291.32812 459.40625 291.59375Q460.15625 291.76562 460.57812 292.32812Q461.0 292.875 461.0 293.71875Q461.0 294.84375 460.17188 295.625Q459.35938 296.40625 458.10938 296.40625Q456.98438 296.40625 456.23438 295.73438Q455.48438 295.04688 455.375 293.98438ZM462.375 292.01562Q462.375 290.48438 462.6875 289.5625Q463.0 288.625 463.60938 288.125Q464.23438 287.625 465.17188 287.625Q465.85938 287.625 466.375 287.90625Q466.90625 288.1875 467.25 288.71875Q467.59375 289.23438 467.78125 289.98438Q467.96875 290.73438 467.96875 292.01562Q467.96875 293.53125 467.65625 294.45312Q467.35938 295.375 466.73438 295.89062Q466.125 296.39062 465.17188 296.39062Q463.9375 296.39062 463.21875 295.5Q462.375 294.4375 462.375 292.01562ZM463.45312 292.01562Q463.45312 294.125 463.95312 294.82812Q464.45312 295.53125 465.17188 295.53125Q465.90625 295.53125 466.39062 294.82812Q466.89062 294.125 466.89062 292.01562Q466.89062 289.89062 466.39062 289.20312Q465.90625 288.5 465.15625 288.5Q464.4375 288.5 464.0 289.10938Q463.45312 289.89062 463.45312 292.01562ZM469.375 292.01562Q469.375 290.48438 469.6875 289.5625Q470.0 288.625 470.60938 288.125Q471.23438 287.625 472.17188 287.625Q472.85938 287.625 473.375 287.90625Q473.90625 288.1875 474.25 288.71875Q474.59375 289.23438 474.78125 289.98438Q474.96875 290.73438 474.96875 292.01562Q474.96875 293.53125 474.65625 294.45312Q474.35938 295.375 473.73438 295.89062Q473.125 296.39062 472.17188 296.39062Q470.9375 296.39062 470.21875 295.5Q469.375 294.4375 469.375 292.01562ZM470.45312 292.01562Q470.45312 294.125 470.95312 294.82812Q471.45312 295.53125 472.17188 295.53125Q472.90625 295.53125 473.39062 294.82812Q473.89062 294.125 473.89062 292.01562Q473.89062 289.89062 473.39062 289.20312Q472.90625 288.5 472.15625 288.5Q471.4375 288.5 471.0 289.10938Q470.45312 289.89062 470.45312 292.01562Z" fill-rule="nonzero"/><path fill="#000000" d="M583.625 296.25L583.625 294.1875L579.90625 294.1875L579.90625 293.21875L583.8281 287.65625L584.6875 287.65625L584.6875 293.21875L585.84375 293.21875L585.84375 294.1875L584.6875 294.1875L584.6875 296.25L583.625 296.25ZM583.625 293.21875L583.625 289.35938L580.9375 293.21875L583.625 293.21875ZM587.25 292.01562Q587.25 290.48438 587.5625 289.5625Q587.875 288.625 588.4844 288.125Q589.1094 287.625 590.0469 287.625Q590.7344 287.625 591.25 287.90625Q591.78125 288.1875 592.125 288.71875Q592.46875 289.23438 592.65625 289.98438Q592.84375 290.73438 592.84375 292.01562Q592.84375 293.53125 592.53125 294.45312Q592.2344 295.375 591.6094 295.89062Q591.0 296.39062 590.0469 296.39062Q588.8125 296.39062 588.09375 295.5Q587.25 294.4375 587.25 292.01562ZM588.3281 292.01562Q588.3281 294.125 588.8281 294.82812Q589.3281 295.53125 590.0469 295.53125Q590.78125 295.53125 591.2656 294.82812Q591.7656 294.125 591.7656 292.01562Q591.7656 289.89062 591.2656 289.20312Q590.78125 288.5 590.03125 288.5Q589.3125 288.5 588.875 289.10938Q588.3281 289.89062 588.3281 292.01562ZM594.25 292.01562Q594.25 290.48438 594.5625 289.5625Q594.875 288.625 595.4844 288.125Q596.1094 287.625 597.0469 287.625Q597.7344 287.625 598.25 287.90625Q598.78125 288.1875 599.125 288.71875Q599.46875 289.23438 599.65625 289.98438Q599.84375 290.73438 599.84375 292.01562Q599.84375 293.53125 599.53125 294.45312Q599.2344 295.375 598.6094 295.89062Q598.0 296.39062 597.0469 296.39062Q595.8125 296.39062 595.09375 295.5Q594.25 294.4375 594.25 292.01562ZM595.3281 292.01562Q595.3281 294.125 595.8281 294.82812Q596.3281 295.53125 597.0469 295.53125Q597.78125 295.53125 598.2656 294.82812Q598.7656 294.125 598.7656 292.01562Q598.7656 289.89062 598.2656 289.20312Q597.78125 288.5 597.03125 288.5Q596.3125 288.5 595.875 289.10938Q595.3281 289.89062 595.3281 292.01562Z" fill-rule="nonzero"/><path fill="#999999" d="M16.90625 56.5L16.90625 46.484375L23.65625 46.484375L23.65625 47.65625L18.21875 47.65625L18.21875 50.765625L22.921875 50.765625L22.921875 51.953125L18.21875 51.953125L18.21875 56.5L16.90625 56.5ZM25.65625 56.5L25.65625 49.234375L26.765625 49.234375L26.765625 50.34375Q27.1875 49.5625 27.546875 49.328125Q27.90625 49.078125 28.34375 49.078125Q28.96875 49.078125 29.609375 49.46875L29.1875 50.609375Q28.734375 50.34375 28.28125 50.34375Q27.875 50.34375 27.546875 50.59375Q27.234375 50.828125 27.09375 51.265625Q26.890625 51.921875 26.890625 52.703125L26.890625 56.5L25.65625 56.5ZM30.21875 52.875Q30.21875 50.859375 31.34375 49.875Q32.265625 49.078125 33.625 49.078125Q35.109375 49.078125 36.0625 50.0625Q37.015625 51.03125 37.015625 52.765625Q37.015625 54.171875 36.59375 54.984375Q36.171875 55.78125 35.359375 56.234375Q34.5625 56.671875 33.625 56.671875Q32.09375 56.671875 31.15625 55.6875Q30.21875 54.703125 30.21875 52.875ZM31.484375 52.875Q31.484375 54.265625 32.09375 54.96875Q32.703125 55.65625 33.625 55.65625Q34.53125 55.65625 35.140625 54.953125Q35.75 54.25 35.75 52.828125Q35.75 51.484375 35.140625 50.796875Q34.53125 50.09375 33.625 50.09375Q32.703125 50.09375 32.09375 50.78125Q31.484375 51.46875 31.484375 52.875ZM38.671875 56.5L38.671875 49.234375L39.78125 49.234375L39.78125 50.265625Q40.109375 49.71875 40.671875 49.40625Q41.25 49.078125 41.96875 49.078125Q42.78125 49.078125 43.296875 49.421875Q43.8125 49.75 44.03125 50.34375Q44.890625 49.078125 46.265625 49.078125Q47.34375 49.078125 47.921875 49.671875Q48.515625 50.265625 48.515625 51.515625L48.515625 56.5L47.28125 56.5L47.28125 51.921875Q47.28125 51.1875 47.15625 50.859375Q47.046875 50.53125 46.734375 50.34375Q46.421875 50.140625 46.0 50.140625Q45.234375 50.140625 44.71875 50.65625Q44.21875 51.15625 44.21875 52.28125L44.21875 56.5L42.984375 56.5L42.984375 51.78125Q42.984375 50.96875 42.6875 50.5625Q42.390625 50.140625 41.703125 50.140625Q41.1875 50.140625 40.734375 50.421875Q40.296875 50.6875 40.09375 51.21875Q39.90625 51.734375 39.90625 52.734375L39.90625 56.5L38.671875 56.5ZM53.328125 53.875L54.625 53.765625Q54.765625 54.703125 55.28125 55.1875Q55.8125 55.65625 56.546875 55.65625Q57.4375 55.65625 58.046875 54.984375Q58.671875 54.3125 58.671875 53.21875Q58.671875 52.15625 58.078125 51.546875Q57.484375 50.9375 56.53125 50.9375Q55.9375 50.9375 55.453125 51.21875Q54.984375 51.484375 54.703125 51.90625L53.546875 51.765625L54.515625 46.609375L59.5 46.609375L59.5 47.796875L55.5 47.796875L54.96875 50.484375Q55.875 49.859375 56.859375 49.859375Q58.171875 49.859375 59.0625 50.765625Q59.96875 51.671875 59.96875 53.109375Q59.96875 54.46875 59.1875 55.453125Q58.21875 56.671875 56.546875 56.671875Q55.1875 56.671875 54.3125 55.90625Q53.453125 55.140625 53.328125 53.875ZM61.328125 51.5625Q61.328125 49.78125 61.6875 48.703125Q62.0625 47.609375 62.78125 47.03125Q63.5 46.4375 64.59375 46.4375Q65.40625 46.4375 66.015625 46.765625Q66.625 47.09375 67.015625 47.703125Q67.421875 48.3125 67.640625 49.1875Q67.859375 50.0625 67.859375 51.5625Q67.859375 53.328125 67.5 54.40625Q67.140625 55.484375 66.421875 56.078125Q65.703125 56.671875 64.59375 56.671875Q63.15625 56.671875 62.328125 55.625Q61.328125 54.375 61.328125 51.5625ZM62.59375 51.5625Q62.59375 54.03125 63.171875 54.84375Q63.75 55.65625 64.59375 55.65625Q65.453125 55.65625 66.03125 54.84375Q66.609375 54.015625 66.609375 51.5625Q66.609375 49.078125 66.03125 48.265625Q65.453125 47.453125 64.578125 47.453125Q63.734375 47.453125 63.234375 48.171875Q62.59375 49.09375 62.59375 51.5625ZM69.328125 51.5625Q69.328125 49.78125 69.6875 48.703125Q70.0625 47.609375 70.78125 47.03125Q71.5 46.4375 72.59375 46.4375Q73.40625 46.4375 74.015625 46.765625Q74.625 47.09375 75.015625 47.703125Q75.421875 48.3125 75.640625 49.1875Q75.859375 50.0625 75.859375 51.5625Q75.859375 53.328125 75.5 54.40625Q75.140625 55.484375 74.421875 56.078125Q73.703125 56.671875 72.59375 56.671875Q71.15625 56.671875 70.328125 55.625Q69.328125 54.375 69.328125 51.5625ZM70.59375 51.5625Q70.59375 54.03125 71.171875 54.84375Q71.75 55.65625 72.59375 55.65625Q73.453125 55.65625 74.03125 54.84375Q74.609375 54.015625 74.609375 51.5625Q74.609375 49.078125 74.03125 48.265625Q73.453125 47.453125 72.578125 47.453125Q71.734375 47.453125 71.234375 48.171875Q70.59375 49.09375 70.59375 51.5625ZM88.984375 52.984375L90.3125 53.328125Q89.890625 54.953125 88.796875 55.8125Q87.71875 56.671875 86.15625 56.671875Q84.53125 56.671875 83.515625 56.015625Q82.5 55.34375 81.96875 54.09375Q81.453125 52.84375 81.453125 51.40625Q81.453125 49.84375 82.046875 48.6875Q82.640625 47.515625 83.75 46.921875Q84.859375 46.3125 86.171875 46.3125Q87.6875 46.3125 88.703125 47.078125Q89.734375 47.84375 90.140625 49.21875L88.828125 49.53125Q88.484375 48.4375 87.8125 47.9375Q87.15625 47.4375 86.15625 47.4375Q85.0 47.4375 84.21875 48.0Q83.4375 48.546875 83.125 49.484375Q82.8125 50.421875 82.8125 51.40625Q82.8125 52.6875 83.1875 53.640625Q83.5625 54.59375 84.34375 55.0625Q85.125 55.53125 86.046875 55.53125Q87.15625 55.53125 87.921875 54.890625Q88.703125 54.25 88.984375 52.984375ZM91.671875 56.5L91.671875 46.484375L92.90625 46.484375L92.90625 50.078125Q93.765625 49.078125 95.078125 49.078125Q95.890625 49.078125 96.484375 49.40625Q97.078125 49.71875 97.328125 50.28125Q97.59375 50.828125 97.59375 51.90625L97.59375 56.5L96.359375 56.5L96.359375 51.90625Q96.359375 50.96875 95.953125 50.5625Q95.5625 50.140625 94.828125 50.140625Q94.28125 50.140625 93.796875 50.421875Q93.3125 50.703125 93.109375 51.1875Q92.90625 51.671875 92.90625 52.53125L92.90625 56.5L91.671875 56.5ZM104.40625 55.609375Q103.734375 56.1875 103.09375 56.4375Q102.46875 56.671875 101.734375 56.671875Q100.546875 56.671875 99.890625 56.09375Q99.25 55.5 99.25 54.578125Q99.25 54.046875 99.484375 53.609375Q99.734375 53.171875 100.125 52.90625Q100.53125 52.640625 101.015625 52.5Q101.375 52.40625 102.109375 52.3125Q103.609375 52.140625 104.3125 51.890625Q104.3125 51.640625 104.3125 51.578125Q104.3125 50.8125 103.96875 50.515625Q103.5 50.09375 102.5625 50.09375Q101.703125 50.09375 101.28125 50.40625Q100.875 50.703125 100.671875 51.46875L99.46875 51.3125Q99.625 50.53125 100.0 50.0625Q100.390625 49.59375 101.09375 49.34375Q101.8125 49.078125 102.75 49.078125Q103.671875 49.078125 104.25 49.296875Q104.828125 49.515625 105.09375 49.84375Q105.375 50.171875 105.484375 50.6875Q105.546875 51.0 105.546875 51.8125L105.546875 53.453125Q105.546875 55.171875 105.625 55.625Q105.703125 56.078125 105.9375 56.5L104.65625 56.5Q104.46875 56.109375 104.40625 55.609375ZM104.3125 52.859375Q103.640625 53.125 102.296875 53.328125Q101.546875 53.4375 101.21875 53.578125Q100.90625 53.703125 100.734375 53.96875Q100.5625 54.234375 100.5625 54.546875Q100.5625 55.046875 100.9375 55.375Q101.3125 55.703125 102.03125 55.703125Q102.75 55.703125 103.296875 55.390625Q103.84375 55.078125 104.109375 54.53125Q104.3125 54.125 104.3125 53.3125L104.3125 52.859375ZM110.359375 55.40625L110.53125 56.484375Q110.015625 56.59375 109.609375 56.59375Q108.9375 56.59375 108.5625 56.390625Q108.203125 56.171875 108.046875 55.828125Q107.90625 55.484375 107.90625 54.375L107.90625 50.203125L107.0 50.203125L107.0 49.234375L107.90625 49.234375L107.90625 47.4375L109.125 46.703125L109.125 49.234375L110.359375 49.234375L110.359375 50.203125L109.125 50.203125L109.125 54.4375Q109.125 54.96875 109.1875 55.125Q109.25 55.265625 109.390625 55.359375Q109.546875 55.453125 109.8125 55.453125Q110.03125 55.453125 110.359375 55.40625ZM111.1875 54.328125L112.390625 54.140625Q112.5 54.875 112.96875 55.265625Q113.4375 55.65625 114.28125 55.65625Q115.125 55.65625 115.53125 55.3125Q115.953125 54.96875 115.953125 54.5Q115.953125 54.078125 115.578125 53.84375Q115.328125 53.671875 114.328125 53.421875Q112.96875 53.078125 112.4375 52.828125Q111.921875 52.578125 111.65625 52.140625Q111.390625 51.703125 111.390625 51.171875Q111.390625 50.6875 111.609375 50.28125Q111.828125 49.859375 112.21875 49.578125Q112.5 49.375 112.984375 49.234375Q113.484375 49.078125 114.0625 49.078125Q114.90625 49.078125 115.546875 49.328125Q116.203125 49.5625 116.515625 49.984375Q116.828125 50.40625 116.9375 51.109375L115.734375 51.28125Q115.65625 50.71875 115.25 50.40625Q114.859375 50.09375 114.140625 50.09375Q113.296875 50.09375 112.9375 50.375Q112.578125 50.640625 112.578125 51.03125Q112.578125 51.265625 112.71875 51.453125Q112.875 51.65625 113.203125 51.78125Q113.375 51.84375 114.28125 52.09375Q115.59375 52.453125 116.109375 52.671875Q116.625 52.890625 116.90625 53.3125Q117.203125 53.734375 117.203125 54.359375Q117.203125 54.984375 116.84375 55.53125Q116.5 56.0625 115.8125 56.375Q115.140625 56.671875 114.28125 56.671875Q112.875 56.671875 112.125 56.078125Q111.390625 55.484375 111.1875 54.328125Z" fill-rule="nonzero"/><path fill="#757575" d="M25.296875 28.015625L27.828125 28.8125Q27.25 30.921875 25.890625 31.953125Q24.546875 32.96875 22.46875 32.96875Q19.90625 32.96875 18.25 31.21875Q16.609375 29.46875 16.609375 26.421875Q16.609375 23.203125 18.265625 21.421875Q19.921875 19.640625 22.625 19.640625Q25.0 19.640625 26.46875 21.046875Q27.359375 21.875 27.796875 23.421875L25.21875 24.03125Q24.984375 23.03125 24.25 22.453125Q23.53125 21.875 22.5 21.875Q21.0625 21.875 20.171875 22.90625Q19.28125 23.921875 19.28125 26.234375Q19.28125 28.671875 20.15625 29.71875Q21.046875 30.75 22.453125 30.75Q23.484375 30.75 24.234375 30.09375Q24.984375 29.421875 25.296875 28.015625ZM32.5 19.859375L32.5 24.609375Q33.703125 23.203125 35.359375 23.203125Q36.21875 23.203125 36.890625 23.53125Q37.578125 23.84375 37.921875 24.34375Q38.28125 24.828125 38.40625 25.421875Q38.53125 26.015625 38.53125 27.28125L38.53125 32.75L36.0625 32.75L36.0625 27.8125Q36.0625 26.34375 35.921875 25.953125Q35.78125 25.5625 35.421875 25.328125Q35.0625 25.09375 34.53125 25.09375Q33.921875 25.09375 33.4375 25.390625Q32.953125 25.6875 32.71875 26.296875Q32.5 26.890625 32.5 28.078125L32.5 32.75L30.03125 32.75L30.03125 19.859375L32.5 19.859375ZM42.890625 26.265625L40.640625 25.859375Q41.03125 24.5 41.953125 23.859375Q42.875 23.203125 44.6875 23.203125Q46.34375 23.203125 47.140625 23.59375Q47.953125 23.984375 48.28125 24.59375Q48.625 25.1875 48.625 26.796875L48.59375 29.6875Q48.59375 30.90625 48.703125 31.5Q48.828125 32.078125 49.15625 32.75L46.71875 32.75Q46.609375 32.5 46.46875 32.015625Q46.40625 31.796875 46.390625 31.734375Q45.75 32.34375 45.03125 32.65625Q44.3125 32.96875 43.5 32.96875Q42.046875 32.96875 41.21875 32.1875Q40.390625 31.390625 40.390625 30.203125Q40.390625 29.40625 40.765625 28.796875Q41.140625 28.171875 41.828125 27.84375Q42.515625 27.515625 43.796875 27.265625Q45.53125 26.9375 46.1875 26.65625L46.1875 26.40625Q46.1875 25.703125 45.828125 25.40625Q45.484375 25.09375 44.515625 25.09375Q43.859375 25.09375 43.484375 25.359375Q43.109375 25.609375 42.890625 26.265625ZM46.1875 28.265625Q45.71875 28.421875 44.6875 28.640625Q43.65625 28.859375 43.34375 29.078125Q42.859375 29.421875 42.859375 29.953125Q42.859375 30.46875 43.25 30.84375Q43.640625 31.21875 44.234375 31.21875Q44.90625 31.21875 45.5 30.78125Q45.953125 30.453125 46.09375 29.96875Q46.1875 29.640625 46.1875 28.765625L46.1875 28.265625ZM55.328125 23.421875L55.328125 25.390625L53.640625 25.390625L53.640625 29.140625Q53.640625 30.28125 53.6875 30.484375Q53.734375 30.671875 53.90625 30.796875Q54.078125 30.90625 54.328125 30.90625Q54.65625 30.90625 55.3125 30.671875L55.53125 32.59375Q54.65625 32.96875 53.578125 32.96875Q52.90625 32.96875 52.359375 32.75Q51.828125 32.515625 51.578125 32.15625Q51.328125 31.796875 51.234375 31.1875Q51.15625 30.765625 51.15625 29.453125L51.15625 25.390625L50.015625 25.390625L50.015625 23.421875L51.15625 23.421875L51.15625 21.5625L53.640625 20.125L53.640625 23.421875L55.328125 23.421875ZM64.953125 32.75L64.953125 22.046875L61.140625 22.046875L61.140625 19.859375L71.375 19.859375L71.375 22.046875L67.5625 22.046875L67.5625 32.75L64.953125 32.75ZM71.875 23.421875L74.5 23.421875L76.734375 30.046875L78.90625 23.421875L81.46875 23.421875L78.171875 32.390625L77.59375 34.03125Q77.265625 34.84375 76.96875 35.265625Q76.671875 35.703125 76.28125 35.96875Q75.90625 36.234375 75.34375 36.375Q74.796875 36.53125 74.09375 36.53125Q73.375 36.53125 72.6875 36.390625L72.46875 34.453125Q73.046875 34.5625 73.515625 34.5625Q74.375 34.5625 74.78125 34.0625Q75.203125 33.5625 75.421875 32.78125L71.875 23.421875ZM83.96875 23.421875L86.28125 23.421875L86.28125 24.78125Q86.71875 24.078125 87.484375 23.640625Q88.25 23.203125 89.1875 23.203125Q90.8125 23.203125 91.9375 24.484375Q93.078125 25.75 93.078125 28.03125Q93.078125 30.375 91.9375 31.671875Q90.796875 32.96875 89.171875 32.96875Q88.390625 32.96875 87.765625 32.65625Q87.140625 32.34375 86.4375 31.59375L86.4375 36.296875L83.96875 36.296875L83.96875 23.421875ZM86.421875 27.921875Q86.421875 29.5 87.03125 30.25Q87.65625 31.0 88.5625 31.0Q89.421875 31.0 89.984375 30.3125Q90.5625 29.625 90.5625 28.046875Q90.5625 26.578125 89.96875 25.875Q89.390625 25.15625 88.515625 25.15625Q87.609375 25.15625 87.015625 25.859375Q86.421875 26.546875 86.421875 27.921875ZM100.453125 29.78125L102.90625 30.1875Q102.4375 31.546875 101.40625 32.265625Q100.390625 32.96875 98.84375 32.96875Q96.40625 32.96875 95.25 31.375Q94.328125 30.09375 94.328125 28.15625Q94.328125 25.828125 95.53125 24.515625Q96.75 23.203125 98.609375 23.203125Q100.6875 23.203125 101.890625 24.578125Q103.09375 25.953125 103.046875 28.796875L96.859375 28.796875Q96.875 29.890625 97.4375 30.5Q98.015625 31.109375 98.875 31.109375Q99.453125 31.109375 99.84375 30.796875Q100.25 30.484375 100.453125 29.78125ZM100.59375 27.28125Q100.5625 26.203125 100.03125 25.65625Q99.5 25.09375 98.75 25.09375Q97.9375 25.09375 97.421875 25.6875Q96.890625 26.265625 96.890625 27.28125L100.59375 27.28125Z" fill-rule="nonzero"/></svg>