<svg version="1.1" viewBox="0.0 0.0 502.0 315.0" fill="none" stroke="none" stroke-linecap="square" stroke-miterlimit="10" width="502" height="315" xmlns:xlink="http://www.w3.org/1999/xlink" xmlns="http://www.w3.org/2000/svg"><path fill="#ffffff" d="M0 0L502.0 0L502.0 315.0L0 315.0L0 0Z" fill-rule="nonzero"/><path fill="#34a853" d="M138.66019 87.07976C156.75383 75.91362 177.59657 70.0 198.85834 70.0L198.85834 184.625Z" fill-rule="nonzero"/><path fill="#ff9900" d="M98.41168 129.40399C107.94816 112.0572 121.81447 97.47577 138.66019 87.07976L198.85834 184.625Z" fill-rule="nonzero"/><path fill="#ea4335" d="M84.559 193.25934C82.88361 171.08104 87.69676 148.89435 98.41168 129.40399L198.85834 184.625Z" fill-rule="nonzero"/><path fill="#4285f4" d="M198.85834 70.0C261.04184 70.0 311.88446 119.5806 313.44714 181.74446C315.0098 243.90833 266.72256 295.98087 204.61758 299.10522C142.51262 302.22958 89.24308 255.26617 84.559 193.25934L198.85834 184.625Z" fill-rule="nonzero"/><path fill="#ffffff" d="M249.17389 244.21948L250.39264 244.0476Q250.61139 245.09448 251.11139 245.56323Q251.62701 246.01636 252.36139 246.01636Q253.23639 246.01636 253.83014 245.4226Q254.42389 244.81323 254.42389 243.9226Q254.42389 243.07886 253.86139 242.53198Q253.31451 241.9851 252.47076 241.9851Q252.11139 241.9851 251.59576 242.1101L251.73639 241.03198Q251.86139 241.0476 251.92389 241.0476Q252.72076 241.0476 253.34576 240.64136Q253.97076 240.2351 253.97076 239.37573Q253.97076 238.70386 253.51764 238.26636Q253.06451 237.81323 252.33014 237.81323Q251.61139 237.81323 251.12701 238.26636Q250.65826 238.70386 250.51764 239.6101L249.29889 239.39136Q249.51764 238.15698 250.31451 237.4851Q251.11139 236.7976 252.29889 236.7976Q253.12701 236.7976 253.81451 237.15698Q254.50201 237.50073 254.86139 238.1101Q255.23639 238.71948 255.23639 239.40698Q255.23639 240.0476 254.89264 240.57886Q254.54889 241.1101 253.86139 241.43823Q254.75201 241.64136 255.23639 242.28198Q255.73639 242.9226 255.73639 243.90698Q255.73639 245.21948 254.76764 246.12573Q253.81451 247.03198 252.36139 247.03198Q251.03326 247.03198 250.15826 246.25073Q249.29889 245.46948 249.17389 244.21948ZM263.5489 239.2976L262.33014 239.39136Q262.15826 238.65698 261.8614 238.32886Q261.3614 237.81323 260.627 237.81323Q260.03326 237.81323 259.59576 238.14136Q259.01764 238.56323 258.6739 239.37573Q258.34576 240.18823 258.33014 241.68823Q258.76764 241.01636 259.40826 240.68823Q260.0645 240.3601 260.76764 240.3601Q262.002 240.3601 262.8614 241.26636Q263.72076 242.1726 263.72076 243.6101Q263.72076 244.5476 263.3145 245.3601Q262.90826 246.1726 262.1895 246.6101Q261.4864 247.03198 260.58014 247.03198Q259.0489 247.03198 258.08014 245.90698Q257.1114 244.76636 257.1114 242.1726Q257.1114 239.26636 258.1739 237.93823Q259.1114 236.7976 260.70514 236.7976Q261.89264 236.7976 262.64264 237.46948Q263.39264 238.12573 263.5489 239.2976ZM258.51764 243.6101Q258.51764 244.25073 258.78326 244.82886Q259.0645 245.40698 259.5489 245.71948Q260.03326 246.01636 260.5645 246.01636Q261.34576 246.01636 261.90826 245.39136Q262.47076 244.76636 262.47076 243.68823Q262.47076 242.64136 261.90826 242.0476Q261.3614 241.43823 260.51764 241.43823Q259.6895 241.43823 259.09576 242.0476Q258.51764 242.64136 258.51764 243.6101ZM265.34576 244.5476L266.53326 244.43823Q266.6739 245.26636 267.09576 245.64136Q267.53326 246.01636 268.1895 246.01636Q268.752 246.01636 269.1739 245.76636Q269.6114 245.50073 269.877 245.06323Q270.15826 244.62573 270.34576 243.89136Q270.53326 243.15698 270.53326 242.39136Q270.53326 242.31323 270.51764 242.14136Q270.15826 242.7351 269.51764 243.1101Q268.877 243.46948 268.127 243.46948Q266.877 243.46948 266.01764 242.56323Q265.15826 241.65698 265.15826 240.18823Q265.15826 238.65698 266.0489 237.7351Q266.95514 236.7976 268.3145 236.7976Q269.28326 236.7976 270.09576 237.32886Q270.90826 237.84448 271.33014 238.82886Q271.752 239.7976 271.752 241.64136Q271.752 243.56323 271.33014 244.70386Q270.9239 245.84448 270.09576 246.43823Q269.26764 247.03198 268.15826 247.03198Q266.9864 247.03198 266.2364 246.37573Q265.502 245.71948 265.34576 244.5476ZM270.377 240.12573Q270.377 239.06323 269.8145 238.43823Q269.252 237.81323 268.47076 237.81323Q267.64264 237.81323 267.03326 238.4851Q266.4239 239.15698 266.4239 240.21948Q266.4239 241.1726 267.002 241.78198Q267.58014 242.37573 268.4239 242.37573Q269.28326 242.37573 269.83014 241.78198Q270.377 241.1726 270.377 240.12573Z" fill-rule="nonzero"/><path fill="#ffffff" d="M106.93999 170.43687L106.93999 168.03062L102.58061 168.03062L102.58061 166.90562L107.15874 160.42125L108.15874 160.42125L108.15874 166.90562L109.51811 166.90562L109.51811 168.03062L108.15874 168.03062L108.15874 170.43687L106.93999 170.43687ZM106.93999 166.90562L106.93999 162.39L103.79936 166.90562L106.93999 166.90562ZM117.37749 162.87437L116.15874 162.96812Q115.98686 162.23375 115.68999 161.90562Q115.18999 161.39 114.45561 161.39Q113.86186 161.39 113.42436 161.71812Q112.84624 162.14 112.50249 162.9525Q112.17436 163.765 112.15874 165.265Q112.59624 164.59312 113.23686 164.265Q113.89311 163.93687 114.59624 163.93687Q115.83061 163.93687 116.68999 164.84312Q117.54936 165.74937 117.54936 167.18687Q117.54936 168.12437 117.14311 168.93687Q116.73686 169.74937 116.01811 170.18687Q115.31499 170.60875 114.40874 170.60875Q112.87749 170.60875 111.90874 169.48375Q110.93999 168.34312 110.93999 165.74937Q110.93999 162.84312 112.00249 161.515Q112.93999 160.37437 114.53374 160.37437Q115.72124 160.37437 116.47124 161.04625Q117.22124 161.7025 117.37749 162.87437ZM112.34624 167.18687Q112.34624 167.8275 112.61186 168.40562Q112.89311 168.98375 113.37749 169.29625Q113.86186 169.59312 114.39311 169.59312Q115.17436 169.59312 115.73686 168.96812Q116.29936 168.34312 116.29936 167.265Q116.29936 166.21812 115.73686 165.62437Q115.18999 165.015 114.34624 165.015Q113.51811 165.015 112.92436 165.62437Q112.34624 166.21812 112.34624 167.18687Z" fill-rule="nonzero"/><path fill="#ffffff" d="M132.26688 129.59804L132.26688 127.19179L127.9075 127.19179L127.9075 126.06679L132.48563 119.58241L133.48563 119.58241L133.48563 126.06679L134.845 126.06679L134.845 127.19179L133.48563 127.19179L133.48563 129.59804L132.26688 129.59804ZM132.26688 126.06679L132.26688 121.55116L129.12625 126.06679L132.26688 126.06679ZM140.95438 129.59804L139.72 129.59804L139.72 121.75429Q139.2825 122.17616 138.54813 122.61366Q137.82938 123.03554 137.26688 123.23866L137.26688 122.05116Q138.29813 121.56679 139.06375 120.87929Q139.845 120.19179 140.1575 119.53554L140.95438 119.53554L140.95438 129.59804Z" fill-rule="nonzero"/><path fill="#ffffff" d="M170.87796 103.23303L170.87796 100.82678L166.51859 100.82678L166.51859 99.70178L171.09671 93.21741L172.09671 93.21741L172.09671 99.70178L173.45609 99.70178L173.45609 100.82678L172.09671 100.82678L172.09671 103.23303L170.87796 103.23303ZM170.87796 99.70178L170.87796 95.18616L167.73734 99.70178L170.87796 99.70178ZM178.87796 103.23303L178.87796 100.82678L174.51859 100.82678L174.51859 99.70178L179.09671 93.21741L180.09671 93.21741L180.09671 99.70178L181.45609 99.70178L181.45609 100.82678L180.09671 100.82678L180.09671 103.23303L178.87796 103.23303ZM178.87796 99.70178L178.87796 95.18616L175.73734 99.70178L178.87796 99.70178Z" fill-rule="nonzero"/><path fill="#4285f4" d="M409.25 77.0C409.25 80.313705 406.56372 83.0 403.25 83.0C399.93628 83.0 397.25 80.313705 397.25 77.0C397.25 73.686295 399.93628 71.0 403.25 71.0C406.56372 71.0 409.25 73.686295 409.25 77.0Z" fill-rule="nonzero"/><path fill="#1a1a1a" d="M424.3125 77.984375L425.4375 78.28125Q425.07812 79.671875 424.15625 80.40625Q423.23438 81.140625 421.89062 81.140625Q420.5 81.140625 419.625 80.578125Q418.75 80.015625 418.29688 78.953125Q417.84375 77.875 417.84375 76.640625Q417.84375 75.296875 418.35938 74.296875Q418.875 73.296875 419.8125 72.78125Q420.76562 72.265625 421.90625 72.265625Q423.1875 72.265625 424.0625 72.921875Q424.95312 73.578125 425.29688 74.765625L424.17188 75.03125Q423.875 74.09375 423.29688 73.671875Q422.73438 73.234375 421.875 73.234375Q420.89062 73.234375 420.21875 73.71875Q419.5625 74.1875 419.28125 74.984375Q419.01562 75.78125 419.01562 76.640625Q419.01562 77.734375 419.32812 78.546875Q419.65625 79.359375 420.32812 79.765625Q421.0 80.171875 421.79688 80.171875Q422.75 80.171875 423.40625 79.625Q424.07812 79.078125 424.3125 77.984375ZM431.10938 80.234375Q430.51562 80.734375 429.96875 80.9375Q429.4375 81.140625 428.8125 81.140625Q427.78125 81.140625 427.23438 80.640625Q426.6875 80.140625 426.6875 79.359375Q426.6875 78.90625 426.89062 78.53125Q427.09375 78.140625 427.4375 77.921875Q427.78125 77.6875 428.20312 77.578125Q428.5 77.484375 429.14062 77.40625Q430.40625 77.265625 431.01562 77.046875Q431.01562 76.828125 431.01562 76.78125Q431.01562 76.125 430.71875 75.859375Q430.3125 75.515625 429.51562 75.515625Q428.78125 75.515625 428.42188 75.78125Q428.0625 76.03125 427.89062 76.6875L426.85938 76.546875Q427.0 75.890625 427.32812 75.484375Q427.65625 75.078125 428.26562 74.859375Q428.875 74.640625 429.67188 74.640625Q430.46875 74.640625 430.96875 74.828125Q431.46875 75.015625 431.70312 75.296875Q431.9375 75.578125 432.03125 76.015625Q432.07812 76.28125 432.07812 76.984375L432.07812 78.390625Q432.07812 79.859375 432.14062 80.25Q432.21875 80.640625 432.42188 81.0L431.3125 81.0Q431.15625 80.671875 431.10938 80.234375ZM431.01562 77.875Q430.4375 78.109375 429.29688 78.28125Q428.64062 78.375 428.375 78.5Q428.10938 78.609375 427.95312 78.828125Q427.8125 79.046875 427.8125 79.328125Q427.8125 79.75 428.125 80.03125Q428.45312 80.3125 429.0625 80.3125Q429.67188 80.3125 430.14062 80.046875Q430.625 79.78125 430.84375 79.3125Q431.01562 78.953125 431.01562 78.265625L431.01562 77.875ZM434.04688 81.0L434.04688 74.78125L434.98438 74.78125L434.98438 75.65625Q435.67188 74.640625 436.96875 74.640625Q437.53125 74.640625 438.0 74.84375Q438.48438 75.046875 438.71875 75.375Q438.95312 75.703125 439.04688 76.140625Q439.09375 76.4375 439.09375 77.171875L439.09375 81.0L438.04688 81.0L438.04688 77.21875Q438.04688 76.5625 437.92188 76.25Q437.79688 75.9375 437.48438 75.75Q437.17188 75.546875 436.75 75.546875Q436.07812 75.546875 435.57812 75.984375Q435.09375 76.40625 435.09375 77.59375L435.09375 81.0L434.04688 81.0ZM445.10938 78.71875L446.14062 78.859375Q445.96875 79.921875 445.26562 80.53125Q444.5625 81.140625 443.54688 81.140625Q442.26562 81.140625 441.48438 80.3125Q440.71875 79.46875 440.71875 77.90625Q440.71875 76.90625 441.04688 76.15625Q441.39062 75.390625 442.0625 75.015625Q442.75 74.640625 443.5625 74.640625Q444.5625 74.640625 445.20312 75.15625Q445.85938 75.65625 446.04688 76.609375L445.01562 76.765625Q444.875 76.140625 444.5 75.828125Q444.125 75.5 443.59375 75.5Q442.79688 75.5 442.29688 76.078125Q441.79688 76.640625 441.79688 77.875Q441.79688 79.140625 442.28125 79.703125Q442.76562 80.265625 443.53125 80.265625Q444.15625 80.265625 444.5625 79.890625Q444.98438 79.515625 445.10938 78.71875ZM451.29688 79.0L452.39062 79.125Q452.14062 80.078125 451.4375 80.609375Q450.73438 81.140625 449.65625 81.140625Q448.29688 81.140625 447.48438 80.296875Q446.6875 79.453125 446.6875 77.9375Q446.6875 76.375 447.5 75.515625Q448.3125 74.640625 449.59375 74.640625Q450.84375 74.640625 451.625 75.484375Q452.42188 76.328125 452.42188 77.875Q452.42188 77.96875 452.42188 78.15625L447.78125 78.15625Q447.84375 79.1875 448.35938 79.734375Q448.875 80.265625 449.65625 80.265625Q450.23438 80.265625 450.64062 79.96875Q451.0625 79.65625 451.29688 79.0ZM447.84375 77.296875L451.3125 77.296875Q451.25 76.5 450.92188 76.109375Q450.40625 75.5 449.60938 75.5Q448.875 75.5 448.375 75.984375Q447.89062 76.46875 447.84375 77.296875ZM454.01562 81.0L454.01562 72.40625L455.07812 72.40625L455.07812 81.0L454.01562 81.0ZM457.01562 81.0L457.01562 72.40625L458.07812 72.40625L458.07812 81.0L457.01562 81.0ZM464.10938 80.234375Q463.51562 80.734375 462.96875 80.9375Q462.4375 81.140625 461.8125 81.140625Q460.78125 81.140625 460.23438 80.640625Q459.6875 80.140625 459.6875 79.359375Q459.6875 78.90625 459.89062 78.53125Q460.09375 78.140625 460.4375 77.921875Q460.78125 77.6875 461.20312 77.578125Q461.5 77.484375 462.14062 77.40625Q463.40625 77.265625 464.01562 77.046875Q464.01562 76.828125 464.01562 76.78125Q464.01562 76.125 463.71875 75.859375Q463.3125 75.515625 462.51562 75.515625Q461.78125 75.515625 461.42188 75.78125Q461.0625 76.03125 460.89062 76.6875L459.85938 76.546875Q460.0 75.890625 460.32812 75.484375Q460.65625 75.078125 461.26562 74.859375Q461.875 74.640625 462.67188 74.640625Q463.46875 74.640625 463.96875 74.828125Q464.46875 75.015625 464.70312 75.296875Q464.9375 75.578125 465.03125 76.015625Q465.07812 76.28125 465.07812 76.984375L465.07812 78.390625Q465.07812 79.859375 465.14062 80.25Q465.21875 80.640625 465.42188 81.0L464.3125 81.0Q464.15625 80.671875 464.10938 80.234375ZM464.01562 77.875Q463.4375 78.109375 462.29688 78.28125Q461.64062 78.375 461.375 78.5Q461.10938 78.609375 460.95312 78.828125Q460.8125 79.046875 460.8125 79.328125Q460.8125 79.75 461.125 80.03125Q461.45312 80.3125 462.0625 80.3125Q462.67188 80.3125 463.14062 80.046875Q463.625 79.78125 463.84375 79.3125Q464.01562 78.953125 464.01562 78.265625L464.01562 77.875ZM469.34375 80.0625L469.5 80.984375Q469.04688 81.078125 468.70312 81.078125Q468.125 81.078125 467.8125 80.90625Q467.5 80.71875 467.35938 80.421875Q467.23438 80.125 467.23438 79.171875L467.23438 75.59375L466.46875 75.59375L466.46875 74.78125L467.23438 74.78125L467.23438 73.234375L468.28125 72.609375L468.28125 74.78125L469.34375 74.78125L469.34375 75.59375L468.28125 75.59375L468.28125 79.234375Q468.28125 79.6875 468.32812 79.8125Q468.39062 79.9375 468.51562 80.015625Q468.64062 80.09375 468.875 80.09375Q469.0625 80.09375 469.34375 80.0625ZM470.04688 73.625L470.04688 72.40625L471.10938 72.40625L471.10938 73.625L470.04688 73.625ZM470.04688 81.0L470.04688 74.78125L471.10938 74.78125L471.10938 81.0L470.04688 81.0ZM472.65625 77.890625Q472.65625 76.15625 473.60938 75.328125Q474.40625 74.640625 475.5625 74.640625Q476.84375 74.640625 477.65625 75.484375Q478.48438 76.3125 478.48438 77.796875Q478.48438 79.0 478.125 79.6875Q477.76562 80.375 477.0625 80.765625Q476.375 81.140625 475.5625 81.140625Q474.26562 81.140625 473.45312 80.3125Q472.65625 79.46875 472.65625 77.890625ZM473.73438 77.890625Q473.73438 79.078125 474.25 79.671875Q474.78125 80.265625 475.5625 80.265625Q476.35938 80.265625 476.875 79.671875Q477.39062 79.078125 477.39062 77.859375Q477.39062 76.703125 476.85938 76.109375Q476.34375 75.515625 475.5625 75.515625Q474.78125 75.515625 474.25 76.109375Q473.73438 76.6875 473.73438 77.890625ZM480.04688 81.0L480.04688 74.78125L480.98438 74.78125L480.98438 75.65625Q481.67188 74.640625 482.96875 74.640625Q483.53125 74.640625 484.0 74.84375Q484.48438 75.046875 484.71875 75.375Q484.95312 75.703125 485.04688 76.140625Q485.09375 76.4375 485.09375 77.171875L485.09375 81.0L484.04688 81.0L484.04688 77.21875Q484.04688 76.5625 483.92188 76.25Q483.79688 75.9375 483.48438 75.75Q483.17188 75.546875 482.75 75.546875Q482.07812 75.546875 481.57812 75.984375Q481.09375 76.40625 481.09375 77.59375L481.09375 81.0L480.04688 81.0Z" fill-rule="nonzero"/><path fill="#ea4335" d="M409.25 101.0C409.25 104.313705 406.56372 107.0 403.25 107.0C399.93628 107.0 397.25 104.313705 397.25 101.0C397.25 97.686295 399.93628 95.0 403.25 95.0C406.56372 95.0 409.25 97.686295 409.25 101.0Z" fill-rule="nonzero"/><path fill="#1a1a1a" d="M418.17188 105.0L418.17188 96.40625L421.14062 96.40625Q422.14062 96.40625 422.67188 96.53125Q423.40625 96.703125 423.92188 97.140625Q424.60938 97.71875 424.9375 98.625Q425.28125 99.515625 425.28125 100.65625Q425.28125 101.640625 425.04688 102.390625Q424.82812 103.140625 424.46875 103.640625Q424.10938 104.140625 423.67188 104.421875Q423.25 104.703125 422.65625 104.859375Q422.0625 105.0 421.28125 105.0L418.17188 105.0ZM419.3125 103.984375L421.14062 103.984375Q422.0 103.984375 422.48438 103.828125Q422.96875 103.671875 423.25 103.375Q423.65625 102.984375 423.875 102.296875Q424.10938 101.609375 424.10938 100.640625Q424.10938 99.296875 423.65625 98.578125Q423.21875 97.84375 422.59375 97.59375Q422.125 97.421875 421.125 97.421875L419.3125 97.421875L419.3125 103.984375ZM426.65625 101.890625Q426.65625 100.15625 427.60938 99.328125Q428.40625 98.640625 429.5625 98.640625Q430.84375 98.640625 431.65625 99.484375Q432.48438 100.3125 432.48438 101.796875Q432.48438 103.0 432.125 103.6875Q431.76562 104.375 431.0625 104.765625Q430.375 105.140625 429.5625 105.140625Q428.26562 105.140625 427.45312 104.3125Q426.65625 103.46875 426.65625 101.890625ZM427.73438 101.890625Q427.73438 103.078125 428.25 103.671875Q428.78125 104.265625 429.5625 104.265625Q430.35938 104.265625 430.875 103.671875Q431.39062 103.078125 431.39062 101.859375Q431.39062 100.703125 430.85938 100.109375Q430.34375 99.515625 429.5625 99.515625Q428.78125 99.515625 428.25 100.109375Q427.73438 100.6875 427.73438 101.890625ZM435.1875 105.0L433.28125 98.78125L434.375 98.78125L435.35938 102.375L435.73438 103.703125Q435.76562 103.609375 436.0625 102.421875L437.04688 98.78125L438.125 98.78125L439.0625 102.390625L439.375 103.578125L439.73438 102.375L440.79688 98.78125L441.82812 98.78125L439.875 105.0L438.78125 105.0L437.79688 101.265625L437.54688 100.21875L436.29688 105.0L435.1875 105.0ZM443.04688 105.0L443.04688 98.78125L443.98438 98.78125L443.98438 99.65625Q444.67188 98.640625 445.96875 98.640625Q446.53125 98.640625 447.0 98.84375Q447.48438 99.046875 447.71875 99.375Q447.95312 99.703125 448.04688 100.140625Q448.09375 100.4375 448.09375 101.171875L448.09375 105.0L447.04688 105.0L447.04688 101.21875Q447.04688 100.5625 446.92188 100.25Q446.79688 99.9375 446.48438 99.75Q446.17188 99.546875 445.75 99.546875Q445.07812 99.546875 444.57812 99.984375Q444.09375 100.40625 444.09375 101.59375L444.09375 105.0L443.04688 105.0ZM449.84375 105.515625L450.875 105.671875Q450.9375 106.140625 451.23438 106.359375Q451.625 106.65625 452.29688 106.65625Q453.03125 106.65625 453.42188 106.359375Q453.82812 106.0625 453.96875 105.546875Q454.0625 105.21875 454.04688 104.1875Q453.35938 105.0 452.32812 105.0Q451.04688 105.0 450.34375 104.078125Q449.64062 103.140625 449.64062 101.859375Q449.64062 100.96875 449.95312 100.21875Q450.28125 99.453125 450.89062 99.046875Q451.5 98.640625 452.32812 98.640625Q453.4375 98.640625 454.15625 99.53125L454.15625 98.78125L455.125 98.78125L455.125 104.15625Q455.125 105.609375 454.82812 106.21875Q454.53125 106.828125 453.89062 107.171875Q453.25 107.53125 452.3125 107.53125Q451.20312 107.53125 450.51562 107.03125Q449.82812 106.53125 449.84375 105.515625ZM450.71875 101.78125Q450.71875 103.0 451.20312 103.5625Q451.6875 104.125 452.42188 104.125Q453.15625 104.125 453.64062 103.5625Q454.14062 103.0 454.14062 101.8125Q454.14062 100.671875 453.625 100.09375Q453.125 99.515625 452.40625 99.515625Q451.70312 99.515625 451.20312 100.09375Q450.71875 100.65625 450.71875 101.78125ZM457.03125 105.0L457.03125 98.78125L457.98438 98.78125L457.98438 99.71875Q458.34375 99.0625 458.64062 98.859375Q458.95312 98.640625 459.32812 98.640625Q459.85938 98.640625 460.40625 98.96875L460.04688 99.953125Q459.65625 99.71875 459.28125 99.71875Q458.92188 99.71875 458.64062 99.9375Q458.375 100.140625 458.26562 100.515625Q458.07812 101.078125 458.07812 101.734375L458.07812 105.0L457.03125 105.0ZM465.10938 104.234375Q464.51562 104.734375 463.96875 104.9375Q463.4375 105.140625 462.8125 105.140625Q461.78125 105.140625 461.23438 104.640625Q460.6875 104.140625 460.6875 103.359375Q460.6875 102.90625 460.89062 102.53125Q461.09375 102.140625 461.4375 101.921875Q461.78125 101.6875 462.20312 101.578125Q462.5 101.484375 463.14062 101.40625Q464.40625 101.265625 465.01562 101.046875Q465.01562 100.828125 465.01562 100.78125Q465.01562 100.125 464.71875 99.859375Q464.3125 99.515625 463.51562 99.515625Q462.78125 99.515625 462.42188 99.78125Q462.0625 100.03125 461.89062 100.6875L460.85938 100.546875Q461.0 99.890625 461.32812 99.484375Q461.65625 99.078125 462.26562 98.859375Q462.875 98.640625 463.67188 98.640625Q464.46875 98.640625 464.96875 98.828125Q465.46875 99.015625 465.70312 99.296875Q465.9375 99.578125 466.03125 100.015625Q466.07812 100.28125 466.07812 100.984375L466.07812 102.390625Q466.07812 103.859375 466.14062 104.25Q466.21875 104.640625 466.42188 105.0L465.3125 105.0Q465.15625 104.671875 465.10938 104.234375ZM465.01562 101.875Q464.4375 102.109375 463.29688 102.28125Q462.64062 102.375 462.375 102.5Q462.10938 102.609375 461.95312 102.828125Q461.8125 103.046875 461.8125 103.328125Q461.8125 103.75 462.125 104.03125Q462.45312 104.3125 463.0625 104.3125Q463.67188 104.3125 464.14062 104.046875Q464.625 103.78125 464.84375 103.3125Q465.01562 102.953125 465.01562 102.265625L465.01562 101.875ZM472.07812 105.0L472.07812 104.21875Q471.48438 105.140625 470.34375 105.140625Q469.59375 105.140625 468.96875 104.734375Q468.34375 104.3125 468.0 103.578125Q467.65625 102.84375 467.65625 101.890625Q467.65625 100.96875 467.96875 100.203125Q468.28125 99.4375 468.90625 99.046875Q469.53125 98.640625 470.29688 98.640625Q470.85938 98.640625 471.29688 98.875Q471.73438 99.109375 472.01562 99.484375L472.01562 96.40625L473.0625 96.40625L473.0625 105.0L472.07812 105.0ZM468.75 101.890625Q468.75 103.09375 469.25 103.6875Q469.75 104.265625 470.4375 104.265625Q471.125 104.265625 471.60938 103.703125Q472.09375 103.140625 472.09375 101.984375Q472.09375 100.703125 471.59375 100.109375Q471.10938 99.515625 470.39062 99.515625Q469.6875 99.515625 469.21875 100.09375Q468.75 100.65625 468.75 101.890625ZM479.29688 103.0L480.39062 103.125Q480.14062 104.078125 479.4375 104.609375Q478.73438 105.140625 477.65625 105.140625Q476.29688 105.140625 475.48438 104.296875Q474.6875 103.453125 474.6875 101.9375Q474.6875 100.375 475.5 99.515625Q476.3125 98.640625 477.59375 98.640625Q478.84375 98.640625 479.625 99.484375Q480.42188 100.328125 480.42188 101.875Q480.42188 101.96875 480.42188 102.15625L475.78125 102.15625Q475.84375 103.1875 476.35938 103.734375Q476.875 104.265625 477.65625 104.265625Q478.23438 104.265625 478.64062 103.96875Q479.0625 103.65625 479.29688 103.0ZM475.84375 101.296875L479.3125 101.296875Q479.25 100.5 478.92188 100.109375Q478.40625 99.5 477.60938 99.5Q476.875 99.5 476.375 99.984375Q475.89062 100.46875 475.84375 101.296875Z" fill-rule="nonzero"/><path fill="#ff9900" d="M409.25 125.0C409.25 128.3137 406.56372 131.0 403.25 131.0C399.93628 131.0 397.25 128.3137 397.25 125.0C397.25 121.686295 399.93628 119.0 403.25 119.0C406.56372 119.0 409.25 121.686295 409.25 125.0Z" fill-rule="nonzero"/><path fill="#1a1a1a" d="M417.82812 124.8125Q417.82812 122.671875 418.96875 121.46875Q420.125 120.25 421.9375 120.25Q423.14062 120.25 424.09375 120.828125Q425.04688 121.390625 425.54688 122.40625Q426.04688 123.421875 426.04688 124.71875Q426.04688 126.015625 425.51562 127.046875Q424.98438 128.07812 424.01562 128.60938Q423.0625 129.14062 421.9375 129.14062Q420.71875 129.14062 419.76562 128.5625Q418.8125 127.96875 418.3125 126.96875Q417.82812 125.953125 417.82812 124.8125ZM419.0 124.828125Q419.0 126.390625 419.82812 127.28125Q420.67188 128.17188 421.9375 128.17188Q423.21875 128.17188 424.04688 127.28125Q424.875 126.375 424.875 124.703125Q424.875 123.65625 424.51562 122.875Q424.17188 122.09375 423.48438 121.671875Q422.79688 121.234375 421.95312 121.234375Q420.75 121.234375 419.875 122.0625Q419.0 122.890625 419.0 124.828125ZM429.34375 128.0625L429.5 128.98438Q429.04688 129.07812 428.70312 129.07812Q428.125 129.07812 427.8125 128.90625Q427.5 128.71875 427.35938 128.42188Q427.23438 128.125 427.23438 127.171875L427.23438 123.59375L426.46875 123.59375L426.46875 122.78125L427.23438 122.78125L427.23438 121.234375L428.28125 120.609375L428.28125 122.78125L429.34375 122.78125L429.34375 123.59375L428.28125 123.59375L428.28125 127.234375Q428.28125 127.6875 428.32812 127.8125Q428.39062 127.9375 428.51562 128.01562Q428.64062 128.09375 428.875 128.09375Q429.0625 128.09375 429.34375 128.0625ZM430.04688 129.0L430.04688 120.40625L431.09375 120.40625L431.09375 123.484375Q431.82812 122.640625 432.95312 122.640625Q433.65625 122.640625 434.15625 122.921875Q434.67188 123.1875 434.89062 123.671875Q435.10938 124.140625 435.10938 125.0625L435.10938 129.0L434.0625 129.0L434.0625 125.0625Q434.0625 124.265625 433.71875 123.90625Q433.375 123.546875 432.75 123.546875Q432.28125 123.546875 431.85938 123.796875Q431.45312 124.03125 431.26562 124.453125Q431.09375 124.859375 431.09375 125.59375L431.09375 129.0L430.04688 129.0ZM441.29688 127.0L442.39062 127.125Q442.14062 128.07812 441.4375 128.60938Q440.73438 129.14062 439.65625 129.14062Q438.29688 129.14062 437.48438 128.29688Q436.6875 127.453125 436.6875 125.9375Q436.6875 124.375 437.5 123.515625Q438.3125 122.640625 439.59375 122.640625Q440.84375 122.640625 441.625 123.484375Q442.42188 124.328125 442.42188 125.875Q442.42188 125.96875 442.42188 126.15625L437.78125 126.15625Q437.84375 127.1875 438.35938 127.734375Q438.875 128.26562 439.65625 128.26562Q440.23438 128.26562 440.64062 127.96875Q441.0625 127.65625 441.29688 127.0ZM437.84375 125.296875L441.3125 125.296875Q441.25 124.5 440.92188 124.109375Q440.40625 123.5 439.60938 123.5Q438.875 123.5 438.375 123.984375Q437.89062 124.46875 437.84375 125.296875ZM444.03125 129.0L444.03125 122.78125L444.98438 122.78125L444.98438 123.71875Q445.34375 123.0625 445.64062 122.859375Q445.95312 122.640625 446.32812 122.640625Q446.85938 122.640625 447.40625 122.96875L447.04688 123.953125Q446.65625 123.71875 446.28125 123.71875Q445.92188 123.71875 445.64062 123.9375Q445.375 124.140625 445.26562 124.515625Q445.07812 125.078125 445.07812 125.734375L445.07812 129.0L444.03125 129.0Z" fill-rule="nonzero"/><path fill="#34a853" d="M409.25 149.0C409.25 152.3137 406.56372 155.0 403.25 155.0C399.93628 155.0 397.25 152.3137 397.25 149.0C397.25 145.6863 399.93628 143.0 403.25 143.0C406.56372 143.0 409.25 145.6863 409.25 149.0Z" fill-rule="nonzero"/><path fill="#1a1a1a" d="M418.17188 153.0L418.17188 144.40625L421.14062 144.40625Q422.14062 144.40625 422.67188 144.53125Q423.40625 144.70312 423.92188 145.14062Q424.60938 145.71875 424.9375 146.625Q425.28125 147.51562 425.28125 148.65625Q425.28125 149.64062 425.04688 150.39062Q424.82812 151.14062 424.46875 151.64062Q424.10938 152.14062 423.67188 152.42188Q423.25 152.70312 422.65625 152.85938Q422.0625 153.0 421.28125 153.0L418.17188 153.0ZM419.3125 151.98438L421.14062 151.98438Q422.0 151.98438 422.48438 151.82812Q422.96875 151.67188 423.25 151.375Q423.65625 150.98438 423.875 150.29688Q424.10938 149.60938 424.10938 148.64062Q424.10938 147.29688 423.65625 146.57812Q423.21875 145.84375 422.59375 145.59375Q422.125 145.42188 421.125 145.42188L419.3125 145.42188L419.3125 151.98438ZM431.125 153.0L431.125 152.07812Q430.39062 153.14062 429.14062 153.14062Q428.59375 153.14062 428.10938 152.9375Q427.64062 152.71875 427.40625 152.40625Q427.17188 152.07812 427.07812 151.60938Q427.01562 151.3125 427.01562 150.625L427.01562 146.78125L428.07812 146.78125L428.07812 150.23438Q428.07812 151.04688 428.14062 151.34375Q428.23438 151.75 428.54688 152.0Q428.875 152.23438 429.35938 152.23438Q429.82812 152.23438 430.23438 152.0Q430.65625 151.75 430.82812 151.32812Q431.01562 150.90625 431.01562 150.10938L431.01562 146.78125L432.0625 146.78125L432.0625 153.0L431.125 153.0ZM434.04688 155.39062L434.04688 146.78125L435.0 146.78125L435.0 147.57812Q435.34375 147.10938 435.76562 146.875Q436.20312 146.64062 436.8125 146.64062Q437.60938 146.64062 438.21875 147.04688Q438.82812 147.45312 439.125 148.20312Q439.4375 148.95312 439.4375 149.84375Q439.4375 150.79688 439.09375 151.5625Q438.76562 152.32812 438.10938 152.73438Q437.45312 153.14062 436.73438 153.14062Q436.20312 153.14062 435.78125 152.92188Q435.35938 152.6875 435.09375 152.35938L435.09375 155.39062L434.04688 155.39062ZM435.0 149.92188Q435.0 151.125 435.48438 151.70312Q435.96875 152.26562 436.65625 152.26562Q437.35938 152.26562 437.85938 151.67188Q438.35938 151.07812 438.35938 149.82812Q438.35938 148.64062 437.875 148.0625Q437.39062 147.46875 436.70312 147.46875Q436.03125 147.46875 435.51562 148.09375Q435.0 148.71875 435.0 149.92188ZM441.01562 153.0L441.01562 144.40625L442.07812 144.40625L442.07812 153.0L441.01562 153.0ZM444.04688 145.625L444.04688 144.40625L445.10938 144.40625L445.10938 145.625L444.04688 145.625ZM444.04688 153.0L444.04688 146.78125L445.10938 146.78125L445.10938 153.0L444.04688 153.0ZM451.10938 150.71875L452.14062 150.85938Q451.96875 151.92188 451.26562 152.53125Q450.5625 153.14062 449.54688 153.14062Q448.26562 153.14062 447.48438 152.3125Q446.71875 151.46875 446.71875 149.90625Q446.71875 148.90625 447.04688 148.15625Q447.39062 147.39062 448.0625 147.01562Q448.75 146.64062 449.5625 146.64062Q450.5625 146.64062 451.20312 147.15625Q451.85938 147.65625 452.04688 148.60938L451.01562 148.76562Q450.875 148.14062 450.5 147.82812Q450.125 147.5 449.59375 147.5Q448.79688 147.5 448.29688 148.07812Q447.79688 148.64062 447.79688 149.875Q447.79688 151.14062 448.28125 151.70312Q448.76562 152.26562 449.53125 152.26562Q450.15625 152.26562 450.5625 151.89062Q450.98438 151.51562 451.10938 150.71875ZM457.10938 152.23438Q456.51562 152.73438 455.96875 152.9375Q455.4375 153.14062 454.8125 153.14062Q453.78125 153.14062 453.23438 152.64062Q452.6875 152.14062 452.6875 151.35938Q452.6875 150.90625 452.89062 150.53125Q453.09375 150.14062 453.4375 149.92188Q453.78125 149.6875 454.20312 149.57812Q454.5 149.48438 455.14062 149.40625Q456.40625 149.26562 457.01562 149.04688Q457.01562 148.82812 457.01562 148.78125Q457.01562 148.125 456.71875 147.85938Q456.3125 147.51562 455.51562 147.51562Q454.78125 147.51562 454.42188 147.78125Q454.0625 148.03125 453.89062 148.6875L452.85938 148.54688Q453.0 147.89062 453.32812 147.48438Q453.65625 147.07812 454.26562 146.85938Q454.875 146.64062 455.67188 146.64062Q456.46875 146.64062 456.96875 146.82812Q457.46875 147.01562 457.70312 147.29688Q457.9375 147.57812 458.03125 148.01562Q458.07812 148.28125 458.07812 148.98438L458.07812 150.39062Q458.07812 151.85938 458.14062 152.25Q458.21875 152.64062 458.42188 153.0L457.3125 153.0Q457.15625 152.67188 457.10938 152.23438ZM457.01562 149.875Q456.4375 150.10938 455.29688 150.28125Q454.64062 150.375 454.375 150.5Q454.10938 150.60938 453.95312 150.82812Q453.8125 151.04688 453.8125 151.32812Q453.8125 151.75 454.125 152.03125Q454.45312 152.3125 455.0625 152.3125Q455.67188 152.3125 456.14062 152.04688Q456.625 151.78125 456.84375 151.3125Q457.01562 150.95312 457.01562 150.26562L457.01562 149.875ZM462.34375 152.0625L462.5 152.98438Q462.04688 153.07812 461.70312 153.07812Q461.125 153.07812 460.8125 152.90625Q460.5 152.71875 460.35938 152.42188Q460.23438 152.125 460.23438 151.17188L460.23438 147.59375L459.46875 147.59375L459.46875 146.78125L460.23438 146.78125L460.23438 145.23438L461.28125 144.60938L461.28125 146.78125L462.34375 146.78125L462.34375 147.59375L461.28125 147.59375L461.28125 151.23438Q461.28125 151.6875 461.32812 151.8125Q461.39062 151.9375 461.51562 152.01562Q461.64062 152.09375 461.875 152.09375Q462.0625 152.09375 462.34375 152.0625ZM467.29688 151.0L468.39062 151.125Q468.14062 152.07812 467.4375 152.60938Q466.73438 153.14062 465.65625 153.14062Q464.29688 153.14062 463.48438 152.29688Q462.6875 151.45312 462.6875 149.9375Q462.6875 148.375 463.5 147.51562Q464.3125 146.64062 465.59375 146.64062Q466.84375 146.64062 467.625 147.48438Q468.42188 148.32812 468.42188 149.875Q468.42188 149.96875 468.42188 150.15625L463.78125 150.15625Q463.84375 151.1875 464.35938 151.73438Q464.875 152.26562 465.65625 152.26562Q466.23438 152.26562 466.64062 151.96875Q467.0625 151.65625 467.29688 151.0ZM463.84375 149.29688L467.3125 149.29688Q467.25 148.5 466.92188 148.10938Q466.40625 147.5 465.60938 147.5Q464.875 147.5 464.375 147.98438Q463.89062 148.46875 463.84375 149.29688Z" fill-rule="nonzero"/><path fill="#999999" d="M16.90625 56.5L16.90625 46.484375L23.65625 46.484375L23.65625 47.65625L18.21875 47.65625L18.21875 50.765625L22.921875 50.765625L22.921875 51.953125L18.21875 51.953125L18.21875 56.5L16.90625 56.5ZM25.65625 56.5L25.65625 49.234375L26.765625 49.234375L26.765625 50.34375Q27.1875 49.5625 27.546875 49.328125Q27.90625 49.078125 28.34375 49.078125Q28.96875 49.078125 29.609375 49.46875L29.1875 50.609375Q28.734375 50.34375 28.28125 50.34375Q27.875 50.34375 27.546875 50.59375Q27.234375 50.828125 27.09375 51.265625Q26.890625 51.921875 26.890625 52.703125L26.890625 56.5L25.65625 56.5ZM30.21875 52.875Q30.21875 50.859375 31.34375 49.875Q32.265625 49.078125 33.625 49.078125Q35.109375 49.078125 36.0625 50.0625Q37.015625 51.03125 37.015625 52.765625Q37.015625 54.171875 36.59375 54.984375Q36.171875 55.78125 35.359375 56.234375Q34.5625 56.671875 33.625 56.671875Q32.09375 56.671875 31.15625 55.6875Q30.21875 54.703125 30.21875 52.875ZM31.484375 52.875Q31.484375 54.265625 32.09375 54.96875Q32.703125 55.65625 33.625 55.65625Q34.53125 55.65625 35.140625 54.953125Q35.75 54.25 35.75 52.828125Q35.75 51.484375 35.140625 50.796875Q34.53125 50.09375 33.625 50.09375Q32.703125 50.09375 32.09375 50.78125Q31.484375 51.46875 31.484375 52.875ZM38.671875 56.5L38.671875 49.234375L39.78125 49.234375L39.78125 50.265625Q40.109375 49.71875 40.671875 49.40625Q41.25 49.078125 41.96875 49.078125Q42.78125 49.078125 43.296875 49.421875Q43.8125 49.75 44.03125 50.34375Q44.890625 49.078125 46.265625 49.078125Q47.34375 49.078125 47.921875 49.671875Q48.515625 50.265625 48.515625 51.515625L48.515625 56.5L47.28125 56.5L47.28125 51.921875Q47.28125 51.1875 47.15625 50.859375Q47.046875 50.53125 46.734375 50.34375Q46.421875 50.140625 46.0 50.140625Q45.234375 50.140625 44.71875 50.65625Q44.21875 51.15625 44.21875 52.28125L44.21875 56.5L42.984375 56.5L42.984375 51.78125Q42.984375 50.96875 42.6875 50.5625Q42.390625 50.140625 41.703125 50.140625Q41.1875 50.140625 40.734375 50.421875Q40.296875 50.6875 40.09375 51.21875Q39.90625 51.734375 39.90625 52.734375L39.90625 56.5L38.671875 56.5ZM53.328125 53.875L54.625 53.765625Q54.765625 54.703125 55.28125 55.1875Q55.8125 55.65625 56.546875 55.65625Q57.4375 55.65625 58.046875 54.984375Q58.671875 54.3125 58.671875 53.21875Q58.671875 52.15625 58.078125 51.546875Q57.484375 50.9375 56.53125 50.9375Q55.9375 50.9375 55.453125 51.21875Q54.984375 51.484375 54.703125 51.90625L53.546875 51.765625L54.515625 46.609375L59.5 46.609375L59.5 47.796875L55.5 47.796875L54.96875 50.484375Q55.875 49.859375 56.859375 49.859375Q58.171875 49.859375 59.0625 50.765625Q59.96875 51.671875 59.96875 53.109375Q59.96875 54.46875 59.1875 55.453125Q58.21875 56.671875 56.546875 56.671875Q55.1875 56.671875 54.3125 55.90625Q53.453125 55.140625 53.328125 53.875ZM61.328125 51.5625Q61.328125 49.78125 61.6875 48.703125Q62.0625 47.609375 62.78125 47.03125Q63.5 46.4375 64.59375 46.4375Q65.40625 46.4375 66.015625 46.765625Q66.625 47.09375 67.015625 47.703125Q67.421875 48.3125 67.640625 49.1875Q67.859375 50.0625 67.859375 51.5625Q67.859375 53.328125 67.5 54.40625Q67.140625 55.484375 66.421875 56.078125Q65.703125 56.671875 64.59375 56.671875Q63.15625 56.671875 62.328125 55.625Q61.328125 54.375 61.328125 51.5625ZM62.59375 51.5625Q62.59375 54.03125 63.171875 54.84375Q63.75 55.65625 64.59375 55.65625Q65.453125 55.65625 66.03125 54.84375Q66.609375 54.015625 66.609375 51.5625Q66.609375 49.078125 66.03125 48.265625Q65.453125 47.453125 64.578125 47.453125Q63.734375 47.453125 63.234375 48.171875Q62.59375 49.09375 62.59375 51.5625ZM69.328125 51.5625Q69.328125 49.78125 69.6875 48.703125Q70.0625 47.609375 70.78125 47.03125Q71.5 46.4375 72.59375 46.4375Q73.40625 46.4375 74.015625 46.765625Q74.625 47.09375 75.015625 47.703125Q75.421875 48.3125 75.640625 49.1875Q75.859375 50.0625 75.859375 51.5625Q75.859375 53.328125 75.5 54.40625Q75.140625 55.484375 74.421875 56.078125Q73.703125 56.671875 72.59375 56.671875Q71.15625 56.671875 70.328125 55.625Q69.328125 54.375 69.328125 51.5625ZM70.59375 51.5625Q70.59375 54.03125 71.171875 54.84375Q71.75 55.65625 72.59375 55.65625Q73.453125 55.65625 74.03125 54.84375Q74.609375 54.015625 74.609375 51.5625Q74.609375 49.078125 74.03125 48.265625Q73.453125 47.453125 72.578125 47.453125Q71.734375 47.453125 71.234375 48.171875Q70.59375 49.09375 70.59375 51.5625ZM88.984375 52.984375L90.3125 53.328125Q89.890625 54.953125 88.796875 55.8125Q87.71875 56.671875 86.15625 56.671875Q84.53125 56.671875 83.515625 56.015625Q82.5 55.34375 81.96875 54.09375Q81.453125 52.84375 81.453125 51.40625Q81.453125 49.84375 82.046875 48.6875Q82.640625 47.515625 83.75 46.921875Q84.859375 46.3125 86.171875 46.3125Q87.6875 46.3125 88.703125 47.078125Q89.734375 47.84375 90.140625 49.21875L88.828125 49.53125Q88.484375 48.4375 87.8125 47.9375Q87.15625 47.4375 86.15625 47.4375Q85.0 47.4375 84.21875 48.0Q83.4375 48.546875 83.125 49.484375Q82.8125 50.421875 82.8125 51.40625Q82.8125 52.6875 83.1875 53.640625Q83.5625 54.59375 84.34375 55.0625Q85.125 55.53125 86.046875 55.53125Q87.15625 55.53125 87.921875 54.890625Q88.703125 54.25 88.984375 52.984375ZM91.671875 56.5L91.671875 46.484375L92.90625 46.484375L92.90625 50.078125Q93.765625 49.078125 95.078125 49.078125Q95.890625 49.078125 96.484375 49.40625Q97.078125 49.71875 97.328125 50.28125Q97.59375 50.828125 97.59375 51.90625L97.59375 56.5L96.359375 56.5L96.359375 51.90625Q96.359375 50.96875 95.953125 50.5625Q95.5625 50.140625 94.828125 50.140625Q94.28125 50.140625 93.796875 50.421875Q93.3125 50.703125 93.109375 51.1875Q92.90625 51.671875 92.90625 52.53125L92.90625 56.5L91.671875 56.5ZM104.40625 55.609375Q103.734375 56.1875 103.09375 56.4375Q102.46875 56.671875 101.734375 56.671875Q100.546875 56.671875 99.890625 56.09375Q99.25 55.5 99.25 54.578125Q99.25 54.046875 99.484375 53.609375Q99.734375 53.171875 100.125 52.90625Q100.53125 52.640625 101.015625 52.5Q101.375 52.40625 102.109375 52.3125Q103.609375 52.140625 104.3125 51.890625Q104.3125 51.640625 104.3125 51.578125Q104.3125 50.8125 103.96875 50.515625Q103.5 50.09375 102.5625 50.09375Q101.703125 50.09375 101.28125 50.40625Q100.875 50.703125 100.671875 51.46875L99.46875 51.3125Q99.625 50.53125 100.0 50.0625Q100.390625 49.59375 101.09375 49.34375Q101.8125 49.078125 102.75 49.078125Q103.671875 49.078125 104.25 49.296875Q104.828125 49.515625 105.09375 49.84375Q105.375 50.171875 105.484375 50.6875Q105.546875 51.0 105.546875 51.8125L105.546875 53.453125Q105.546875 55.171875 105.625 55.625Q105.703125 56.078125 105.9375 56.5L104.65625 56.5Q104.46875 56.109375 104.40625 55.609375ZM104.3125 52.859375Q103.640625 53.125 102.296875 53.328125Q101.546875 53.4375 101.21875 53.578125Q100.90625 53.703125 100.734375 53.96875Q100.5625 54.234375 100.5625 54.546875Q100.5625 55.046875 100.9375 55.375Q101.3125 55.703125 102.03125 55.703125Q102.75 55.703125 103.296875 55.390625Q103.84375 55.078125 104.109375 54.53125Q104.3125 54.125 104.3125 53.3125L104.3125 52.859375ZM110.359375 55.40625L110.53125 56.484375Q110.015625 56.59375 109.609375 56.59375Q108.9375 56.59375 108.5625 56.390625Q108.203125 56.171875 108.046875 55.828125Q107.90625 55.484375 107.90625 54.375L107.90625 50.203125L107.0 50.203125L107.0 49.234375L107.90625 49.234375L107.90625 47.4375L109.125 46.703125L109.125 49.234375L110.359375 49.234375L110.359375 50.203125L109.125 50.203125L109.125 54.4375Q109.125 54.96875 109.1875 55.125Q109.25 55.265625 109.390625 55.359375Q109.546875 55.453125 109.8125 55.453125Q110.03125 55.453125 110.359375 55.40625ZM111.1875 54.328125L112.390625 54.140625Q112.5 54.875 112.96875 55.265625Q113.4375 55.65625 114.28125 55.65625Q115.125 55.65625 115.53125 55.3125Q115.953125 54.96875 115.953125 54.5Q115.953125 54.078125 115.578125 53.84375Q115.328125 53.671875 114.328125 53.421875Q112.96875 53.078125 112.4375 52.828125Q111.921875 52.578125 111.65625 52.140625Q111.390625 51.703125 111.390625 51.171875Q111.390625 50.6875 111.609375 50.28125Q111.828125 49.859375 112.21875 49.578125Q112.5 49.375 112.984375 49.234375Q113.484375 49.078125 114.0625 49.078125Q114.90625 49.078125 115.546875 49.328125Q116.203125 49.5625 116.515625 49.984375Q116.828125 50.40625 116.9375 51.109375L115.734375 51.28125Q115.65625 50.71875 115.25 50.40625Q114.859375 50.09375 114.140625 50.09375Q113.296875 50.09375 112.9375 50.375Q112.578125 50.640625 112.578125 51.03125Q112.578125 51.265625 112.71875 51.453125Q112.875 51.65625 113.203125 51.78125Q113.375 51.84375 114.28125 52.09375Q115.59375 52.453125 116.109375 52.671875Q116.625 52.890625 116.90625 53.3125Q117.203125 53.734375 117.203125 54.359375Q117.203125 54.984375 116.84375 55.53125Q116.5 56.0625 115.8125 56.375Q115.140625 56.671875 114.28125 56.671875Q112.875 56.671875 112.125 56.078125Q111.390625 55.484375 111.1875 54.328125Z" fill-rule="nonzero"/><path fill="#757575" d="M25.296875 28.015625L27.828125 28.8125Q27.25 30.921875 25.890625 31.953125Q24.546875 32.96875 22.46875 32.96875Q19.90625 32.96875 18.25 31.21875Q16.609375 29.46875 16.609375 26.421875Q16.609375 23.203125 18.265625 21.421875Q19.921875 19.640625 22.625 19.640625Q25.0 19.640625 26.46875 21.046875Q27.359375 21.875 27.796875 23.421875L25.21875 24.03125Q24.984375 23.03125 24.25 22.453125Q23.53125 21.875 22.5 21.875Q21.0625 21.875 20.171875 22.90625Q19.28125 23.921875 19.28125 26.234375Q19.28125 28.671875 20.15625 29.71875Q21.046875 30.75 22.453125 30.75Q23.484375 30.75 24.234375 30.09375Q24.984375 29.421875 25.296875 28.015625ZM32.5 19.859375L32.5 24.609375Q33.703125 23.203125 35.359375 23.203125Q36.21875 23.203125 36.890625 23.53125Q37.578125 23.84375 37.921875 24.34375Q38.28125 24.828125 38.40625 25.421875Q38.53125 26.015625 38.53125 27.28125L38.53125 32.75L36.0625 32.75L36.0625 27.8125Q36.0625 26.34375 35.921875 25.953125Q35.78125 25.5625 35.421875 25.328125Q35.0625 25.09375 34.53125 25.09375Q33.921875 25.09375 33.4375 25.390625Q32.953125 25.6875 32.71875 26.296875Q32.5 26.890625 32.5 28.078125L32.5 32.75L30.03125 32.75L30.03125 19.859375L32.5 19.859375ZM42.890625 26.265625L40.640625 25.859375Q41.03125 24.5 41.953125 23.859375Q42.875 23.203125 44.6875 23.203125Q46.34375 23.203125 47.140625 23.59375Q47.953125 23.984375 48.28125 24.59375Q48.625 25.1875 48.625 26.796875L48.59375 29.6875Q48.59375 30.90625 48.703125 31.5Q48.828125 32.078125 49.15625 32.75L46.71875 32.75Q46.609375 32.5 46.46875 32.015625Q46.40625 31.796875 46.390625 31.734375Q45.75 32.34375 45.03125 32.65625Q44.3125 32.96875 43.5 32.96875Q42.046875 32.96875 41.21875 32.1875Q40.390625 31.390625 40.390625 30.203125Q40.390625 29.40625 40.765625 28.796875Q41.140625 28.171875 41.828125 27.84375Q42.515625 27.515625 43.796875 27.265625Q45.53125 26.9375 46.1875 26.65625L46.1875 26.40625Q46.1875 25.703125 45.828125 25.40625Q45.484375 25.09375 44.515625 25.09375Q43.859375 25.09375 43.484375 25.359375Q43.109375 25.609375 42.890625 26.265625ZM46.1875 28.265625Q45.71875 28.421875 44.6875 28.640625Q43.65625 28.859375 43.34375 29.078125Q42.859375 29.421875 42.859375 29.953125Q42.859375 30.46875 43.25 30.84375Q43.640625 31.21875 44.234375 31.21875Q44.90625 31.21875 45.5 30.78125Q45.953125 30.453125 46.09375 29.96875Q46.1875 29.640625 46.1875 28.765625L46.1875 28.265625ZM55.328125 23.421875L55.328125 25.390625L53.640625 25.390625L53.640625 29.140625Q53.640625 30.28125 53.6875 30.484375Q53.734375 30.671875 53.90625 30.796875Q54.078125 30.90625 54.328125 30.90625Q54.65625 30.90625 55.3125 30.671875L55.53125 32.59375Q54.65625 32.96875 53.578125 32.96875Q52.90625 32.96875 52.359375 32.75Q51.828125 32.515625 51.578125 32.15625Q51.328125 31.796875 51.234375 31.1875Q51.15625 30.765625 51.15625 29.453125L51.15625 25.390625L50.015625 25.390625L50.015625 23.421875L51.15625 23.421875L51.15625 21.5625L53.640625 20.125L53.640625 23.421875L55.328125 23.421875ZM64.953125 32.75L64.953125 22.046875L61.140625 22.046875L61.140625 19.859375L71.375 19.859375L71.375 22.046875L67.5625 22.046875L67.5625 32.75L64.953125 32.75ZM71.875 23.421875L74.5 23.421875L76.734375 30.046875L78.90625 23.421875L81.46875 23.421875L78.171875 32.390625L77.59375 34.03125Q77.265625 34.84375 76.96875 35.265625Q76.671875 35.703125 76.28125 35.96875Q75.90625 36.234375 75.34375 36.375Q74.796875 36.53125 74.09375 36.53125Q73.375 36.53125 72.6875 36.390625L72.46875 34.453125Q73.046875 34.5625 73.515625 34.5625Q74.375 34.5625 74.78125 34.0625Q75.203125 33.5625 75.421875 32.78125L71.875 23.421875ZM83.96875 23.421875L86.28125 23.421875L86.28125 24.78125Q86.71875 24.078125 87.484375 23.640625Q88.25 23.203125 89.1875 23.203125Q90.8125 23.203125 91.9375 24.484375Q93.078125 25.75 93.078125 28.03125Q93.078125 30.375 91.9375 31.671875Q90.796875 32.96875 89.171875 32.96875Q88.390625 32.96875 87.765625 32.65625Q87.140625 32.34375 86.4375 31.59375L86.4375 36.296875L83.96875 36.296875L83.96875 23.421875ZM86.421875 27.921875Q86.421875 29.5 87.03125 30.25Q87.65625 31.0 88.5625 31.0Q89.421875 31.0 89.984375 30.3125Q90.5625 29.625 90.5625 28.046875Q90.5625 26.578125 89.96875 25.875Q89.390625 25.15625 88.515625 25.15625Q87.609375 25.15625 87.015625 25.859375Q86.421875 26.546875 86.421875 27.921875ZM100.453125 29.78125L102.90625 30.1875Q102.4375 31.546875 101.40625 32.265625Q100.390625 32.96875 98.84375 32.96875Q96.40625 32.96875 95.25 31.375Q94.328125 30.09375 94.328125 28.15625Q94.328125 25.828125 95.53125 24.515625Q96.75 23.203125 98.609375 23.203125Q100.6875 23.203125 101.890625 24.578125Q103.09375 25.953125 103.046875 28.796875L96.859375 28.796875Q96.875 29.890625 97.4375 30.5Q98.015625 31.109375 98.875 31.109375Q99.453125 31.109375 99.84375 30.796875Q100.25 30.484375 100.453125 29.78125ZM100.59375 27.28125Q100.5625 26.203125 100.03125 25.65625Q99.5 25.09375 98.75 25.09375Q97.9375 25.09375 97.421875 25.6875Q96.890625 26.265625 96.890625 27.28125L100.59375 27.28125Z" fill-rule="nonzero"/></svg>