<svg version="1.1" viewBox="0.0 0.0 439.0 273.0" fill="none" stroke="none" stroke-linecap="square" stroke-miterlimit="10" width="439" height="273" xmlns:xlink="http://www.w3.org/1999/xlink" xmlns="http://www.w3.org/2000/svg"><path fill="#ffffff" d="M0 0L439.0 0L439.0 273.0L0 273.0L0 0Z" fill-rule="nonzero"/><path fill="#34a853" d="M117.9317 80.86786C133.15245 71.47466 150.68582 66.5 168.57167 66.5L168.57167 162.925Z" fill-rule="nonzero"/><path fill="#ff9900" d="M84.07379 116.4719C92.096085 101.87942 103.76072 89.613205 117.9317 80.86786L168.57167 162.925Z" fill-rule="nonzero"/><path fill="#ea4335" d="M72.420616 170.18839C71.01125 151.53152 75.06017 132.86761 84.07379 116.4719L168.57167 162.925Z" fill-rule="nonzero"/><path fill="#4285f4" d="M168.57167 66.5C220.88176 66.5 263.65164 108.20825 264.96622 160.50183C266.28076 212.79541 225.6605 256.5999 173.41647 259.2282C121.17245 261.8565 76.36097 222.34987 72.420616 170.18839L168.57167 162.925Z" fill-rule="nonzero"/><path fill="#ffffff" d="M207.42496 211.89044L208.6437 211.71857Q208.86246 212.76544 209.36246 213.23419Q209.87808 213.68732 210.61246 213.68732Q211.48746 213.68732 212.0812 213.09357Q212.67496 212.48419 212.67496 211.59357Q212.67496 210.74982 212.11246 210.20294Q211.56558 209.65607 210.72183 209.65607Q210.36246 209.65607 209.84683 209.78107L209.98746 208.70294Q210.11246 208.71857 210.17496 208.71857Q210.97183 208.71857 211.59683 208.31232Q212.22183 207.90607 212.22183 207.04669Q212.22183 206.37482 211.7687 205.93732Q211.31558 205.48419 210.5812 205.48419Q209.86246 205.48419 209.37808 205.93732Q208.90933 206.37482 208.7687 207.28107L207.54996 207.06232Q207.7687 205.82794 208.56558 205.15607Q209.36246 204.46857 210.54996 204.46857Q211.37808 204.46857 212.06558 204.82794Q212.75308 205.17169 213.11246 205.78107Q213.48746 206.39044 213.48746 207.07794Q213.48746 207.71857 213.1437 208.24982Q212.79996 208.78107 212.11246 209.10919Q213.00308 209.31232 213.48746 209.95294Q213.98746 210.59357 213.98746 211.57794Q213.98746 212.89044 213.0187 213.79669Q212.06558 214.70294 210.61246 214.70294Q209.28433 214.70294 208.40933 213.92169Q207.54996 213.14044 207.42496 211.89044ZM221.79996 206.96857L220.5812 207.06232Q220.40933 206.32794 220.11246 205.99982Q219.61246 205.48419 218.87808 205.48419Q218.28433 205.48419 217.84683 205.81232Q217.2687 206.23419 216.92496 207.04669Q216.59683 207.85919 216.5812 209.35919Q217.0187 208.68732 217.65933 208.35919Q218.31558 208.03107 219.0187 208.03107Q220.25308 208.03107 221.11246 208.93732Q221.97183 209.84357 221.97183 211.28107Q221.97183 212.21857 221.56558 213.03107Q221.15933 213.84357 220.44058 214.28107Q219.73746 214.70294 218.8312 214.70294Q217.29996 214.70294 216.3312 213.57794Q215.36246 212.43732 215.36246 209.84357Q215.36246 206.93732 216.42496 205.60919Q217.36246 204.46857 218.9562 204.46857Q220.1437 204.46857 220.8937 205.14044Q221.6437 205.79669 221.79996 206.96857ZM216.7687 211.28107Q216.7687 211.92169 217.03433 212.49982Q217.31558 213.07794 217.79996 213.39044Q218.28433 213.68732 218.81558 213.68732Q219.59683 213.68732 220.15933 213.06232Q220.72183 212.43732 220.72183 211.35919Q220.72183 210.31232 220.15933 209.71857Q219.61246 209.10919 218.7687 209.10919Q217.94058 209.10919 217.34683 209.71857Q216.7687 210.31232 216.7687 211.28107ZM223.59683 212.21857L224.78433 212.10919Q224.92496 212.93732 225.34683 213.31232Q225.78433 213.68732 226.44058 213.68732Q227.00308 213.68732 227.42496 213.43732Q227.86246 213.17169 228.12808 212.73419Q228.40933 212.29669 228.59683 211.56232Q228.78433 210.82794 228.78433 210.06232Q228.78433 209.98419 228.7687 209.81232Q228.40933 210.40607 227.7687 210.78107Q227.12808 211.14044 226.37808 211.14044Q225.12808 211.14044 224.2687 210.23419Q223.40933 209.32794 223.40933 207.85919Q223.40933 206.32794 224.29996 205.40607Q225.2062 204.46857 226.56558 204.46857Q227.53433 204.46857 228.34683 204.99982Q229.15933 205.51544 229.5812 206.49982Q230.00308 207.46857 230.00308 209.31232Q230.00308 211.23419 229.5812 212.37482Q229.17496 213.51544 228.34683 214.10919Q227.5187 214.70294 226.40933 214.70294Q225.23746 214.70294 224.48746 214.04669Q223.75308 213.39044 223.59683 212.21857ZM228.62808 207.79669Q228.62808 206.73419 228.06558 206.10919Q227.50308 205.48419 226.72183 205.48419Q225.8937 205.48419 225.28433 206.15607Q224.67496 206.82794 224.67496 207.89044Q224.67496 208.84357 225.25308 209.45294Q225.8312 210.04669 226.67496 210.04669Q227.53433 210.04669 228.0812 209.45294Q228.62808 208.84357 228.62808 207.79669Z" fill-rule="nonzero"/><path fill="#ffffff" d="M92.30295 152.13188L92.30295 149.72563L87.94357 149.72563L87.94357 148.60063L92.5217 142.11626L93.5217 142.11626L93.5217 148.60063L94.88107 148.60063L94.88107 149.72563L93.5217 149.72563L93.5217 152.13188L92.30295 152.13188ZM92.30295 148.60063L92.30295 144.085L89.16232 148.60063L92.30295 148.60063ZM102.74045 144.56938L101.5217 144.66313Q101.34982 143.92876 101.05295 143.60063Q100.55295 143.085 99.81857 143.085Q99.22482 143.085 98.78732 143.41313Q98.2092 143.835 97.86545 144.6475Q97.53732 145.46 97.5217 146.96Q97.9592 146.28813 98.59982 145.96Q99.25607 145.63188 99.9592 145.63188Q101.19357 145.63188 102.05295 146.53813Q102.91232 147.44438 102.91232 148.88188Q102.91232 149.81938 102.50607 150.63188Q102.09982 151.44438 101.38107 151.88188Q100.67795 152.30376 99.7717 152.30376Q98.24045 152.30376 97.2717 151.17876Q96.30295 150.03813 96.30295 147.44438Q96.30295 144.53813 97.36545 143.21Q98.30295 142.06938 99.8967 142.06938Q101.0842 142.06938 101.8342 142.74126Q102.5842 143.3975 102.74045 144.56938ZM97.7092 148.88188Q97.7092 149.5225 97.97482 150.10063Q98.25607 150.67876 98.74045 150.99126Q99.22482 151.28813 99.75607 151.28813Q100.53732 151.28813 101.09982 150.66313Q101.66232 150.03813 101.66232 148.96Q101.66232 147.91313 101.09982 147.31938Q100.55295 146.71 99.7092 146.71Q98.88107 146.71 98.28732 147.31938Q97.7092 147.91313 97.7092 148.88188Z" fill-rule="nonzero"/><path fill="#ffffff" d="M113.30429 118.66675L113.30429 116.2605L108.944916 116.2605L108.944916 115.1355L113.52304 108.65112L114.52304 108.65112L114.52304 115.1355L115.882416 115.1355L115.882416 116.2605L114.52304 116.2605L114.52304 118.66675L113.30429 118.66675ZM113.30429 115.1355L113.30429 110.61987L110.163666 115.1355L113.30429 115.1355ZM121.99179 118.66675L120.757416 118.66675L120.757416 110.823Q120.319916 111.24487 119.58554 111.68237Q118.86679 112.10425 118.30429 112.30737L118.30429 111.11987Q119.33554 110.6355 120.101166 109.948Q120.882416 109.2605 121.194916 108.60425L121.99179 108.60425L121.99179 118.66675Z" fill-rule="nonzero"/><path fill="#ffffff" d="M144.94066 96.86248L144.94066 94.45623L140.58128 94.45623L140.58128 93.33123L145.15941 86.846855L146.15941 86.846855L146.15941 93.33123L147.51878 93.33123L147.51878 94.45623L146.15941 94.45623L146.15941 96.86248L144.94066 96.86248ZM144.94066 93.33123L144.94066 88.815605L141.80003 93.33123L144.94066 93.33123ZM152.94066 96.86248L152.94066 94.45623L148.58128 94.45623L148.58128 93.33123L153.15941 86.846855L154.15941 86.846855L154.15941 93.33123L155.51878 93.33123L155.51878 94.45623L154.15941 94.45623L154.15941 96.86248L152.94066 96.86248ZM152.94066 93.33123L152.94066 88.815605L149.80003 93.33123L152.94066 93.33123Z" fill-rule="nonzero"/><path fill="#4285f4" d="M348.35 73.5C348.35 76.813705 345.6637 79.5 342.35 79.5C339.0363 79.5 336.35 76.813705 336.35 73.5C336.35 70.186295 339.0363 67.5 342.35 67.5C345.6637 67.5 348.35 70.186295 348.35 73.5Z" fill-rule="nonzero"/><path fill="#1a1a1a" d="M363.4125 74.484375L364.5375 74.78125Q364.17813 76.171875 363.25626 76.90625Q362.33438 77.640625 360.99063 77.640625Q359.6 77.640625 358.725 77.078125Q357.85 76.515625 357.39688 75.453125Q356.94376 74.375 356.94376 73.140625Q356.94376 71.796875 357.45938 70.796875Q357.975 69.796875 358.9125 69.28125Q359.86563 68.765625 361.00626 68.765625Q362.2875 68.765625 363.1625 69.421875Q364.05313 70.078125 364.39688 71.265625L363.27188 71.53125Q362.975 70.59375 362.39688 70.171875Q361.83438 69.734375 360.975 69.734375Q359.99063 69.734375 359.31876 70.21875Q358.6625 70.6875 358.38126 71.484375Q358.11563 72.28125 358.11563 73.140625Q358.11563 74.234375 358.42813 75.046875Q358.75626 75.859375 359.42813 76.265625Q360.1 76.671875 360.89688 76.671875Q361.85 76.671875 362.50626 76.125Q363.17813 75.578125 363.4125 74.484375ZM370.20938 76.734375Q369.61563 77.234375 369.06876 77.4375Q368.5375 77.640625 367.9125 77.640625Q366.88126 77.640625 366.33438 77.140625Q365.7875 76.640625 365.7875 75.859375Q365.7875 75.40625 365.99063 75.03125Q366.19376 74.640625 366.5375 74.421875Q366.88126 74.1875 367.30313 74.078125Q367.6 73.984375 368.24063 73.90625Q369.50626 73.765625 370.11563 73.546875Q370.11563 73.328125 370.11563 73.28125Q370.11563 72.625 369.81876 72.359375Q369.4125 72.015625 368.61563 72.015625Q367.88126 72.015625 367.52188 72.28125Q367.1625 72.53125 366.99063 73.1875L365.95938 73.046875Q366.1 72.390625 366.42813 71.984375Q366.75626 71.578125 367.36563 71.359375Q367.975 71.140625 368.77188 71.140625Q369.56876 71.140625 370.06876 71.328125Q370.56876 71.515625 370.80313 71.796875Q371.0375 72.078125 371.13126 72.515625Q371.17813 72.78125 371.17813 73.484375L371.17813 74.890625Q371.17813 76.359375 371.24063 76.75Q371.31876 77.140625 371.52188 77.5L370.4125 77.5Q370.25626 77.171875 370.20938 76.734375ZM370.11563 74.375Q369.5375 74.609375 368.39688 74.78125Q367.74063 74.875 367.475 75.0Q367.20938 75.109375 367.05313 75.328125Q366.9125 75.546875 366.9125 75.828125Q366.9125 76.25 367.225 76.53125Q367.55313 76.8125 368.1625 76.8125Q368.77188 76.8125 369.24063 76.546875Q369.725 76.28125 369.94376 75.8125Q370.11563 75.453125 370.11563 74.765625L370.11563 74.375ZM373.14688 77.5L373.14688 71.28125L374.08438 71.28125L374.08438 72.15625Q374.77188 71.140625 376.06876 71.140625Q376.63126 71.140625 377.1 71.34375Q377.58438 71.546875 377.81876 71.875Q378.05313 72.203125 378.14688 72.640625Q378.19376 72.9375 378.19376 73.671875L378.19376 77.5L377.14688 77.5L377.14688 73.71875Q377.14688 73.0625 377.02188 72.75Q376.89688 72.4375 376.58438 72.25Q376.27188 72.046875 375.85 72.046875Q375.17813 72.046875 374.67813 72.484375Q374.19376 72.90625 374.19376 74.09375L374.19376 77.5L373.14688 77.5ZM384.20938 75.21875L385.24063 75.359375Q385.06876 76.421875 384.36563 77.03125Q383.6625 77.640625 382.64688 77.640625Q381.36563 77.640625 380.58438 76.8125Q379.81876 75.96875 379.81876 74.40625Q379.81876 73.40625 380.14688 72.65625Q380.49063 71.890625 381.1625 71.515625Q381.85 71.140625 382.6625 71.140625Q383.6625 71.140625 384.30313 71.65625Q384.95938 72.15625 385.14688 73.109375L384.11563 73.265625Q383.975 72.640625 383.6 72.328125Q383.225 72.0 382.69376 72.0Q381.89688 72.0 381.39688 72.578125Q380.89688 73.140625 380.89688 74.375Q380.89688 75.640625 381.38126 76.203125Q381.86563 76.765625 382.63126 76.765625Q383.25626 76.765625 383.6625 76.390625Q384.08438 76.015625 384.20938 75.21875ZM390.39688 75.5L391.49063 75.625Q391.24063 76.578125 390.5375 77.109375Q389.83438 77.640625 388.75626 77.640625Q387.39688 77.640625 386.58438 76.796875Q385.7875 75.953125 385.7875 74.4375Q385.7875 72.875 386.6 72.015625Q387.4125 71.140625 388.69376 71.140625Q389.94376 71.140625 390.725 71.984375Q391.52188 72.828125 391.52188 74.375Q391.52188 74.46875 391.52188 74.65625L386.88126 74.65625Q386.94376 75.6875 387.45938 76.234375Q387.975 76.765625 388.75626 76.765625Q389.33438 76.765625 389.74063 76.46875Q390.1625 76.15625 390.39688 75.5ZM386.94376 73.796875L390.4125 73.796875Q390.35 73.0 390.02188 72.609375Q389.50626 72.0 388.70938 72.0Q387.975 72.0 387.475 72.484375Q386.99063 72.96875 386.94376 73.796875ZM393.11563 77.5L393.11563 68.90625L394.17813 68.90625L394.17813 77.5L393.11563 77.5ZM396.11563 77.5L396.11563 68.90625L397.17813 68.90625L397.17813 77.5L396.11563 77.5ZM403.20938 76.734375Q402.61563 77.234375 402.06876 77.4375Q401.5375 77.640625 400.9125 77.640625Q399.88126 77.640625 399.33438 77.140625Q398.7875 76.640625 398.7875 75.859375Q398.7875 75.40625 398.99063 75.03125Q399.19376 74.640625 399.5375 74.421875Q399.88126 74.1875 400.30313 74.078125Q400.6 73.984375 401.24063 73.90625Q402.50626 73.765625 403.11563 73.546875Q403.11563 73.328125 403.11563 73.28125Q403.11563 72.625 402.81876 72.359375Q402.4125 72.015625 401.61563 72.015625Q400.88126 72.015625 400.52188 72.28125Q400.1625 72.53125 399.99063 73.1875L398.95938 73.046875Q399.1 72.390625 399.42813 71.984375Q399.75626 71.578125 400.36563 71.359375Q400.975 71.140625 401.77188 71.140625Q402.56876 71.140625 403.06876 71.328125Q403.56876 71.515625 403.80313 71.796875Q404.0375 72.078125 404.13126 72.515625Q404.17813 72.78125 404.17813 73.484375L404.17813 74.890625Q404.17813 76.359375 404.24063 76.75Q404.31876 77.140625 404.52188 77.5L403.4125 77.5Q403.25626 77.171875 403.20938 76.734375ZM403.11563 74.375Q402.5375 74.609375 401.39688 74.78125Q400.74063 74.875 400.475 75.0Q400.20938 75.109375 400.05313 75.328125Q399.9125 75.546875 399.9125 75.828125Q399.9125 76.25 400.225 76.53125Q400.55313 76.8125 401.1625 76.8125Q401.77188 76.8125 402.24063 76.546875Q402.725 76.28125 402.94376 75.8125Q403.11563 75.453125 403.11563 74.765625L403.11563 74.375ZM408.44376 76.5625L408.6 77.484375Q408.14688 77.578125 407.80313 77.578125Q407.225 77.578125 406.9125 77.40625Q406.6 77.21875 406.45938 76.921875Q406.33438 76.625 406.33438 75.671875L406.33438 72.09375L405.56876 72.09375L405.56876 71.28125L406.33438 71.28125L406.33438 69.734375L407.38126 69.109375L407.38126 71.28125L408.44376 71.28125L408.44376 72.09375L407.38126 72.09375L407.38126 75.734375Q407.38126 76.1875 407.42813 76.3125Q407.49063 76.4375 407.61563 76.515625Q407.74063 76.59375 407.975 76.59375Q408.1625 76.59375 408.44376 76.5625ZM409.14688 70.125L409.14688 68.90625L410.20938 68.90625L410.20938 70.125L409.14688 70.125ZM409.14688 77.5L409.14688 71.28125L410.20938 71.28125L410.20938 77.5L409.14688 77.5ZM411.75626 74.390625Q411.75626 72.65625 412.70938 71.828125Q413.50626 71.140625 414.6625 71.140625Q415.94376 71.140625 416.75626 71.984375Q417.58438 72.8125 417.58438 74.296875Q417.58438 75.5 417.225 76.1875Q416.86563 76.875 416.1625 77.265625Q415.475 77.640625 414.6625 77.640625Q413.36563 77.640625 412.55313 76.8125Q411.75626 75.96875 411.75626 74.390625ZM412.83438 74.390625Q412.83438 75.578125 413.35 76.171875Q413.88126 76.765625 414.6625 76.765625Q415.45938 76.765625 415.975 76.171875Q416.49063 75.578125 416.49063 74.359375Q416.49063 73.203125 415.95938 72.609375Q415.44376 72.015625 414.6625 72.015625Q413.88126 72.015625 413.35 72.609375Q412.83438 73.1875 412.83438 74.390625ZM419.14688 77.5L419.14688 71.28125L420.08438 71.28125L420.08438 72.15625Q420.77188 71.140625 422.06876 71.140625Q422.63126 71.140625 423.1 71.34375Q423.58438 71.546875 423.81876 71.875Q424.05313 72.203125 424.14688 72.640625Q424.19376 72.9375 424.19376 73.671875L424.19376 77.5L423.14688 77.5L423.14688 73.71875Q423.14688 73.0625 423.02188 72.75Q422.89688 72.4375 422.58438 72.25Q422.27188 72.046875 421.85 72.046875Q421.17813 72.046875 420.67813 72.484375Q420.19376 72.90625 420.19376 74.09375L420.19376 77.5L419.14688 77.5Z" fill-rule="nonzero"/><path fill="#ea4335" d="M348.35 97.5C348.35 100.813705 345.6637 103.5 342.35 103.5C339.0363 103.5 336.35 100.813705 336.35 97.5C336.35 94.186295 339.0363 91.5 342.35 91.5C345.6637 91.5 348.35 94.186295 348.35 97.5Z" fill-rule="nonzero"/><path fill="#1a1a1a" d="M357.27188 101.5L357.27188 92.90625L360.24063 92.90625Q361.24063 92.90625 361.77188 93.03125Q362.50626 93.203125 363.02188 93.640625Q363.70938 94.21875 364.0375 95.125Q364.38126 96.015625 364.38126 97.15625Q364.38126 98.140625 364.14688 98.890625Q363.92813 99.640625 363.56876 100.140625Q363.20938 100.640625 362.77188 100.921875Q362.35 101.203125 361.75626 101.359375Q361.1625 101.5 360.38126 101.5L357.27188 101.5ZM358.4125 100.484375L360.24063 100.484375Q361.1 100.484375 361.58438 100.328125Q362.06876 100.171875 362.35 99.875Q362.75626 99.484375 362.975 98.796875Q363.20938 98.109375 363.20938 97.140625Q363.20938 95.796875 362.75626 95.078125Q362.31876 94.34375 361.69376 94.09375Q361.225 93.921875 360.225 93.921875L358.4125 93.921875L358.4125 100.484375ZM365.75626 98.390625Q365.75626 96.65625 366.70938 95.828125Q367.50626 95.140625 368.6625 95.140625Q369.94376 95.140625 370.75626 95.984375Q371.58438 96.8125 371.58438 98.296875Q371.58438 99.5 371.225 100.1875Q370.86563 100.875 370.1625 101.265625Q369.475 101.640625 368.6625 101.640625Q367.36563 101.640625 366.55313 100.8125Q365.75626 99.96875 365.75626 98.390625ZM366.83438 98.390625Q366.83438 99.578125 367.35 100.171875Q367.88126 100.765625 368.6625 100.765625Q369.45938 100.765625 369.975 100.171875Q370.49063 99.578125 370.49063 98.359375Q370.49063 97.203125 369.95938 96.609375Q369.44376 96.015625 368.6625 96.015625Q367.88126 96.015625 367.35 96.609375Q366.83438 97.1875 366.83438 98.390625ZM374.2875 101.5L372.38126 95.28125L373.475 95.28125L374.45938 98.875L374.83438 100.203125Q374.86563 100.109375 375.1625 98.921875L376.14688 95.28125L377.225 95.28125L378.1625 98.890625L378.475 100.078125L378.83438 98.875L379.89688 95.28125L380.92813 95.28125L378.975 101.5L377.88126 101.5L376.89688 97.765625L376.64688 96.71875L375.39688 101.5L374.2875 101.5ZM382.14688 101.5L382.14688 95.28125L383.08438 95.28125L383.08438 96.15625Q383.77188 95.140625 385.06876 95.140625Q385.63126 95.140625 386.1 95.34375Q386.58438 95.546875 386.81876 95.875Q387.05313 96.203125 387.14688 96.640625Q387.19376 96.9375 387.19376 97.671875L387.19376 101.5L386.14688 101.5L386.14688 97.71875Q386.14688 97.0625 386.02188 96.75Q385.89688 96.4375 385.58438 96.25Q385.27188 96.046875 384.85 96.046875Q384.17813 96.046875 383.67813 96.484375Q383.19376 96.90625 383.19376 98.09375L383.19376 101.5L382.14688 101.5ZM388.94376 102.015625L389.975 102.171875Q390.0375 102.640625 390.33438 102.859375Q390.725 103.15625 391.39688 103.15625Q392.13126 103.15625 392.52188 102.859375Q392.92813 102.5625 393.06876 102.046875Q393.1625 101.71875 393.14688 100.6875Q392.45938 101.5 391.42813 101.5Q390.14688 101.5 389.44376 100.578125Q388.74063 99.640625 388.74063 98.359375Q388.74063 97.46875 389.05313 96.71875Q389.38126 95.953125 389.99063 95.546875Q390.6 95.140625 391.42813 95.140625Q392.5375 95.140625 393.25626 96.03125L393.25626 95.28125L394.225 95.28125L394.225 100.65625Q394.225 102.109375 393.92813 102.71875Q393.63126 103.328125 392.99063 103.671875Q392.35 104.03125 391.4125 104.03125Q390.30313 104.03125 389.61563 103.53125Q388.92813 103.03125 388.94376 102.015625ZM389.81876 98.28125Q389.81876 99.5 390.30313 100.0625Q390.7875 100.625 391.52188 100.625Q392.25626 100.625 392.74063 100.0625Q393.24063 99.5 393.24063 98.3125Q393.24063 97.171875 392.725 96.59375Q392.225 96.015625 391.50626 96.015625Q390.80313 96.015625 390.30313 96.59375Q389.81876 97.15625 389.81876 98.28125ZM396.13126 101.5L396.13126 95.28125L397.08438 95.28125L397.08438 96.21875Q397.44376 95.5625 397.74063 95.359375Q398.05313 95.140625 398.42813 95.140625Q398.95938 95.140625 399.50626 95.46875L399.14688 96.453125Q398.75626 96.21875 398.38126 96.21875Q398.02188 96.21875 397.74063 96.4375Q397.475 96.640625 397.36563 97.015625Q397.17813 97.578125 397.17813 98.234375L397.17813 101.5L396.13126 101.5ZM404.20938 100.734375Q403.61563 101.234375 403.06876 101.4375Q402.5375 101.640625 401.9125 101.640625Q400.88126 101.640625 400.33438 101.140625Q399.7875 100.640625 399.7875 99.859375Q399.7875 99.40625 399.99063 99.03125Q400.19376 98.640625 400.5375 98.421875Q400.88126 98.1875 401.30313 98.078125Q401.6 97.984375 402.24063 97.90625Q403.50626 97.765625 404.11563 97.546875Q404.11563 97.328125 404.11563 97.28125Q404.11563 96.625 403.81876 96.359375Q403.4125 96.015625 402.61563 96.015625Q401.88126 96.015625 401.52188 96.28125Q401.1625 96.53125 400.99063 97.1875L399.95938 97.046875Q400.1 96.390625 400.42813 95.984375Q400.75626 95.578125 401.36563 95.359375Q401.975 95.140625 402.77188 95.140625Q403.56876 95.140625 404.06876 95.328125Q404.56876 95.515625 404.80313 95.796875Q405.0375 96.078125 405.13126 96.515625Q405.17813 96.78125 405.17813 97.484375L405.17813 98.890625Q405.17813 100.359375 405.24063 100.75Q405.31876 101.140625 405.52188 101.5L404.4125 101.5Q404.25626 101.171875 404.20938 100.734375ZM404.11563 98.375Q403.5375 98.609375 402.39688 98.78125Q401.74063 98.875 401.475 99.0Q401.20938 99.109375 401.05313 99.328125Q400.9125 99.546875 400.9125 99.828125Q400.9125 100.25 401.225 100.53125Q401.55313 100.8125 402.1625 100.8125Q402.77188 100.8125 403.24063 100.546875Q403.725 100.28125 403.94376 99.8125Q404.11563 99.453125 404.11563 98.765625L404.11563 98.375ZM411.17813 101.5L411.17813 100.71875Q410.58438 101.640625 409.44376 101.640625Q408.69376 101.640625 408.06876 101.234375Q407.44376 100.8125 407.1 100.078125Q406.75626 99.34375 406.75626 98.390625Q406.75626 97.46875 407.06876 96.703125Q407.38126 95.9375 408.00626 95.546875Q408.63126 95.140625 409.39688 95.140625Q409.95938 95.140625 410.39688 95.375Q410.83438 95.609375 411.11563 95.984375L411.11563 92.90625L412.1625 92.90625L412.1625 101.5L411.17813 101.5ZM407.85 98.390625Q407.85 99.59375 408.35 100.1875Q408.85 100.765625 409.5375 100.765625Q410.225 100.765625 410.70938 100.203125Q411.19376 99.640625 411.19376 98.484375Q411.19376 97.203125 410.69376 96.609375Q410.20938 96.015625 409.49063 96.015625Q408.7875 96.015625 408.31876 96.59375Q407.85 97.15625 407.85 98.390625ZM418.39688 99.5L419.49063 99.625Q419.24063 100.578125 418.5375 101.109375Q417.83438 101.640625 416.75626 101.640625Q415.39688 101.640625 414.58438 100.796875Q413.7875 99.953125 413.7875 98.4375Q413.7875 96.875 414.6 96.015625Q415.4125 95.140625 416.69376 95.140625Q417.94376 95.140625 418.725 95.984375Q419.52188 96.828125 419.52188 98.375Q419.52188 98.46875 419.52188 98.65625L414.88126 98.65625Q414.94376 99.6875 415.45938 100.234375Q415.975 100.765625 416.75626 100.765625Q417.33438 100.765625 417.74063 100.46875Q418.1625 100.15625 418.39688 99.5ZM414.94376 97.796875L418.4125 97.796875Q418.35 97.0 418.02188 96.609375Q417.50626 96.0 416.70938 96.0Q415.975 96.0 415.475 96.484375Q414.99063 96.96875 414.94376 97.796875Z" fill-rule="nonzero"/><path fill="#ff9900" d="M348.35 121.5C348.35 124.813705 345.6637 127.5 342.35 127.5C339.0363 127.5 336.35 124.813705 336.35 121.5C336.35 118.186295 339.0363 115.5 342.35 115.5C345.6637 115.5 348.35 118.186295 348.35 121.5Z" fill-rule="nonzero"/><path fill="#1a1a1a" d="M356.92813 121.3125Q356.92813 119.171875 358.06876 117.96875Q359.225 116.75 361.0375 116.75Q362.24063 116.75 363.19376 117.328125Q364.14688 117.890625 364.64688 118.90625Q365.14688 119.921875 365.14688 121.21875Q365.14688 122.515625 364.61563 123.546875Q364.08438 124.578125 363.11563 125.109375Q362.1625 125.640625 361.0375 125.640625Q359.81876 125.640625 358.86563 125.0625Q357.9125 124.46875 357.4125 123.46875Q356.92813 122.453125 356.92813 121.3125ZM358.1 121.328125Q358.1 122.890625 358.92813 123.78125Q359.77188 124.671875 361.0375 124.671875Q362.31876 124.671875 363.14688 123.78125Q363.975 122.875 363.975 121.203125Q363.975 120.15625 363.61563 119.375Q363.27188 118.59375 362.58438 118.171875Q361.89688 117.734375 361.05313 117.734375Q359.85 117.734375 358.975 118.5625Q358.1 119.390625 358.1 121.328125ZM368.44376 124.5625L368.6 125.484375Q368.14688 125.578125 367.80313 125.578125Q367.225 125.578125 366.9125 125.40625Q366.6 125.21875 366.45938 124.921875Q366.33438 124.625 366.33438 123.671875L366.33438 120.09375L365.56876 120.09375L365.56876 119.28125L366.33438 119.28125L366.33438 117.734375L367.38126 117.109375L367.38126 119.28125L368.44376 119.28125L368.44376 120.09375L367.38126 120.09375L367.38126 123.734375Q367.38126 124.1875 367.42813 124.3125Q367.49063 124.4375 367.61563 124.515625Q367.74063 124.59375 367.975 124.59375Q368.1625 124.59375 368.44376 124.5625ZM369.14688 125.5L369.14688 116.90625L370.19376 116.90625L370.19376 119.984375Q370.92813 119.140625 372.05313 119.140625Q372.75626 119.140625 373.25626 119.421875Q373.77188 119.6875 373.99063 120.171875Q374.20938 120.640625 374.20938 121.5625L374.20938 125.5L373.1625 125.5L373.1625 121.5625Q373.1625 120.765625 372.81876 120.40625Q372.475 120.046875 371.85 120.046875Q371.38126 120.046875 370.95938 120.296875Q370.55313 120.53125 370.36563 120.953125Q370.19376 121.359375 370.19376 122.09375L370.19376 125.5L369.14688 125.5ZM380.39688 123.5L381.49063 123.625Q381.24063 124.578125 380.5375 125.109375Q379.83438 125.640625 378.75626 125.640625Q377.39688 125.640625 376.58438 124.796875Q375.7875 123.953125 375.7875 122.4375Q375.7875 120.875 376.6 120.015625Q377.4125 119.140625 378.69376 119.140625Q379.94376 119.140625 380.725 119.984375Q381.52188 120.828125 381.52188 122.375Q381.52188 122.46875 381.52188 122.65625L376.88126 122.65625Q376.94376 123.6875 377.45938 124.234375Q377.975 124.765625 378.75626 124.765625Q379.33438 124.765625 379.74063 124.46875Q380.1625 124.15625 380.39688 123.5ZM376.94376 121.796875L380.4125 121.796875Q380.35 121.0 380.02188 120.609375Q379.50626 120.0 378.70938 120.0Q377.975 120.0 377.475 120.484375Q376.99063 120.96875 376.94376 121.796875ZM383.13126 125.5L383.13126 119.28125L384.08438 119.28125L384.08438 120.21875Q384.44376 119.5625 384.74063 119.359375Q385.05313 119.140625 385.42813 119.140625Q385.95938 119.140625 386.50626 119.46875L386.14688 120.453125Q385.75626 120.21875 385.38126 120.21875Q385.02188 120.21875 384.74063 120.4375Q384.475 120.640625 384.36563 121.015625Q384.17813 121.578125 384.17813 122.234375L384.17813 125.5L383.13126 125.5Z" fill-rule="nonzero"/><path fill="#34a853" d="M348.35 145.5C348.35 148.8137 345.6637 151.5 342.35 151.5C339.0363 151.5 336.35 148.8137 336.35 145.5C336.35 142.1863 339.0363 139.5 342.35 139.5C345.6637 139.5 348.35 142.1863 348.35 145.5Z" fill-rule="nonzero"/><path fill="#1a1a1a" d="M357.27188 149.5L357.27188 140.90625L360.24063 140.90625Q361.24063 140.90625 361.77188 141.03125Q362.50626 141.20312 363.02188 141.64062Q363.70938 142.21875 364.0375 143.125Q364.38126 144.01562 364.38126 145.15625Q364.38126 146.14062 364.14688 146.89062Q363.92813 147.64062 363.56876 148.14062Q363.20938 148.64062 362.77188 148.92188Q362.35 149.20312 361.75626 149.35938Q361.1625 149.5 360.38126 149.5L357.27188 149.5ZM358.4125 148.48438L360.24063 148.48438Q361.1 148.48438 361.58438 148.32812Q362.06876 148.17188 362.35 147.875Q362.75626 147.48438 362.975 146.79688Q363.20938 146.10938 363.20938 145.14062Q363.20938 143.79688 362.75626 143.07812Q362.31876 142.34375 361.69376 142.09375Q361.225 141.92188 360.225 141.92188L358.4125 141.92188L358.4125 148.48438ZM370.225 149.5L370.225 148.57812Q369.49063 149.64062 368.24063 149.64062Q367.69376 149.64062 367.20938 149.4375Q366.74063 149.21875 366.50626 148.90625Q366.27188 148.57812 366.17813 148.10938Q366.11563 147.8125 366.11563 147.125L366.11563 143.28125L367.17813 143.28125L367.17813 146.73438Q367.17813 147.54688 367.24063 147.84375Q367.33438 148.25 367.64688 148.5Q367.975 148.73438 368.45938 148.73438Q368.92813 148.73438 369.33438 148.5Q369.75626 148.25 369.92813 147.82812Q370.11563 147.40625 370.11563 146.60938L370.11563 143.28125L371.1625 143.28125L371.1625 149.5L370.225 149.5ZM373.14688 151.89062L373.14688 143.28125L374.1 143.28125L374.1 144.07812Q374.44376 143.60938 374.86563 143.375Q375.30313 143.14062 375.9125 143.14062Q376.70938 143.14062 377.31876 143.54688Q377.92813 143.95312 378.225 144.70312Q378.5375 145.45312 378.5375 146.34375Q378.5375 147.29688 378.19376 148.0625Q377.86563 148.82812 377.20938 149.23438Q376.55313 149.64062 375.83438 149.64062Q375.30313 149.64062 374.88126 149.42188Q374.45938 149.1875 374.19376 148.85938L374.19376 151.89062L373.14688 151.89062ZM374.1 146.42188Q374.1 147.625 374.58438 148.20312Q375.06876 148.76562 375.75626 148.76562Q376.45938 148.76562 376.95938 148.17188Q377.45938 147.57812 377.45938 146.32812Q377.45938 145.14062 376.975 144.5625Q376.49063 143.96875 375.80313 143.96875Q375.13126 143.96875 374.61563 144.59375Q374.1 145.21875 374.1 146.42188ZM380.11563 149.5L380.11563 140.90625L381.17813 140.90625L381.17813 149.5L380.11563 149.5ZM383.14688 142.125L383.14688 140.90625L384.20938 140.90625L384.20938 142.125L383.14688 142.125ZM383.14688 149.5L383.14688 143.28125L384.20938 143.28125L384.20938 149.5L383.14688 149.5ZM390.20938 147.21875L391.24063 147.35938Q391.06876 148.42188 390.36563 149.03125Q389.6625 149.64062 388.64688 149.64062Q387.36563 149.64062 386.58438 148.8125Q385.81876 147.96875 385.81876 146.40625Q385.81876 145.40625 386.14688 144.65625Q386.49063 143.89062 387.1625 143.51562Q387.85 143.14062 388.6625 143.14062Q389.6625 143.14062 390.30313 143.65625Q390.95938 144.15625 391.14688 145.10938L390.11563 145.26562Q389.975 144.64062 389.6 144.32812Q389.225 144.0 388.69376 144.0Q387.89688 144.0 387.39688 144.57812Q386.89688 145.14062 386.89688 146.375Q386.89688 147.64062 387.38126 148.20312Q387.86563 148.76562 388.63126 148.76562Q389.25626 148.76562 389.6625 148.39062Q390.08438 148.01562 390.20938 147.21875ZM396.20938 148.73438Q395.61563 149.23438 395.06876 149.4375Q394.5375 149.64062 393.9125 149.64062Q392.88126 149.64062 392.33438 149.14062Q391.7875 148.64062 391.7875 147.85938Q391.7875 147.40625 391.99063 147.03125Q392.19376 146.64062 392.5375 146.42188Q392.88126 146.1875 393.30313 146.07812Q393.6 145.98438 394.24063 145.90625Q395.50626 145.76562 396.11563 145.54688Q396.11563 145.32812 396.11563 145.28125Q396.11563 144.625 395.81876 144.35938Q395.4125 144.01562 394.61563 144.01562Q393.88126 144.01562 393.52188 144.28125Q393.1625 144.53125 392.99063 145.1875L391.95938 145.04688Q392.1 144.39062 392.42813 143.98438Q392.75626 143.57812 393.36563 143.35938Q393.975 143.14062 394.77188 143.14062Q395.56876 143.14062 396.06876 143.32812Q396.56876 143.51562 396.80313 143.79688Q397.0375 144.07812 397.13126 144.51562Q397.17813 144.78125 397.17813 145.48438L397.17813 146.89062Q397.17813 148.35938 397.24063 148.75Q397.31876 149.14062 397.52188 149.5L396.4125 149.5Q396.25626 149.17188 396.20938 148.73438ZM396.11563 146.375Q395.5375 146.60938 394.39688 146.78125Q393.74063 146.875 393.475 147.0Q393.20938 147.10938 393.05313 147.32812Q392.9125 147.54688 392.9125 147.82812Q392.9125 148.25 393.225 148.53125Q393.55313 148.8125 394.1625 148.8125Q394.77188 148.8125 395.24063 148.54688Q395.725 148.28125 395.94376 147.8125Q396.11563 147.45312 396.11563 146.76562L396.11563 146.375ZM401.44376 148.5625L401.6 149.48438Q401.14688 149.57812 400.80313 149.57812Q400.225 149.57812 399.9125 149.40625Q399.6 149.21875 399.45938 148.92188Q399.33438 148.625 399.33438 147.67188L399.33438 144.09375L398.56876 144.09375L398.56876 143.28125L399.33438 143.28125L399.33438 141.73438L400.38126 141.10938L400.38126 143.28125L401.44376 143.28125L401.44376 144.09375L400.38126 144.09375L400.38126 147.73438Q400.38126 148.1875 400.42813 148.3125Q400.49063 148.4375 400.61563 148.51562Q400.74063 148.59375 400.975 148.59375Q401.1625 148.59375 401.44376 148.5625ZM406.39688 147.5L407.49063 147.625Q407.24063 148.57812 406.5375 149.10938Q405.83438 149.64062 404.75626 149.64062Q403.39688 149.64062 402.58438 148.79688Q401.7875 147.95312 401.7875 146.4375Q401.7875 144.875 402.6 144.01562Q403.4125 143.14062 404.69376 143.14062Q405.94376 143.14062 406.725 143.98438Q407.52188 144.82812 407.52188 146.375Q407.52188 146.46875 407.52188 146.65625L402.88126 146.65625Q402.94376 147.6875 403.45938 148.23438Q403.975 148.76562 404.75626 148.76562Q405.33438 148.76562 405.74063 148.46875Q406.1625 148.15625 406.39688 147.5ZM402.94376 145.79688L406.4125 145.79688Q406.35 145.0 406.02188 144.60938Q405.50626 144.0 404.70938 144.0Q403.975 144.0 403.475 144.48438Q402.99063 144.96875 402.94376 145.79688Z" fill-rule="nonzero"/><path fill="#999999" d="M14.80625 54.4L14.80625 44.384377L21.55625 44.384377L21.55625 45.55625L16.11875 45.55625L16.11875 48.665627L20.821875 48.665627L20.821875 49.853127L16.11875 49.853127L16.11875 54.4L14.80625 54.4ZM23.55625 54.4L23.55625 47.134377L24.665625 47.134377L24.665625 48.24375Q25.0875 47.4625 25.446875 47.228127Q25.80625 46.978127 26.24375 46.978127Q26.86875 46.978127 27.509375 47.36875L27.0875 48.509377Q26.634375 48.24375 26.18125 48.24375Q25.775 48.24375 25.446875 48.49375Q25.134375 48.728127 24.99375 49.165627Q24.790625 49.821877 24.790625 50.603127L24.790625 54.4L23.55625 54.4ZM28.11875 50.775Q28.11875 48.759377 29.24375 47.775Q30.165625 46.978127 31.525 46.978127Q33.009377 46.978127 33.9625 47.9625Q34.915627 48.93125 34.915627 50.665627Q34.915627 52.071877 34.49375 52.884377Q34.071877 53.68125 33.259377 54.134377Q32.4625 54.571877 31.525 54.571877Q29.99375 54.571877 29.05625 53.5875Q28.11875 52.603127 28.11875 50.775ZM29.384375 50.775Q29.384375 52.165627 29.99375 52.86875Q30.603125 53.55625 31.525 53.55625Q32.43125 53.55625 33.040627 52.853127Q33.65 52.15 33.65 50.728127Q33.65 49.384377 33.040627 48.696877Q32.43125 47.99375 31.525 47.99375Q30.603125 47.99375 29.99375 48.68125Q29.384375 49.36875 29.384375 50.775ZM36.571877 54.4L36.571877 47.134377L37.68125 47.134377L37.68125 48.165627Q38.009377 47.61875 38.571877 47.30625Q39.15 46.978127 39.86875 46.978127Q40.68125 46.978127 41.196877 47.321877Q41.7125 47.65 41.93125 48.24375Q42.790627 46.978127 44.165627 46.978127Q45.24375 46.978127 45.821877 47.571877Q46.415627 48.165627 46.415627 49.415627L46.415627 54.4L45.18125 54.4L45.18125 49.821877Q45.18125 49.0875 45.05625 48.759377Q44.946877 48.43125 44.634377 48.24375Q44.321877 48.040627 43.9 48.040627Q43.134377 48.040627 42.61875 48.55625Q42.11875 49.05625 42.11875 50.18125L42.11875 54.4L40.884377 54.4L40.884377 49.68125Q40.884377 48.86875 40.5875 48.4625Q40.290627 48.040627 39.603127 48.040627Q39.0875 48.040627 38.634377 48.321877Q38.196877 48.5875 37.99375 49.11875Q37.80625 49.634377 37.80625 50.634377L37.80625 54.4L36.571877 54.4ZM51.228127 51.775L52.525 51.665627Q52.665627 52.603127 53.18125 53.0875Q53.7125 53.55625 54.446877 53.55625Q55.3375 53.55625 55.946877 52.884377Q56.571877 52.2125 56.571877 51.11875Q56.571877 50.05625 55.978127 49.446877Q55.384377 48.8375 54.43125 48.8375Q53.8375 48.8375 53.353127 49.11875Q52.884377 49.384377 52.603127 49.80625L51.446877 49.665627L52.415627 44.509377L57.4 44.509377L57.4 45.696877L53.4 45.696877L52.86875 48.384377Q53.775 47.759377 54.759377 47.759377Q56.071877 47.759377 56.9625 48.665627Q57.86875 49.571877 57.86875 51.009377Q57.86875 52.36875 57.0875 53.353127Q56.11875 54.571877 54.446877 54.571877Q53.0875 54.571877 52.2125 53.80625Q51.353127 53.040627 51.228127 51.775ZM59.228127 49.4625Q59.228127 47.68125 59.5875 46.603127Q59.9625 45.509377 60.68125 44.93125Q61.4 44.3375 62.49375 44.3375Q63.30625 44.3375 63.915627 44.665627Q64.525 44.99375 64.91563 45.603127Q65.32188 46.2125 65.54063 47.0875Q65.75938 47.9625 65.75938 49.4625Q65.75938 51.228127 65.4 52.30625Q65.04063 53.384377 64.32188 53.978127Q63.603127 54.571877 62.49375 54.571877Q61.05625 54.571877 60.228127 53.525Q59.228127 52.275 59.228127 49.4625ZM60.49375 49.4625Q60.49375 51.93125 61.071877 52.74375Q61.65 53.55625 62.49375 53.55625Q63.353127 53.55625 63.93125 52.74375Q64.50938 51.915627 64.50938 49.4625Q64.50938 46.978127 63.93125 46.165627Q63.353127 45.353127 62.478127 45.353127Q61.634377 45.353127 61.134377 46.071877Q60.49375 46.99375 60.49375 49.4625ZM67.22813 49.4625Q67.22813 47.68125 67.5875 46.603127Q67.9625 45.509377 68.68125 44.93125Q69.4 44.3375 70.49375 44.3375Q71.30625 44.3375 71.91563 44.665627Q72.525 44.99375 72.91563 45.603127Q73.32188 46.2125 73.54063 47.0875Q73.75938 47.9625 73.75938 49.4625Q73.75938 51.228127 73.4 52.30625Q73.04063 53.384377 72.32188 53.978127Q71.60313 54.571877 70.49375 54.571877Q69.05625 54.571877 68.22813 53.525Q67.22813 52.275 67.22813 49.4625ZM68.49375 49.4625Q68.49375 51.93125 69.07188 52.74375Q69.65 53.55625 70.49375 53.55625Q71.35313 53.55625 71.93125 52.74375Q72.50938 51.915627 72.50938 49.4625Q72.50938 46.978127 71.93125 46.165627Q71.35313 45.353127 70.47813 45.353127Q69.63438 45.353127 69.13438 46.071877Q68.49375 46.99375 68.49375 49.4625ZM86.88438 50.884377L88.2125 51.228127Q87.79063 52.853127 86.69688 53.7125Q85.61875 54.571877 84.05625 54.571877Q82.43125 54.571877 81.41563 53.915627Q80.4 53.24375 79.86875 51.99375Q79.35313 50.74375 79.35313 49.30625Q79.35313 47.74375 79.94688 46.5875Q80.54063 45.415627 81.65 44.821877Q82.75938 44.2125 84.07188 44.2125Q85.5875 44.2125 86.60313 44.978127Q87.63438 45.74375 88.04063 47.11875L86.72813 47.43125Q86.38438 46.3375 85.7125 45.8375Q85.05625 45.3375 84.05625 45.3375Q82.9 45.3375 82.11875 45.9Q81.3375 46.446877 81.025 47.384377Q80.7125 48.321877 80.7125 49.30625Q80.7125 50.5875 81.0875 51.540627Q81.4625 52.49375 82.24375 52.9625Q83.025 53.43125 83.94688 53.43125Q85.05625 53.43125 85.82188 52.790627Q86.60313 52.15 86.88438 50.884377ZM89.57188 54.4L89.57188 44.384377L90.80625 44.384377L90.80625 47.978127Q91.66563 46.978127 92.97813 46.978127Q93.79063 46.978127 94.38438 47.30625Q94.97813 47.61875 95.22813 48.18125Q95.49375 48.728127 95.49375 49.80625L95.49375 54.4L94.25938 54.4L94.25938 49.80625Q94.25938 48.86875 93.85313 48.4625Q93.4625 48.040627 92.72813 48.040627Q92.18125 48.040627 91.69688 48.321877Q91.2125 48.603127 91.00938 49.0875Q90.80625 49.571877 90.80625 50.43125L90.80625 54.4L89.57188 54.4ZM102.30625 53.509377Q101.63438 54.0875 100.99375 54.3375Q100.36875 54.571877 99.63438 54.571877Q98.44688 54.571877 97.79063 53.99375Q97.15 53.4 97.15 52.478127Q97.15 51.946877 97.38438 51.509377Q97.63438 51.071877 98.025 50.80625Q98.43125 50.540627 98.91563 50.4Q99.275 50.30625 100.00938 50.2125Q101.50938 50.040627 102.2125 49.790627Q102.2125 49.540627 102.2125 49.478127Q102.2125 48.7125 101.86875 48.415627Q101.4 47.99375 100.4625 47.99375Q99.60313 47.99375 99.18125 48.30625Q98.775 48.603127 98.57188 49.36875L97.36875 49.2125Q97.525 48.43125 97.9 47.9625Q98.29063 47.49375 98.99375 47.24375Q99.7125 46.978127 100.65 46.978127Q101.57188 46.978127 102.15 47.196877Q102.72813 47.415627 102.99375 47.74375Q103.275 48.071877 103.38438 48.5875Q103.44688 48.9 103.44688 49.7125L103.44688 51.353127Q103.44688 53.071877 103.525 53.525Q103.60313 53.978127 103.8375 54.4L102.55625 54.4Q102.36875 54.009377 102.30625 53.509377ZM102.2125 50.759377Q101.54063 51.025 100.19688 51.228127Q99.44688 51.3375 99.11875 51.478127Q98.80625 51.603127 98.63438 51.86875Q98.4625 52.134377 98.4625 52.446877Q98.4625 52.946877 98.8375 53.275Q99.2125 53.603127 99.93125 53.603127Q100.65 53.603127 101.19688 53.290627Q101.74375 52.978127 102.00938 52.43125Q102.2125 52.025 102.2125 51.2125L102.2125 50.759377ZM108.25938 53.30625L108.43125 54.384377Q107.91563 54.49375 107.50938 54.49375Q106.8375 54.49375 106.4625 54.290627Q106.10313 54.071877 105.94688 53.728127Q105.80625 53.384377 105.80625 52.275L105.80625 48.103127L104.9 48.103127L104.9 47.134377L105.80625 47.134377L105.80625 45.3375L107.025 44.603127L107.025 47.134377L108.25938 47.134377L108.25938 48.103127L107.025 48.103127L107.025 52.3375Q107.025 52.86875 107.0875 53.025Q107.15 53.165627 107.29063 53.259377Q107.44688 53.353127 107.7125 53.353127Q107.93125 53.353127 108.25938 53.30625ZM109.0875 52.228127L110.29063 52.040627Q110.4 52.775 110.86875 53.165627Q111.3375 53.55625 112.18125 53.55625Q113.025 53.55625 113.43125 53.2125Q113.85313 52.86875 113.85313 52.4Q113.85313 51.978127 113.47813 51.74375Q113.22813 51.571877 112.22813 51.321877Q110.86875 50.978127 110.3375 50.728127Q109.82188 50.478127 109.55625 50.040627Q109.29063 49.603127 109.29063 49.071877Q109.29063 48.5875 109.50938 48.18125Q109.72813 47.759377 110.11875 47.478127Q110.4 47.275 110.88438 47.134377Q111.38438 46.978127 111.9625 46.978127Q112.80625 46.978127 113.44688 47.228127Q114.10313 47.4625 114.41563 47.884377Q114.72813 48.30625 114.8375 49.009377L113.63438 49.18125Q113.55625 48.61875 113.15 48.30625Q112.75938 47.99375 112.04063 47.99375Q111.19688 47.99375 110.8375 48.275Q110.47813 48.540627 110.47813 48.93125Q110.47813 49.165627 110.61875 49.353127Q110.775 49.55625 111.10313 49.68125Q111.275 49.74375 112.18125 49.99375Q113.49375 50.353127 114.00938 50.571877Q114.525 50.790627 114.80625 51.2125Q115.10313 51.634377 115.10313 52.259377Q115.10313 52.884377 114.74375 53.43125Q114.4 53.9625 113.7125 54.275Q113.04063 54.571877 112.18125 54.571877Q110.775 54.571877 110.025 53.978127Q109.29063 53.384377 109.0875 52.228127Z" fill-rule="nonzero"/><path fill="#757575" d="M23.196875 25.915625L25.728125 26.7125Q25.15 28.821875 23.790625 29.853125Q22.446875 30.86875 20.36875 30.86875Q17.80625 30.86875 16.15 29.11875Q14.509375 27.36875 14.509375 24.321875Q14.509375 21.103125 16.165625 19.321875Q17.821875 17.540625 20.525 17.540625Q22.9 17.540625 24.36875 18.946875Q25.259375 19.775 25.696875 21.321875L23.11875 21.93125Q22.884375 20.93125 22.15 20.353125Q21.43125 19.775 20.4 19.775Q18.9625 19.775 18.071875 20.80625Q17.18125 21.821875 17.18125 24.134375Q17.18125 26.571875 18.05625 27.61875Q18.946875 28.65 20.353125 28.65Q21.384375 28.65 22.134375 27.99375Q22.884375 27.321875 23.196875 25.915625ZM30.4 17.759375L30.4 22.509375Q31.603125 21.103125 33.259377 21.103125Q34.11875 21.103125 34.790627 21.43125Q35.478127 21.74375 35.821877 22.24375Q36.18125 22.728125 36.30625 23.321875Q36.43125 23.915625 36.43125 25.18125L36.43125 30.65L33.9625 30.65L33.9625 25.7125Q33.9625 24.24375 33.821877 23.853125Q33.68125 23.4625 33.321877 23.228125Q32.9625 22.99375 32.43125 22.99375Q31.821875 22.99375 31.3375 23.290625Q30.853125 23.5875 30.61875 24.196875Q30.4 24.790625 30.4 25.978125L30.4 30.65L27.93125 30.65L27.93125 17.759375L30.4 17.759375ZM40.790627 24.165625L38.540627 23.759375Q38.93125 22.4 39.853127 21.759375Q40.775 21.103125 42.5875 21.103125Q44.24375 21.103125 45.040627 21.49375Q45.853127 21.884375 46.18125 22.49375Q46.525 23.0875 46.525 24.696875L46.49375 27.5875Q46.49375 28.80625 46.603127 29.4Q46.728127 29.978125 47.05625 30.65L44.61875 30.65Q44.509377 30.4 44.36875 29.915625Q44.30625 29.696875 44.290627 29.634375Q43.65 30.24375 42.93125 30.55625Q42.2125 30.86875 41.4 30.86875Q39.946877 30.86875 39.11875 30.0875Q38.290627 29.290625 38.290627 28.103125Q38.290627 27.30625 38.665627 26.696875Q39.040627 26.071875 39.728127 25.74375Q40.415627 25.415625 41.696877 25.165625Q43.43125 24.8375 44.0875 24.55625L44.0875 24.30625Q44.0875 23.603125 43.728127 23.30625Q43.384377 22.99375 42.415627 22.99375Q41.759377 22.99375 41.384377 23.259375Q41.009377 23.509375 40.790627 24.165625ZM44.0875 26.165625Q43.61875 26.321875 42.5875 26.540625Q41.55625 26.759375 41.24375 26.978125Q40.759377 27.321875 40.759377 27.853125Q40.759377 28.36875 41.15 28.74375Q41.540627 29.11875 42.134377 29.11875Q42.80625 29.11875 43.4 28.68125Q43.853127 28.353125 43.99375 27.86875Q44.0875 27.540625 44.0875 26.665625L44.0875 26.165625ZM53.228127 21.321875L53.228127 23.290625L51.540627 23.290625L51.540627 27.040625Q51.540627 28.18125 51.5875 28.384375Q51.634377 28.571875 51.80625 28.696875Q51.978127 28.80625 52.228127 28.80625Q52.55625 28.80625 53.2125 28.571875L53.43125 30.49375Q52.55625 30.86875 51.478127 30.86875Q50.80625 30.86875 50.259377 30.65Q49.728127 30.415625 49.478127 30.05625Q49.228127 29.696875 49.134377 29.0875Q49.05625 28.665625 49.05625 27.353125L49.05625 23.290625L47.915627 23.290625L47.915627 21.321875L49.05625 21.321875L49.05625 19.4625L51.540627 18.025L51.540627 21.321875L53.228127 21.321875ZM62.853127 30.65L62.853127 19.946875L59.040627 19.946875L59.040627 17.759375L69.275 17.759375L69.275 19.946875L65.4625 19.946875L65.4625 30.65L62.853127 30.65ZM69.775 21.321875L72.4 21.321875L74.63438 27.946875L76.80625 21.321875L79.36875 21.321875L76.07188 30.290625L75.49375 31.93125Q75.16563 32.74375 74.86875 33.165627Q74.57188 33.603127 74.18125 33.86875Q73.80625 34.134377 73.24375 34.275Q72.69688 34.43125 71.99375 34.43125Q71.275 34.43125 70.5875 34.290627L70.36875 32.353127Q70.94688 32.4625 71.41563 32.4625Q72.275 32.4625 72.68125 31.9625Q73.10313 31.4625 73.32188 30.68125L69.775 21.321875ZM81.86875 21.321875L84.18125 21.321875L84.18125 22.68125Q84.61875 21.978125 85.38438 21.540625Q86.15 21.103125 87.0875 21.103125Q88.7125 21.103125 89.8375 22.384375Q90.97813 23.65 90.97813 25.93125Q90.97813 28.275 89.8375 29.571875Q88.69688 30.86875 87.07188 30.86875Q86.29063 30.86875 85.66563 30.55625Q85.04063 30.24375 84.3375 29.49375L84.3375 34.196877L81.86875 34.196877L81.86875 21.321875ZM84.32188 25.821875Q84.32188 27.4 84.93125 28.15Q85.55625 28.9 86.4625 28.9Q87.32188 28.9 87.88438 28.2125Q88.4625 27.525 88.4625 25.946875Q88.4625 24.478125 87.86875 23.775Q87.29063 23.05625 86.41563 23.05625Q85.50938 23.05625 84.91563 23.759375Q84.32188 24.446875 84.32188 25.821875ZM98.35313 27.68125L100.80625 28.0875Q100.3375 29.446875 99.30625 30.165625Q98.29063 30.86875 96.74375 30.86875Q94.30625 30.86875 93.15 29.275Q92.22813 27.99375 92.22813 26.05625Q92.22813 23.728125 93.43125 22.415625Q94.65 21.103125 96.50938 21.103125Q98.5875 21.103125 99.79063 22.478125Q100.99375 23.853125 100.94688 26.696875L94.75938 26.696875Q94.775 27.790625 95.3375 28.4Q95.91563 29.009375 96.775 29.009375Q97.35313 29.009375 97.74375 28.696875Q98.15 28.384375 98.35313 27.68125ZM98.49375 25.18125Q98.4625 24.103125 97.93125 23.55625Q97.4 22.99375 96.65 22.99375Q95.8375 22.99375 95.32188 23.5875Q94.79063 24.165625 94.79063 25.18125L98.49375 25.18125Z" fill-rule="nonzero"/></svg>