<svg version="1.1" viewBox="0.0 0.0 439.0 273.0" fill="none" stroke="none" stroke-linecap="square" stroke-miterlimit="10" width="439" height="273" xmlns:xlink="http://www.w3.org/1999/xlink" xmlns="http://www.w3.org/2000/svg"><path fill="#ffffff" d="M0 0L439.0 0L439.0 273.0L0 273.0L0 0Z" fill-rule="nonzero"/><path fill="#4285f4" d="M162.57167 66.5C193.90251 66.5 223.2801 81.722244 241.34799 107.3186L162.57167 162.925Z" fill-rule="nonzero"/><path fill="#34a853" d="M124.15584 74.4829C136.27867 69.21721 149.35461 66.5 162.57167 66.5L162.57167 162.925Z" fill-rule="nonzero"/><path fill="#ff9900" d="M101.71901 237.72296C75.6037 216.47658 62.460552 183.14784 67.04478 149.79514C71.629 116.44243 93.27676 87.895584 124.15584 74.4829L162.57167 162.925Z" fill-rule="nonzero"/><path fill="#ea4335" d="M241.34799 107.3186C269.13263 146.68048 263.5988 200.51022 228.38686 233.39586C193.17493 266.2815 139.09305 268.129 101.71901 237.72296L162.57167 162.925Z" fill-rule="nonzero"/><path fill="#ffffff" d="M193.4573 93.16215L193.4573 91.97465L199.9573 91.97465L199.9573 92.92777Q198.98856 93.9434 198.05106 95.6309Q197.11356 97.3184 196.59793 99.11527Q196.23856 100.36527 196.12918 101.86527L194.86356 101.86527Q194.87918 100.67777 195.31668 99.0059Q195.7698 97.33402 196.59793 95.78715Q197.44168 94.22465 198.37918 93.16215L193.4573 93.16215Z" fill-rule="nonzero"/><path fill="#ffffff" d="M210.41121 218.98169L210.41121 220.16919L203.78621 220.16919Q203.77058 219.73169 203.92683 219.30981Q204.19246 218.63794 204.73933 217.98169Q205.30183 217.32544 206.34871 216.46606Q207.98933 215.12231 208.55183 214.34106Q209.12996 213.55981 209.12996 212.85669Q209.12996 212.12231 208.59871 211.62231Q208.08308 211.12231 207.25496 211.12231Q206.36433 211.12231 205.81746 211.65356Q205.28621 212.18481 205.28621 213.13794L204.02058 212.99731Q204.14558 211.59106 204.98933 210.85669Q205.84871 210.10669 207.27058 210.10669Q208.72371 210.10669 209.55183 210.90356Q210.39558 211.70044 210.39558 212.88794Q210.39558 213.49731 210.14558 214.07544Q209.91121 214.65356 209.33308 215.29419Q208.77058 215.93481 207.44246 217.05981Q206.33308 217.98169 206.02058 218.32544Q205.70808 218.65356 205.50496 218.98169L210.41121 218.98169ZM216.58308 220.16919L215.34871 220.16919L215.34871 212.32544Q214.91121 212.74731 214.17683 213.18481Q213.45808 213.60669 212.89558 213.80981L212.89558 212.62231Q213.92683 212.13794 214.69246 211.45044Q215.47371 210.76294 215.78621 210.10669L216.58308 210.10669L216.58308 220.16919Z" fill-rule="nonzero"/><path fill="#ffffff" d="M85.13364 157.66367L83.89926 157.66367L83.89926 149.81992Q83.46176 150.24179 82.72739 150.67929Q82.00864 151.10117 81.44614 151.30429L81.44614 150.11679Q82.47739 149.63242 83.24301 148.94492Q84.02426 148.25742 84.33676 147.60117L85.13364 147.60117L85.13364 157.66367ZM88.49301 155.03867L89.78989 154.92929Q89.93051 155.86679 90.44614 156.35117Q90.97739 156.81992 91.71176 156.81992Q92.60239 156.81992 93.21176 156.14804Q93.83676 155.47617 93.83676 154.38242Q93.83676 153.31992 93.24301 152.71054Q92.64926 152.10117 91.69614 152.10117Q91.10239 152.10117 90.61801 152.38242Q90.14926 152.64804 89.86801 153.06992L88.71176 152.92929L89.68051 147.77304L94.66489 147.77304L94.66489 148.96054L90.66489 148.96054L90.13364 151.64804Q91.03989 151.02304 92.02426 151.02304Q93.33676 151.02304 94.22739 151.92929Q95.13364 152.83554 95.13364 154.27304Q95.13364 155.63242 94.35239 156.61679Q93.38364 157.83554 91.71176 157.83554Q90.35239 157.83554 89.47739 157.06992Q88.61801 156.30429 88.49301 155.03867Z" fill-rule="nonzero"/><path fill="#ffffff" d="M143.7272 90.99161L144.94595 90.81973Q145.1647 91.86661 145.6647 92.33536Q146.18033 92.78848 146.9147 92.78848Q147.7897 92.78848 148.38345 92.19473Q148.9772 91.58536 148.9772 90.69473Q148.9772 89.85098 148.4147 89.30411Q147.86783 88.75723 147.02408 88.75723Q146.6647 88.75723 146.14908 88.88223L146.2897 87.80411Q146.4147 87.81973 146.4772 87.81973Q147.27408 87.81973 147.89908 87.41348Q148.52408 87.00723 148.52408 86.14786Q148.52408 85.47598 148.07095 85.03848Q147.61783 84.58536 146.88345 84.58536Q146.1647 84.58536 145.68033 85.03848Q145.21158 85.47598 145.07095 86.38223L143.8522 86.16348Q144.07095 84.92911 144.86783 84.25723Q145.6647 83.56973 146.8522 83.56973Q147.68033 83.56973 148.36783 83.92911Q149.05533 84.27286 149.4147 84.88223Q149.7897 85.49161 149.7897 86.17911Q149.7897 86.81973 149.44595 87.35098Q149.1022 87.88223 148.4147 88.21036Q149.30533 88.41348 149.7897 89.05411Q150.2897 89.69473 150.2897 90.67911Q150.2897 91.99161 149.32095 92.89786Q148.36783 93.80411 146.9147 93.80411Q145.58658 93.80411 144.71158 93.02286Q143.8522 92.24161 143.7272 90.99161Z" fill-rule="nonzero"/><path fill="#4285f4" d="M336.35 73.5C336.35 76.813705 333.6637 79.5 330.35 79.5C327.0363 79.5 324.35 76.813705 324.35 73.5C324.35 70.186295 327.0363 67.5 330.35 67.5C333.6637 67.5 336.35 70.186295 336.35 73.5Z" fill-rule="nonzero"/><path fill="#1a1a1a" d="M345.27188 77.5L345.27188 68.90625L348.52188 68.90625Q349.36563 68.90625 349.81876 68.984375Q350.45938 69.09375 350.88126 69.390625Q351.31876 69.6875 351.56876 70.21875Q351.83438 70.75 351.83438 71.390625Q351.83438 72.484375 351.13126 73.25Q350.44376 74.0 348.61563 74.0L346.4125 74.0L346.4125 77.5L345.27188 77.5ZM346.4125 73.0L348.63126 73.0Q349.74063 73.0 350.19376 72.59375Q350.6625 72.171875 350.6625 71.421875Q350.6625 70.890625 350.38126 70.515625Q350.11563 70.125 349.67813 70.0Q349.38126 69.921875 348.61563 69.921875L346.4125 69.921875L346.4125 73.0ZM352.75626 74.390625Q352.75626 72.65625 353.70938 71.828125Q354.50626 71.140625 355.6625 71.140625Q356.94376 71.140625 357.75626 71.984375Q358.58438 72.8125 358.58438 74.296875Q358.58438 75.5 358.225 76.1875Q357.86563 76.875 357.1625 77.265625Q356.475 77.640625 355.6625 77.640625Q354.36563 77.640625 353.55313 76.8125Q352.75626 75.96875 352.75626 74.390625ZM353.83438 74.390625Q353.83438 75.578125 354.35 76.171875Q354.88126 76.765625 355.6625 76.765625Q356.45938 76.765625 356.975 76.171875Q357.49063 75.578125 357.49063 74.359375Q357.49063 73.203125 356.95938 72.609375Q356.44376 72.015625 355.6625 72.015625Q354.88126 72.015625 354.35 72.609375Q353.83438 73.1875 353.83438 74.390625ZM359.725 75.640625L360.75626 75.484375Q360.85 76.109375 361.24063 76.4375Q361.64688 76.765625 362.38126 76.765625Q363.1 76.765625 363.44376 76.484375Q363.80313 76.1875 363.80313 75.78125Q363.80313 75.421875 363.49063 75.21875Q363.27188 75.078125 362.4125 74.859375Q361.25626 74.5625 360.80313 74.359375Q360.36563 74.140625 360.13126 73.765625Q359.89688 73.390625 359.89688 72.921875Q359.89688 72.515625 360.08438 72.15625Q360.27188 71.796875 360.6 71.5625Q360.85 71.390625 361.27188 71.265625Q361.69376 71.140625 362.19376 71.140625Q362.9125 71.140625 363.45938 71.359375Q364.02188 71.5625 364.2875 71.921875Q364.55313 72.28125 364.64688 72.875L363.61563 73.015625Q363.55313 72.546875 363.20938 72.28125Q362.88126 72.0 362.25626 72.0Q361.5375 72.0 361.225 72.25Q360.9125 72.484375 360.9125 72.8125Q360.9125 73.015625 361.0375 73.171875Q361.17813 73.34375 361.44376 73.453125Q361.6 73.515625 362.38126 73.71875Q363.50626 74.03125 363.94376 74.21875Q364.38126 74.40625 364.63126 74.765625Q364.88126 75.125 364.88126 75.671875Q364.88126 76.203125 364.56876 76.671875Q364.27188 77.125 363.69376 77.390625Q363.11563 77.640625 362.38126 77.640625Q361.1625 77.640625 360.52188 77.140625Q359.89688 76.625 359.725 75.640625ZM369.44376 76.5625L369.6 77.484375Q369.14688 77.578125 368.80313 77.578125Q368.225 77.578125 367.9125 77.40625Q367.6 77.21875 367.45938 76.921875Q367.33438 76.625 367.33438 75.671875L367.33438 72.09375L366.56876 72.09375L366.56876 71.28125L367.33438 71.28125L367.33438 69.734375L368.38126 69.109375L368.38126 71.28125L369.44376 71.28125L369.44376 72.09375L368.38126 72.09375L368.38126 75.734375Q368.38126 76.1875 368.42813 76.3125Q368.49063 76.4375 368.61563 76.515625Q368.74063 76.59375 368.975 76.59375Q369.1625 76.59375 369.44376 76.5625ZM373.2875 77.5L373.2875 68.90625L377.1 68.90625Q378.25626 68.90625 378.85 69.140625Q379.44376 69.375 379.80313 69.96875Q380.1625 70.546875 380.1625 71.25Q380.1625 72.171875 379.56876 72.796875Q378.975 73.421875 377.74063 73.59375Q378.19376 73.8125 378.42813 74.015625Q378.92813 74.46875 379.36563 75.15625L380.86563 77.5L379.42813 77.5L378.30313 75.71875Q377.80313 74.9375 377.475 74.53125Q377.1625 74.125 376.89688 73.96875Q376.64688 73.796875 376.38126 73.71875Q376.19376 73.6875 375.75626 73.6875L374.42813 73.6875L374.42813 77.5L373.2875 77.5ZM374.42813 72.703125L376.88126 72.703125Q377.64688 72.703125 378.08438 72.546875Q378.5375 72.375 378.75626 72.03125Q378.99063 71.671875 378.99063 71.25Q378.99063 70.640625 378.5375 70.25Q378.1 69.859375 377.14688 69.859375L374.42813 69.859375L374.42813 72.703125ZM386.39688 75.5L387.49063 75.625Q387.24063 76.578125 386.5375 77.109375Q385.83438 77.640625 384.75626 77.640625Q383.39688 77.640625 382.58438 76.796875Q381.7875 75.953125 381.7875 74.4375Q381.7875 72.875 382.6 72.015625Q383.4125 71.140625 384.69376 71.140625Q385.94376 71.140625 386.725 71.984375Q387.52188 72.828125 387.52188 74.375Q387.52188 74.46875 387.52188 74.65625L382.88126 74.65625Q382.94376 75.6875 383.45938 76.234375Q383.975 76.765625 384.75626 76.765625Q385.33438 76.765625 385.74063 76.46875Q386.1625 76.15625 386.39688 75.5ZM382.94376 73.796875L386.4125 73.796875Q386.35 73.0 386.02188 72.609375Q385.50626 72.0 384.70938 72.0Q383.975 72.0 383.475 72.484375Q382.99063 72.96875 382.94376 73.796875ZM389.14688 77.5L389.14688 71.28125L390.08438 71.28125L390.08438 72.15625Q390.77188 71.140625 392.06876 71.140625Q392.63126 71.140625 393.1 71.34375Q393.58438 71.546875 393.81876 71.875Q394.05313 72.203125 394.14688 72.640625Q394.19376 72.9375 394.19376 73.671875L394.19376 77.5L393.14688 77.5L393.14688 73.71875Q393.14688 73.0625 393.02188 72.75Q392.89688 72.4375 392.58438 72.25Q392.27188 72.046875 391.85 72.046875Q391.17813 72.046875 390.67813 72.484375Q390.19376 72.90625 390.19376 74.09375L390.19376 77.5L389.14688 77.5ZM400.39688 75.5L401.49063 75.625Q401.24063 76.578125 400.5375 77.109375Q399.83438 77.640625 398.75626 77.640625Q397.39688 77.640625 396.58438 76.796875Q395.7875 75.953125 395.7875 74.4375Q395.7875 72.875 396.6 72.015625Q397.4125 71.140625 398.69376 71.140625Q399.94376 71.140625 400.725 71.984375Q401.52188 72.828125 401.52188 74.375Q401.52188 74.46875 401.52188 74.65625L396.88126 74.65625Q396.94376 75.6875 397.45938 76.234375Q397.975 76.765625 398.75626 76.765625Q399.33438 76.765625 399.74063 76.46875Q400.1625 76.15625 400.39688 75.5ZM396.94376 73.796875L400.4125 73.796875Q400.35 73.0 400.02188 72.609375Q399.50626 72.0 398.70938 72.0Q397.975 72.0 397.475 72.484375Q396.99063 72.96875 396.94376 73.796875ZM404.2875 77.5L402.38126 71.28125L403.475 71.28125L404.45938 74.875L404.83438 76.203125Q404.86563 76.109375 405.1625 74.921875L406.14688 71.28125L407.225 71.28125L408.1625 74.890625L408.475 76.078125L408.83438 74.875L409.89688 71.28125L410.92813 71.28125L408.975 77.5L407.88126 77.5L406.89688 73.765625L406.64688 72.71875L405.39688 77.5L404.2875 77.5ZM416.20938 76.734375Q415.61563 77.234375 415.06876 77.4375Q414.5375 77.640625 413.9125 77.640625Q412.88126 77.640625 412.33438 77.140625Q411.7875 76.640625 411.7875 75.859375Q411.7875 75.40625 411.99063 75.03125Q412.19376 74.640625 412.5375 74.421875Q412.88126 74.1875 413.30313 74.078125Q413.6 73.984375 414.24063 73.90625Q415.50626 73.765625 416.11563 73.546875Q416.11563 73.328125 416.11563 73.28125Q416.11563 72.625 415.81876 72.359375Q415.4125 72.015625 414.61563 72.015625Q413.88126 72.015625 413.52188 72.28125Q413.1625 72.53125 412.99063 73.1875L411.95938 73.046875Q412.1 72.390625 412.42813 71.984375Q412.75626 71.578125 413.36563 71.359375Q413.975 71.140625 414.77188 71.140625Q415.56876 71.140625 416.06876 71.328125Q416.56876 71.515625 416.80313 71.796875Q417.0375 72.078125 417.13126 72.515625Q417.17813 72.78125 417.17813 73.484375L417.17813 74.890625Q417.17813 76.359375 417.24063 76.75Q417.31876 77.140625 417.52188 77.5L416.4125 77.5Q416.25626 77.171875 416.20938 76.734375ZM416.11563 74.375Q415.5375 74.609375 414.39688 74.78125Q413.74063 74.875 413.475 75.0Q413.20938 75.109375 413.05313 75.328125Q412.9125 75.546875 412.9125 75.828125Q412.9125 76.25 413.225 76.53125Q413.55313 76.8125 414.1625 76.8125Q414.77188 76.8125 415.24063 76.546875Q415.725 76.28125 415.94376 75.8125Q416.11563 75.453125 416.11563 74.765625L416.11563 74.375ZM419.11563 77.5L419.11563 68.90625L420.17813 68.90625L420.17813 77.5L419.11563 77.5Z" fill-rule="nonzero"/><path fill="#ea4335" d="M336.35 97.5C336.35 100.813705 333.6637 103.5 330.35 103.5C327.0363 103.5 324.35 100.813705 324.35 97.5C324.35 94.186295 327.0363 91.5 330.35 91.5C333.6637 91.5 336.35 94.186295 336.35 97.5Z" fill-rule="nonzero"/><path fill="#1a1a1a" d="M345.27188 101.5L345.27188 92.90625L348.52188 92.90625Q349.36563 92.90625 349.81876 92.984375Q350.45938 93.09375 350.88126 93.390625Q351.31876 93.6875 351.56876 94.21875Q351.83438 94.75 351.83438 95.390625Q351.83438 96.484375 351.13126 97.25Q350.44376 98.0 348.61563 98.0L346.4125 98.0L346.4125 101.5L345.27188 101.5ZM346.4125 97.0L348.63126 97.0Q349.74063 97.0 350.19376 96.59375Q350.6625 96.171875 350.6625 95.421875Q350.6625 94.890625 350.38126 94.515625Q350.11563 94.125 349.67813 94.0Q349.38126 93.921875 348.61563 93.921875L346.4125 93.921875L346.4125 97.0ZM353.13126 101.5L353.13126 95.28125L354.08438 95.28125L354.08438 96.21875Q354.44376 95.5625 354.74063 95.359375Q355.05313 95.140625 355.42813 95.140625Q355.95938 95.140625 356.50626 95.46875L356.14688 96.453125Q355.75626 96.21875 355.38126 96.21875Q355.02188 96.21875 354.74063 96.4375Q354.475 96.640625 354.36563 97.015625Q354.17813 97.578125 354.17813 98.234375L354.17813 101.5L353.13126 101.5ZM361.39688 99.5L362.49063 99.625Q362.24063 100.578125 361.5375 101.109375Q360.83438 101.640625 359.75626 101.640625Q358.39688 101.640625 357.58438 100.796875Q356.7875 99.953125 356.7875 98.4375Q356.7875 96.875 357.6 96.015625Q358.4125 95.140625 359.69376 95.140625Q360.94376 95.140625 361.725 95.984375Q362.52188 96.828125 362.52188 98.375Q362.52188 98.46875 362.52188 98.65625L357.88126 98.65625Q357.94376 99.6875 358.45938 100.234375Q358.975 100.765625 359.75626 100.765625Q360.33438 100.765625 360.74063 100.46875Q361.1625 100.15625 361.39688 99.5ZM357.94376 97.796875L361.4125 97.796875Q361.35 97.0 361.02188 96.609375Q360.50626 96.0 359.70938 96.0Q358.975 96.0 358.475 96.484375Q357.99063 96.96875 357.94376 97.796875ZM367.2875 101.5L367.2875 92.90625L371.1 92.90625Q372.25626 92.90625 372.85 93.140625Q373.44376 93.375 373.80313 93.96875Q374.1625 94.546875 374.1625 95.25Q374.1625 96.171875 373.56876 96.796875Q372.975 97.421875 371.74063 97.59375Q372.19376 97.8125 372.42813 98.015625Q372.92813 98.46875 373.36563 99.15625L374.86563 101.5L373.42813 101.5L372.30313 99.71875Q371.80313 98.9375 371.475 98.53125Q371.1625 98.125 370.89688 97.96875Q370.64688 97.796875 370.38126 97.71875Q370.19376 97.6875 369.75626 97.6875L368.42813 97.6875L368.42813 101.5L367.2875 101.5ZM368.42813 96.703125L370.88126 96.703125Q371.64688 96.703125 372.08438 96.546875Q372.5375 96.375 372.75626 96.03125Q372.99063 95.671875 372.99063 95.25Q372.99063 94.640625 372.5375 94.25Q372.1 93.859375 371.14688 93.859375L368.42813 93.859375L368.42813 96.703125ZM380.39688 99.5L381.49063 99.625Q381.24063 100.578125 380.5375 101.109375Q379.83438 101.640625 378.75626 101.640625Q377.39688 101.640625 376.58438 100.796875Q375.7875 99.953125 375.7875 98.4375Q375.7875 96.875 376.6 96.015625Q377.4125 95.140625 378.69376 95.140625Q379.94376 95.140625 380.725 95.984375Q381.52188 96.828125 381.52188 98.375Q381.52188 98.46875 381.52188 98.65625L376.88126 98.65625Q376.94376 99.6875 377.45938 100.234375Q377.975 100.765625 378.75626 100.765625Q379.33438 100.765625 379.74063 100.46875Q380.1625 100.15625 380.39688 99.5ZM376.94376 97.796875L380.4125 97.796875Q380.35 97.0 380.02188 96.609375Q379.50626 96.0 378.70938 96.0Q377.975 96.0 377.475 96.484375Q376.99063 96.96875 376.94376 97.796875ZM383.14688 101.5L383.14688 95.28125L384.08438 95.28125L384.08438 96.15625Q384.77188 95.140625 386.06876 95.140625Q386.63126 95.140625 387.1 95.34375Q387.58438 95.546875 387.81876 95.875Q388.05313 96.203125 388.14688 96.640625Q388.19376 96.9375 388.19376 97.671875L388.19376 101.5L387.14688 101.5L387.14688 97.71875Q387.14688 97.0625 387.02188 96.75Q386.89688 96.4375 386.58438 96.25Q386.27188 96.046875 385.85 96.046875Q385.17813 96.046875 384.67813 96.484375Q384.19376 96.90625 384.19376 98.09375L384.19376 101.5L383.14688 101.5ZM394.39688 99.5L395.49063 99.625Q395.24063 100.578125 394.5375 101.109375Q393.83438 101.640625 392.75626 101.640625Q391.39688 101.640625 390.58438 100.796875Q389.7875 99.953125 389.7875 98.4375Q389.7875 96.875 390.6 96.015625Q391.4125 95.140625 392.69376 95.140625Q393.94376 95.140625 394.725 95.984375Q395.52188 96.828125 395.52188 98.375Q395.52188 98.46875 395.52188 98.65625L390.88126 98.65625Q390.94376 99.6875 391.45938 100.234375Q391.975 100.765625 392.75626 100.765625Q393.33438 100.765625 393.74063 100.46875Q394.1625 100.15625 394.39688 99.5ZM390.94376 97.796875L394.4125 97.796875Q394.35 97.0 394.02188 96.609375Q393.50626 96.0 392.70938 96.0Q391.975 96.0 391.475 96.484375Q390.99063 96.96875 390.94376 97.796875ZM398.2875 101.5L396.38126 95.28125L397.475 95.28125L398.45938 98.875L398.83438 100.203125Q398.86563 100.109375 399.1625 98.921875L400.14688 95.28125L401.225 95.28125L402.1625 98.890625L402.475 100.078125L402.83438 98.875L403.89688 95.28125L404.92813 95.28125L402.975 101.5L401.88126 101.5L400.89688 97.765625L400.64688 96.71875L399.39688 101.5L398.2875 101.5ZM410.20938 100.734375Q409.61563 101.234375 409.06876 101.4375Q408.5375 101.640625 407.9125 101.640625Q406.88126 101.640625 406.33438 101.140625Q405.7875 100.640625 405.7875 99.859375Q405.7875 99.40625 405.99063 99.03125Q406.19376 98.640625 406.5375 98.421875Q406.88126 98.1875 407.30313 98.078125Q407.6 97.984375 408.24063 97.90625Q409.50626 97.765625 410.11563 97.546875Q410.11563 97.328125 410.11563 97.28125Q410.11563 96.625 409.81876 96.359375Q409.4125 96.015625 408.61563 96.015625Q407.88126 96.015625 407.52188 96.28125Q407.1625 96.53125 406.99063 97.1875L405.95938 97.046875Q406.1 96.390625 406.42813 95.984375Q406.75626 95.578125 407.36563 95.359375Q407.975 95.140625 408.77188 95.140625Q409.56876 95.140625 410.06876 95.328125Q410.56876 95.515625 410.80313 95.796875Q411.0375 96.078125 411.13126 96.515625Q411.17813 96.78125 411.17813 97.484375L411.17813 98.890625Q411.17813 100.359375 411.24063 100.75Q411.31876 101.140625 411.52188 101.5L410.4125 101.5Q410.25626 101.171875 410.20938 100.734375ZM410.11563 98.375Q409.5375 98.609375 408.39688 98.78125Q407.74063 98.875 407.475 99.0Q407.20938 99.109375 407.05313 99.328125Q406.9125 99.546875 406.9125 99.828125Q406.9125 100.25 407.225 100.53125Q407.55313 100.8125 408.1625 100.8125Q408.77188 100.8125 409.24063 100.546875Q409.725 100.28125 409.94376 99.8125Q410.11563 99.453125 410.11563 98.765625L410.11563 98.375ZM413.11563 101.5L413.11563 92.90625L414.17813 92.90625L414.17813 101.5L413.11563 101.5Z" fill-rule="nonzero"/><path fill="#ff9900" d="M336.35 121.5C336.35 124.813705 333.6637 127.5 330.35 127.5C327.0363 127.5 324.35 124.813705 324.35 121.5C324.35 118.186295 327.0363 115.5 330.35 115.5C333.6637 115.5 336.35 118.186295 336.35 121.5Z" fill-rule="nonzero"/><path fill="#1a1a1a" d="M345.27188 125.5L345.27188 116.90625L348.52188 116.90625Q349.36563 116.90625 349.81876 116.984375Q350.45938 117.09375 350.88126 117.390625Q351.31876 117.6875 351.56876 118.21875Q351.83438 118.75 351.83438 119.390625Q351.83438 120.484375 351.13126 121.25Q350.44376 122.0 348.61563 122.0L346.4125 122.0L346.4125 125.5L345.27188 125.5ZM346.4125 121.0L348.63126 121.0Q349.74063 121.0 350.19376 120.59375Q350.6625 120.171875 350.6625 119.421875Q350.6625 118.890625 350.38126 118.515625Q350.11563 118.125 349.67813 118.0Q349.38126 117.921875 348.61563 117.921875L346.4125 117.921875L346.4125 121.0ZM352.75626 122.390625Q352.75626 120.65625 353.70938 119.828125Q354.50626 119.140625 355.6625 119.140625Q356.94376 119.140625 357.75626 119.984375Q358.58438 120.8125 358.58438 122.296875Q358.58438 123.5 358.225 124.1875Q357.86563 124.875 357.1625 125.265625Q356.475 125.640625 355.6625 125.640625Q354.36563 125.640625 353.55313 124.8125Q352.75626 123.96875 352.75626 122.390625ZM353.83438 122.390625Q353.83438 123.578125 354.35 124.171875Q354.88126 124.765625 355.6625 124.765625Q356.45938 124.765625 356.975 124.171875Q357.49063 123.578125 357.49063 122.359375Q357.49063 121.203125 356.95938 120.609375Q356.44376 120.015625 355.6625 120.015625Q354.88126 120.015625 354.35 120.609375Q353.83438 121.1875 353.83438 122.390625ZM359.725 123.640625L360.75626 123.484375Q360.85 124.109375 361.24063 124.4375Q361.64688 124.765625 362.38126 124.765625Q363.1 124.765625 363.44376 124.484375Q363.80313 124.1875 363.80313 123.78125Q363.80313 123.421875 363.49063 123.21875Q363.27188 123.078125 362.4125 122.859375Q361.25626 122.5625 360.80313 122.359375Q360.36563 122.140625 360.13126 121.765625Q359.89688 121.390625 359.89688 120.921875Q359.89688 120.515625 360.08438 120.15625Q360.27188 119.796875 360.6 119.5625Q360.85 119.390625 361.27188 119.265625Q361.69376 119.140625 362.19376 119.140625Q362.9125 119.140625 363.45938 119.359375Q364.02188 119.5625 364.2875 119.921875Q364.55313 120.28125 364.64688 120.875L363.61563 121.015625Q363.55313 120.546875 363.20938 120.28125Q362.88126 120.0 362.25626 120.0Q361.5375 120.0 361.225 120.25Q360.9125 120.484375 360.9125 120.8125Q360.9125 121.015625 361.0375 121.171875Q361.17813 121.34375 361.44376 121.453125Q361.6 121.515625 362.38126 121.71875Q363.50626 122.03125 363.94376 122.21875Q364.38126 122.40625 364.63126 122.765625Q364.88126 123.125 364.88126 123.671875Q364.88126 124.203125 364.56876 124.671875Q364.27188 125.125 363.69376 125.390625Q363.11563 125.640625 362.38126 125.640625Q361.1625 125.640625 360.52188 125.140625Q359.89688 124.625 359.725 123.640625ZM369.44376 124.5625L369.6 125.484375Q369.14688 125.578125 368.80313 125.578125Q368.225 125.578125 367.9125 125.40625Q367.6 125.21875 367.45938 124.921875Q367.33438 124.625 367.33438 123.671875L367.33438 120.09375L366.56876 120.09375L366.56876 119.28125L367.33438 119.28125L367.33438 117.734375L368.38126 117.109375L368.38126 119.28125L369.44376 119.28125L369.44376 120.09375L368.38126 120.09375L368.38126 123.734375Q368.38126 124.1875 368.42813 124.3125Q368.49063 124.4375 368.61563 124.515625Q368.74063 124.59375 368.975 124.59375Q369.1625 124.59375 369.44376 124.5625ZM373.27188 125.5L373.27188 116.90625L376.52188 116.90625Q377.36563 116.90625 377.81876 116.984375Q378.45938 117.09375 378.88126 117.390625Q379.31876 117.6875 379.56876 118.21875Q379.83438 118.75 379.83438 119.390625Q379.83438 120.484375 379.13126 121.25Q378.44376 122.0 376.61563 122.0L374.4125 122.0L374.4125 125.5L373.27188 125.5ZM374.4125 121.0L376.63126 121.0Q377.74063 121.0 378.19376 120.59375Q378.6625 120.171875 378.6625 119.421875Q378.6625 118.890625 378.38126 118.515625Q378.11563 118.125 377.67813 118.0Q377.38126 117.921875 376.61563 117.921875L374.4125 117.921875L374.4125 121.0ZM385.225 125.5L385.225 124.578125Q384.49063 125.640625 383.24063 125.640625Q382.69376 125.640625 382.20938 125.4375Q381.74063 125.21875 381.50626 124.90625Q381.27188 124.578125 381.17813 124.109375Q381.11563 123.8125 381.11563 123.125L381.11563 119.28125L382.17813 119.28125L382.17813 122.734375Q382.17813 123.546875 382.24063 123.84375Q382.33438 124.25 382.64688 124.5Q382.975 124.734375 383.45938 124.734375Q383.92813 124.734375 384.33438 124.5Q384.75626 124.25 384.92813 123.828125Q385.11563 123.40625 385.11563 122.609375L385.11563 119.28125L386.1625 119.28125L386.1625 125.5L385.225 125.5ZM388.13126 125.5L388.13126 119.28125L389.08438 119.28125L389.08438 120.21875Q389.44376 119.5625 389.74063 119.359375Q390.05313 119.140625 390.42813 119.140625Q390.95938 119.140625 391.50626 119.46875L391.14688 120.453125Q390.75626 120.21875 390.38126 120.21875Q390.02188 120.21875 389.74063 120.4375Q389.475 120.640625 389.36563 121.015625Q389.17813 121.578125 389.17813 122.234375L389.17813 125.5L388.13126 125.5ZM396.20938 123.21875L397.24063 123.359375Q397.06876 124.421875 396.36563 125.03125Q395.6625 125.640625 394.64688 125.640625Q393.36563 125.640625 392.58438 124.8125Q391.81876 123.96875 391.81876 122.40625Q391.81876 121.40625 392.14688 120.65625Q392.49063 119.890625 393.1625 119.515625Q393.85 119.140625 394.6625 119.140625Q395.6625 119.140625 396.30313 119.65625Q396.95938 120.15625 397.14688 121.109375L396.11563 121.265625Q395.975 120.640625 395.6 120.328125Q395.225 120.0 394.69376 120.0Q393.89688 120.0 393.39688 120.578125Q392.89688 121.140625 392.89688 122.375Q392.89688 123.640625 393.38126 124.203125Q393.86563 124.765625 394.63126 124.765625Q395.25626 124.765625 395.6625 124.390625Q396.08438 124.015625 396.20938 123.21875ZM398.14688 125.5L398.14688 116.90625L399.19376 116.90625L399.19376 119.984375Q399.92813 119.140625 401.05313 119.140625Q401.75626 119.140625 402.25626 119.421875Q402.77188 119.6875 402.99063 120.171875Q403.20938 120.640625 403.20938 121.5625L403.20938 125.5L402.1625 125.5L402.1625 121.5625Q402.1625 120.765625 401.81876 120.40625Q401.475 120.046875 400.85 120.046875Q400.38126 120.046875 399.95938 120.296875Q399.55313 120.53125 399.36563 120.953125Q399.19376 121.359375 399.19376 122.09375L399.19376 125.5L398.14688 125.5ZM409.20938 124.734375Q408.61563 125.234375 408.06876 125.4375Q407.5375 125.640625 406.9125 125.640625Q405.88126 125.640625 405.33438 125.140625Q404.7875 124.640625 404.7875 123.859375Q404.7875 123.40625 404.99063 123.03125Q405.19376 122.640625 405.5375 122.421875Q405.88126 122.1875 406.30313 122.078125Q406.6 121.984375 407.24063 121.90625Q408.50626 121.765625 409.11563 121.546875Q409.11563 121.328125 409.11563 121.28125Q409.11563 120.625 408.81876 120.359375Q408.4125 120.015625 407.61563 120.015625Q406.88126 120.015625 406.52188 120.28125Q406.1625 120.53125 405.99063 121.1875L404.95938 121.046875Q405.1 120.390625 405.42813 119.984375Q405.75626 119.578125 406.36563 119.359375Q406.975 119.140625 407.77188 119.140625Q408.56876 119.140625 409.06876 119.328125Q409.56876 119.515625 409.80313 119.796875Q410.0375 120.078125 410.13126 120.515625Q410.17813 120.78125 410.17813 121.484375L410.17813 122.890625Q410.17813 124.359375 410.24063 124.75Q410.31876 125.140625 410.52188 125.5L409.4125 125.5Q409.25626 125.171875 409.20938 124.734375ZM409.11563 122.375Q408.5375 122.609375 407.39688 122.78125Q406.74063 122.875 406.475 123.0Q406.20938 123.109375 406.05313 123.328125Q405.9125 123.546875 405.9125 123.828125Q405.9125 124.25 406.225 124.53125Q406.55313 124.8125 407.1625 124.8125Q407.77188 124.8125 408.24063 124.546875Q408.725 124.28125 408.94376 123.8125Q409.11563 123.453125 409.11563 122.765625L409.11563 122.375ZM411.725 123.640625L412.75626 123.484375Q412.85 124.109375 413.24063 124.4375Q413.64688 124.765625 414.38126 124.765625Q415.1 124.765625 415.44376 124.484375Q415.80313 124.1875 415.80313 123.78125Q415.80313 123.421875 415.49063 123.21875Q415.27188 123.078125 414.4125 122.859375Q413.25626 122.5625 412.80313 122.359375Q412.36563 122.140625 412.13126 121.765625Q411.89688 121.390625 411.89688 120.921875Q411.89688 120.515625 412.08438 120.15625Q412.27188 119.796875 412.6 119.5625Q412.85 119.390625 413.27188 119.265625Q413.69376 119.140625 414.19376 119.140625Q414.9125 119.140625 415.45938 119.359375Q416.02188 119.5625 416.2875 119.921875Q416.55313 120.28125 416.64688 120.875L415.61563 121.015625Q415.55313 120.546875 415.20938 120.28125Q414.88126 120.0 414.25626 120.0Q413.5375 120.0 413.225 120.25Q412.9125 120.484375 412.9125 120.8125Q412.9125 121.015625 413.0375 121.171875Q413.17813 121.34375 413.44376 121.453125Q413.6 121.515625 414.38126 121.71875Q415.50626 122.03125 415.94376 122.21875Q416.38126 122.40625 416.63126 122.765625Q416.88126 123.125 416.88126 123.671875Q416.88126 124.203125 416.56876 124.671875Q416.27188 125.125 415.69376 125.390625Q415.11563 125.640625 414.38126 125.640625Q413.1625 125.640625 412.52188 125.140625Q411.89688 124.625 411.725 123.640625ZM423.39688 123.5L424.49063 123.625Q424.24063 124.578125 423.5375 125.109375Q422.83438 125.640625 421.75626 125.640625Q420.39688 125.640625 419.58438 124.796875Q418.7875 123.953125 418.7875 122.4375Q418.7875 120.875 419.6 120.015625Q420.4125 119.140625 421.69376 119.140625Q422.94376 119.140625 423.725 119.984375Q424.52188 120.828125 424.52188 122.375Q424.52188 122.46875 424.52188 122.65625L419.88126 122.65625Q419.94376 123.6875 420.45938 124.234375Q420.975 124.765625 421.75626 124.765625Q422.33438 124.765625 422.74063 124.46875Q423.1625 124.15625 423.39688 123.5ZM419.94376 121.796875L423.4125 121.796875Q423.35 121.0 423.02188 120.609375Q422.50626 120.0 421.70938 120.0Q420.975 120.0 420.475 120.484375Q419.99063 120.96875 419.94376 121.796875Z" fill-rule="nonzero"/><path fill="#34a853" d="M336.35 145.5C336.35 148.8137 333.6637 151.5 330.35 151.5C327.0363 151.5 324.35 148.8137 324.35 145.5C324.35 142.1863 327.0363 139.5 330.35 139.5C333.6637 139.5 336.35 142.1863 336.35 145.5Z" fill-rule="nonzero"/><path fill="#1a1a1a" d="M345.30313 149.5L345.30313 140.90625L351.50626 140.90625L351.50626 141.92188L346.44376 141.92188L346.44376 144.54688L351.19376 144.54688L351.19376 145.5625L346.44376 145.5625L346.44376 148.48438L351.70938 148.48438L351.70938 149.5L345.30313 149.5ZM352.44376 149.5L354.70938 146.26562L352.61563 143.28125L353.92813 143.28125L354.88126 144.73438Q355.14688 145.15625 355.31876 145.4375Q355.56876 145.04688 355.7875 144.75L356.83438 143.28125L358.1 143.28125L355.94376 146.20312L358.25626 149.5L356.975 149.5L355.69376 147.5625L355.35 147.04688L353.70938 149.5L352.44376 149.5ZM358.14688 151.89062L358.14688 143.28125L359.1 143.28125L359.1 144.07812Q359.44376 143.60938 359.86563 143.375Q360.30313 143.14062 360.9125 143.14062Q361.70938 143.14062 362.31876 143.54688Q362.92813 143.95312 363.225 144.70312Q363.5375 145.45312 363.5375 146.34375Q363.5375 147.29688 363.19376 148.0625Q362.86563 148.82812 362.20938 149.23438Q361.55313 149.64062 360.83438 149.64062Q360.30313 149.64062 359.88126 149.42188Q359.45938 149.1875 359.19376 148.85938L359.19376 151.89062L358.14688 151.89062ZM359.1 146.42188Q359.1 147.625 359.58438 148.20312Q360.06876 148.76562 360.75626 148.76562Q361.45938 148.76562 361.95938 148.17188Q362.45938 147.57812 362.45938 146.32812Q362.45938 145.14062 361.975 144.5625Q361.49063 143.96875 360.80313 143.96875Q360.13126 143.96875 359.61563 144.59375Q359.1 145.21875 359.1 146.42188ZM365.14688 142.125L365.14688 140.90625L366.20938 140.90625L366.20938 142.125L365.14688 142.125ZM365.14688 149.5L365.14688 143.28125L366.20938 143.28125L366.20938 149.5L365.14688 149.5ZM368.13126 149.5L368.13126 143.28125L369.08438 143.28125L369.08438 144.21875Q369.44376 143.5625 369.74063 143.35938Q370.05313 143.14062 370.42813 143.14062Q370.95938 143.14062 371.50626 143.46875L371.14688 144.45312Q370.75626 144.21875 370.38126 144.21875Q370.02188 144.21875 369.74063 144.4375Q369.475 144.64062 369.36563 145.01562Q369.17813 145.57812 369.17813 146.23438L369.17813 149.5L368.13126 149.5ZM376.39688 147.5L377.49063 147.625Q377.24063 148.57812 376.5375 149.10938Q375.83438 149.64062 374.75626 149.64062Q373.39688 149.64062 372.58438 148.79688Q371.7875 147.95312 371.7875 146.4375Q371.7875 144.875 372.6 144.01562Q373.4125 143.14062 374.69376 143.14062Q375.94376 143.14062 376.725 143.98438Q377.52188 144.82812 377.52188 146.375Q377.52188 146.46875 377.52188 146.65625L372.88126 146.65625Q372.94376 147.6875 373.45938 148.23438Q373.975 148.76562 374.75626 148.76562Q375.33438 148.76562 375.74063 148.46875Q376.1625 148.15625 376.39688 147.5ZM372.94376 145.79688L376.4125 145.79688Q376.35 145.0 376.02188 144.60938Q375.50626 144.0 374.70938 144.0Q373.975 144.0 373.475 144.48438Q372.99063 144.96875 372.94376 145.79688ZM383.17813 149.5L383.17813 148.71875Q382.58438 149.64062 381.44376 149.64062Q380.69376 149.64062 380.06876 149.23438Q379.44376 148.8125 379.1 148.07812Q378.75626 147.34375 378.75626 146.39062Q378.75626 145.46875 379.06876 144.70312Q379.38126 143.9375 380.00626 143.54688Q380.63126 143.14062 381.39688 143.14062Q381.95938 143.14062 382.39688 143.375Q382.83438 143.60938 383.11563 143.98438L383.11563 140.90625L384.1625 140.90625L384.1625 149.5L383.17813 149.5ZM379.85 146.39062Q379.85 147.59375 380.35 148.1875Q380.85 148.76562 381.5375 148.76562Q382.225 148.76562 382.70938 148.20312Q383.19376 147.64062 383.19376 146.48438Q383.19376 145.20312 382.69376 144.60938Q382.20938 144.01562 381.49063 144.01562Q380.7875 144.01562 380.31876 144.59375Q379.85 145.15625 379.85 146.39062Z" fill-rule="nonzero"/><path fill="#999999" d="M14.80625 54.4L14.80625 44.384377L21.55625 44.384377L21.55625 45.55625L16.11875 45.55625L16.11875 48.665627L20.821875 48.665627L20.821875 49.853127L16.11875 49.853127L16.11875 54.4L14.80625 54.4ZM23.55625 54.4L23.55625 47.134377L24.665625 47.134377L24.665625 48.24375Q25.0875 47.4625 25.446875 47.228127Q25.80625 46.978127 26.24375 46.978127Q26.86875 46.978127 27.509375 47.36875L27.0875 48.509377Q26.634375 48.24375 26.18125 48.24375Q25.775 48.24375 25.446875 48.49375Q25.134375 48.728127 24.99375 49.165627Q24.790625 49.821877 24.790625 50.603127L24.790625 54.4L23.55625 54.4ZM28.11875 50.775Q28.11875 48.759377 29.24375 47.775Q30.165625 46.978127 31.525 46.978127Q33.009377 46.978127 33.9625 47.9625Q34.915627 48.93125 34.915627 50.665627Q34.915627 52.071877 34.49375 52.884377Q34.071877 53.68125 33.259377 54.134377Q32.4625 54.571877 31.525 54.571877Q29.99375 54.571877 29.05625 53.5875Q28.11875 52.603127 28.11875 50.775ZM29.384375 50.775Q29.384375 52.165627 29.99375 52.86875Q30.603125 53.55625 31.525 53.55625Q32.43125 53.55625 33.040627 52.853127Q33.65 52.15 33.65 50.728127Q33.65 49.384377 33.040627 48.696877Q32.43125 47.99375 31.525 47.99375Q30.603125 47.99375 29.99375 48.68125Q29.384375 49.36875 29.384375 50.775ZM36.571877 54.4L36.571877 47.134377L37.68125 47.134377L37.68125 48.165627Q38.009377 47.61875 38.571877 47.30625Q39.15 46.978127 39.86875 46.978127Q40.68125 46.978127 41.196877 47.321877Q41.7125 47.65 41.93125 48.24375Q42.790627 46.978127 44.165627 46.978127Q45.24375 46.978127 45.821877 47.571877Q46.415627 48.165627 46.415627 49.415627L46.415627 54.4L45.18125 54.4L45.18125 49.821877Q45.18125 49.0875 45.05625 48.759377Q44.946877 48.43125 44.634377 48.24375Q44.321877 48.040627 43.9 48.040627Q43.134377 48.040627 42.61875 48.55625Q42.11875 49.05625 42.11875 50.18125L42.11875 54.4L40.884377 54.4L40.884377 49.68125Q40.884377 48.86875 40.5875 48.4625Q40.290627 48.040627 39.603127 48.040627Q39.0875 48.040627 38.634377 48.321877Q38.196877 48.5875 37.99375 49.11875Q37.80625 49.634377 37.80625 50.634377L37.80625 54.4L36.571877 54.4ZM55.18125 54.4L55.18125 51.99375L50.821877 51.99375L50.821877 50.86875L55.4 44.384377L56.4 44.384377L56.4 50.86875L57.759377 50.86875L57.759377 51.99375L56.4 51.99375L56.4 54.4L55.18125 54.4ZM55.18125 50.86875L55.18125 46.353127L52.040627 50.86875L55.18125 50.86875ZM65.61875 46.8375L64.4 46.93125Q64.22813 46.196877 63.93125 45.86875Q63.43125 45.353127 62.696877 45.353127Q62.103127 45.353127 61.665627 45.68125Q61.0875 46.103127 60.74375 46.915627Q60.415627 47.728127 60.4 49.228127Q60.8375 48.55625 61.478127 48.228127Q62.134377 47.9 62.8375 47.9Q64.07188 47.9 64.93125 48.80625Q65.79063 49.7125 65.79063 51.15Q65.79063 52.0875 65.38438 52.9Q64.97813 53.7125 64.25938 54.15Q63.55625 54.571877 62.65 54.571877Q61.11875 54.571877 60.15 53.446877Q59.18125 52.30625 59.18125 49.7125Q59.18125 46.80625 60.24375 45.478127Q61.18125 44.3375 62.775 44.3375Q63.9625 44.3375 64.7125 45.009377Q65.4625 45.665627 65.61875 46.8375ZM60.5875 51.15Q60.5875 51.790627 60.853127 52.36875Q61.134377 52.946877 61.61875 53.259377Q62.103127 53.55625 62.634377 53.55625Q63.415627 53.55625 63.978127 52.93125Q64.54063 52.30625 64.54063 51.228127Q64.54063 50.18125 63.978127 49.5875Q63.43125 48.978127 62.5875 48.978127Q61.759377 48.978127 61.165627 49.5875Q60.5875 50.18125 60.5875 51.15ZM78.88438 50.884377L80.2125 51.228127Q79.79063 52.853127 78.69688 53.7125Q77.61875 54.571877 76.05625 54.571877Q74.43125 54.571877 73.41563 53.915627Q72.4 53.24375 71.86875 51.99375Q71.35313 50.74375 71.35313 49.30625Q71.35313 47.74375 71.94688 46.5875Q72.54063 45.415627 73.65 44.821877Q74.75938 44.2125 76.07188 44.2125Q77.5875 44.2125 78.60313 44.978127Q79.63438 45.74375 80.04063 47.11875L78.72813 47.43125Q78.38438 46.3375 77.7125 45.8375Q77.05625 45.3375 76.05625 45.3375Q74.9 45.3375 74.11875 45.9Q73.3375 46.446877 73.025 47.384377Q72.7125 48.321877 72.7125 49.30625Q72.7125 50.5875 73.0875 51.540627Q73.4625 52.49375 74.24375 52.9625Q75.025 53.43125 75.94688 53.43125Q77.05625 53.43125 77.82188 52.790627Q78.60313 52.15 78.88438 50.884377ZM81.57188 54.4L81.57188 44.384377L82.80625 44.384377L82.80625 47.978127Q83.66563 46.978127 84.97813 46.978127Q85.79063 46.978127 86.38438 47.30625Q86.97813 47.61875 87.22813 48.18125Q87.49375 48.728127 87.49375 49.80625L87.49375 54.4L86.25938 54.4L86.25938 49.80625Q86.25938 48.86875 85.85313 48.4625Q85.4625 48.040627 84.72813 48.040627Q84.18125 48.040627 83.69688 48.321877Q83.2125 48.603127 83.00938 49.0875Q82.80625 49.571877 82.80625 50.43125L82.80625 54.4L81.57188 54.4ZM94.30625 53.509377Q93.63438 54.0875 92.99375 54.3375Q92.36875 54.571877 91.63438 54.571877Q90.44688 54.571877 89.79063 53.99375Q89.15 53.4 89.15 52.478127Q89.15 51.946877 89.38438 51.509377Q89.63438 51.071877 90.025 50.80625Q90.43125 50.540627 90.91563 50.4Q91.275 50.30625 92.00938 50.2125Q93.50938 50.040627 94.2125 49.790627Q94.2125 49.540627 94.2125 49.478127Q94.2125 48.7125 93.86875 48.415627Q93.4 47.99375 92.4625 47.99375Q91.60313 47.99375 91.18125 48.30625Q90.775 48.603127 90.57188 49.36875L89.36875 49.2125Q89.525 48.43125 89.9 47.9625Q90.29063 47.49375 90.99375 47.24375Q91.7125 46.978127 92.65 46.978127Q93.57188 46.978127 94.15 47.196877Q94.72813 47.415627 94.99375 47.74375Q95.275 48.071877 95.38438 48.5875Q95.44688 48.9 95.44688 49.7125L95.44688 51.353127Q95.44688 53.071877 95.525 53.525Q95.60313 53.978127 95.8375 54.4L94.55625 54.4Q94.36875 54.009377 94.30625 53.509377ZM94.2125 50.759377Q93.54063 51.025 92.19688 51.228127Q91.44688 51.3375 91.11875 51.478127Q90.80625 51.603127 90.63438 51.86875Q90.4625 52.134377 90.4625 52.446877Q90.4625 52.946877 90.8375 53.275Q91.2125 53.603127 91.93125 53.603127Q92.65 53.603127 93.19688 53.290627Q93.74375 52.978127 94.00938 52.43125Q94.2125 52.025 94.2125 51.2125L94.2125 50.759377ZM100.25938 53.30625L100.43125 54.384377Q99.91563 54.49375 99.50938 54.49375Q98.8375 54.49375 98.4625 54.290627Q98.10313 54.071877 97.94688 53.728127Q97.80625 53.384377 97.80625 52.275L97.80625 48.103127L96.9 48.103127L96.9 47.134377L97.80625 47.134377L97.80625 45.3375L99.025 44.603127L99.025 47.134377L100.25938 47.134377L100.25938 48.103127L99.025 48.103127L99.025 52.3375Q99.025 52.86875 99.0875 53.025Q99.15 53.165627 99.29063 53.259377Q99.44688 53.353127 99.7125 53.353127Q99.93125 53.353127 100.25938 53.30625ZM101.0875 52.228127L102.29063 52.040627Q102.4 52.775 102.86875 53.165627Q103.3375 53.55625 104.18125 53.55625Q105.025 53.55625 105.43125 53.2125Q105.85313 52.86875 105.85313 52.4Q105.85313 51.978127 105.47813 51.74375Q105.22813 51.571877 104.22813 51.321877Q102.86875 50.978127 102.3375 50.728127Q101.82188 50.478127 101.55625 50.040627Q101.29063 49.603127 101.29063 49.071877Q101.29063 48.5875 101.50938 48.18125Q101.72813 47.759377 102.11875 47.478127Q102.4 47.275 102.88438 47.134377Q103.38438 46.978127 103.9625 46.978127Q104.80625 46.978127 105.44688 47.228127Q106.10313 47.4625 106.41563 47.884377Q106.72813 48.30625 106.8375 49.009377L105.63438 49.18125Q105.55625 48.61875 105.15 48.30625Q104.75938 47.99375 104.04063 47.99375Q103.19688 47.99375 102.8375 48.275Q102.47813 48.540627 102.47813 48.93125Q102.47813 49.165627 102.61875 49.353127Q102.775 49.55625 103.10313 49.68125Q103.275 49.74375 104.18125 49.99375Q105.49375 50.353127 106.00938 50.571877Q106.525 50.790627 106.80625 51.2125Q107.10313 51.634377 107.10313 52.259377Q107.10313 52.884377 106.74375 53.43125Q106.4 53.9625 105.7125 54.275Q105.04063 54.571877 104.18125 54.571877Q102.775 54.571877 102.025 53.978127Q101.29063 53.384377 101.0875 52.228127Z" fill-rule="nonzero"/><path fill="#757575" d="M14.30625 26.4625L16.8375 26.2125Q17.05625 27.478125 17.759375 28.0875Q18.4625 28.68125 19.65 28.68125Q20.9 28.68125 21.540625 28.15Q22.18125 27.61875 22.18125 26.9Q22.18125 26.446875 21.9 26.134375Q21.634375 25.80625 20.978125 25.571875Q20.509375 25.415625 18.884375 25.009375Q16.790625 24.49375 15.946875 23.728125Q14.759375 22.665625 14.759375 21.134375Q14.759375 20.15 15.321875 19.30625Q15.884375 18.446875 16.93125 17.99375Q17.978125 17.540625 19.4625 17.540625Q21.9 17.540625 23.11875 18.603125Q24.353125 19.665625 24.415625 21.446875L21.80625 21.55625Q21.634375 20.571875 21.0875 20.134375Q20.540625 19.696875 19.446875 19.696875Q18.30625 19.696875 17.665625 20.165625Q17.259375 20.4625 17.259375 20.9625Q17.259375 21.415625 17.634375 21.74375Q18.134375 22.165625 20.025 22.61875Q21.93125 23.05625 22.8375 23.540625Q23.74375 24.009375 24.259375 24.853125Q24.775 25.68125 24.775 26.9Q24.775 28.009375 24.15 28.978125Q23.540625 29.93125 22.415625 30.415625Q21.290625 30.884375 19.61875 30.884375Q17.18125 30.884375 15.86875 29.759375Q14.55625 28.61875 14.30625 26.4625ZM33.0875 30.65L33.0875 29.259375Q32.571877 29.99375 31.74375 30.43125Q30.915625 30.86875 29.99375 30.86875Q29.05625 30.86875 28.30625 30.4625Q27.55625 30.040625 27.2125 29.290625Q26.884375 28.540625 26.884375 27.228125L26.884375 21.321875L29.353125 21.321875L29.353125 25.603125Q29.353125 27.571875 29.49375 28.025Q29.634375 28.4625 29.99375 28.728125Q30.353125 28.978125 30.9 28.978125Q31.540625 28.978125 32.040627 28.634375Q32.540627 28.290625 32.728127 27.775Q32.915627 27.259375 32.915627 25.259375L32.915627 21.321875L35.384377 21.321875L35.384377 30.65L33.0875 30.65ZM37.8375 30.65L37.8375 17.759375L40.30625 17.759375L40.30625 22.4Q41.446877 21.103125 43.009377 21.103125Q44.7125 21.103125 45.821877 22.3375Q46.946877 23.571875 46.946877 25.884375Q46.946877 28.275 45.80625 29.571875Q44.68125 30.86875 43.05625 30.86875Q42.24375 30.86875 41.4625 30.4625Q40.696877 30.05625 40.134377 29.275L40.134377 30.65L37.8375 30.65ZM40.290627 25.775Q40.290627 27.228125 40.74375 27.93125Q41.384377 28.915625 42.446877 28.915625Q43.275 28.915625 43.8375 28.2125Q44.415627 27.509375 44.415627 26.009375Q44.415627 24.415625 43.8375 23.7125Q43.259377 22.99375 42.353127 22.99375Q41.4625 22.99375 40.86875 23.68125Q40.290627 24.36875 40.290627 25.775ZM48.071877 27.99375L50.55625 27.603125Q50.7125 28.321875 51.196877 28.696875Q51.68125 29.071875 52.540627 29.071875Q53.509377 29.071875 53.99375 28.728125Q54.30625 28.478125 54.30625 28.071875Q54.30625 27.790625 54.134377 27.603125Q53.946877 27.43125 53.30625 27.275Q50.321877 26.61875 49.525 26.071875Q48.415627 25.321875 48.415627 23.9625Q48.415627 22.759375 49.36875 21.93125Q50.3375 21.103125 52.3375 21.103125Q54.259377 21.103125 55.18125 21.728125Q56.11875 22.353125 56.478127 23.571875L54.15 24.009375Q53.99375 23.4625 53.571877 23.18125Q53.165627 22.884375 52.384377 22.884375Q51.415627 22.884375 50.99375 23.15Q50.7125 23.353125 50.7125 23.65Q50.7125 23.915625 50.9625 24.103125Q51.290627 24.353125 53.259377 24.80625Q55.228127 25.24375 56.025 25.9Q56.790627 26.55625 56.790627 27.728125Q56.790627 29.009375 55.7125 29.946875Q54.65 30.86875 52.540627 30.86875Q50.634377 30.86875 49.525 30.0875Q48.415627 29.30625 48.071877 27.99375ZM67.0875 24.071875L64.65 24.509375Q64.525 23.790625 64.0875 23.415625Q63.65 23.040625 62.9625 23.040625Q62.040627 23.040625 61.478127 23.68125Q60.93125 24.321875 60.93125 25.821875Q60.93125 27.478125 61.49375 28.165625Q62.05625 28.853125 62.99375 28.853125Q63.696877 28.853125 64.13438 28.446875Q64.5875 28.040625 64.775 27.071875L67.19688 27.478125Q66.82188 29.15 65.74375 30.009375Q64.68125 30.86875 62.884377 30.86875Q60.8375 30.86875 59.61875 29.571875Q58.4 28.275 58.4 25.99375Q58.4 23.68125 59.61875 22.4Q60.8375 21.103125 62.93125 21.103125Q64.63438 21.103125 65.63438 21.8375Q66.63438 22.571875 67.0875 24.071875ZM71.30625 30.65L68.8375 30.65L68.8375 21.321875L71.13438 21.321875L71.13438 22.65Q71.7125 21.696875 72.18125 21.4Q72.66563 21.103125 73.25938 21.103125Q74.10313 21.103125 74.88438 21.571875L74.11875 23.728125Q73.49375 23.321875 72.9625 23.321875Q72.44688 23.321875 72.07188 23.603125Q71.7125 23.884375 71.50938 24.634375Q71.30625 25.384375 71.30625 27.759375L71.30625 30.65ZM75.94688 20.05625L75.94688 17.759375L78.41563 17.759375L78.41563 20.05625L75.94688 20.05625ZM75.94688 30.65L75.94688 21.321875L78.41563 21.321875L78.41563 30.65L75.94688 30.65ZM80.86875 21.321875L83.18125 21.321875L83.18125 22.68125Q83.61875 21.978125 84.38438 21.540625Q85.15 21.103125 86.0875 21.103125Q87.7125 21.103125 88.8375 22.384375Q89.97813 23.65 89.97813 25.93125Q89.97813 28.275 88.8375 29.571875Q87.69688 30.86875 86.07188 30.86875Q85.29063 30.86875 84.66563 30.55625Q84.04063 30.24375 83.3375 29.49375L83.3375 34.196877L80.86875 34.196877L80.86875 21.321875ZM83.32188 25.821875Q83.32188 27.4 83.93125 28.15Q84.55625 28.9 85.4625 28.9Q86.32188 28.9 86.88438 28.2125Q87.4625 27.525 87.4625 25.946875Q87.4625 24.478125 86.86875 23.775Q86.29063 23.05625 85.41563 23.05625Q84.50938 23.05625 83.91563 23.759375Q83.32188 24.446875 83.32188 25.821875ZM96.22813 21.321875L96.22813 23.290625L94.54063 23.290625L94.54063 27.040625Q94.54063 28.18125 94.5875 28.384375Q94.63438 28.571875 94.80625 28.696875Q94.97813 28.80625 95.22813 28.80625Q95.55625 28.80625 96.2125 28.571875L96.43125 30.49375Q95.55625 30.86875 94.47813 30.86875Q93.80625 30.86875 93.25938 30.65Q92.72813 30.415625 92.47813 30.05625Q92.22813 29.696875 92.13438 29.0875Q92.05625 28.665625 92.05625 27.353125L92.05625 23.290625L90.91563 23.290625L90.91563 21.321875L92.05625 21.321875L92.05625 19.4625L94.54063 18.025L94.54063 21.321875L96.22813 21.321875ZM97.94688 20.05625L97.94688 17.759375L100.41563 17.759375L100.41563 20.05625L97.94688 20.05625ZM97.94688 30.65L97.94688 21.321875L100.41563 21.321875L100.41563 30.65L97.94688 30.65ZM102.36875 25.853125Q102.36875 24.61875 102.97813 23.478125Q103.5875 22.321875 104.69688 21.7125Q105.80625 21.103125 107.18125 21.103125Q109.29063 21.103125 110.65 22.478125Q112.00938 23.853125 112.00938 25.9625Q112.00938 28.071875 110.63438 29.478125Q109.275 30.86875 107.19688 30.86875Q105.91563 30.86875 104.74375 30.290625Q103.5875 29.696875 102.97813 28.5875Q102.36875 27.4625 102.36875 25.853125ZM104.9 25.978125Q104.9 27.36875 105.55625 28.11875Q106.22813 28.853125 107.18125 28.853125Q108.15 28.853125 108.80625 28.11875Q109.4625 27.36875 109.4625 25.9625Q109.4625 24.5875 108.80625 23.853125Q108.15 23.11875 107.18125 23.11875Q106.22813 23.11875 105.55625 23.853125Q104.9 24.5875 104.9 25.978125ZM122.43125 30.65L119.9625 30.65L119.9625 25.884375Q119.9625 24.36875 119.80625 23.93125Q119.65 23.49375 119.29063 23.24375Q118.93125 22.99375 118.43125 22.99375Q117.79063 22.99375 117.275 23.353125Q116.775 23.696875 116.5875 24.275Q116.4 24.853125 116.4 26.415625L116.4 30.65L113.93125 30.65L113.93125 21.321875L116.2125 21.321875L116.2125 22.68125Q117.44688 21.103125 119.29063 21.103125Q120.11875 21.103125 120.79063 21.4Q121.4625 21.696875 121.80625 22.15Q122.16563 22.603125 122.29063 23.196875Q122.43125 23.775 122.43125 24.853125L122.43125 30.65ZM129.30624 26.4625L131.8375 26.2125Q132.05624 27.478125 132.75937 28.0875Q133.4625 28.68125 134.65 28.68125Q135.9 28.68125 136.54062 28.15Q137.18124 27.61875 137.18124 26.9Q137.18124 26.446875 136.9 26.134375Q136.63437 25.80625 135.97812 25.571875Q135.50937 25.415625 133.88437 25.009375Q131.79062 24.49375 130.94687 23.728125Q129.75937 22.665625 129.75937 21.134375Q129.75937 20.15 130.32187 19.30625Q130.88437 18.446875 131.93124 17.99375Q132.97812 17.540625 134.4625 17.540625Q136.9 17.540625 138.11874 18.603125Q139.35312 19.665625 139.41562 21.446875L136.80624 21.55625Q136.63437 20.571875 136.0875 20.134375Q135.54062 19.696875 134.44687 19.696875Q133.30624 19.696875 132.66562 20.165625Q132.25937 20.4625 132.25937 20.9625Q132.25937 21.415625 132.63437 21.74375Q133.13437 22.165625 135.025 22.61875Q136.93124 23.05625 137.8375 23.540625Q138.74374 24.009375 139.25937 24.853125Q139.775 25.68125 139.775 26.9Q139.775 28.009375 139.15 28.978125Q138.54062 29.93125 137.41562 30.415625Q136.29062 30.884375 134.61874 30.884375Q132.18124 30.884375 130.86874 29.759375Q129.55624 28.61875 129.30624 26.4625ZM146.22812 21.321875L146.22812 23.290625L144.54062 23.290625L144.54062 27.040625Q144.54062 28.18125 144.5875 28.384375Q144.63437 28.571875 144.80624 28.696875Q144.97812 28.80625 145.22812 28.80625Q145.55624 28.80625 146.2125 28.571875L146.43124 30.49375Q145.55624 30.86875 144.47812 30.86875Q143.80624 30.86875 143.25937 30.65Q142.72812 30.415625 142.47812 30.05625Q142.22812 29.696875 142.13437 29.0875Q142.05624 28.665625 142.05624 27.353125L142.05624 23.290625L140.91562 23.290625L140.91562 21.321875L142.05624 21.321875L142.05624 19.4625L144.54062 18.025L144.54062 21.321875L146.22812 21.321875ZM149.79062 24.165625L147.54062 23.759375Q147.93124 22.4 148.85312 21.759375Q149.775 21.103125 151.5875 21.103125Q153.24374 21.103125 154.04062 21.49375Q154.85312 21.884375 155.18124 22.49375Q155.525 23.0875 155.525 24.696875L155.49374 27.5875Q155.49374 28.80625 155.60312 29.4Q155.72812 29.978125 156.05624 30.65L153.61874 30.65Q153.50937 30.4 153.36874 29.915625Q153.30624 29.696875 153.29062 29.634375Q152.65 30.24375 151.93124 30.55625Q151.2125 30.86875 150.4 30.86875Q148.94687 30.86875 148.11874 30.0875Q147.29062 29.290625 147.29062 28.103125Q147.29062 27.30625 147.66562 26.696875Q148.04062 26.071875 148.72812 25.74375Q149.41562 25.415625 150.69687 25.165625Q152.43124 24.8375 153.0875 24.55625L153.0875 24.30625Q153.0875 23.603125 152.72812 23.30625Q152.38437 22.99375 151.41562 22.99375Q150.75937 22.99375 150.38437 23.259375Q150.00937 23.509375 149.79062 24.165625ZM153.0875 26.165625Q152.61874 26.321875 151.5875 26.540625Q150.55624 26.759375 150.24374 26.978125Q149.75937 27.321875 149.75937 27.853125Q149.75937 28.36875 150.15 28.74375Q150.54062 29.11875 151.13437 29.11875Q151.80624 29.11875 152.4 28.68125Q152.85312 28.353125 152.99374 27.86875Q153.0875 27.540625 153.0875 26.665625L153.0875 26.165625ZM162.22812 21.321875L162.22812 23.290625L160.54062 23.290625L160.54062 27.040625Q160.54062 28.18125 160.5875 28.384375Q160.63437 28.571875 160.80624 28.696875Q160.97812 28.80625 161.22812 28.80625Q161.55624 28.80625 162.2125 28.571875L162.43124 30.49375Q161.55624 30.86875 160.47812 30.86875Q159.80624 30.86875 159.25937 30.65Q158.72812 30.415625 158.47812 30.05625Q158.22812 29.696875 158.13437 29.0875Q158.05624 28.665625 158.05624 27.353125L158.05624 23.290625L156.91562 23.290625L156.91562 21.321875L158.05624 21.321875L158.05624 19.4625L160.54062 18.025L160.54062 21.321875L162.22812 21.321875ZM170.0875 30.65L170.0875 29.259375Q169.57187 29.99375 168.74374 30.43125Q167.91562 30.86875 166.99374 30.86875Q166.05624 30.86875 165.30624 30.4625Q164.55624 30.040625 164.2125 29.290625Q163.88437 28.540625 163.88437 27.228125L163.88437 21.321875L166.35312 21.321875L166.35312 25.603125Q166.35312 27.571875 166.49374 28.025Q166.63437 28.4625 166.99374 28.728125Q167.35312 28.978125 167.9 28.978125Q168.54062 28.978125 169.04062 28.634375Q169.54062 28.290625 169.72812 27.775Q169.91562 27.259375 169.91562 25.259375L169.91562 21.321875L172.38437 21.321875L172.38437 30.65L170.0875 30.65ZM174.07187 27.99375L176.55624 27.603125Q176.7125 28.321875 177.19687 28.696875Q177.68124 29.071875 178.54062 29.071875Q179.50937 29.071875 179.99374 28.728125Q180.30624 28.478125 180.30624 28.071875Q180.30624 27.790625 180.13437 27.603125Q179.94687 27.43125 179.30624 27.275Q176.32187 26.61875 175.525 26.071875Q174.41562 25.321875 174.41562 23.9625Q174.41562 22.759375 175.36874 21.93125Q176.3375 21.103125 178.3375 21.103125Q180.25937 21.103125 181.18124 21.728125Q182.11874 22.353125 182.47812 23.571875L180.15 24.009375Q179.99374 23.4625 179.57187 23.18125Q179.16562 22.884375 178.38437 22.884375Q177.41562 22.884375 176.99374 23.15Q176.7125 23.353125 176.7125 23.65Q176.7125 23.915625 176.9625 24.103125Q177.29062 24.353125 179.25937 24.80625Q181.22812 25.24375 182.025 25.9Q182.79062 26.55625 182.79062 27.728125Q182.79062 29.009375 181.7125 29.946875Q180.65 30.86875 178.54062 30.86875Q176.63437 30.86875 175.525 30.0875Q174.41562 29.30625 174.07187 27.99375Z" fill-rule="nonzero"/></svg>