<svg version="1.1" viewBox="0.0 0.0 747.0 462.0" fill="none" stroke="none" stroke-linecap="square" stroke-miterlimit="10" width="747" height="462" xmlns:xlink="http://www.w3.org/1999/xlink" xmlns="http://www.w3.org/2000/svg"><path fill="#ffffff" d="M0 0L747.0 0L747.0 462.0L0 462.0L0 0Z" fill-rule="nonzero"/><path stroke="#333333" stroke-width="1.0" stroke-linecap="butt" d="M194.5 82.5L194.5 386.5" fill-rule="nonzero"/><path stroke="#cccccc" stroke-width="1.0" stroke-linecap="butt" d="M327.5 82.5L327.5 386.5" fill-rule="nonzero"/><path stroke="#cccccc" stroke-width="1.0" stroke-linecap="butt" d="M459.5 82.5L459.5 386.5" fill-rule="nonzero"/><path stroke="#cccccc" stroke-width="1.0" stroke-linecap="butt" d="M591.5 82.5L591.5 386.5" fill-rule="nonzero"/><path stroke="#cccccc" stroke-width="1.0" stroke-linecap="butt" d="M723.5 82.5L723.5 386.5" fill-rule="nonzero"/><clipPath id="id_0"><path d="M194.86 82.25L723.9 82.25L723.9 386.9L194.86 386.9L194.86 82.25Z" clip-rule="nonzero"/></clipPath><path stroke="#000000" stroke-width="2.0" stroke-linecap="butt" stroke-opacity="0.0" clip-path="url(#id_0)" d="M195.0 131.0L195.0 100.0L563.0 100.0C564.10455 100.0 565.0 100.89543 565.0 102.0L565.0 129.0C565.0 130.10457 564.10455 131.0 563.0 131.0Z" fill-rule="nonzero"/><path fill="#4285f4" clip-path="url(#id_0)" d="M195.0 131.0L195.0 100.0L563.0 100.0C564.10455 100.0 565.0 100.89543 565.0 102.0L565.0 129.0C565.0 130.10457 564.10455 131.0 563.0 131.0Z" fill-rule="nonzero"/><path stroke="#000000" stroke-width="2.0" stroke-linecap="butt" stroke-opacity="0.0" clip-path="url(#id_0)" d="M195.0 179.0L195.0 148.0L378.0 148.0C379.10458 148.0 380.0 148.89543 380.0 150.0L380.0 177.0C380.0 178.10457 379.10458 179.0 378.0 179.0Z" fill-rule="nonzero"/><path fill="#4285f4" clip-path="url(#id_0)" d="M195.0 179.0L195.0 148.0L378.0 148.0C379.10458 148.0 380.0 148.89543 380.0 150.0L380.0 177.0C380.0 178.10457 379.10458 179.0 378.0 179.0Z" fill-rule="nonzero"/><path stroke="#000000" stroke-width="2.0" stroke-linecap="butt" stroke-opacity="0.0" clip-path="url(#id_0)" d="M195.0 227.0L195.0 196.0L616.0 196.0C617.10455 196.0 618.0 196.89543 618.0 198.0L618.0 225.0C618.0 226.10457 617.10455 227.0 616.0 227.0Z" fill-rule="nonzero"/><path fill="#4285f4" clip-path="url(#id_0)" d="M195.0 227.0L195.0 196.0L616.0 196.0C617.10455 196.0 618.0 196.89543 618.0 198.0L618.0 225.0C618.0 226.10457 617.10455 227.0 616.0 227.0Z" fill-rule="nonzero"/><path stroke="#000000" stroke-width="2.0" stroke-linecap="butt" stroke-opacity="0.0" clip-path="url(#id_0)" d="M195.0 275.0L195.0 244.0L299.0 244.0C300.10458 244.0 301.0 244.89543 301.0 246.0L301.0 273.0C301.0 274.10458 300.10458 275.0 299.0 275.0Z" fill-rule="nonzero"/><path fill="#4285f4" clip-path="url(#id_0)" d="M195.0 275.0L195.0 244.0L299.0 244.0C300.10458 244.0 301.0 244.89543 301.0 246.0L301.0 273.0C301.0 274.10458 300.10458 275.0 299.0 275.0Z" fill-rule="nonzero"/><path stroke="#000000" stroke-width="2.0" stroke-linecap="butt" stroke-opacity="0.0" clip-path="url(#id_0)" d="M195.0 323.0L195.0 292.0L299.0 292.0C300.10458 292.0 301.0 292.89542 301.0 294.0L301.0 321.0C301.0 322.10458 300.10458 323.0 299.0 323.0Z" fill-rule="nonzero"/><path fill="#4285f4" clip-path="url(#id_0)" d="M195.0 323.0L195.0 292.0L299.0 292.0C300.10458 292.0 301.0 292.89542 301.0 294.0L301.0 321.0C301.0 322.10458 300.10458 323.0 299.0 323.0Z" fill-rule="nonzero"/><path stroke="#000000" stroke-width="2.0" stroke-linecap="butt" stroke-opacity="0.0" clip-path="url(#id_0)" d="M195.0 371.0L195.0 340.0L219.0 340.0C220.10457 340.0 221.0 340.89542 221.0 342.0L221.0 369.0C221.0 370.10458 220.10457 371.0 219.0 371.0Z" fill-rule="nonzero"/><path fill="#4285f4" clip-path="url(#id_0)" d="M195.0 371.0L195.0 340.0L219.0 340.0C220.10457 340.0 221.0 340.89542 221.0 342.0L221.0 369.0C221.0 370.10458 220.10457 371.0 219.0 371.0Z" fill-rule="nonzero"/><path stroke="#ffffff" stroke-width="3.0" stroke-linejoin="round" stroke-linecap="round" d="M581.4536 119.5L580.3755 119.5L580.3755 112.28125L578.188 113.078125L578.188 112.09375L581.29736 110.921875L581.4536 110.921875L581.4536 119.5ZM589.46924 116.640625L590.65674 116.640625L590.65674 117.515625L589.46924 117.515625L589.46924 119.5L588.3911 119.5L588.3911 117.515625L584.5005 117.515625L584.5005 116.875L588.313 110.96875L589.46924 110.96875L589.46924 116.640625ZM585.73486 116.640625L588.3911 116.640625L588.3911 112.453125L588.2505 112.6875L585.73486 116.640625Z" fill-rule="nonzero"/><path fill="#4285f4" d="M581.4536 119.5L580.3755 119.5L580.3755 112.28125L578.188 113.078125L578.188 112.09375L581.29736 110.921875L581.4536 110.921875L581.4536 119.5ZM589.46924 116.640625L590.65674 116.640625L590.65674 117.515625L589.46924 117.515625L589.46924 119.5L588.3911 119.5L588.3911 117.515625L584.5005 117.515625L584.5005 116.875L588.313 110.96875L589.46924 110.96875L589.46924 116.640625ZM585.73486 116.640625L588.3911 116.640625L588.3911 112.453125L588.2505 112.6875L585.73486 116.640625Z" fill-rule="nonzero"/><path stroke="#ffffff" stroke-width="3.0" stroke-linejoin="round" stroke-linecap="round" d="M398.24274 159.57812L394.7115 167.5L393.57086 167.5L397.0865 159.85938L392.4771 159.85938L392.4771 158.96875L398.24274 158.96875L398.24274 159.57812Z" fill-rule="nonzero"/><path fill="#4285f4" d="M398.24274 159.57812L394.7115 167.5L393.57086 167.5L397.0865 159.85938L392.4771 159.85938L392.4771 158.96875L398.24274 158.96875L398.24274 159.57812Z" fill-rule="nonzero"/><path stroke="#ffffff" stroke-width="3.0" stroke-linejoin="round" stroke-linecap="round" d="M634.3576 215.5L633.2795 215.5L633.2795 208.28125L631.092 209.07812L631.092 208.09375L634.20135 206.92188L634.3576 206.92188L634.3576 215.5ZM642.0607 206.96875L642.0607 207.875L641.8576 207.875Q640.592 207.90625 639.842 208.64062Q639.092 209.35938 638.967 210.67188Q639.6545 209.90625 640.8107 209.90625Q641.9201 209.90625 642.592 210.6875Q643.26385 211.46875 643.26385 212.71875Q643.26385 214.03125 642.5451 214.82812Q641.82635 215.625 640.6076 215.625Q639.38885 215.625 638.6232 214.6875Q637.8732 213.73438 637.8732 212.25L637.8732 211.84375Q637.8732 209.48438 638.8732 208.23438Q639.8732 206.98438 641.8576 206.96875L642.0607 206.96875ZM640.63885 210.8125Q640.07635 210.8125 639.6076 211.14062Q639.13885 211.46875 638.95135 211.98438L638.95135 212.375Q638.95135 213.4375 639.4201 214.07812Q639.9045 214.71875 640.6076 214.71875Q641.342 214.71875 641.76385 214.1875Q642.1857 213.64062 642.1857 212.76562Q642.1857 211.89062 641.76385 211.35938Q641.342 210.8125 640.63885 210.8125Z" fill-rule="nonzero"/><path fill="#4285f4" d="M634.3576 215.5L633.2795 215.5L633.2795 208.28125L631.092 209.07812L631.092 208.09375L634.20135 206.92188L634.3576 206.92188L634.3576 215.5ZM642.0607 206.96875L642.0607 207.875L641.8576 207.875Q640.592 207.90625 639.842 208.64062Q639.092 209.35938 638.967 210.67188Q639.6545 209.90625 640.8107 209.90625Q641.9201 209.90625 642.592 210.6875Q643.26385 211.46875 643.26385 212.71875Q643.26385 214.03125 642.5451 214.82812Q641.82635 215.625 640.6076 215.625Q639.38885 215.625 638.6232 214.6875Q637.8732 213.73438 637.8732 212.25L637.8732 211.84375Q637.8732 209.48438 638.8732 208.23438Q639.8732 206.98438 641.8576 206.96875L642.0607 206.96875ZM640.63885 210.8125Q640.07635 210.8125 639.6076 211.14062Q639.13885 211.46875 638.95135 211.98438L638.95135 212.375Q638.95135 213.4375 639.4201 214.07812Q639.9045 214.71875 640.6076 214.71875Q641.342 214.71875 641.76385 214.1875Q642.1857 213.64062 642.1857 212.76562Q642.1857 211.89062 641.76385 211.35938Q641.342 210.8125 640.63885 210.8125Z" fill-rule="nonzero"/><path stroke="#ffffff" stroke-width="3.0" stroke-linejoin="round" stroke-linecap="round" d="M317.94925 260.64062L319.13675 260.64062L319.13675 261.51562L317.94925 261.51562L317.94925 263.5L316.87112 263.5L316.87112 261.51562L312.9805 261.51562L312.9805 260.875L316.793 254.96875L317.94925 254.96875L317.94925 260.64062ZM314.21487 260.64062L316.87112 260.64062L316.87112 256.45312L316.7305 256.6875L314.21487 260.64062Z" fill-rule="nonzero"/><path fill="#4285f4" d="M317.94925 260.64062L319.13675 260.64062L319.13675 261.51562L317.94925 261.51562L317.94925 263.5L316.87112 263.5L316.87112 261.51562L312.9805 261.51562L312.9805 260.875L316.793 254.96875L317.94925 254.96875L317.94925 260.64062ZM314.21487 260.64062L316.87112 260.64062L316.87112 256.45312L316.7305 256.6875L314.21487 260.64062Z" fill-rule="nonzero"/><path stroke="#ffffff" stroke-width="3.0" stroke-linejoin="round" stroke-linecap="round" d="M317.94925 308.64062L319.13675 308.64062L319.13675 309.51562L317.94925 309.51562L317.94925 311.5L316.87112 311.5L316.87112 309.51562L312.9805 309.51562L312.9805 308.875L316.793 302.96875L317.94925 302.96875L317.94925 308.64062ZM314.21487 308.64062L316.87112 308.64062L316.87112 304.45312L316.7305 304.6875L314.21487 308.64062Z" fill-rule="nonzero"/><path fill="#4285f4" d="M317.94925 308.64062L319.13675 308.64062L319.13675 309.51562L317.94925 309.51562L317.94925 311.5L316.87112 311.5L316.87112 309.51562L312.9805 309.51562L312.9805 308.875L316.793 302.96875L317.94925 302.96875L317.94925 308.64062ZM314.21487 308.64062L316.87112 308.64062L316.87112 304.45312L316.7305 304.6875L314.21487 308.64062Z" fill-rule="nonzero"/><path stroke="#ffffff" stroke-width="3.0" stroke-linejoin="round" stroke-linecap="round" d="M237.57762 359.5L236.4995 359.5L236.4995 352.28125L234.312 353.07812L234.312 352.09375L237.42137 350.92188L237.57762 350.92188L237.57762 359.5Z" fill-rule="nonzero"/><path fill="#4285f4" d="M237.57762 359.5L236.4995 359.5L236.4995 352.28125L234.312 353.07812L234.312 352.09375L237.42137 350.92188L237.57762 350.92188L237.57762 359.5Z" fill-rule="nonzero"/><path fill="#000000" d="M449.255 432.74374L450.92688 433.275Q450.55188 434.68124 449.64563 435.36874Q448.73938 436.04062 447.36438 436.04062Q445.64563 436.04062 444.53625 434.88437Q443.4425 433.7125 443.4425 431.68124Q443.4425 429.54062 444.55188 428.35312Q445.66125 427.16562 447.47375 427.16562Q449.05188 427.16562 450.03625 428.0875Q450.61438 428.65 450.91125 429.68124L449.1925 430.0875Q449.03625 429.41562 448.55188 429.04062Q448.0675 428.65 447.38 428.65Q446.42688 428.65 445.83313 429.3375Q445.23938 430.00937 445.23938 431.55624Q445.23938 433.18124 445.8175 433.86874Q446.41125 434.55624 447.34875 434.55624Q448.03625 434.55624 448.53625 434.11874Q449.03625 433.68124 449.255 432.74374ZM451.36438 432.69687Q451.36438 431.88437 451.77063 431.11874Q452.17688 430.3375 452.91125 429.94687Q453.64563 429.54062 454.5675 429.54062Q455.97375 429.54062 456.88 430.4625Q457.78625 431.36874 457.78625 432.775Q457.78625 434.18124 456.86438 435.11874Q455.95813 436.04062 454.58313 436.04062Q453.72375 436.04062 452.9425 435.65Q452.17688 435.25937 451.77063 434.525Q451.36438 433.775 451.36438 432.69687ZM453.05188 432.79062Q453.05188 433.7125 453.48938 434.2125Q453.92688 434.69687 454.5675 434.69687Q455.22375 434.69687 455.64563 434.2125Q456.08313 433.7125 456.08313 432.775Q456.08313 431.86874 455.64563 431.38437Q455.22375 430.88437 454.5675 430.88437Q453.92688 430.88437 453.48938 431.38437Q453.05188 431.86874 453.05188 432.79062ZM462.83313 435.9L462.83313 434.9625Q462.505 435.4625 461.9425 435.75937Q461.39563 436.04062 460.77063 436.04062Q460.14563 436.04062 459.64563 435.775Q459.14563 435.49374 458.92688 434.99374Q458.70813 434.49374 458.70813 433.61874L458.70813 429.68124L460.34875 429.68124L460.34875 432.54062Q460.34875 433.85312 460.4425 434.15Q460.53625 434.44687 460.77063 434.61874Q461.02063 434.79062 461.38 434.79062Q461.80188 434.79062 462.13 434.55624Q462.47375 434.32187 462.59875 433.97812Q462.72375 433.63437 462.72375 432.30624L462.72375 429.68124L464.36438 429.68124L464.36438 435.9L462.83313 435.9ZM471.39563 435.9L469.755 435.9L469.755 432.72812Q469.755 431.7125 469.64563 431.41562Q469.55188 431.11874 469.30188 430.9625Q469.0675 430.79062 468.73938 430.79062Q468.30188 430.79062 467.95813 431.025Q467.63 431.25937 467.505 431.65Q467.38 432.04062 467.38 433.0875L467.38 435.9L465.72375 435.9L465.72375 429.68124L467.255 429.68124L467.255 430.5875Q468.0675 429.54062 469.3175 429.54062Q469.84875 429.54062 470.30188 429.74374Q470.755 429.93124 470.98938 430.24374Q471.22375 430.54062 471.30188 430.93124Q471.39563 431.30624 471.39563 432.025L471.39563 435.9ZM475.59875 429.68124L475.59875 430.99374L474.47375 430.99374L474.47375 433.49374Q474.47375 434.25937 474.505 434.38437Q474.53625 434.50937 474.64563 434.60312Q474.77063 434.68124 474.92688 434.68124Q475.16125 434.68124 475.58313 434.50937L475.72375 435.79062Q475.16125 436.04062 474.42688 436.04062Q473.98938 436.04062 473.63 435.9Q473.27063 435.74374 473.09875 435.50937Q472.9425 435.25937 472.86438 434.86874Q472.8175 434.57187 472.8175 433.69687L472.8175 430.99374L472.0675 430.99374L472.0675 429.68124L472.8175 429.68124L472.8175 428.44687L474.47375 427.47812L474.47375 429.68124L475.59875 429.68124Z" fill-rule="nonzero"/><path fill="#000000" d="M34.099995 265.2L25.506245 265.2L25.506245 261.54376Q25.506245 260.16876 25.74062 259.54376Q25.974995 258.91876 26.568745 258.54376Q27.162495 258.16876 27.912495 258.16876Q28.881245 258.16876 29.52187 258.7469Q30.14687 259.3094 30.30312 260.4344Q30.631245 259.8719 31.037495 259.5125Q31.42812 259.1375 32.42812 258.52814L34.099995 257.46564L34.099995 259.54376L32.224995 260.79376Q31.224995 261.46564 30.974995 261.71564Q30.70937 261.96564 30.61562 262.2469Q30.506245 262.5125 30.506245 263.10626L30.506245 263.46564L34.099995 263.46564L34.099995 265.2ZM29.14687 263.46564L29.14687 262.1844Q29.14687 260.9344 29.037495 260.6219Q28.92812 260.3094 28.67812 260.1375Q28.412495 259.95 28.02187 259.95Q27.599995 259.95 27.33437 260.1844Q27.068745 260.41876 26.99062 260.84064Q26.95937 261.0594 26.95937 262.10626L26.95937 263.46564L29.14687 263.46564ZM32.11562 253.60625L32.39687 251.96562Q33.30312 252.27812 33.77187 252.96562Q34.24062 253.65312 34.24062 254.66875Q34.24062 256.29376 33.17812 257.075Q32.33437 257.7 31.037495 257.7Q29.49062 257.7 28.61562 256.8875Q27.74062 256.075 27.74062 254.84062Q27.74062 253.45 28.662495 252.65312Q29.568745 251.84062 31.45937 251.8875L31.45937 256.0125Q32.193745 255.98125 32.599995 255.60625Q33.006245 255.23125 33.006245 254.65312Q33.006245 254.27812 32.80312 254.0125Q32.58437 253.74687 32.11562 253.60625ZM30.45937 253.5125Q29.74062 253.52812 29.36562 253.8875Q28.99062 254.23125 28.99062 254.74687Q28.99062 255.27812 29.381245 255.6375Q29.787495 255.98125 30.45937 255.98125L30.45937 253.5125ZM29.77187 248.98125L29.506245 250.48125Q28.599995 250.23125 28.17812 249.62187Q27.74062 248.99687 27.74062 247.77812Q27.74062 246.68437 28.006245 246.15312Q28.256245 245.60625 28.662495 245.3875Q29.05312 245.16875 30.131245 245.16875L32.05312 245.18437Q32.881245 245.18437 33.27187 245.10625Q33.64687 245.02812 34.099995 244.80937L34.099995 246.43437Q33.92812 246.49687 33.61562 246.59062Q33.45937 246.6375 33.412495 246.65312Q33.83437 247.075 34.037495 247.55937Q34.24062 248.02812 34.24062 248.575Q34.24062 249.54375 33.724995 250.10625Q33.193745 250.65312 32.39687 250.65312Q31.86562 250.65312 31.45937 250.40312Q31.05312 250.1375 30.83437 249.68437Q30.599995 249.23125 30.443745 248.37187Q30.224995 247.23125 30.037495 246.77812L29.881245 246.77812Q29.39687 246.77812 29.193745 247.0125Q28.99062 247.24687 28.99062 247.90312Q28.99062 248.34062 29.162495 248.59062Q29.33437 248.825 29.77187 248.98125ZM31.11562 246.77812Q31.20937 247.09062 31.36562 247.77812Q31.506245 248.46562 31.64687 248.68437Q31.881245 248.99687 32.224995 248.99687Q32.568745 248.99687 32.83437 248.74687Q33.08437 248.48125 33.08437 248.09062Q33.08437 247.6375 32.787495 247.23125Q32.568745 246.93437 32.24062 246.84062Q32.037495 246.77812 31.443745 246.77812L31.11562 246.77812ZM32.318745 243.79375L32.068745 242.1375Q32.55312 242.02812 32.80312 241.71562Q33.05312 241.3875 33.05312 240.80937Q33.05312 240.16875 32.818745 239.85625Q32.64687 239.6375 32.381245 239.6375Q32.193745 239.6375 32.068745 239.74687Q31.943745 239.87187 31.849995 240.29375Q31.412495 242.29375 31.05312 242.825Q30.537495 243.55937 29.64687 243.55937Q28.83437 243.55937 28.287495 242.93437Q27.74062 242.29375 27.74062 240.95Q27.74062 239.66875 28.162495 239.04375Q28.568745 238.41875 29.381245 238.18437L29.662495 239.74687Q29.30312 239.84062 29.11562 240.12187Q28.912495 240.40312 28.912495 240.91875Q28.912495 241.55937 29.099995 241.84062Q29.224995 242.02812 29.42812 242.02812Q29.61562 242.02812 29.74062 241.87187Q29.89687 241.65312 30.193745 240.34062Q30.49062 239.0125 30.92812 238.49687Q31.36562 237.98125 32.14687 237.98125Q33.006245 237.98125 33.631245 238.7Q34.24062 239.40312 34.24062 240.80937Q34.24062 242.075 33.724995 242.825Q33.20937 243.55937 32.318745 243.79375ZM30.89687 236.59062Q30.08437 236.59062 29.318745 236.18437Q28.537495 235.77812 28.14687 235.04375Q27.74062 234.30937 27.74062 233.3875Q27.74062 231.98125 28.662495 231.075Q29.568745 230.16875 30.974995 230.16875Q32.381245 230.16875 33.318745 231.09062Q34.24062 231.99687 34.24062 233.37187Q34.24062 234.23125 33.849995 235.0125Q33.45937 235.77812 32.724995 236.18437Q31.974995 236.59062 30.89687 236.59062ZM30.99062 234.90312Q31.912495 234.90312 32.412495 234.46562Q32.89687 234.02812 32.89687 233.3875Q32.89687 232.73125 32.412495 232.30937Q31.912495 231.87187 30.974995 231.87187Q30.068745 231.87187 29.58437 232.30937Q29.08437 232.73125 29.08437 233.3875Q29.08437 234.02812 29.58437 234.46562Q30.068745 234.90312 30.99062 234.90312ZM34.099995 223.55937L34.099995 225.2L30.92812 225.2Q29.912495 225.2 29.61562 225.30937Q29.318745 225.40312 29.162495 225.65312Q28.99062 225.8875 28.99062 226.21562Q28.99062 226.65312 29.224995 226.99687Q29.45937 227.325 29.849995 227.45Q30.24062 227.575 31.287495 227.575L34.099995 227.575L34.099995 229.23125L27.881245 229.23125L27.881245 227.7L28.787495 227.7Q27.74062 226.8875 27.74062 225.6375Q27.74062 225.10625 27.943745 224.65312Q28.131245 224.2 28.443745 223.96562Q28.74062 223.73125 29.131245 223.65312Q29.506245 223.55937 30.224995 223.55937L34.099995 223.55937Z" fill-rule="nonzero"/><path fill="#000000" d="M125.781876 111.634056L125.781876 103.040306L128.75063 103.040306Q129.75063 103.040306 130.28188 103.165306Q131.01625 103.33718 131.53188 103.77468Q132.21938 104.352806 132.5475 105.259056Q132.89125 106.14968 132.89125 107.290306Q132.89125 108.27468 132.65688 109.02468Q132.43813 109.77468 132.07875 110.27468Q131.71938 110.77468 131.28188 111.05593Q130.86 111.33718 130.26625 111.49343Q129.6725 111.634056 128.89125 111.634056L125.781876 111.634056ZM126.9225 110.61843L128.75063 110.61843Q129.61 110.61843 130.09438 110.46218Q130.57875 110.30593 130.86 110.009056Q131.26625 109.61843 131.485 108.93093Q131.71938 108.24343 131.71938 107.27468Q131.71938 105.93093 131.26625 105.21218Q130.82875 104.477806 130.20375 104.227806Q129.735 104.05593 128.735 104.05593L126.9225 104.05593L126.9225 110.61843ZM134.65688 104.259056L134.65688 103.040306L135.71938 103.040306L135.71938 104.259056L134.65688 104.259056ZM134.65688 111.634056L134.65688 105.415306L135.71938 105.415306L135.71938 111.634056L134.65688 111.634056ZM141.68813 111.634056L141.68813 110.852806Q141.09438 111.77468 139.95375 111.77468Q139.20375 111.77468 138.57875 111.36843Q137.95375 110.946556 137.61 110.21218Q137.26625 109.477806 137.26625 108.52468Q137.26625 107.602806 137.57875 106.83718Q137.89125 106.071556 138.51625 105.68093Q139.14125 105.27468 139.90688 105.27468Q140.46938 105.27468 140.90688 105.509056Q141.34438 105.74343 141.62563 106.11843L141.62563 103.040306L142.6725 103.040306L142.6725 111.634056L141.68813 111.634056ZM138.36 108.52468Q138.36 109.727806 138.86 110.321556Q139.36 110.89968 140.0475 110.89968Q140.735 110.89968 141.21938 110.33718Q141.70375 109.77468 141.70375 108.61843Q141.70375 107.33718 141.20375 106.74343Q140.71938 106.14968 140.00063 106.14968Q139.2975 106.14968 138.82875 106.727806Q138.36 107.290306 138.36 108.52468ZM144.65688 111.634056L144.65688 105.415306L145.59438 105.415306L145.59438 106.290306Q146.28188 105.27468 147.57875 105.27468Q148.14125 105.27468 148.61 105.477806Q149.09438 105.68093 149.32875 106.009056Q149.56313 106.33718 149.65688 106.77468Q149.70375 107.071556 149.70375 107.80593L149.70375 111.634056L148.65688 111.634056L148.65688 107.852806Q148.65688 107.196556 148.53188 106.884056Q148.40688 106.571556 148.09438 106.384056Q147.78188 106.18093 147.36 106.18093Q146.68813 106.18093 146.18813 106.61843Q145.70375 107.040306 145.70375 108.227806L145.70375 111.634056L144.65688 111.634056ZM151.65688 106.08718L151.39125 104.477806L151.39125 103.040306L152.59438 103.040306L152.59438 104.477806L152.31313 106.08718L151.65688 106.08718ZM155.95375 110.696556L156.11 111.61843Q155.65688 111.71218 155.31313 111.71218Q154.735 111.71218 154.4225 111.540306Q154.11 111.352806 153.96938 111.05593Q153.84438 110.759056 153.84438 109.80593L153.84438 106.227806L153.07875 106.227806L153.07875 105.415306L153.84438 105.415306L153.84438 103.86843L154.89125 103.24343L154.89125 105.415306L155.95375 105.415306L155.95375 106.227806L154.89125 106.227806L154.89125 109.86843Q154.89125 110.321556 154.93813 110.446556Q155.00063 110.571556 155.12563 110.64968Q155.25063 110.727806 155.485 110.727806Q155.6725 110.727806 155.95375 110.696556ZM159.78188 111.634056L159.78188 103.040306L160.93813 103.040306L165.45375 109.790306L165.45375 103.040306L166.5475 103.040306L166.5475 111.634056L165.37563 111.634056L160.86 104.884056L160.86 111.634056L159.78188 111.634056ZM172.90688 109.634056L174.00063 109.759056Q173.75063 110.71218 173.0475 111.24343Q172.34438 111.77468 171.26625 111.77468Q169.90688 111.77468 169.09438 110.93093Q168.2975 110.08718 168.2975 108.571556Q168.2975 107.009056 169.11 106.14968Q169.9225 105.27468 171.20375 105.27468Q172.45375 105.27468 173.235 106.11843Q174.03188 106.96218 174.03188 108.509056Q174.03188 108.602806 174.03188 108.790306L169.39125 108.790306Q169.45375 109.821556 169.96938 110.36843Q170.485 110.89968 171.26625 110.89968Q171.84438 110.89968 172.25063 110.602806Q172.6725 110.290306 172.90688 109.634056ZM169.45375 107.93093L172.9225 107.93093Q172.86 107.134056 172.53188 106.74343Q172.01625 106.134056 171.21938 106.134056Q170.485 106.134056 169.985 106.61843Q169.50063 107.102806 169.45375 107.93093ZM179.90688 109.634056L181.00063 109.759056Q180.75063 110.71218 180.0475 111.24343Q179.34438 111.77468 178.26625 111.77468Q176.90688 111.77468 176.09438 110.93093Q175.2975 110.08718 175.2975 108.571556Q175.2975 107.009056 176.11 106.14968Q176.9225 105.27468 178.20375 105.27468Q179.45375 105.27468 180.235 106.11843Q181.03188 106.96218 181.03188 108.509056Q181.03188 108.602806 181.03188 108.790306L176.39125 108.790306Q176.45375 109.821556 176.96938 110.36843Q177.485 110.89968 178.26625 110.89968Q178.84438 110.89968 179.25063 110.602806Q179.6725 110.290306 179.90688 109.634056ZM176.45375 107.93093L179.9225 107.93093Q179.86 107.134056 179.53188 106.74343Q179.01625 106.134056 178.21938 106.134056Q177.485 106.134056 176.985 106.61843Q176.50063 107.102806 176.45375 107.93093ZM186.68813 111.634056L186.68813 110.852806Q186.09438 111.77468 184.95375 111.77468Q184.20375 111.77468 183.57875 111.36843Q182.95375 110.946556 182.61 110.21218Q182.26625 109.477806 182.26625 108.52468Q182.26625 107.602806 182.57875 106.83718Q182.89125 106.071556 183.51625 105.68093Q184.14125 105.27468 184.90688 105.27468Q185.46938 105.27468 185.90688 105.509056Q186.34438 105.74343 186.62563 106.11843L186.62563 103.040306L187.6725 103.040306L187.6725 111.634056L186.68813 111.634056ZM183.36 108.52468Q183.36 109.727806 183.86 110.321556Q184.36 110.89968 185.0475 110.89968Q185.735 110.89968 186.21938 110.33718Q186.70375 109.77468 186.70375 108.61843Q186.70375 107.33718 186.20375 106.74343Q185.71938 106.14968 185.00063 106.14968Q184.2975 106.14968 183.82875 106.727806Q183.36 107.290306 183.36 108.52468Z" fill-rule="nonzero"/><path fill="#000000" d="M120.406876 122.86843L121.469376 122.77468Q121.5475 123.43093 121.82875 123.83718Q122.11 124.24343 122.688126 124.509056Q123.281876 124.759056 124.01625 124.759056Q124.656876 124.759056 125.156876 124.571556Q125.656876 124.36843 125.89125 124.040306Q126.14125 123.696556 126.14125 123.30593Q126.14125 122.89968 125.906876 122.602806Q125.6725 122.290306 125.14125 122.08718Q124.781876 121.946556 123.594376 121.665306Q122.4225 121.384056 121.95375 121.134056Q121.32875 120.80593 121.031876 120.33718Q120.735 119.852806 120.735 119.259056Q120.735 118.61843 121.094376 118.05593Q121.469376 117.477806 122.1725 117.196556Q122.89125 116.89968 123.750626 116.89968Q124.70375 116.89968 125.438126 117.21218Q126.1725 117.509056 126.563126 118.11843Q126.95375 118.71218 126.985 119.46218L125.89125 119.540306Q125.7975 118.727806 125.281876 118.321556Q124.781876 117.89968 123.7975 117.89968Q122.76625 117.89968 122.2975 118.27468Q121.82875 118.64968 121.82875 119.18093Q121.82875 119.64968 122.156876 119.946556Q122.485 120.24343 123.86 120.55593Q125.250626 120.86843 125.76625 121.102806Q126.51625 121.46218 126.875626 121.99343Q127.235 122.509056 127.235 123.21218Q127.235 123.89968 126.844376 124.509056Q126.45375 125.102806 125.719376 125.446556Q124.985 125.77468 124.063126 125.77468Q122.89125 125.77468 122.094376 125.446556Q121.313126 125.102806 120.86 124.415306Q120.4225 123.727806 120.406876 122.86843ZM132.735 125.634056L132.735 124.71218Q132.00063 125.77468 130.75063 125.77468Q130.20375 125.77468 129.71938 125.571556Q129.25063 125.352806 129.01625 125.040306Q128.78188 124.71218 128.68813 124.24343Q128.62563 123.946556 128.62563 123.259056L128.62563 119.415306L129.68813 119.415306L129.68813 122.86843Q129.68813 123.68093 129.75063 123.977806Q129.84438 124.384056 130.15688 124.634056Q130.485 124.86843 130.96938 124.86843Q131.43813 124.86843 131.84438 124.634056Q132.26625 124.384056 132.43813 123.96218Q132.62563 123.540306 132.62563 122.74343L132.62563 119.415306L133.6725 119.415306L133.6725 125.634056L132.735 125.634056ZM136.62563 125.634056L135.64125 125.634056L135.64125 117.040306L136.70375 117.040306L136.70375 120.102806Q137.37563 119.27468 138.40688 119.27468Q138.985 119.27468 139.485 119.509056Q140.00063 119.727806 140.32875 120.14968Q140.6725 120.571556 140.86 121.165306Q141.0475 121.759056 141.0475 122.43093Q141.0475 124.02468 140.25063 124.89968Q139.45375 125.77468 138.36 125.77468Q137.25063 125.77468 136.62563 124.852806L136.62563 125.634056ZM136.61 122.477806Q136.61 123.58718 136.9225 124.08718Q137.4225 124.89968 138.26625 124.89968Q138.95375 124.89968 139.45375 124.30593Q139.96938 123.71218 139.96938 122.509056Q139.96938 121.290306 139.485 120.71218Q139.00063 120.134056 138.31313 120.134056Q137.62563 120.134056 137.11 120.74343Q136.61 121.33718 136.61 122.477806ZM142.235 123.77468L143.26625 123.61843Q143.36 124.24343 143.75063 124.571556Q144.15688 124.89968 144.89125 124.89968Q145.61 124.89968 145.95375 124.61843Q146.31313 124.321556 146.31313 123.915306Q146.31313 123.55593 146.00063 123.352806Q145.78188 123.21218 144.9225 122.99343Q143.76625 122.696556 143.31313 122.49343Q142.87563 122.27468 142.64125 121.89968Q142.40688 121.52468 142.40688 121.05593Q142.40688 120.64968 142.59438 120.290306Q142.78188 119.93093 143.11 119.696556Q143.36 119.52468 143.78188 119.39968Q144.20375 119.27468 144.70375 119.27468Q145.4225 119.27468 145.96938 119.49343Q146.53188 119.696556 146.7975 120.05593Q147.06313 120.415306 147.15688 121.009056L146.12563 121.14968Q146.06313 120.68093 145.71938 120.415306Q145.39125 120.134056 144.76625 120.134056Q144.0475 120.134056 143.735 120.384056Q143.4225 120.61843 143.4225 120.946556Q143.4225 121.14968 143.5475 121.30593Q143.68813 121.477806 143.95375 121.58718Q144.11 121.64968 144.89125 121.852806Q146.01625 122.165306 146.45375 122.352806Q146.89125 122.540306 147.14125 122.89968Q147.39125 123.259056 147.39125 123.80593Q147.39125 124.33718 147.07875 124.80593Q146.78188 125.259056 146.20375 125.52468Q145.62563 125.77468 144.89125 125.77468Q143.6725 125.77468 143.03188 125.27468Q142.40688 124.759056 142.235 123.77468ZM153.71938 123.352806L154.75063 123.49343Q154.57875 124.55593 153.87563 125.165306Q153.1725 125.77468 152.15688 125.77468Q150.87563 125.77468 150.09438 124.946556Q149.32875 124.102806 149.32875 122.540306Q149.32875 121.540306 149.65688 120.790306Q150.00063 120.02468 150.6725 119.64968Q151.36 119.27468 152.1725 119.27468Q153.1725 119.27468 153.81313 119.790306Q154.46938 120.290306 154.65688 121.24343L153.62563 121.39968Q153.485 120.77468 153.11 120.46218Q152.735 120.134056 152.20375 120.134056Q151.40688 120.134056 150.90688 120.71218Q150.40688 121.27468 150.40688 122.509056Q150.40688 123.77468 150.89125 124.33718Q151.37563 124.89968 152.14125 124.89968Q152.76625 124.89968 153.1725 124.52468Q153.59438 124.14968 153.71938 123.352806ZM155.64125 125.634056L155.64125 119.415306L156.59438 119.415306L156.59438 120.352806Q156.95375 119.696556 157.25063 119.49343Q157.56313 119.27468 157.93813 119.27468Q158.46938 119.27468 159.01625 119.602806L158.65688 120.58718Q158.26625 120.352806 157.89125 120.352806Q157.53188 120.352806 157.25063 120.571556Q156.985 120.77468 156.87563 121.14968Q156.68813 121.71218 156.68813 122.36843L156.68813 125.634056L155.64125 125.634056ZM159.65688 118.259056L159.65688 117.040306L160.71938 117.040306L160.71938 118.259056L159.65688 118.259056ZM159.65688 125.634056L159.65688 119.415306L160.71938 119.415306L160.71938 125.634056L159.65688 125.634056ZM162.65688 128.02469L162.65688 119.415306L163.61 119.415306L163.61 120.21218Q163.95375 119.74343 164.37563 119.509056Q164.81313 119.27468 165.4225 119.27468Q166.21938 119.27468 166.82875 119.68093Q167.43813 120.08718 167.735 120.83718Q168.0475 121.58718 168.0475 122.477806Q168.0475 123.43093 167.70375 124.196556Q167.37563 124.96218 166.71938 125.36843Q166.06313 125.77468 165.34438 125.77468Q164.81313 125.77468 164.39125 125.55593Q163.96938 125.321556 163.70375 124.99343L163.70375 128.02469L162.65688 128.02469ZM163.61 122.55593Q163.61 123.759056 164.09438 124.33718Q164.57875 124.89968 165.26625 124.89968Q165.96938 124.89968 166.46938 124.30593Q166.96938 123.71218 166.96938 122.46218Q166.96938 121.27468 166.485 120.696556Q166.00063 120.102806 165.31313 120.102806Q164.64125 120.102806 164.12563 120.727806Q163.61 121.352806 163.61 122.55593ZM171.95375 124.696556L172.11 125.61843Q171.65688 125.71218 171.31313 125.71218Q170.735 125.71218 170.4225 125.540306Q170.11 125.352806 169.96938 125.05593Q169.84438 124.759056 169.84438 123.80593L169.84438 120.227806L169.07875 120.227806L169.07875 119.415306L169.84438 119.415306L169.84438 117.86843L170.89125 117.24343L170.89125 119.415306L171.95375 119.415306L171.95375 120.227806L170.89125 120.227806L170.89125 123.86843Q170.89125 124.321556 170.93813 124.446556Q171.00063 124.571556 171.12563 124.64968Q171.25063 124.727806 171.485 124.727806Q171.6725 124.727806 171.95375 124.696556ZM172.65688 118.259056L172.65688 117.040306L173.71938 117.040306L173.71938 118.259056L172.65688 118.259056ZM172.65688 125.634056L172.65688 119.415306L173.71938 119.415306L173.71938 125.634056L172.65688 125.634056ZM175.26625 122.52468Q175.26625 120.790306 176.21938 119.96218Q177.01625 119.27468 178.1725 119.27468Q179.45375 119.27468 180.26625 120.11843Q181.09438 120.946556 181.09438 122.43093Q181.09438 123.634056 180.735 124.321556Q180.37563 125.009056 179.6725 125.39968Q178.985 125.77468 178.1725 125.77468Q176.87563 125.77468 176.06313 124.946556Q175.26625 124.102806 175.26625 122.52468ZM176.34438 122.52468Q176.34438 123.71218 176.86 124.30593Q177.39125 124.89968 178.1725 124.89968Q178.96938 124.89968 179.485 124.30593Q180.00063 123.71218 180.00063 122.49343Q180.00063 121.33718 179.46938 120.74343Q178.95375 120.14968 178.1725 120.14968Q177.39125 120.14968 176.86 120.74343Q176.34438 121.321556 176.34438 122.52468ZM182.65688 125.634056L182.65688 119.415306L183.59438 119.415306L183.59438 120.290306Q184.28188 119.27468 185.57875 119.27468Q186.14125 119.27468 186.61 119.477806Q187.09438 119.68093 187.32875 120.009056Q187.56313 120.33718 187.65688 120.77468Q187.70375 121.071556 187.70375 121.80593L187.70375 125.634056L186.65688 125.634056L186.65688 121.852806Q186.65688 121.196556 186.53188 120.884056Q186.40688 120.571556 186.09438 120.384056Q185.78188 120.18093 185.36 120.18093Q184.68813 120.18093 184.18813 120.61843Q183.70375 121.040306 183.70375 122.227806L183.70375 125.634056L182.65688 125.634056Z" fill-rule="nonzero"/><path fill="#000000" d="M111.969376 166.61043L111.969376 159.0323L109.14125 159.0323L109.14125 158.01668L115.95375 158.01668L115.95375 159.0323L113.11 159.0323L113.11 166.61043L111.969376 166.61043ZM116.26625 163.50105Q116.26625 161.76668 117.219376 160.93855Q118.01625 160.25105 119.1725 160.25105Q120.45375 160.25105 121.26625 161.0948Q122.094376 161.92293 122.094376 163.4073Q122.094376 164.61043 121.735 165.29793Q121.375626 165.98543 120.6725 166.37605Q119.985 166.75105 119.1725 166.75105Q117.875626 166.75105 117.063126 165.92293Q116.26625 165.07918 116.26625 163.50105ZM117.344376 163.50105Q117.344376 164.68855 117.86 165.2823Q118.39125 165.87605 119.1725 165.87605Q119.969376 165.87605 120.485 165.2823Q121.000626 164.68855 121.000626 163.4698Q121.000626 162.31355 120.469376 161.7198Q119.95375 161.12605 119.1725 161.12605Q118.39125 161.12605 117.86 161.7198Q117.344376 162.29793 117.344376 163.50105ZM123.26625 163.50105Q123.26625 161.76668 124.219376 160.93855Q125.01625 160.25105 126.1725 160.25105Q127.45375 160.25105 128.26625 161.0948Q129.09438 161.92293 129.09438 163.4073Q129.09438 164.61043 128.735 165.29793Q128.37563 165.98543 127.6725 166.37605Q126.985 166.75105 126.1725 166.75105Q124.875626 166.75105 124.063126 165.92293Q123.26625 165.07918 123.26625 163.50105ZM124.344376 163.50105Q124.344376 164.68855 124.86 165.2823Q125.39125 165.87605 126.1725 165.87605Q126.969376 165.87605 127.485 165.2823Q128.00063 164.68855 128.00063 163.4698Q128.00063 162.31355 127.469376 161.7198Q126.95375 161.12605 126.1725 161.12605Q125.39125 161.12605 124.86 161.7198Q124.344376 162.29793 124.344376 163.50105ZM133.81313 166.61043L133.81313 158.01668L140.01625 158.01668L140.01625 159.0323L134.95375 159.0323L134.95375 161.6573L139.70375 161.6573L139.70375 162.67293L134.95375 162.67293L134.95375 165.5948L140.21938 165.5948L140.21938 166.61043L133.81313 166.61043ZM140.95375 166.61043L143.21938 163.37605L141.12563 160.39168L142.43813 160.39168L143.39125 161.8448Q143.65688 162.26668 143.82875 162.54793Q144.07875 162.1573 144.2975 161.86043L145.34438 160.39168L146.61 160.39168L144.45375 163.31355L146.76625 166.61043L145.485 166.61043L144.20375 164.67293L143.86 164.1573L142.21938 166.61043L140.95375 166.61043ZM146.65688 169.00105L146.65688 160.39168L147.61 160.39168L147.61 161.18855Q147.95375 160.7198 148.37563 160.48543Q148.81313 160.25105 149.4225 160.25105Q150.21938 160.25105 150.82875 160.6573Q151.43813 161.06355 151.735 161.81355Q152.0475 162.56355 152.0475 163.45418Q152.0475 164.4073 151.70375 165.17293Q151.37563 165.93855 150.71938 166.3448Q150.06313 166.75105 149.34438 166.75105Q148.81313 166.75105 148.39125 166.5323Q147.96938 166.29793 147.70375 165.9698L147.70375 169.00105L146.65688 169.00105ZM147.61 163.5323Q147.61 164.73543 148.09438 165.31355Q148.57875 165.87605 149.26625 165.87605Q149.96938 165.87605 150.46938 165.2823Q150.96938 164.68855 150.96938 163.43855Q150.96938 162.25105 150.485 161.67293Q150.00063 161.07918 149.31313 161.07918Q148.64125 161.07918 148.12563 161.70418Q147.61 162.32918 147.61 163.5323ZM157.90688 164.61043L159.00063 164.73543Q158.75063 165.68855 158.0475 166.2198Q157.34438 166.75105 156.26625 166.75105Q154.90688 166.75105 154.09438 165.9073Q153.2975 165.06355 153.2975 163.54793Q153.2975 161.98543 154.11 161.12605Q154.9225 160.25105 156.20375 160.25105Q157.45375 160.25105 158.235 161.0948Q159.03188 161.93855 159.03188 163.48543Q159.03188 163.57918 159.03188 163.76668L154.39125 163.76668Q154.45375 164.79793 154.96938 165.3448Q155.485 165.87605 156.26625 165.87605Q156.84438 165.87605 157.25063 165.57918Q157.6725 165.26668 157.90688 164.61043ZM154.45375 162.9073L157.9225 162.9073Q157.86 162.11043 157.53188 161.7198Q157.01625 161.11043 156.21938 161.11043Q155.485 161.11043 154.985 161.5948Q154.50063 162.07918 154.45375 162.9073ZM160.65688 166.61043L160.65688 160.39168L161.59438 160.39168L161.59438 161.26668Q162.28188 160.25105 163.57875 160.25105Q164.14125 160.25105 164.61 160.45418Q165.09438 160.6573 165.32875 160.98543Q165.56313 161.31355 165.65688 161.75105Q165.70375 162.04793 165.70375 162.7823L165.70375 166.61043L164.65688 166.61043L164.65688 162.82918Q164.65688 162.17293 164.53188 161.86043Q164.40688 161.54793 164.09438 161.36043Q163.78188 161.1573 163.36 161.1573Q162.68813 161.1573 162.18813 161.5948Q161.70375 162.01668 161.70375 163.20418L161.70375 166.61043L160.65688 166.61043ZM167.235 164.75105L168.26625 164.5948Q168.36 165.2198 168.75063 165.54793Q169.15688 165.87605 169.89125 165.87605Q170.61 165.87605 170.95375 165.5948Q171.31313 165.29793 171.31313 164.89168Q171.31313 164.5323 171.00063 164.32918Q170.78188 164.18855 169.9225 163.9698Q168.76625 163.67293 168.31313 163.4698Q167.87563 163.25105 167.64125 162.87605Q167.40688 162.50105 167.40688 162.0323Q167.40688 161.62605 167.59438 161.26668Q167.78188 160.9073 168.11 160.67293Q168.36 160.50105 168.78188 160.37605Q169.20375 160.25105 169.70375 160.25105Q170.4225 160.25105 170.96938 160.4698Q171.53188 160.67293 171.7975 161.0323Q172.06313 161.39168 172.15688 161.98543L171.12563 162.12605Q171.06313 161.6573 170.71938 161.39168Q170.39125 161.11043 169.76625 161.11043Q169.0475 161.11043 168.735 161.36043Q168.4225 161.5948 168.4225 161.92293Q168.4225 162.12605 168.5475 162.2823Q168.68813 162.45418 168.95375 162.56355Q169.11 162.62605 169.89125 162.82918Q171.01625 163.14168 171.45375 163.32918Q171.89125 163.51668 172.14125 163.87605Q172.39125 164.23543 172.39125 164.7823Q172.39125 165.31355 172.07875 165.7823Q171.78188 166.23543 171.20375 166.50105Q170.62563 166.75105 169.89125 166.75105Q168.6725 166.75105 168.03188 166.25105Q167.40688 165.73543 167.235 164.75105ZM174.65688 159.23543L174.65688 158.01668L175.71938 158.01668L175.71938 159.23543L174.65688 159.23543ZM174.65688 166.61043L174.65688 160.39168L175.71938 160.39168L175.71938 166.61043L174.65688 166.61043ZM179.37563 166.61043L177.01625 160.39168L178.12563 160.39168L179.46938 164.11043Q179.6725 164.7198 179.86 165.36043Q180.00063 164.87605 180.25063 164.18855L181.64125 160.39168L182.71938 160.39168L180.36 166.61043L179.37563 166.61043ZM186.90688 164.61043L188.00063 164.73543Q187.75063 165.68855 187.0475 166.2198Q186.34438 166.75105 185.26625 166.75105Q183.90688 166.75105 183.09438 165.9073Q182.2975 165.06355 182.2975 163.54793Q182.2975 161.98543 183.11 161.12605Q183.9225 160.25105 185.20375 160.25105Q186.45375 160.25105 187.235 161.0948Q188.03188 161.93855 188.03188 163.48543Q188.03188 163.57918 188.03188 163.76668L183.39125 163.76668Q183.45375 164.79793 183.96938 165.3448Q184.485 165.87605 185.26625 165.87605Q185.84438 165.87605 186.25063 165.57918Q186.6725 165.26668 186.90688 164.61043ZM183.45375 162.9073L186.9225 162.9073Q186.86 162.11043 186.53188 161.7198Q186.01625 161.11043 185.21938 161.11043Q184.485 161.11043 183.985 161.5948Q183.50063 162.07918 183.45375 162.9073Z" fill-rule="nonzero"/><path fill="#000000" d="M136.78188 214.5868L136.78188 205.99306L137.93813 205.99306L142.45375 212.74306L142.45375 205.99306L143.5475 205.99306L143.5475 214.5868L142.37563 214.5868L137.86 207.8368L137.86 214.5868L136.78188 214.5868ZM145.26625 211.47743Q145.26625 209.74306 146.21938 208.91493Q147.01625 208.22743 148.1725 208.22743Q149.45375 208.22743 150.26625 209.07118Q151.09438 209.8993 151.09438 211.38368Q151.09438 212.5868 150.735 213.2743Q150.37563 213.9618 149.6725 214.35243Q148.985 214.72743 148.1725 214.72743Q146.87563 214.72743 146.06313 213.8993Q145.26625 213.05556 145.26625 211.47743ZM146.34438 211.47743Q146.34438 212.66493 146.86 213.25868Q147.39125 213.85243 148.1725 213.85243Q148.96938 213.85243 149.485 213.25868Q150.00063 212.66493 150.00063 211.44618Q150.00063 210.28993 149.46938 209.69618Q148.95375 209.10243 148.1725 209.10243Q147.39125 209.10243 146.86 209.69618Q146.34438 210.2743 146.34438 211.47743ZM154.95375 213.6493L155.11 214.57118Q154.65688 214.66493 154.31313 214.66493Q153.735 214.66493 153.4225 214.49306Q153.11 214.30556 152.96938 214.00868Q152.84438 213.7118 152.84438 212.75868L152.84438 209.18056L152.07875 209.18056L152.07875 208.36806L152.84438 208.36806L152.84438 206.82118L153.89125 206.19618L153.89125 208.36806L154.95375 208.36806L154.95375 209.18056L153.89125 209.18056L153.89125 212.82118Q153.89125 213.2743 153.93813 213.3993Q154.00063 213.5243 154.12563 213.60243Q154.25063 213.68056 154.485 213.68056Q154.6725 213.68056 154.95375 213.6493ZM162.81313 211.2118L162.81313 210.2118L166.43813 210.19618L166.43813 213.38368Q165.61 214.05556 164.71938 214.3993Q163.82875 214.72743 162.89125 214.72743Q161.62563 214.72743 160.57875 214.19618Q159.5475 213.6493 159.01625 212.63368Q158.50063 211.60243 158.50063 210.3368Q158.50063 209.07118 159.01625 207.99306Q159.5475 206.8993 160.53188 206.38368Q161.51625 205.85243 162.7975 205.85243Q163.735 205.85243 164.485 206.1493Q165.235 206.44618 165.65688 206.99306Q166.09438 207.5243 166.31313 208.3993L165.2975 208.68056Q165.09438 208.0243 164.7975 207.6493Q164.51625 207.2743 163.985 207.05556Q163.45375 206.82118 162.81313 206.82118Q162.03188 206.82118 161.45375 207.05556Q160.89125 207.28993 160.53188 207.68056Q160.18813 208.07118 160.00063 208.53993Q159.6725 209.3368 159.6725 210.25868Q159.6725 211.41493 160.06313 212.19618Q160.46938 212.9618 161.21938 213.3368Q161.96938 213.7118 162.82875 213.7118Q163.56313 213.7118 164.26625 213.43056Q164.96938 213.13368 165.32875 212.82118L165.32875 211.2118L162.81313 211.2118ZM167.65688 207.2118L167.65688 205.99306L168.71938 205.99306L168.71938 207.2118L167.65688 207.2118ZM167.65688 214.5868L167.65688 208.36806L168.71938 208.36806L168.71938 214.5868L167.65688 214.5868ZM172.37563 214.5868L170.01625 208.36806L171.12563 208.36806L172.46938 212.0868Q172.6725 212.69618 172.86 213.3368Q173.00063 212.85243 173.25063 212.16493L174.64125 208.36806L175.71938 208.36806L173.36 214.5868L172.37563 214.5868ZM179.90688 212.5868L181.00063 212.7118Q180.75063 213.66493 180.0475 214.19618Q179.34438 214.72743 178.26625 214.72743Q176.90688 214.72743 176.09438 213.88368Q175.2975 213.03993 175.2975 211.5243Q175.2975 209.9618 176.11 209.10243Q176.9225 208.22743 178.20375 208.22743Q179.45375 208.22743 180.235 209.07118Q181.03188 209.91493 181.03188 211.4618Q181.03188 211.55556 181.03188 211.74306L176.39125 211.74306Q176.45375 212.7743 176.96938 213.32118Q177.485 213.85243 178.26625 213.85243Q178.84438 213.85243 179.25063 213.55556Q179.6725 213.24306 179.90688 212.5868ZM176.45375 210.88368L179.9225 210.88368Q179.86 210.0868 179.53188 209.69618Q179.01625 209.0868 178.21938 209.0868Q177.485 209.0868 176.985 209.57118Q176.50063 210.05556 176.45375 210.88368ZM182.65688 214.5868L182.65688 208.36806L183.59438 208.36806L183.59438 209.24306Q184.28188 208.22743 185.57875 208.22743Q186.14125 208.22743 186.61 208.43056Q187.09438 208.63368 187.32875 208.9618Q187.56313 209.28993 187.65688 209.72743Q187.70375 210.0243 187.70375 210.75868L187.70375 214.5868L186.65688 214.5868L186.65688 210.80556Q186.65688 210.1493 186.53188 209.8368Q186.40688 209.5243 186.09438 209.3368Q185.78188 209.13368 185.36 209.13368Q184.68813 209.13368 184.18813 209.57118Q183.70375 209.99306 183.70375 211.18056L183.70375 214.5868L182.65688 214.5868Z" fill-rule="nonzero"/><path fill="#000000" d="M99.281876 262.5632L97.000626 253.96945L98.1725 253.96945L99.485 259.61008Q99.688126 260.48508 99.844376 261.36008Q100.1725 259.98508 100.235 259.76633L101.86 253.96945L103.235 253.96945L104.469376 258.3132Q104.9225 259.9382 105.14125 261.36008Q105.2975 260.54758 105.563126 259.48508L106.906876 253.96945L108.0475 253.96945L105.70375 262.5632L104.594376 262.5632L102.7975 256.01633Q102.563126 255.20383 102.51625 255.01633Q102.39125 255.59445 102.26625 256.01633L100.45375 262.5632L99.281876 262.5632ZM108.64125 262.5632L108.64125 256.34445L109.594376 256.34445L109.594376 257.28195Q109.95375 256.6257 110.250626 256.42258Q110.563126 256.20383 110.938126 256.20383Q111.469376 256.20383 112.01625 256.53195L111.656876 257.51633Q111.26625 257.28195 110.89125 257.28195Q110.531876 257.28195 110.250626 257.5007Q109.985 257.70383 109.875626 258.07883Q109.688126 258.64133 109.688126 259.29758L109.688126 262.5632L108.64125 262.5632ZM112.26625 259.45383Q112.26625 257.71945 113.219376 256.89133Q114.01625 256.20383 115.1725 256.20383Q116.45375 256.20383 117.26625 257.04758Q118.094376 257.8757 118.094376 259.36008Q118.094376 260.5632 117.735 261.2507Q117.375626 261.9382 116.6725 262.32883Q115.985 262.70383 115.1725 262.70383Q113.875626 262.70383 113.063126 261.8757Q112.26625 261.03195 112.26625 259.45383ZM113.344376 259.45383Q113.344376 260.64133 113.86 261.23508Q114.39125 261.82883 115.1725 261.82883Q115.969376 261.82883 116.485 261.23508Q117.000626 260.64133 117.000626 259.42258Q117.000626 258.26633 116.469376 257.67258Q115.95375 257.07883 115.1725 257.07883Q114.39125 257.07883 113.86 257.67258Q113.344376 258.2507 113.344376 259.45383ZM119.656876 262.5632L119.656876 256.34445L120.594376 256.34445L120.594376 257.21945Q121.281876 256.20383 122.57875 256.20383Q123.14125 256.20383 123.61 256.40695Q124.094376 256.61008 124.32875 256.9382Q124.563126 257.26633 124.656876 257.70383Q124.70375 258.0007 124.70375 258.73508L124.70375 262.5632L123.656876 262.5632L123.656876 258.78195Q123.656876 258.1257 123.531876 257.8132Q123.406876 257.5007 123.094376 257.3132Q122.781876 257.11008 122.36 257.11008Q121.688126 257.11008 121.188126 257.54758Q120.70375 257.96945 120.70375 259.15695L120.70375 262.5632L119.656876 262.5632ZM126.45375 263.07883L127.485 263.23508Q127.5475 263.70383 127.844376 263.92258Q128.235 264.21945 128.90688 264.21945Q129.64125 264.21945 130.03188 263.92258Q130.43813 263.6257 130.57875 263.11008Q130.6725 262.78195 130.65688 261.7507Q129.96938 262.5632 128.93813 262.5632Q127.656876 262.5632 126.95375 261.64133Q126.250626 260.70383 126.250626 259.42258Q126.250626 258.53195 126.563126 257.78195Q126.89125 257.01633 127.500626 256.61008Q128.11 256.20383 128.93813 256.20383Q130.0475 256.20383 130.76625 257.09445L130.76625 256.34445L131.735 256.34445L131.735 261.71945Q131.735 263.17258 131.43813 263.78195Q131.14125 264.39133 130.50063 264.73508Q129.86 265.09445 128.9225 265.09445Q127.813126 265.09445 127.125626 264.59445Q126.438126 264.09445 126.45375 263.07883ZM127.32875 259.34445Q127.32875 260.5632 127.813126 261.1257Q128.2975 261.6882 129.03188 261.6882Q129.76625 261.6882 130.25063 261.1257Q130.75063 260.5632 130.75063 259.3757Q130.75063 258.23508 130.235 257.65695Q129.735 257.07883 129.01625 257.07883Q128.31313 257.07883 127.813126 257.65695Q127.32875 258.21945 127.32875 259.34445ZM136.78188 262.5632L136.78188 253.96945L140.03188 253.96945Q140.87563 253.96945 141.32875 254.04758Q141.96938 254.15695 142.39125 254.45383Q142.82875 254.7507 143.07875 255.28195Q143.34438 255.8132 143.34438 256.45383Q143.34438 257.54758 142.64125 258.3132Q141.95375 259.0632 140.12563 259.0632L137.9225 259.0632L137.9225 262.5632L136.78188 262.5632ZM137.9225 258.0632L140.14125 258.0632Q141.25063 258.0632 141.70375 257.65695Q142.1725 257.23508 142.1725 256.48508Q142.1725 255.95383 141.89125 255.57883Q141.62563 255.1882 141.18813 255.0632Q140.89125 254.98508 140.12563 254.98508L137.9225 254.98508L137.9225 258.0632ZM148.735 262.5632L148.735 261.64133Q148.00063 262.70383 146.75063 262.70383Q146.20375 262.70383 145.71938 262.5007Q145.25063 262.28195 145.01625 261.96945Q144.78188 261.64133 144.68813 261.17258Q144.62563 260.8757 144.62563 260.1882L144.62563 256.34445L145.68813 256.34445L145.68813 259.79758Q145.68813 260.61008 145.75063 260.90695Q145.84438 261.3132 146.15688 261.5632Q146.485 261.79758 146.96938 261.79758Q147.43813 261.79758 147.84438 261.5632Q148.26625 261.3132 148.43813 260.89133Q148.62563 260.46945 148.62563 259.67258L148.62563 256.34445L149.6725 256.34445L149.6725 262.5632L148.735 262.5632ZM151.64125 262.5632L151.64125 256.34445L152.59438 256.34445L152.59438 257.28195Q152.95375 256.6257 153.25063 256.42258Q153.56313 256.20383 153.93813 256.20383Q154.46938 256.20383 155.01625 256.53195L154.65688 257.51633Q154.26625 257.28195 153.89125 257.28195Q153.53188 257.28195 153.25063 257.5007Q152.985 257.70383 152.87563 258.07883Q152.68813 258.64133 152.68813 259.29758L152.68813 262.5632L151.64125 262.5632ZM159.71938 260.28195L160.75063 260.42258Q160.57875 261.48508 159.87563 262.09445Q159.1725 262.70383 158.15688 262.70383Q156.87563 262.70383 156.09438 261.8757Q155.32875 261.03195 155.32875 259.46945Q155.32875 258.46945 155.65688 257.71945Q156.00063 256.95383 156.6725 256.57883Q157.36 256.20383 158.1725 256.20383Q159.1725 256.20383 159.81313 256.71945Q160.46938 257.21945 160.65688 258.17258L159.62563 258.32883Q159.485 257.70383 159.11 257.39133Q158.735 257.0632 158.20375 257.0632Q157.40688 257.0632 156.90688 257.64133Q156.40688 258.20383 156.40688 259.4382Q156.40688 260.70383 156.89125 261.26633Q157.37563 261.82883 158.14125 261.82883Q158.76625 261.82883 159.1725 261.45383Q159.59438 261.07883 159.71938 260.28195ZM161.65688 262.5632L161.65688 253.96945L162.70375 253.96945L162.70375 257.04758Q163.43813 256.20383 164.56313 256.20383Q165.26625 256.20383 165.76625 256.48508Q166.28188 256.7507 166.50063 257.23508Q166.71938 257.70383 166.71938 258.6257L166.71938 262.5632L165.6725 262.5632L165.6725 258.6257Q165.6725 257.82883 165.32875 257.46945Q164.985 257.11008 164.36 257.11008Q163.89125 257.11008 163.46938 257.36008Q163.06313 257.59445 162.87563 258.01633Q162.70375 258.42258 162.70375 259.15695L162.70375 262.5632L161.65688 262.5632ZM172.71938 261.79758Q172.12563 262.29758 171.57875 262.5007Q171.0475 262.70383 170.4225 262.70383Q169.39125 262.70383 168.84438 262.20383Q168.2975 261.70383 168.2975 260.92258Q168.2975 260.46945 168.50063 260.09445Q168.70375 259.70383 169.0475 259.48508Q169.39125 259.2507 169.81313 259.14133Q170.11 259.04758 170.75063 258.96945Q172.01625 258.82883 172.62563 258.61008Q172.62563 258.39133 172.62563 258.34445Q172.62563 257.6882 172.32875 257.42258Q171.9225 257.07883 171.12563 257.07883Q170.39125 257.07883 170.03188 257.34445Q169.6725 257.59445 169.50063 258.2507L168.46938 258.11008Q168.61 257.45383 168.93813 257.04758Q169.26625 256.64133 169.87563 256.42258Q170.485 256.20383 171.28188 256.20383Q172.07875 256.20383 172.57875 256.39133Q173.07875 256.57883 173.31313 256.86008Q173.5475 257.14133 173.64125 257.57883Q173.68813 257.84445 173.68813 258.54758L173.68813 259.95383Q173.68813 261.42258 173.75063 261.8132Q173.82875 262.20383 174.03188 262.5632L172.9225 262.5632Q172.76625 262.23508 172.71938 261.79758ZM172.62563 259.4382Q172.0475 259.67258 170.90688 259.84445Q170.25063 259.9382 169.985 260.0632Q169.71938 260.17258 169.56313 260.39133Q169.4225 260.61008 169.4225 260.89133Q169.4225 261.3132 169.735 261.59445Q170.06313 261.8757 170.6725 261.8757Q171.28188 261.8757 171.75063 261.61008Q172.235 261.34445 172.45375 260.8757Q172.62563 260.51633 172.62563 259.82883L172.62563 259.4382ZM175.235 260.70383L176.26625 260.54758Q176.36 261.17258 176.75063 261.5007Q177.15688 261.82883 177.89125 261.82883Q178.61 261.82883 178.95375 261.54758Q179.31313 261.2507 179.31313 260.84445Q179.31313 260.48508 179.00063 260.28195Q178.78188 260.14133 177.9225 259.92258Q176.76625 259.6257 176.31313 259.42258Q175.87563 259.20383 175.64125 258.82883Q175.40688 258.45383 175.40688 257.98508Q175.40688 257.57883 175.59438 257.21945Q175.78188 256.86008 176.11 256.6257Q176.36 256.45383 176.78188 256.32883Q177.20375 256.20383 177.70375 256.20383Q178.4225 256.20383 178.96938 256.42258Q179.53188 256.6257 179.7975 256.98508Q180.06313 257.34445 180.15688 257.9382L179.12563 258.07883Q179.06313 257.61008 178.71938 257.34445Q178.39125 257.0632 177.76625 257.0632Q177.0475 257.0632 176.735 257.3132Q176.4225 257.54758 176.4225 257.8757Q176.4225 258.07883 176.5475 258.23508Q176.68813 258.40695 176.95375 258.51633Q177.11 258.57883 177.89125 258.78195Q179.01625 259.09445 179.45375 259.28195Q179.89125 259.46945 180.14125 259.82883Q180.39125 260.1882 180.39125 260.73508Q180.39125 261.26633 180.07875 261.73508Q179.78188 262.1882 179.20375 262.45383Q178.62563 262.70383 177.89125 262.70383Q176.6725 262.70383 176.03188 262.20383Q175.40688 261.6882 175.235 260.70383ZM186.90688 260.5632L188.00063 260.6882Q187.75063 261.64133 187.0475 262.17258Q186.34438 262.70383 185.26625 262.70383Q183.90688 262.70383 183.09438 261.86008Q182.2975 261.01633 182.2975 259.5007Q182.2975 257.9382 183.11 257.07883Q183.9225 256.20383 185.20375 256.20383Q186.45375 256.20383 187.235 257.04758Q188.03188 257.89133 188.03188 259.4382Q188.03188 259.53195 188.03188 259.71945L183.39125 259.71945Q183.45375 260.7507 183.96938 261.29758Q184.485 261.82883 185.26625 261.82883Q185.84438 261.82883 186.25063 261.53195Q186.6725 261.21945 186.90688 260.5632ZM183.45375 258.86008L186.9225 258.86008Q186.86 258.0632 186.53188 257.67258Q186.01625 257.0632 185.21938 257.0632Q184.485 257.0632 183.985 257.54758Q183.50063 258.03195 183.45375 258.86008Z" fill-rule="nonzero"/><path fill="#000000" d="M114.9225 307.52396L116.0475 307.82083Q115.688126 309.21146 114.76625 309.94583Q113.844376 310.6802 112.500626 310.6802Q111.11 310.6802 110.235 310.1177Q109.36 309.5552 108.906876 308.4927Q108.45375 307.41458 108.45375 306.1802Q108.45375 304.83646 108.969376 303.83646Q109.485 302.83646 110.4225 302.32083Q111.375626 301.8052 112.51625 301.8052Q113.7975 301.8052 114.6725 302.46146Q115.563126 303.1177 115.906876 304.3052L114.781876 304.57083Q114.485 303.63333 113.906876 303.21146Q113.344376 302.77396 112.485 302.77396Q111.500626 302.77396 110.82875 303.25833Q110.1725 303.72708 109.89125 304.52396Q109.625626 305.32083 109.625626 306.1802Q109.625626 307.27396 109.938126 308.08646Q110.26625 308.89896 110.938126 309.3052Q111.61 309.71146 112.406876 309.71146Q113.36 309.71146 114.01625 309.16458Q114.688126 308.6177 114.9225 307.52396ZM117.26625 307.4302Q117.26625 305.69583 118.219376 304.8677Q119.01625 304.1802 120.1725 304.1802Q121.45375 304.1802 122.26625 305.02396Q123.094376 305.85208 123.094376 307.33646Q123.094376 308.53958 122.735 309.22708Q122.375626 309.91458 121.6725 310.3052Q120.985 310.6802 120.1725 310.6802Q118.875626 310.6802 118.063126 309.85208Q117.26625 309.00833 117.26625 307.4302ZM118.344376 307.4302Q118.344376 308.6177 118.86 309.21146Q119.39125 309.8052 120.1725 309.8052Q120.969376 309.8052 121.485 309.21146Q122.000626 308.6177 122.000626 307.39896Q122.000626 306.2427 121.469376 305.64896Q120.95375 305.0552 120.1725 305.0552Q119.39125 305.0552 118.86 305.64896Q118.344376 306.22708 118.344376 307.4302ZM128.735 310.53958L128.735 309.6177Q128.00063 310.6802 126.750626 310.6802Q126.20375 310.6802 125.719376 310.47708Q125.250626 310.25833 125.01625 309.94583Q124.781876 309.6177 124.688126 309.14896Q124.625626 308.85208 124.625626 308.16458L124.625626 304.32083L125.688126 304.32083L125.688126 307.77396Q125.688126 308.58646 125.750626 308.88333Q125.844376 309.28958 126.156876 309.53958Q126.485 309.77396 126.969376 309.77396Q127.438126 309.77396 127.844376 309.53958Q128.26625 309.28958 128.43813 308.8677Q128.62563 308.44583 128.62563 307.64896L128.62563 304.32083L129.6725 304.32083L129.6725 310.53958L128.735 310.53958ZM131.62563 310.53958L131.62563 301.94583L132.68813 301.94583L132.68813 310.53958L131.62563 310.53958ZM138.68813 310.53958L138.68813 309.75833Q138.09438 310.6802 136.95375 310.6802Q136.20375 310.6802 135.57875 310.27396Q134.95375 309.85208 134.61 309.1177Q134.26625 308.38333 134.26625 307.4302Q134.26625 306.50833 134.57875 305.7427Q134.89125 304.97708 135.51625 304.58646Q136.14125 304.1802 136.90688 304.1802Q137.46938 304.1802 137.90688 304.41458Q138.34438 304.64896 138.62563 305.02396L138.62563 301.94583L139.6725 301.94583L139.6725 310.53958L138.68813 310.53958ZM135.36 307.4302Q135.36 308.63333 135.86 309.22708Q136.36 309.8052 137.0475 309.8052Q137.735 309.8052 138.21938 309.2427Q138.70375 308.6802 138.70375 307.52396Q138.70375 306.2427 138.20375 305.64896Q137.71938 305.0552 137.00063 305.0552Q136.2975 305.0552 135.82875 305.63333Q135.36 306.19583 135.36 307.4302ZM144.78188 310.53958L144.78188 301.94583L145.93813 301.94583L150.45375 308.69583L150.45375 301.94583L151.5475 301.94583L151.5475 310.53958L150.37563 310.53958L145.86 303.78958L145.86 310.53958L144.78188 310.53958ZM153.26625 307.4302Q153.26625 305.69583 154.21938 304.8677Q155.01625 304.1802 156.1725 304.1802Q157.45375 304.1802 158.26625 305.02396Q159.09438 305.85208 159.09438 307.33646Q159.09438 308.53958 158.735 309.22708Q158.37563 309.91458 157.6725 310.3052Q156.985 310.6802 156.1725 310.6802Q154.87563 310.6802 154.06313 309.85208Q153.26625 309.00833 153.26625 307.4302ZM154.34438 307.4302Q154.34438 308.6177 154.86 309.21146Q155.39125 309.8052 156.1725 309.8052Q156.96938 309.8052 157.485 309.21146Q158.00063 308.6177 158.00063 307.39896Q158.00063 306.2427 157.46938 305.64896Q156.95375 305.0552 156.1725 305.0552Q155.39125 305.0552 154.86 305.64896Q154.34438 306.22708 154.34438 307.4302ZM162.95375 309.60208L163.11 310.52396Q162.65688 310.6177 162.31313 310.6177Q161.735 310.6177 161.4225 310.44583Q161.11 310.25833 160.96938 309.96146Q160.84438 309.66458 160.84438 308.71146L160.84438 305.13333L160.07875 305.13333L160.07875 304.32083L160.84438 304.32083L160.84438 302.77396L161.89125 302.14896L161.89125 304.32083L162.95375 304.32083L162.95375 305.13333L161.89125 305.13333L161.89125 308.77396Q161.89125 309.22708 161.93813 309.35208Q162.00063 309.47708 162.12563 309.5552Q162.25063 309.63333 162.485 309.63333Q162.6725 309.63333 162.95375 309.60208ZM172.4225 301.94583L173.56313 301.94583L173.56313 306.91458Q173.56313 308.21146 173.26625 308.97708Q172.96938 309.72708 172.20375 310.21146Q171.43813 310.6802 170.20375 310.6802Q169.00063 310.6802 168.21938 310.27396Q167.45375 309.85208 167.12563 309.07083Q166.7975 308.27396 166.7975 306.91458L166.7975 301.94583L167.93813 301.94583L167.93813 306.89896Q167.93813 308.02396 168.14125 308.5552Q168.36 309.08646 168.86 309.38333Q169.37563 309.66458 170.11 309.66458Q171.36 309.66458 171.89125 309.10208Q172.4225 308.52396 172.4225 306.89896L172.4225 301.94583ZM175.235 308.6802L176.26625 308.52396Q176.36 309.14896 176.75063 309.47708Q177.15688 309.8052 177.89125 309.8052Q178.61 309.8052 178.95375 309.52396Q179.31313 309.22708 179.31313 308.82083Q179.31313 308.46146 179.00063 308.25833Q178.78188 308.1177 177.9225 307.89896Q176.76625 307.60208 176.31313 307.39896Q175.87563 307.1802 175.64125 306.8052Q175.40688 306.4302 175.40688 305.96146Q175.40688 305.5552 175.59438 305.19583Q175.78188 304.83646 176.11 304.60208Q176.36 304.4302 176.78188 304.3052Q177.20375 304.1802 177.70375 304.1802Q178.4225 304.1802 178.96938 304.39896Q179.53188 304.60208 179.7975 304.96146Q180.06313 305.32083 180.15688 305.91458L179.12563 306.0552Q179.06313 305.58646 178.71938 305.32083Q178.39125 305.03958 177.76625 305.03958Q177.0475 305.03958 176.735 305.28958Q176.4225 305.52396 176.4225 305.85208Q176.4225 306.0552 176.5475 306.21146Q176.68813 306.38333 176.95375 306.4927Q177.11 306.5552 177.89125 306.75833Q179.01625 307.07083 179.45375 307.25833Q179.89125 307.44583 180.14125 307.8052Q180.39125 308.16458 180.39125 308.71146Q180.39125 309.2427 180.07875 309.71146Q179.78188 310.16458 179.20375 310.4302Q178.62563 310.6802 177.89125 310.6802Q176.6725 310.6802 176.03188 310.1802Q175.40688 309.66458 175.235 308.6802ZM186.90688 308.53958L188.00063 308.66458Q187.75063 309.6177 187.0475 310.14896Q186.34438 310.6802 185.26625 310.6802Q183.90688 310.6802 183.09438 309.83646Q182.2975 308.9927 182.2975 307.47708Q182.2975 305.91458 183.11 305.0552Q183.9225 304.1802 185.20375 304.1802Q186.45375 304.1802 187.235 305.02396Q188.03188 305.8677 188.03188 307.41458Q188.03188 307.50833 188.03188 307.69583L183.39125 307.69583Q183.45375 308.72708 183.96938 309.27396Q184.485 309.8052 185.26625 309.8052Q185.84438 309.8052 186.25063 309.50833Q186.6725 309.19583 186.90688 308.53958ZM183.45375 306.83646L186.9225 306.83646Q186.86 306.03958 186.53188 305.64896Q186.01625 305.03958 185.21938 305.03958Q184.485 305.03958 183.985 305.52396Q183.50063 306.00833 183.45375 306.83646Z" fill-rule="nonzero"/><path fill="#000000" d="M89.781876 358.51593L89.781876 349.92218L92.750626 349.92218Q93.750626 349.92218 94.281876 350.04718Q95.01625 350.21906 95.531876 350.65656Q96.219376 351.23468 96.5475 352.14093Q96.89125 353.03156 96.89125 354.17218Q96.89125 355.15656 96.656876 355.90656Q96.438126 356.65656 96.07875 357.15656Q95.719376 357.65656 95.281876 357.9378Q94.86 358.21906 94.26625 358.3753Q93.6725 358.51593 92.89125 358.51593L89.781876 358.51593ZM90.9225 357.5003L92.750626 357.5003Q93.61 357.5003 94.094376 357.34406Q94.57875 357.1878 94.86 356.89093Q95.26625 356.5003 95.485 355.8128Q95.719376 355.1253 95.719376 354.15656Q95.719376 352.8128 95.26625 352.09406Q94.82875 351.35968 94.20375 351.10968Q93.735 350.9378 92.735 350.9378L90.9225 350.9378L90.9225 357.5003ZM98.656876 351.14093L98.656876 349.92218L99.719376 349.92218L99.719376 351.14093L98.656876 351.14093ZM98.656876 358.51593L98.656876 352.29718L99.719376 352.29718L99.719376 358.51593L98.656876 358.51593ZM105.688126 358.51593L105.688126 357.73468Q105.094376 358.65656 103.95375 358.65656Q103.20375 358.65656 102.57875 358.2503Q101.95375 357.82843 101.61 357.09406Q101.26625 356.35968 101.26625 355.40656Q101.26625 354.48468 101.57875 353.71906Q101.89125 352.95343 102.51625 352.5628Q103.14125 352.15656 103.906876 352.15656Q104.469376 352.15656 104.906876 352.39093Q105.344376 352.6253 105.625626 353.0003L105.625626 349.92218L106.6725 349.92218L106.6725 358.51593L105.688126 358.51593ZM102.36 355.40656Q102.36 356.60968 102.86 357.20343Q103.36 357.78156 104.0475 357.78156Q104.735 357.78156 105.219376 357.21906Q105.70375 356.65656 105.70375 355.5003Q105.70375 354.21906 105.20375 353.6253Q104.719376 353.03156 104.000626 353.03156Q103.2975 353.03156 102.82875 353.60968Q102.36 354.17218 102.36 355.40656ZM108.656876 358.51593L108.656876 352.29718L109.594376 352.29718L109.594376 353.17218Q110.281876 352.15656 111.57875 352.15656Q112.14125 352.15656 112.61 352.35968Q113.094376 352.5628 113.32875 352.89093Q113.563126 353.21906 113.656876 353.65656Q113.70375 353.95343 113.70375 354.6878L113.70375 358.51593L112.656876 358.51593L112.656876 354.73468Q112.656876 354.07843 112.531876 353.76593Q112.406876 353.45343 112.094376 353.26593Q111.781876 353.0628 111.36 353.0628Q110.688126 353.0628 110.188126 353.5003Q109.70375 353.92218 109.70375 355.10968L109.70375 358.51593L108.656876 358.51593ZM115.656876 352.96906L115.39125 351.35968L115.39125 349.92218L116.594376 349.92218L116.594376 351.35968L116.313126 352.96906L115.656876 352.96906ZM119.95375 357.57843L120.11 358.5003Q119.656876 358.59406 119.313126 358.59406Q118.735 358.59406 118.4225 358.42218Q118.11 358.23468 117.969376 357.9378Q117.844376 357.64093 117.844376 356.6878L117.844376 353.10968L117.07875 353.10968L117.07875 352.29718L117.844376 352.29718L117.844376 350.7503L118.89125 350.1253L118.89125 352.29718L119.95375 352.29718L119.95375 353.10968L118.89125 353.10968L118.89125 356.7503Q118.89125 357.20343 118.938126 357.32843Q119.000626 357.45343 119.125626 357.53156Q119.250626 357.60968 119.485 357.60968Q119.6725 357.60968 119.95375 357.57843ZM123.750626 358.51593L123.750626 349.92218L125.469376 349.92218L127.500626 356.0003Q127.781876 356.85968 127.906876 357.28156Q128.0475 356.8128 128.36 355.90656L130.4225 349.92218L131.95375 349.92218L131.95375 358.51593L130.86 358.51593L130.86 351.32843L128.36 358.51593L127.32875 358.51593L124.844376 351.20343L124.844376 358.51593L123.750626 358.51593ZM136.90688 356.51593L138.00063 356.64093Q137.75063 357.59406 137.0475 358.1253Q136.34438 358.65656 135.26625 358.65656Q133.90688 358.65656 133.09438 357.8128Q132.2975 356.96906 132.2975 355.45343Q132.2975 353.89093 133.11 353.03156Q133.9225 352.15656 135.20375 352.15656Q136.45375 352.15656 137.235 353.0003Q138.03188 353.84406 138.03188 355.39093Q138.03188 355.48468 138.03188 355.67218L133.39125 355.67218Q133.45375 356.70343 133.96938 357.2503Q134.485 357.78156 135.26625 357.78156Q135.84438 357.78156 136.25063 357.48468Q136.6725 357.17218 136.90688 356.51593ZM133.45375 354.8128L136.9225 354.8128Q136.86 354.01593 136.53188 353.6253Q136.01625 353.01593 135.21938 353.01593Q134.485 353.01593 133.985 353.5003Q133.50063 353.98468 133.45375 354.8128ZM143.90688 356.51593L145.00063 356.64093Q144.75063 357.59406 144.0475 358.1253Q143.34438 358.65656 142.26625 358.65656Q140.90688 358.65656 140.09438 357.8128Q139.2975 356.96906 139.2975 355.45343Q139.2975 353.89093 140.11 353.03156Q140.9225 352.15656 142.20375 352.15656Q143.45375 352.15656 144.235 353.0003Q145.03188 353.84406 145.03188 355.39093Q145.03188 355.48468 145.03188 355.67218L140.39125 355.67218Q140.45375 356.70343 140.96938 357.2503Q141.485 357.78156 142.26625 357.78156Q142.84438 357.78156 143.25063 357.48468Q143.6725 357.17218 143.90688 356.51593ZM140.45375 354.8128L143.9225 354.8128Q143.86 354.01593 143.53188 353.6253Q143.01625 353.01593 142.21938 353.01593Q141.485 353.01593 140.985 353.5003Q140.50063 353.98468 140.45375 354.8128ZM148.95375 357.57843L149.11 358.5003Q148.65688 358.59406 148.31313 358.59406Q147.735 358.59406 147.4225 358.42218Q147.11 358.23468 146.96938 357.9378Q146.84438 357.64093 146.84438 356.6878L146.84438 353.10968L146.07875 353.10968L146.07875 352.29718L146.84438 352.29718L146.84438 350.7503L147.89125 350.1253L147.89125 352.29718L148.95375 352.29718L148.95375 353.10968L147.89125 353.10968L147.89125 356.7503Q147.89125 357.20343 147.93813 357.32843Q148.00063 357.45343 148.12563 357.53156Q148.25063 357.60968 148.485 357.60968Q148.6725 357.60968 148.95375 357.57843ZM152.78188 358.51593L152.78188 349.92218L153.93813 349.92218L158.45375 356.67218L158.45375 349.92218L159.5475 349.92218L159.5475 358.51593L158.37563 358.51593L153.86 351.76593L153.86 358.51593L152.78188 358.51593ZM165.90688 356.51593L167.00063 356.64093Q166.75063 357.59406 166.0475 358.1253Q165.34438 358.65656 164.26625 358.65656Q162.90688 358.65656 162.09438 357.8128Q161.2975 356.96906 161.2975 355.45343Q161.2975 353.89093 162.11 353.03156Q162.9225 352.15656 164.20375 352.15656Q165.45375 352.15656 166.235 353.0003Q167.03188 353.84406 167.03188 355.39093Q167.03188 355.48468 167.03188 355.67218L162.39125 355.67218Q162.45375 356.70343 162.96938 357.2503Q163.485 357.78156 164.26625 357.78156Q164.84438 357.78156 165.25063 357.48468Q165.6725 357.17218 165.90688 356.51593ZM162.45375 354.8128L165.9225 354.8128Q165.86 354.01593 165.53188 353.6253Q165.01625 353.01593 164.21938 353.01593Q163.485 353.01593 162.985 353.5003Q162.50063 353.98468 162.45375 354.8128ZM172.90688 356.51593L174.00063 356.64093Q173.75063 357.59406 173.0475 358.1253Q172.34438 358.65656 171.26625 358.65656Q169.90688 358.65656 169.09438 357.8128Q168.2975 356.96906 168.2975 355.45343Q168.2975 353.89093 169.11 353.03156Q169.9225 352.15656 171.20375 352.15656Q172.45375 352.15656 173.235 353.0003Q174.03188 353.84406 174.03188 355.39093Q174.03188 355.48468 174.03188 355.67218L169.39125 355.67218Q169.45375 356.70343 169.96938 357.2503Q170.485 357.78156 171.26625 357.78156Q171.84438 357.78156 172.25063 357.48468Q172.6725 357.17218 172.90688 356.51593ZM169.45375 354.8128L172.9225 354.8128Q172.86 354.01593 172.53188 353.6253Q172.01625 353.01593 171.21938 353.01593Q170.485 353.01593 169.985 353.5003Q169.50063 353.98468 169.45375 354.8128ZM179.68813 358.51593L179.68813 357.73468Q179.09438 358.65656 177.95375 358.65656Q177.20375 358.65656 176.57875 358.2503Q175.95375 357.82843 175.61 357.09406Q175.26625 356.35968 175.26625 355.40656Q175.26625 354.48468 175.57875 353.71906Q175.89125 352.95343 176.51625 352.5628Q177.14125 352.15656 177.90688 352.15656Q178.46938 352.15656 178.90688 352.39093Q179.34438 352.6253 179.62563 353.0003L179.62563 349.92218L180.6725 349.92218L180.6725 358.51593L179.68813 358.51593ZM176.36 355.40656Q176.36 356.60968 176.86 357.20343Q177.36 357.78156 178.0475 357.78156Q178.735 357.78156 179.21938 357.21906Q179.70375 356.65656 179.70375 355.5003Q179.70375 354.21906 179.20375 353.6253Q178.71938 353.03156 178.00063 353.03156Q177.2975 353.03156 176.82875 353.60968Q176.36 354.17218 176.36 355.40656ZM182.235 356.65656L183.26625 356.5003Q183.36 357.1253 183.75063 357.45343Q184.15688 357.78156 184.89125 357.78156Q185.61 357.78156 185.95375 357.5003Q186.31313 357.20343 186.31313 356.79718Q186.31313 356.4378 186.00063 356.23468Q185.78188 356.09406 184.9225 355.8753Q183.76625 355.57843 183.31313 355.3753Q182.87563 355.15656 182.64125 354.78156Q182.40688 354.40656 182.40688 353.9378Q182.40688 353.53156 182.59438 353.17218Q182.78188 352.8128 183.11 352.57843Q183.36 352.40656 183.78188 352.28156Q184.20375 352.15656 184.70375 352.15656Q185.4225 352.15656 185.96938 352.3753Q186.53188 352.57843 186.7975 352.9378Q187.06313 353.29718 187.15688 353.89093L186.12563 354.03156Q186.06313 353.5628 185.71938 353.29718Q185.39125 353.01593 184.76625 353.01593Q184.0475 353.01593 183.735 353.26593Q183.4225 353.5003 183.4225 353.82843Q183.4225 354.03156 183.5475 354.1878Q183.68813 354.35968 183.95375 354.46906Q184.11 354.53156 184.89125 354.73468Q186.01625 355.04718 186.45375 355.23468Q186.89125 355.42218 187.14125 355.78156Q187.39125 356.14093 187.39125 356.6878Q187.39125 357.21906 187.07875 357.6878Q186.78188 358.14093 186.20375 358.40656Q185.62563 358.65656 184.89125 358.65656Q183.6725 358.65656 183.03188 358.15656Q182.40688 357.64093 182.235 356.65656Z" fill-rule="nonzero"/><path fill="#000000" d="M191.86 399.66562Q191.86 398.13437 192.1725 397.2125Q192.485 396.275 193.09438 395.775Q193.71938 395.275 194.65688 395.275Q195.34438 395.275 195.86 395.55624Q196.39125 395.8375 196.735 396.36874Q197.07875 396.88437 197.26625 397.63437Q197.45375 398.38437 197.45375 399.66562Q197.45375 401.18124 197.14125 402.10312Q196.84438 403.025 196.21938 403.54062Q195.61 404.04062 194.65688 404.04062Q193.4225 404.04062 192.70375 403.15Q191.86 402.0875 191.86 399.66562ZM192.93813 399.66562Q192.93813 401.775 193.43813 402.47812Q193.93813 403.18124 194.65688 403.18124Q195.39125 403.18124 195.87563 402.47812Q196.37563 401.775 196.37563 399.66562Q196.37563 397.54062 195.87563 396.85312Q195.39125 396.15 194.64125 396.15Q193.9225 396.15 193.485 396.75937Q192.93813 397.54062 192.93813 399.66562Z" fill-rule="nonzero"/><path fill="#000000" d="M324.12 401.65L325.22937 401.55624Q325.35437 402.36874 325.79187 402.775Q326.245 403.18124 326.88562 403.18124Q327.63562 403.18124 328.16687 402.60312Q328.69812 402.025 328.69812 401.0875Q328.69812 400.18124 328.1825 399.66562Q327.6825 399.13437 326.85437 399.13437Q326.35437 399.13437 325.9325 399.36874Q325.52625 399.60312 325.29187 399.9625L324.3075 399.8375L325.13562 395.43124L329.41687 395.43124L329.41687 396.43124L325.97937 396.43124L325.52625 398.74374Q326.29187 398.19687 327.13562 398.19687Q328.26062 398.19687 329.02625 398.97812Q329.8075 399.75937 329.8075 400.99374Q329.8075 402.15 329.13562 403.00937Q328.3075 404.04062 326.88562 404.04062Q325.71375 404.04062 324.96375 403.38437Q324.22937 402.72812 324.12 401.65Z" fill-rule="nonzero"/><path fill="#000000" d="M456.84875 403.9L455.80188 403.9L455.80188 397.18124Q455.41125 397.54062 454.78625 397.91562Q454.17688 398.275 453.6925 398.44687L453.6925 397.43124Q454.5675 397.00937 455.22375 396.43124Q455.89563 395.8375 456.17688 395.275L456.84875 395.275L456.84875 403.9ZM459.88 399.66562Q459.88 398.13437 460.1925 397.2125Q460.505 396.275 461.11438 395.775Q461.73938 395.275 462.67688 395.275Q463.36438 395.275 463.88 395.55624Q464.41125 395.8375 464.755 396.36874Q465.09875 396.88437 465.28625 397.63437Q465.47375 398.38437 465.47375 399.66562Q465.47375 401.18124 465.16125 402.10312Q464.86438 403.025 464.23938 403.54062Q463.63 404.04062 462.67688 404.04062Q461.4425 404.04062 460.72375 403.15Q459.88 402.0875 459.88 399.66562ZM460.95813 399.66562Q460.95813 401.775 461.45813 402.47812Q461.95813 403.18124 462.67688 403.18124Q463.41125 403.18124 463.89563 402.47812Q464.39563 401.775 464.39563 399.66562Q464.39563 397.54062 463.89563 396.85312Q463.41125 396.15 462.66125 396.15Q461.9425 396.15 461.505 396.75937Q460.95813 397.54062 460.95813 399.66562Z" fill-rule="nonzero"/><path fill="#000000" d="M589.10876 403.9L588.0619 403.9L588.0619 397.18124Q587.67126 397.54062 587.04626 397.91562Q586.4369 398.275 585.9525 398.44687L585.9525 397.43124Q586.8275 397.00937 587.48376 396.43124Q588.15564 395.8375 588.4369 395.275L589.10876 395.275L589.10876 403.9ZM592.14 401.65L593.2494 401.55624Q593.3744 402.36874 593.8119 402.775Q594.265 403.18124 594.90564 403.18124Q595.65564 403.18124 596.1869 402.60312Q596.71814 402.025 596.71814 401.0875Q596.71814 400.18124 596.2025 399.66562Q595.7025 399.13437 594.8744 399.13437Q594.3744 399.13437 593.9525 399.36874Q593.54626 399.60312 593.3119 399.9625L592.3275 399.8375L593.15564 395.43124L597.4369 395.43124L597.4369 396.43124L593.9994 396.43124L593.54626 398.74374Q594.3119 398.19687 595.15564 398.19687Q596.28064 398.19687 597.04626 398.97812Q597.8275 399.75937 597.8275 400.99374Q597.8275 402.15 597.15564 403.00937Q596.3275 404.04062 594.90564 404.04062Q593.73376 404.04062 592.98376 403.38437Q592.2494 402.72812 592.14 401.65Z" fill-rule="nonzero"/><path fill="#000000" d="M722.9469 402.88437L722.9469 403.9L717.2594 403.9Q717.2594 403.525 717.3844 403.16562Q717.60315 402.5875 718.0719 402.025Q718.5563 401.4625 719.4625 400.72812Q720.8688 399.57187 721.35315 398.9Q721.85315 398.22812 721.85315 397.63437Q721.85315 397.00937 721.4 396.5875Q720.9469 396.15 720.22815 396.15Q719.4625 396.15 719.0094 396.60312Q718.5563 397.05624 718.54065 397.86874L717.4625 397.75937Q717.5719 396.54062 718.29065 395.91562Q719.025 395.275 720.2594 395.275Q721.4938 395.275 722.2125 395.9625Q722.9313 396.65 722.9313 397.66562Q722.9313 398.18124 722.7125 398.68124Q722.5094 399.16562 722.0094 399.72812Q721.525 400.275 720.4 401.22812Q719.4469 402.025 719.16565 402.32187Q718.9 402.60312 718.72815 402.88437L722.9469 402.88437ZM724.4 399.66562Q724.4 398.13437 724.7125 397.2125Q725.025 396.275 725.6344 395.775Q726.2594 395.275 727.1969 395.275Q727.8844 395.275 728.4 395.55624Q728.9313 395.8375 729.275 396.36874Q729.6188 396.88437 729.8063 397.63437Q729.9938 398.38437 729.9938 399.66562Q729.9938 401.18124 729.6813 402.10312Q729.3844 403.025 728.7594 403.54062Q728.15 404.04062 727.1969 404.04062Q725.9625 404.04062 725.2438 403.15Q724.4 402.0875 724.4 399.66562ZM725.47815 399.66562Q725.47815 401.775 725.97815 402.47812Q726.47815 403.18124 727.1969 403.18124Q727.9313 403.18124 728.41565 402.47812Q728.91565 401.775 728.91565 399.66562Q728.91565 397.54062 728.41565 396.85312Q727.9313 396.15 727.1813 396.15Q726.4625 396.15 726.025 396.75937Q725.47815 397.54062 725.47815 399.66562Z" fill-rule="nonzero"/><path fill="#999999" d="M24.25625 63.85L24.25625 53.834373L31.00625 53.834373L31.00625 55.00625L25.56875 55.00625L25.56875 58.115623L30.271875 58.115623L30.271875 59.303123L25.56875 59.303123L25.56875 63.85L24.25625 63.85ZM33.00625 63.85L33.00625 56.584373L34.115623 56.584373L34.115623 57.69375Q34.5375 56.9125 34.896873 56.678123Q35.25625 56.428123 35.69375 56.428123Q36.31875 56.428123 36.959373 56.81875L36.5375 57.959373Q36.084373 57.69375 35.63125 57.69375Q35.225 57.69375 34.896873 57.94375Q34.584373 58.178123 34.44375 58.615623Q34.240623 59.271873 34.240623 60.053123L34.240623 63.85L33.00625 63.85ZM37.56875 60.225Q37.56875 58.209373 38.69375 57.225Q39.615623 56.428123 40.975 56.428123Q42.459373 56.428123 43.4125 57.4125Q44.365623 58.38125 44.365623 60.115623Q44.365623 61.521873 43.94375 62.334373Q43.521873 63.13125 42.709373 63.584373Q41.9125 64.02187 40.975 64.02187Q39.44375 64.02187 38.50625 63.0375Q37.56875 62.053123 37.56875 60.225ZM38.834373 60.225Q38.834373 61.615623 39.44375 62.31875Q40.053123 63.00625 40.975 63.00625Q41.88125 63.00625 42.490623 62.303123Q43.1 61.6 43.1 60.178123Q43.1 58.834373 42.490623 58.146873Q41.88125 57.44375 40.975 57.44375Q40.053123 57.44375 39.44375 58.13125Q38.834373 58.81875 38.834373 60.225ZM46.021873 63.85L46.021873 56.584373L47.13125 56.584373L47.13125 57.615623Q47.459373 57.06875 48.021873 56.75625Q48.6 56.428123 49.31875 56.428123Q50.13125 56.428123 50.646873 56.771873Q51.1625 57.1 51.38125 57.69375Q52.240623 56.428123 53.615623 56.428123Q54.69375 56.428123 55.271873 57.021873Q55.865623 57.615623 55.865623 58.865623L55.865623 63.85L54.63125 63.85L54.63125 59.271873Q54.63125 58.5375 54.50625 58.209373Q54.396873 57.88125 54.084373 57.69375Q53.771873 57.490623 53.35 57.490623Q52.584373 57.490623 52.06875 58.00625Q51.56875 58.50625 51.56875 59.63125L51.56875 63.85L50.334373 63.85L50.334373 59.13125Q50.334373 58.31875 50.0375 57.9125Q49.740623 57.490623 49.053123 57.490623Q48.5375 57.490623 48.084373 57.771873Q47.646873 58.0375 47.44375 58.56875Q47.25625 59.084373 47.25625 60.084373L47.25625 63.85L46.021873 63.85ZM64.63125 63.85L64.63125 61.44375L60.271873 61.44375L60.271873 60.31875L64.85 53.834373L65.85 53.834373L65.85 60.31875L67.20937 60.31875L67.20937 61.44375L65.85 61.44375L65.85 63.85L64.63125 63.85ZM64.63125 60.31875L64.63125 55.803123L61.490623 60.31875L64.63125 60.31875ZM75.06875 56.2875L73.85 56.38125Q73.67812 55.646873 73.38125 55.31875Q72.88125 54.803123 72.14687 54.803123Q71.55312 54.803123 71.11562 55.13125Q70.5375 55.553123 70.19375 56.365623Q69.86562 57.178123 69.85 58.678123Q70.2875 58.00625 70.92812 57.678123Q71.58437 57.35 72.2875 57.35Q73.52187 57.35 74.38125 58.25625Q75.24062 59.1625 75.24062 60.6Q75.24062 61.5375 74.83437 62.35Q74.42812 63.1625 73.70937 63.6Q73.00625 64.02187 72.1 64.02187Q70.56875 64.02187 69.6 62.896873Q68.63125 61.75625 68.63125 59.1625Q68.63125 56.25625 69.69375 54.928123Q70.63125 53.7875 72.225 53.7875Q73.4125 53.7875 74.1625 54.459373Q74.9125 55.115623 75.06875 56.2875ZM70.0375 60.6Q70.0375 61.240623 70.30312 61.81875Q70.58437 62.396873 71.06875 62.709373Q71.55312 63.00625 72.08437 63.00625Q72.86562 63.00625 73.42812 62.38125Q73.99062 61.75625 73.99062 60.678123Q73.99062 59.63125 73.42812 59.0375Q72.88125 58.428123 72.0375 58.428123Q71.20937 58.428123 70.61562 59.0375Q70.0375 59.63125 70.0375 60.6ZM88.33437 60.334373L89.6625 60.678123Q89.24062 62.303123 88.14687 63.1625Q87.06875 64.02187 85.50625 64.02187Q83.88125 64.02187 82.86562 63.365623Q81.85 62.69375 81.31875 61.44375Q80.80312 60.19375 80.80312 58.75625Q80.80312 57.19375 81.39687 56.0375Q81.99062 54.865623 83.1 54.271873Q84.20937 53.6625 85.52187 53.6625Q87.0375 53.6625 88.05312 54.428123Q89.08437 55.19375 89.49062 56.56875L88.17812 56.88125Q87.83437 55.7875 87.1625 55.2875Q86.50625 54.7875 85.50625 54.7875Q84.35 54.7875 83.56875 55.35Q82.7875 55.896873 82.475 56.834373Q82.1625 57.771873 82.1625 58.75625Q82.1625 60.0375 82.5375 60.990623Q82.9125 61.94375 83.69375 62.4125Q84.475 62.88125 85.39687 62.88125Q86.50625 62.88125 87.27187 62.240623Q88.05312 61.6 88.33437 60.334373ZM91.02187 63.85L91.02187 53.834373L92.25625 53.834373L92.25625 57.428123Q93.11562 56.428123 94.42812 56.428123Q95.24062 56.428123 95.83437 56.75625Q96.42812 57.06875 96.67812 57.63125Q96.94375 58.178123 96.94375 59.25625L96.94375 63.85L95.70937 63.85L95.70937 59.25625Q95.70937 58.31875 95.30312 57.9125Q94.9125 57.490623 94.17812 57.490623Q93.63125 57.490623 93.14687 57.771873Q92.6625 58.053123 92.45937 58.5375Q92.25625 59.021873 92.25625 59.88125L92.25625 63.85L91.02187 63.85ZM103.75625 62.959373Q103.08437 63.5375 102.44375 63.7875Q101.81875 64.02187 101.08437 64.02187Q99.89687 64.02187 99.24062 63.44375Q98.6 62.85 98.6 61.928123Q98.6 61.396873 98.83437 60.959373Q99.08437 60.521873 99.475 60.25625Q99.88125 59.990623 100.36562 59.85Q100.725 59.75625 101.45937 59.6625Q102.95937 59.490623 103.6625 59.240623Q103.6625 58.990623 103.6625 58.928123Q103.6625 58.1625 103.31875 57.865623Q102.85 57.44375 101.9125 57.44375Q101.05312 57.44375 100.63125 57.75625Q100.225 58.053123 100.02187 58.81875L98.81875 58.6625Q98.975 57.88125 99.35 57.4125Q99.74062 56.94375 100.44375 56.69375Q101.1625 56.428123 102.1 56.428123Q103.02187 56.428123 103.6 56.646873Q104.17812 56.865623 104.44375 57.19375Q104.725 57.521873 104.83437 58.0375Q104.89687 58.35 104.89687 59.1625L104.89687 60.803123Q104.89687 62.521873 104.975 62.975Q105.05312 63.428123 105.2875 63.85L104.00625 63.85Q103.81875 63.459373 103.75625 62.959373ZM103.6625 60.209373Q102.99062 60.475 101.64687 60.678123Q100.89687 60.7875 100.56875 60.928123Q100.25625 61.053123 100.08437 61.31875Q99.9125 61.584373 99.9125 61.896873Q99.9125 62.396873 100.2875 62.725Q100.6625 63.053123 101.38125 63.053123Q102.1 63.053123 102.64687 62.740623Q103.19375 62.428123 103.45937 61.88125Q103.6625 61.475 103.6625 60.6625L103.6625 60.209373ZM109.70937 62.75625L109.88125 63.834373Q109.36562 63.94375 108.95937 63.94375Q108.2875 63.94375 107.9125 63.740623Q107.55312 63.521873 107.39687 63.178123Q107.25625 62.834373 107.25625 61.725L107.25625 57.553123L106.35 57.553123L106.35 56.584373L107.25625 56.584373L107.25625 54.7875L108.475 54.053123L108.475 56.584373L109.70937 56.584373L109.70937 57.553123L108.475 57.553123L108.475 61.7875Q108.475 62.31875 108.5375 62.475Q108.6 62.615623 108.74062 62.709373Q108.89687 62.803123 109.1625 62.803123Q109.38125 62.803123 109.70937 62.75625ZM110.5375 61.678123L111.74062 61.490623Q111.85 62.225 112.31875 62.615623Q112.7875 63.00625 113.63125 63.00625Q114.475 63.00625 114.88125 62.6625Q115.30312 62.31875 115.30312 61.85Q115.30312 61.428123 114.92812 61.19375Q114.67812 61.021873 113.67812 60.771873Q112.31875 60.428123 111.7875 60.178123Q111.27187 59.928123 111.00625 59.490623Q110.74062 59.053123 110.74062 58.521873Q110.74062 58.0375 110.95937 57.63125Q111.17812 57.209373 111.56875 56.928123Q111.85 56.725 112.33437 56.584373Q112.83437 56.428123 113.4125 56.428123Q114.25625 56.428123 114.89687 56.678123Q115.55312 56.9125 115.86562 57.334373Q116.17812 57.75625 116.2875 58.459373L115.08437 58.63125Q115.00625 58.06875 114.6 57.75625Q114.20937 57.44375 113.49062 57.44375Q112.64687 57.44375 112.2875 57.725Q111.92812 57.990623 111.92812 58.38125Q111.92812 58.615623 112.06875 58.803123Q112.225 59.00625 112.55312 59.13125Q112.725 59.19375 113.63125 59.44375Q114.94375 59.803123 115.45937 60.021873Q115.975 60.240623 116.25625 60.6625Q116.55312 61.084373 116.55312 61.709373Q116.55312 62.334373 116.19375 62.88125Q115.85 63.4125 115.1625 63.725Q114.49062 64.02187 113.63125 64.02187Q112.225 64.02187 111.475 63.428123Q110.74062 62.834373 110.5375 61.678123Z" fill-rule="nonzero"/><path fill="#757575" d="M24.396875 27.209373L29.1625 27.209373Q30.771875 27.209373 31.615625 27.459373Q32.740623 27.787498 33.553123 28.646873Q34.365623 29.506248 34.7875 30.740623Q35.209373 31.974998 35.209373 33.7875Q35.209373 35.365623 34.803123 36.521873Q34.31875 37.928123 33.428123 38.803123Q32.75625 39.459373 31.6 39.834373Q30.740625 40.1 29.303125 40.1L24.396875 40.1L24.396875 27.209373ZM27.00625 29.396873L27.00625 37.928123L28.94375 37.928123Q30.0375 37.928123 30.521875 37.803123Q31.146875 37.646873 31.56875 37.271873Q31.990625 36.896873 32.240623 36.0375Q32.50625 35.1625 32.50625 33.6625Q32.50625 32.178123 32.240623 31.381248Q31.990625 30.568748 31.50625 30.131248Q31.0375 29.678123 30.303125 29.521873Q29.75625 29.396873 28.178125 29.396873L27.00625 29.396873ZM36.81875 35.303123Q36.81875 34.06875 37.428123 32.928123Q38.0375 31.771873 39.146873 31.162498Q40.25625 30.553123 41.63125 30.553123Q43.740623 30.553123 45.1 31.928123Q46.459373 33.303123 46.459373 35.4125Q46.459373 37.521873 45.084373 38.928123Q43.725 40.31875 41.646873 40.31875Q40.365623 40.31875 39.19375 39.740623Q38.0375 39.146873 37.428123 38.0375Q36.81875 36.9125 36.81875 35.303123ZM39.35 35.428123Q39.35 36.81875 40.00625 37.56875Q40.678123 38.303123 41.63125 38.303123Q42.6 38.303123 43.25625 37.56875Q43.9125 36.81875 43.9125 35.4125Q43.9125 34.0375 43.25625 33.303123Q42.6 32.56875 41.63125 32.56875Q40.678123 32.56875 40.00625 33.303123Q39.35 34.0375 39.35 35.428123ZM50.13125 40.1L47.178123 30.771873L49.584373 30.771873L51.334373 36.88125L52.94375 30.771873L55.31875 30.771873L56.88125 36.88125L58.6625 30.771873L61.1 30.771873L58.1 40.1L55.725 40.1L54.115623 34.1L52.5375 40.1L50.13125 40.1ZM71.88125 40.1L69.4125 40.1L69.4125 35.334373Q69.4125 33.81875 69.25625 33.38125Q69.1 32.94375 68.74062 32.69375Q68.38125 32.44375 67.88125 32.44375Q67.24062 32.44375 66.725 32.803123Q66.225 33.146873 66.0375 33.725Q65.85 34.303123 65.85 35.865623L65.85 40.1L63.38125 40.1L63.38125 30.771873L65.6625 30.771873L65.6625 32.13125Q66.89687 30.553123 68.74062 30.553123Q69.56875 30.553123 70.24062 30.849998Q70.9125 31.146873 71.25625 31.599998Q71.61562 32.053123 71.74062 32.646873Q71.88125 33.225 71.88125 34.303123L71.88125 40.1ZM74.1625 40.709373L76.99062 41.053123Q77.05312 41.553123 77.30312 41.740623Q77.6625 42.00625 78.4125 42.00625Q79.38125 42.00625 79.86562 41.709373Q80.19375 41.521873 80.36562 41.084373Q80.475 40.771873 80.475 39.94375L80.475 38.584373Q79.36562 40.1 77.67812 40.1Q75.80312 40.1 74.69375 38.50625Q73.83437 37.25625 73.83437 35.38125Q73.83437 33.0375 74.95937 31.803123Q76.1 30.553123 77.77187 30.553123Q79.50625 30.553123 80.63125 32.06875L80.63125 30.771873L82.94375 30.771873L82.94375 39.146873Q82.94375 40.7875 82.6625 41.6Q82.39687 42.428123 81.89687 42.896873Q81.4125 43.365623 80.58437 43.615623Q79.77187 43.88125 78.52187 43.88125Q76.14687 43.88125 75.14687 43.06875Q74.1625 42.25625 74.1625 41.021873Q74.1625 40.896873 74.1625 40.709373ZM76.36562 35.240623Q76.36562 36.725 76.94375 37.4125Q77.52187 38.1 78.36562 38.1Q79.27187 38.1 79.89687 37.396873Q80.52187 36.69375 80.52187 35.303123Q80.52187 33.85 79.9125 33.146873Q79.31875 32.44375 78.4125 32.44375Q77.52187 32.44375 76.94375 33.13125Q76.36562 33.81875 76.36562 35.240623ZM87.75625 40.1L85.2875 40.1L85.2875 30.771873L87.58437 30.771873L87.58437 32.1Q88.1625 31.146873 88.63125 30.849998Q89.11562 30.553123 89.70937 30.553123Q90.55312 30.553123 91.33437 31.021873L90.56875 33.178123Q89.94375 32.771873 89.4125 32.771873Q88.89687 32.771873 88.52187 33.053123Q88.1625 33.334373 87.95937 34.084373Q87.75625 34.834373 87.75625 37.209373L87.75625 40.1ZM94.24062 33.615623L91.99062 33.209373Q92.38125 31.849998 93.30312 31.209373Q94.225 30.553123 96.0375 30.553123Q97.69375 30.553123 98.49062 30.943748Q99.30312 31.334373 99.63125 31.943748Q99.975 32.5375 99.975 34.146873L99.94375 37.0375Q99.94375 38.25625 100.05312 38.85Q100.17812 39.428123 100.50625 40.1L98.06875 40.1Q97.95937 39.85 97.81875 39.365623Q97.75625 39.146873 97.74062 39.084373Q97.1 39.69375 96.38125 40.00625Q95.6625 40.31875 94.85 40.31875Q93.39687 40.31875 92.56875 39.5375Q91.74062 38.740623 91.74062 37.553123Q91.74062 36.75625 92.11562 36.146873Q92.49062 35.521873 93.17812 35.19375Q93.86562 34.865623 95.14687 34.615623Q96.88125 34.2875 97.5375 34.00625L97.5375 33.75625Q97.5375 33.053123 97.17812 32.75625Q96.83437 32.44375 95.86562 32.44375Q95.20937 32.44375 94.83437 32.709373Q94.45937 32.959373 94.24062 33.615623ZM97.5375 35.615623Q97.06875 35.771873 96.0375 35.990623Q95.00625 36.209373 94.69375 36.428123Q94.20937 36.771873 94.20937 37.303123Q94.20937 37.81875 94.6 38.19375Q94.99062 38.56875 95.58437 38.56875Q96.25625 38.56875 96.85 38.13125Q97.30312 37.803123 97.44375 37.31875Q97.5375 36.990623 97.5375 36.115623L97.5375 35.615623ZM110.95937 40.1L108.6625 40.1L108.6625 38.725Q108.08437 39.521873 107.30312 39.928123Q106.5375 40.31875 105.74062 40.31875Q104.13125 40.31875 102.975 39.021873Q101.83437 37.725 101.83437 35.396873Q101.83437 33.021873 102.94375 31.787498Q104.06875 30.553123 105.77187 30.553123Q107.33437 30.553123 108.49062 31.849998L108.49062 27.209373L110.95937 27.209373L110.95937 40.1ZM104.36562 35.225Q104.36562 36.725 104.77187 37.396873Q105.36562 38.365623 106.44375 38.365623Q107.30312 38.365623 107.89687 37.646873Q108.49062 36.9125 108.49062 35.475Q108.49062 33.865623 107.9125 33.1625Q107.33437 32.44375 106.42812 32.44375Q105.55312 32.44375 104.95937 33.146873Q104.36562 33.834373 104.36562 35.225ZM118.80312 37.13125L121.25625 37.5375Q120.7875 38.896873 119.75625 39.615623Q118.74062 40.31875 117.19375 40.31875Q114.75625 40.31875 113.6 38.725Q112.67812 37.44375 112.67812 35.50625Q112.67812 33.178123 113.88125 31.865623Q115.1 30.553123 116.95937 30.553123Q119.0375 30.553123 120.24062 31.928123Q121.44375 33.303123 121.39687 36.146873L115.20937 36.146873Q115.225 37.240623 115.7875 37.85Q116.36562 38.459373 117.225 38.459373Q117.80312 38.459373 118.19375 38.146873Q118.6 37.834373 118.80312 37.13125ZM118.94375 34.63125Q118.9125 33.553123 118.38125 33.00625Q117.85 32.44375 117.1 32.44375Q116.2875 32.44375 115.77187 33.0375Q115.24062 33.615623 115.24062 34.63125L118.94375 34.63125ZM129.4125 40.1L129.4125 27.209373L134.89688 27.209373Q136.95938 27.209373 137.89688 27.568748Q138.83438 27.912498 139.39688 28.803123Q139.95938 29.678123 139.95938 30.834373Q139.95938 32.271873 139.1 33.225Q138.25626 34.1625 136.55313 34.4125Q137.39688 34.9125 137.94376 35.50625Q138.49063 36.084373 139.42813 37.584373L141.00626 40.1L137.89688 40.1L136.00626 37.303123Q135.00626 35.7875 134.63126 35.396873Q134.27188 35.00625 133.85 34.865623Q133.44376 34.725 132.55313 34.725L132.02188 34.725L132.02188 40.1L129.4125 40.1ZM132.02188 32.6625L133.94376 32.6625Q135.81876 32.6625 136.2875 32.50625Q136.75626 32.35 137.00626 31.959373Q137.27188 31.568748 137.27188 30.990623Q137.27188 30.349998 136.92813 29.943748Q136.58438 29.537498 135.94376 29.443748Q135.63126 29.396873 134.05313 29.396873L132.02188 29.396873L132.02188 32.6625ZM147.80313 37.13125L150.25626 37.5375Q149.7875 38.896873 148.75626 39.615623Q147.74063 40.31875 146.19376 40.31875Q143.75626 40.31875 142.6 38.725Q141.67813 37.44375 141.67813 35.50625Q141.67813 33.178123 142.88126 31.865623Q144.1 30.553123 145.95938 30.553123Q148.0375 30.553123 149.24063 31.928123Q150.44376 33.303123 150.39688 36.146873L144.20938 36.146873Q144.225 37.240623 144.7875 37.85Q145.36563 38.459373 146.225 38.459373Q146.80313 38.459373 147.19376 38.146873Q147.6 37.834373 147.80313 37.13125ZM147.94376 34.63125Q147.9125 33.553123 147.38126 33.00625Q146.85 32.44375 146.1 32.44375Q145.2875 32.44375 144.77188 33.0375Q144.24063 33.615623 144.24063 34.63125L147.94376 34.63125ZM155.24063 33.615623L152.99063 33.209373Q153.38126 31.849998 154.30313 31.209373Q155.225 30.553123 157.0375 30.553123Q158.69376 30.553123 159.49063 30.943748Q160.30313 31.334373 160.63126 31.943748Q160.975 32.5375 160.975 34.146873L160.94376 37.0375Q160.94376 38.25625 161.05313 38.85Q161.17813 39.428123 161.50626 40.1L159.06876 40.1Q158.95938 39.85 158.81876 39.365623Q158.75626 39.146873 158.74063 39.084373Q158.1 39.69375 157.38126 40.00625Q156.6625 40.31875 155.85 40.31875Q154.39688 40.31875 153.56876 39.5375Q152.74063 38.740623 152.74063 37.553123Q152.74063 36.75625 153.11563 36.146873Q153.49063 35.521873 154.17813 35.19375Q154.86563 34.865623 156.14688 34.615623Q157.88126 34.2875 158.5375 34.00625L158.5375 33.75625Q158.5375 33.053123 158.17813 32.75625Q157.83438 32.44375 156.86563 32.44375Q156.20938 32.44375 155.83438 32.709373Q155.45938 32.959373 155.24063 33.615623ZM158.5375 35.615623Q158.06876 35.771873 157.0375 35.990623Q156.00626 36.209373 155.69376 36.428123Q155.20938 36.771873 155.20938 37.303123Q155.20938 37.81875 155.6 38.19375Q155.99063 38.56875 156.58438 38.56875Q157.25626 38.56875 157.85 38.13125Q158.30313 37.803123 158.44376 37.31875Q158.5375 36.990623 158.5375 36.115623L158.5375 35.615623ZM162.52188 37.44375L165.00626 37.053123Q165.1625 37.771873 165.64688 38.146873Q166.13126 38.521873 166.99063 38.521873Q167.95938 38.521873 168.44376 38.178123Q168.75626 37.928123 168.75626 37.521873Q168.75626 37.240623 168.58438 37.053123Q168.39688 36.88125 167.75626 36.725Q164.77188 36.06875 163.975 35.521873Q162.86563 34.771873 162.86563 33.4125Q162.86563 32.209373 163.81876 31.381248Q164.7875 30.553123 166.7875 30.553123Q168.70938 30.553123 169.63126 31.178123Q170.56876 31.803123 170.92813 33.021873L168.6 33.459373Q168.44376 32.9125 168.02188 32.63125Q167.61563 32.334373 166.83438 32.334373Q165.86563 32.334373 165.44376 32.6Q165.1625 32.803123 165.1625 33.1Q165.1625 33.365623 165.4125 33.553123Q165.74063 33.803123 167.70938 34.25625Q169.67813 34.69375 170.475 35.35Q171.24063 36.00625 171.24063 37.178123Q171.24063 38.459373 170.1625 39.396873Q169.1 40.31875 166.99063 40.31875Q165.08438 40.31875 163.975 39.5375Q162.86563 38.75625 162.52188 37.44375ZM172.81876 35.303123Q172.81876 34.06875 173.42813 32.928123Q174.0375 31.771873 175.14688 31.162498Q176.25626 30.553123 177.63126 30.553123Q179.74063 30.553123 181.1 31.928123Q182.45938 33.303123 182.45938 35.4125Q182.45938 37.521873 181.08438 38.928123Q179.725 40.31875 177.64688 40.31875Q176.36563 40.31875 175.19376 39.740623Q174.0375 39.146873 173.42813 38.0375Q172.81876 36.9125 172.81876 35.303123ZM175.35 35.428123Q175.35 36.81875 176.00626 37.56875Q176.67813 38.303123 177.63126 38.303123Q178.6 38.303123 179.25626 37.56875Q179.9125 36.81875 179.9125 35.4125Q179.9125 34.0375 179.25626 33.303123Q178.6 32.56875 177.63126 32.56875Q176.67813 32.56875 176.00626 33.303123Q175.35 34.0375 175.35 35.428123ZM192.88126 40.1L190.4125 40.1L190.4125 35.334373Q190.4125 33.81875 190.25626 33.38125Q190.1 32.94375 189.74063 32.69375Q189.38126 32.44375 188.88126 32.44375Q188.24063 32.44375 187.725 32.803123Q187.225 33.146873 187.0375 33.725Q186.85 34.303123 186.85 35.865623L186.85 40.1L184.38126 40.1L184.38126 30.771873L186.6625 30.771873L186.6625 32.13125Q187.89688 30.553123 189.74063 30.553123Q190.56876 30.553123 191.24063 30.849998Q191.9125 31.146873 192.25626 31.599998Q192.61563 32.053123 192.74063 32.646873Q192.88126 33.225 192.88126 34.303123L192.88126 40.1ZM194.52188 37.44375L197.00626 37.053123Q197.1625 37.771873 197.64688 38.146873Q198.13126 38.521873 198.99063 38.521873Q199.95938 38.521873 200.44376 38.178123Q200.75626 37.928123 200.75626 37.521873Q200.75626 37.240623 200.58438 37.053123Q200.39688 36.88125 199.75626 36.725Q196.77188 36.06875 195.975 35.521873Q194.86563 34.771873 194.86563 33.4125Q194.86563 32.209373 195.81876 31.381248Q196.7875 30.553123 198.7875 30.553123Q200.70938 30.553123 201.63126 31.178123Q202.56876 31.803123 202.92813 33.021873L200.6 33.459373Q200.44376 32.9125 200.02188 32.63125Q199.61563 32.334373 198.83438 32.334373Q197.86563 32.334373 197.44376 32.6Q197.1625 32.803123 197.1625 33.1Q197.1625 33.365623 197.4125 33.553123Q197.74063 33.803123 199.70938 34.25625Q201.67813 34.69375 202.475 35.35Q203.24063 36.00625 203.24063 37.178123Q203.24063 38.459373 202.1625 39.396873Q201.1 40.31875 198.99063 40.31875Q197.08438 40.31875 195.975 39.5375Q194.86563 38.75625 194.52188 37.44375Z" fill-rule="nonzero"/></svg>